<?xml version="1.0" encoding="UTF-8"?>
<svg width="206px" height="127px" viewBox="0 0 206 127" version="1.1" xmlns="http://www.w3.org/2000/svg" xmlns:xlink="http://www.w3.org/1999/xlink">
    <title>Components / Image / Theory Lectures / 5 Active</title>
    <defs>
        <rect id="path-1" x="0" y="0" width="206" height="127"></rect>
    </defs>
    <g id="Components-/-Image-/-Theory-Lectures-/-5-Active" stroke="none" stroke-width="1" fill="none" fill-rule="evenodd">
        <mask id="mask-2" fill="white">
            <use xlink:href="#path-1"></use>
        </mask>
        <use id="Rectangle" fill="#00B0B9" xlink:href="#path-1"></use>
        <g id="5" mask="url(#mask-2)">
            <g transform="translate(0.000000, 29.000000)">
                <rect id="Rectangle_6537" fill="#3E4B4C" fill-rule="nonzero" x="0" y="55.4332267" width="206" height="13.23344"></rect>
                <polygon id="Path_21708" fill="#3E4B4C" fill-rule="nonzero" points="135.524653 0 105.10532 68.6666667 196.611893 68.6666667 166.193933 0"></polygon>
                <g id="Group_10118" stroke-width="1" fill="none" fill-rule="evenodd" transform="translate(149.571107, 19.719693)">
                    <g id="Group_10117" transform="translate(3.515733, 0.000000)" fill-rule="nonzero">
                        <path d="M17.3479467,14.1000133 L16.3866133,14.1000133 C15.7163226,14.1519636 15.2128103,14.7338816 15.2577333,15.40468 L15.2577333,17.1804 C15.2128103,17.8511984 15.7163226,18.4331164 16.3866133,18.4850667 L17.3479467,18.4850667 C18.0186009,18.4338371 18.5225151,17.8514545 18.4768267,17.1804 L18.4768267,15.40468 C18.5225151,14.7336255 18.0186009,14.1512429 17.3479467,14.1000133 L17.3479467,14.1000133 Z" id="Path_21709" fill="#112223"></path>
                        <path d="M3.91125333,14.1000133 L2.94992,14.1000133 C2.27962924,14.1519636 1.77611701,14.7338816 1.82104,15.40468 L1.82104,17.1804 C1.77611701,17.8511984 2.27962924,18.4331164 2.94992,18.4850667 L3.91125333,18.4850667 C4.58154409,18.4331164 5.08505632,17.8511984 5.04013333,17.1804 L5.04013333,15.40468 C5.08505632,14.7338816 4.58154409,14.1519636 3.91125333,14.1000133 L3.91125333,14.1000133 Z" id="Path_21710" fill="#112223"></path>
                        <path d="M4.13373333,7.38578667 L16.3426667,7.38578667 C18.6256645,7.38578667 20.4764,9.23652212 20.4764,11.51952 L20.4764,11.51952 C20.4764,13.8025179 18.6256645,15.6532533 16.3426667,15.6532533 L4.13373333,15.6532533 C1.85073545,15.6532533 0,13.8025179 0,11.51952 L0,11.51952 C0,9.23652212 1.85073545,7.38578667 4.13373333,7.38578667 Z" id="Rectangle_6538" fill="#112223"></path>
                        <path d="M17.31224,8.99533333 C16.6840131,8.99533333 16.1176454,9.37376811 15.8772334,9.95417412 C15.6368213,10.5345801 15.7697099,11.2026563 16.2139335,11.6468799 C16.658157,12.0911034 17.3262332,12.223992 17.9066392,11.98358 C18.4870452,11.7431679 18.86548,11.1768003 18.86548,10.5485733 C18.86548,9.69074257 18.1700708,8.99533333 17.31224,8.99533333 L17.31224,8.99533333 Z" id="Path_21711" fill="#D81600"></path>
                        <path d="M2.77688,8.99533333 C1.91904924,8.99533333 1.22364,9.69074257 1.22364,10.5485733 C1.22364,11.4064041 1.91904924,12.1018133 2.77688,12.1018133 C3.63471076,12.1018133 4.33012,11.4064041 4.33012,10.5485733 C4.33012,9.69074257 3.63471076,8.99533333 2.77688,8.99533333 Z" id="Path_21712" fill="#D81600"></path>
                        <path d="M5.68148,8.97748 L5.68148,10.3508133 C5.68148,11.7241467 9.93881333,12.0894533 9.93881333,12.0894533 C9.93881333,12.0894533 14.1961467,11.7186533 14.1961467,10.3508133 L14.1961467,8.97748 L5.69521333,8.97748 L5.68148,8.97748 Z" id="Path_21713" fill="#C8D1CC"></path>
                        <path d="M10.20524,0.00549333333 C10.20524,0.00549333333 5.47822667,-0.105746667 4.77782667,0.616626667 C3.61246552,2.83815857 2.60648182,5.13971344 1.76748,7.50389333 L18.643,7.50389333 C17.8037787,5.13980024 16.7978017,2.83826073 15.6326533,0.616626667 C14.9322533,-0.10712 10.20524,0.00549333333 10.20524,0.00549333333 Z" id="Path_21714" fill="#112223"></path>
                        <path d="M10.20524,1.17557333 C10.20524,1.17557333 6.21570667,1.08081333 5.6238,1.69057333 C4.64056643,3.56538425 3.79154729,5.50757291 3.08313333,7.50252 L17.3259733,7.50252 C16.6175594,5.50757291 15.7685402,3.56538425 14.7853067,1.69057333 C14.1961467,1.08218667 10.20524,1.17557333 10.20524,1.17557333 Z" id="Path_21715" fill="#B8C3BD"></path>
                        <rect id="Rectangle_6539" fill="#FFFFFF" x="16.4333067" y="13.70312" width="2.04489333" height="1"></rect>
                        <rect id="Rectangle_6540" fill="#FFFFFF" x="1.75374667" y="13.70312" width="2.04489333" height="1"></rect>
                    </g>
                    <polygon id="Path_21716" fill="#B8C3BD" fill-rule="nonzero" opacity="0.75" style="mix-blend-mode: screen;" points="20.8266 9.25489333 15.7315333 5.36012 19.6263067 10.4551867 15.7315333 15.5516267 20.8279733 11.6568533 25.92304 15.5516267 22.0282667 10.46068 25.92304 5.36561333"></polygon>
                    <polygon id="Path_21717" fill="#B8C3BD" fill-rule="nonzero" opacity="0.75" style="mix-blend-mode: screen;" points="6.28986667 9.25489333 1.19342667 5.36012 5.0882 10.4551867 1.19342667 15.5516267 6.28986667 11.6568533 11.3849333 15.5516267 7.49153333 10.46068 11.3863067 5.36561333"></polygon>
                    <path d="M20.8279733,4.25733333 C17.3534174,4.25733333 14.5367333,7.07401742 14.5367333,10.5485733 C14.5367333,14.0231292 17.3534174,16.8398133 20.8279733,16.8398133 C24.3025292,16.8398133 27.1192133,14.0231292 27.1192133,10.5485733 C27.1192133,7.07401742 24.3025292,4.25733333 20.8279733,4.25733333 Z" id="Path_21718" fill="#B8C3BD" fill-rule="nonzero" opacity="0.21" style="mix-blend-mode: screen;"></path>
                    <path d="M20.8279733,5.98910667 C18.3098494,5.98910667 16.2685067,8.03044943 16.2685067,10.5485733 C16.2685067,13.0666972 18.3098494,15.10804 20.8279733,15.10804 C23.3460972,15.10804 25.38744,13.0666972 25.38744,10.5485733 C25.386682,8.03076348 23.3457832,5.9898647 20.8279733,5.98910667 L20.8279733,5.98910667 Z" id="Path_21719" fill="#B8C3BD" fill-rule="nonzero" opacity="0.32" style="mix-blend-mode: screen;"></path>
                    <circle id="Ellipse_353" fill="#B8C3BD" fill-rule="nonzero" opacity="0.21" style="mix-blend-mode: screen;" cx="6.29124" cy="10.5485733" r="6.29124"></circle>
                    <path d="M6.29124,5.98910667 C3.77311609,5.98910667 1.73177333,8.03044943 1.73177333,10.5485733 C1.73177333,13.0666972 3.77311609,15.10804 6.29124,15.10804 C8.80936391,15.10804 10.8507067,13.0666972 10.8507067,10.5485733 C10.8499486,8.03076348 8.80904985,5.9898647 6.29124,5.98910667 L6.29124,5.98910667 Z" id="Path_21720" fill="#B8C3BD" fill-rule="nonzero" opacity="0.32" style="mix-blend-mode: screen;"></path>
                </g>
                <g id="Group_10120" stroke-width="1" fill="none" fill-rule="evenodd" transform="translate(151.265800, 2.506333)">
                    <g id="Group_10119" transform="translate(1.896573, 0.000000)" fill-rule="nonzero">
                        <path d="M9.35926667,7.60689333 L8.83602667,7.60689333 C8.47413242,7.63398794 8.20186479,7.94795422 8.22626667,8.31004 L8.22626667,9.27137333 C8.20262974,9.63320216 8.47449506,9.94670451 8.83602667,9.97452 L9.35377333,9.97452 C9.71475586,9.94599482 9.98582312,9.63270715 9.96216,9.27137333 L9.96216,8.31004 C9.98669523,7.95042429 9.71841392,7.63753129 9.35926667,7.60689333 Z" id="Path_21721" fill="#112223"></path>
                        <path d="M2.11081333,7.60689333 L1.59306667,7.60689333 C1.23117242,7.63398794 0.958904789,7.94795422 0.983306667,8.31004 L0.983306667,9.27137333 C0.959669744,9.63320216 1.23153506,9.94670451 1.59306667,9.97452 L2.11081333,9.97452 C2.47234494,9.94670451 2.74421026,9.63320216 2.72057333,9.27137333 L2.72057333,8.31004 C2.74497521,7.94795422 2.47270758,7.63398794 2.11081333,7.60689333 L2.11081333,7.60689333 Z" id="Path_21722" fill="#112223"></path>
                        <path d="M2.23029333,3.98541333 L8.82229333,3.98541333 C10.0513679,3.98919745 11.04572,4.9866263 11.04572,6.21570667 L11.04572,6.21570667 C11.04572,6.80721724 10.8107433,7.37450107 10.3924822,7.79276221 C9.97422107,8.21102334 9.40693724,8.446 8.81542667,8.446 L2.22342667,8.446 C0.994352121,8.44221589 -2.47612301e-16,7.44478704 -2.47612301e-16,6.21570667 L-2.47612301e-16,6.21570667 C-2.47612301e-16,4.98394967 0.998536338,3.98541333 2.23029333,3.98541333 Z" id="Rectangle_6541" fill="#112223"></path>
                        <path d="M9.33866667,4.85336 C8.87599932,4.85336 8.50093333,5.22842599 8.50093333,5.69109333 C8.50093333,6.15376068 8.87599932,6.52882667 9.33866667,6.52882667 C9.80133401,6.52882667 10.1764,6.15376068 10.1764,5.69109333 C10.1764,5.22842599 9.80133401,4.85336 9.33866667,4.85336 Z" id="Path_21723" fill="#D81600"></path>
                        <path d="M1.49693333,4.85336 C1.03426599,4.85336 0.6592,5.22842599 0.6592,5.69109333 C0.6592,6.15376068 1.03426599,6.52882667 1.49693333,6.52882667 C1.95960068,6.52882667 2.33466667,6.15376068 2.33466667,5.69109333 C2.33466667,5.46891264 2.24640573,5.25583189 2.08930025,5.09872641 C1.93219478,4.94162094 1.71911403,4.85336 1.49693333,4.85336 L1.49693333,4.85336 Z" id="Path_21724" fill="#D81600"></path>
                        <path d="M3.06528,4.84374667 L3.06528,5.5826 C3.06528,6.32008 5.35874667,6.52058667 5.35874667,6.52058667 C5.35874667,6.52058667 7.65221333,6.32008 7.65221333,5.5826 L7.65221333,4.84374667 L3.06528,4.84374667 L3.06528,4.84374667 Z" id="Path_21725" fill="#C8D1CC"></path>
                        <path d="M5.50432,0.00274666667 C5.50432,0.00274666667 2.95404,-0.0563066667 2.57637333,0.332346667 C1.94823165,1.53074771 1.40578042,2.77214414 0.953093333,4.04721333 L10.05692,4.04721333 C9.60395085,2.7720424 9.06103534,1.53063374 8.43226667,0.332346667 C8.05597333,-0.0563066667 5.50432,0.00274666667 5.50432,0.00274666667 Z" id="Path_21726" fill="#112223"></path>
                        <path d="M5.50569333,0.63448 C5.50569333,0.63448 3.35368,0.583666667 3.03369333,0.909146667 C2.50218859,1.92038529 2.04325378,2.96813346 1.66036,4.04446667 L9.34416,4.04446667 C8.96123605,2.96814541 8.50230217,1.92039935 7.97082667,0.909146667 C7.65908,0.583666667 5.50569333,0.63448 5.50569333,0.63448 Z" id="Path_21727" fill="#B8C3BD"></path>
                        <rect id="Rectangle_6542" fill="#FFFFFF" x="8.86486667" y="7.39265333" width="1.10278667" height="1"></rect>
                        <rect id="Rectangle_6543" fill="#FFFFFF" x="0.946226667" y="7.39265333" width="1.10278667" height="1"></rect>
                    </g>
                    <polygon id="Path_21728" fill="#B8C3BD" fill-rule="nonzero" opacity="0.75" style="mix-blend-mode: screen;" points="11.2366133 4.99344 8.48994667 2.89224 10.5911467 5.63890667 8.48994667 8.38557333 11.2366133 6.28437333 13.98328 8.38557333 11.88208 5.63890667 13.98328 2.89224"></polygon>
                    <polygon id="Path_21729" fill="#B8C3BD" fill-rule="nonzero" opacity="0.75" style="mix-blend-mode: screen;" points="3.39350667 4.99344 0.64684 2.89224 2.74804 5.63890667 0.64684 8.38557333 3.39350667 6.28437333 6.14017333 8.38557333 4.03897333 5.63890667 6.14017333 2.89224"></polygon>
                    <circle id="Ellipse_354" fill="#B8C3BD" fill-rule="nonzero" opacity="0.21" style="mix-blend-mode: screen;" transform="translate(11.236786, 5.690786) rotate(-67.613634) translate(-11.236786, -5.690786) " cx="11.2367864" cy="5.69078571" r="3.39484005"></circle>
                    <path d="M11.23936,3.23145333 C9.88093834,3.23145333 8.77972,4.33267167 8.77972,5.69109333 C8.77972,7.049515 9.88093834,8.15073333 11.23936,8.15073333 C12.5977817,8.15073333 13.699,7.049515 13.699,5.69109333 C13.6982423,4.33298563 12.5974677,3.23221099 11.23936,3.23145333 L11.23936,3.23145333 Z" id="Path_21730" fill="#B8C3BD" fill-rule="nonzero" opacity="0.32" style="mix-blend-mode: screen;"></path>
                    <path d="M3.39350667,2.29758667 C1.51932469,2.29758667 -7.80649619e-14,3.81691135 -7.80649619e-14,5.69109333 C-7.80649619e-14,7.56527531 1.51932469,9.0846 3.39350667,9.0846 C5.26768865,9.0846 6.78701333,7.56527531 6.78701333,5.69109333 C6.78625545,3.81722537 5.26737463,2.29834455 3.39350667,2.29758667 L3.39350667,2.29758667 Z" id="Path_21731" fill="#B8C3BD" fill-rule="nonzero" opacity="0.21" style="mix-blend-mode: screen;"></path>
                    <path d="M3.39350667,3.23145333 C2.035085,3.23145333 0.933866667,4.33267167 0.933866667,5.69109333 C0.933866667,7.049515 2.035085,8.15073333 3.39350667,8.15073333 C4.75192833,8.15073333 5.85314667,7.049515 5.85314667,5.69109333 C5.85314667,4.33267167 4.75192833,3.23145333 3.39350667,3.23145333 Z" id="Path_21732" fill="#B8C3BD" fill-rule="nonzero" opacity="0.32" style="mix-blend-mode: screen;"></path>
                </g>
                <g id="Group_10122" stroke-width="1" fill="none" fill-rule="evenodd" transform="translate(131.084667, 10.563680)">
                    <g id="Group_10121" transform="translate(2.743920, 0.000000)" fill-rule="nonzero">
                        <path d="M13.54244,11.0058933 L12.7926,11.0058933 C12.2705599,11.0482876 11.8785241,11.5007775 11.91092,12.0235333 L11.91092,13.4106 C11.8785241,13.9333558 12.2705599,14.3858457 12.7926,14.42824 L13.54244,14.42824 C14.0644801,14.3858457 14.4565159,13.9333558 14.42412,13.4106 L14.42412,12.0235333 C14.4565159,11.5007775 14.0644801,11.0482876 13.54244,11.0058933 L13.54244,11.0058933 Z" id="Path_21733" fill="#112223"></path>
                        <path d="M3.05429333,11.0058933 L2.30445333,11.0058933 C1.78241322,11.0482876 1.39037747,11.5007775 1.42277333,12.0235333 L1.42277333,13.4106 C1.39037747,13.9333558 1.78241322,14.3858457 2.30445333,14.42824 L3.05429333,14.42824 C3.57578453,14.3851416 3.96702651,13.9328634 3.9346,13.4106 L3.9346,12.0235333 C3.96702651,11.5012699 3.57578453,11.0489918 3.05429333,11.0058933 L3.05429333,11.0058933 Z" id="Path_21734" fill="#112223"></path>
                        <rect id="Rectangle_6544" fill="#112223" x="0" y="5.76525333" width="15.9828533" height="6.45329333" rx="2.35"></rect>
                        <path d="M13.5149733,7.02185333 C12.8452434,7.02185333 12.30232,7.56477672 12.30232,8.23450667 C12.30232,8.90423661 12.8452434,9.44716 13.5149733,9.44716 C14.1847033,9.44716 14.7276267,8.90423661 14.7276267,8.23450667 C14.7276267,7.56477672 14.1847033,7.02185333 13.5149733,7.02185333 Z" id="Path_21735" fill="#F0BE2E"></path>
                        <path d="M2.16712,7.02185333 C1.49739006,7.02185333 0.954466667,7.56477672 0.954466667,8.23450667 C0.954466667,8.90423661 1.49739006,9.44716 2.16712,9.44716 C2.83684994,9.44716 3.37977333,8.90423661 3.37977333,8.23450667 C3.37977333,7.56477672 2.83684994,7.02185333 2.16712,7.02185333 Z" id="Path_21736" fill="#F0BE2E"></path>
                        <path d="M4.43449333,7.00812 L4.43449333,8.07657333 C4.43449333,9.14502667 7.75246667,9.43342667 7.75246667,9.43342667 C7.75246667,9.43342667 11.07044,9.14502667 11.07044,8.07657333 L11.07044,7.00812 L4.43449333,7.00812 Z" id="Path_21737" fill="#C8D1CC"></path>
                        <path d="M7.96670667,0.00549333333 C7.96670667,0.00549333333 4.27656,-0.0810266667 3.72997333,0.48204 C2.82060489,2.21644132 2.03537759,4.01314786 1.3802,5.85864 L14.5532133,5.85864 C13.8980186,4.01315465 13.1127918,2.2164493 12.20344,0.48204 C11.6568533,-0.0810266667 7.96670667,0.00549333333 7.96670667,0.00549333333 Z" id="Path_21738" fill="#112223"></path>
                        <path d="M7.96670667,0.917386667 C7.96670667,0.917386667 4.85198667,0.8446 4.39604,1.31977333 C3.62878479,2.78169916 2.96609386,4.29615904 2.41294667,5.85177333 L13.5369467,5.85177333 C12.9837995,4.29615904 12.3211085,2.78169916 11.5538533,1.31977333 C11.0814267,0.8446 7.96670667,0.917386667 7.96670667,0.917386667 Z" id="Path_21739" fill="#B8C3BD"></path>
                        <rect id="Rectangle_6545" fill="#FFFFFF" x="12.8269333" y="10.6968933" width="1.59581333" height="1"></rect>
                        <rect id="Rectangle_6546" fill="#FFFFFF" x="1.36921333" y="10.6968933" width="1.59581333" height="1"></rect>
                    </g>
                    <polygon id="Path_21740" fill="#B8C3BD" fill-rule="nonzero" opacity="0.75" style="mix-blend-mode: screen;" points="16.25752 7.22373333 12.2748533 4.18317333 15.3154133 8.16584 12.2748533 12.1485067 16.25752 9.10794667 20.2401867 12.1485067 17.1996267 8.16584 20.2401867 4.18317333"></polygon>
                    <polygon id="Path_21741" fill="#B8C3BD" fill-rule="nonzero" opacity="0.75" style="mix-blend-mode: screen;" points="4.91104 7.22373333 0.928373333 4.18317333 3.96893333 8.16584 0.928373333 12.1485067 4.91104 9.10794667 8.89370667 12.1485067 5.85314667 8.16584 8.89370667 4.18317333"></polygon>
                    <path d="M16.2588933,3.32346667 C13.5466008,3.32346667 11.3478533,5.52221417 11.3478533,8.23450667 C11.3478533,10.9467992 13.5466008,13.1455467 16.2588933,13.1455467 C18.9711858,13.1455467 21.1699333,10.9467992 21.1699333,8.23450667 C21.1699333,5.52221417 18.9711858,3.32346667 16.2588933,3.32346667 L16.2588933,3.32346667 Z" id="Path_21742" fill="#B8C3BD" fill-rule="nonzero" opacity="0.21" style="mix-blend-mode: screen;"></path>
                    <path d="M16.25752,4.67482667 C14.8177638,4.67482667 13.5197753,5.54211485 12.9688045,6.87227611 C12.4178337,8.20243736 12.7223848,9.73351919 13.7404461,10.7515805 C14.7585075,11.7696419 16.2895893,12.074193 17.6197506,11.5232222 C18.9499118,10.9722513 19.8172,9.67426283 19.8172,8.23450667 C19.8172,6.26854969 18.223477,4.67482667 16.25752,4.67482667 Z" id="Path_21743" fill="#B8C3BD" fill-rule="nonzero" opacity="0.32" style="mix-blend-mode: screen;"></path>
                    <path d="M4.91104,3.32346667 C2.1987475,3.32346667 0,5.52221417 0,8.23450667 C0,10.9467992 2.1987475,13.1455467 4.91104,13.1455467 C7.6233325,13.1455467 9.82208,10.9467992 9.82208,8.23450667 C9.82208,5.52221417 7.6233325,3.32346667 4.91104,3.32346667 L4.91104,3.32346667 Z" id="Path_21744" fill="#B8C3BD" fill-rule="nonzero" opacity="0.21" style="mix-blend-mode: screen;"></path>
                    <path d="M4.91104,4.67482667 C3.47128384,4.67482667 2.17329534,5.54211485 1.62232451,6.87227611 C1.07135368,8.20243736 1.37590479,9.73351919 2.39396613,10.7515805 C3.41202748,11.7696419 4.94310931,12.074193 6.27327056,11.5232222 C7.60343181,10.9722513 8.47072,9.67426283 8.47072,8.23450667 C8.47072,6.26854969 6.87699698,4.67482667 4.91104,4.67482667 Z" id="Path_21745" fill="#B8C3BD" fill-rule="nonzero" opacity="0.32" style="mix-blend-mode: screen;"></path>
                </g>
                <g id="Group_10125" stroke-width="1" fill="none" fill-rule="evenodd" transform="translate(93.215000, 6.439560)">
                    <g id="Group_10124" transform="translate(2.212440, 0.000000)" fill-rule="nonzero">
                        <g id="Group_10123">
                            <rect id="Rectangle_6547" fill="#2D3C3D" x="6.69088" y="17.51" width="4.17630667" height="31.4822933"></rect>
                            <path d="M13.0782533,1.22913333 L13.0782533,4.98108 C14.4183261,4.29538306 15.6761303,3.45961138 16.8274533,2.48985333 C18.7844533,0.854213333 13.0782533,1.22913333 13.0782533,1.22913333 Z" id="Path_21746" fill="#445052"></path>
                            <path d="M13.0782533,7.03696 L13.0782533,10.7889067 C14.4182961,10.1031585 15.6760947,9.26739052 16.8274533,8.29768 C18.7844533,6.66066667 13.0782533,7.03696 13.0782533,7.03696 Z" id="Path_21747" fill="#445052"></path>
                            <path d="M13.0782533,12.8434133 L13.0782533,16.5967333 C14.4182482,15.9109032 15.6760377,15.0751412 16.8274533,14.1055067 C18.7844533,12.46712 13.0782533,12.8434133 13.0782533,12.8434133 Z" id="Path_21748" fill="#445052"></path>
                            <path d="M0.409253333,2.49122667 C1.56049079,3.4610989 2.81830841,4.29687955 4.15845333,4.98245333 L4.15845333,1.22913333 C4.15845333,1.22913333 -1.54912,0.854213333 0.409253333,2.49122667 Z" id="Path_21749" fill="#445052"></path>
                            <path d="M0.409253333,8.29493333 C1.56052648,9.26475797 2.81833847,10.1005349 4.15845333,10.78616 L4.15845333,7.03696 C4.15845333,7.03696 -1.54912,6.66066667 0.409253333,8.29493333 Z" id="Path_21750" fill="#445052"></path>
                            <path d="M0.409253333,14.1041333 C1.56058352,15.0738819 2.81838652,15.9096528 4.15845333,16.59536 L4.15845333,12.8434133 C4.15845333,12.8434133 -1.54912,12.46712 0.409253333,14.1041333 Z" id="Path_21751" fill="#445052"></path>
                            <rect id="Rectangle_6548" fill="#112223" x="3.35093333" y="0" width="10.44008" height="17.78604" rx="3.801"></rect>
                            <path d="M8.57097333,1.23050667 C7.39155084,1.23050667 6.43544,2.18661751 6.43544,3.36604 C6.43544,4.54546249 7.39155084,5.50157333 8.57097333,5.50157333 C9.75039583,5.50157333 10.7065067,4.54546249 10.7065067,3.36604 C10.7065067,2.18661751 9.75039583,1.23050667 8.57097333,1.23050667 Z" id="Path_21752" fill="#E05132"></path>
                            <path d="M8.57097333,6.75817333 C7.39155084,6.75817333 6.43544,7.71428417 6.43544,8.89370667 C6.43544,10.0731292 7.39155084,11.02924 8.57097333,11.02924 C9.75039583,11.02924 10.7065067,10.0731292 10.7065067,8.89370667 C10.7065067,7.71428417 9.75039583,6.75817333 8.57097333,6.75817333 L8.57097333,6.75817333 Z" id="Path_21753" fill="#F0BE2E"></path>
                            <path d="M8.57097333,12.28584 C7.39155084,12.28584 6.43544,13.2419508 6.43544,14.4213733 C6.43544,15.6007958 7.39155084,16.5569067 8.57097333,16.5569067 C9.75039583,16.5569067 10.7065067,15.6007958 10.7065067,14.4213733 C10.7065067,13.2419508 9.75039583,12.28584 8.57097333,12.28584 Z" id="Path_21754" fill="#1B9D5C"></path>
                        </g>
                        <path d="M16.8274533,8.29768 C18.34636,7.02872 15.2549867,6.96966667 13.7910133,7.00674667 L13.7910133,4.60204 C14.8629636,3.98862278 15.8790085,3.28230843 16.8274533,2.49122667 C18.3985467,1.17694667 15.0325067,1.16046667 13.6440667,1.20441333 C13.3439663,0.475373819 12.63339,-1.74319843e-07 11.845,-1.74319843e-07 L8.60942667,-1.74319843e-07 L8.60942667,48.9936667 L10.8658133,48.9936667 L10.8658133,17.7874133 L11.845,17.7874133 C12.7668577,17.7878023 13.5623169,17.1408823 13.7498133,16.2382933 C14.8371464,15.6198906 15.8671129,14.9056702 16.8274533,14.1041333 C18.34636,12.8351733 15.2549867,12.77612 13.7910133,12.8132 L13.7910133,10.4084933 C14.8632293,9.79549659 15.87931,9.08915729 16.8274533,8.29768 L16.8274533,8.29768 Z" id="Path_21755" fill="#B7BCBC" opacity="0.65" style="mix-blend-mode: multiply;"></path>
                    </g>
                    <path d="M10.8163733,4.97421323 C6.99454844,4.97365788 3.54876199,7.27551551 2.08595632,10.8063151 C0.623150652,14.3371146 1.43143978,18.4014302 4.13387811,21.1038686 C6.83631644,23.8063069 10.9006321,24.614596 14.4314316,23.1517903 C17.9622312,21.6889847 20.2640888,18.2431982 20.2635334,14.4213733 C20.2627751,9.20416505 16.0335816,4.97497159 10.8163733,4.97421323 L10.8163733,4.97421323 Z" id="Path_21756" fill="#B8C3BD" fill-rule="nonzero" opacity="0.25" style="mix-blend-mode: screen;"></path>
                    <circle id="Ellipse_355" fill="#B8C3BD" fill-rule="nonzero" opacity="0.25" style="mix-blend-mode: screen;" transform="translate(10.823012, 14.421727) rotate(-13.716000) translate(-10.823012, -14.421727) " cx="10.8230123" cy="14.4217272" r="7.29377333"></circle>
                    <circle id="Ellipse_356" fill="#B8C3BD" fill-rule="nonzero" opacity="0.32" style="mix-blend-mode: screen;" transform="translate(10.822055, 14.422093) rotate(-13.343000) translate(-10.822055, -14.422093) " cx="10.8220553" cy="14.4220928" r="4.76546667"></circle>
                </g>
                <g id="Group_10127" stroke-width="1" fill="none" fill-rule="evenodd" transform="translate(119.650293, 28.704040)">
                    <g id="Group_10126" transform="translate(4.901427, 0.000000)" fill-rule="nonzero">
                        <path d="M24.18852,19.6592667 L22.84952,19.6592667 C21.9152909,19.7317069 21.2134174,20.5425975 21.27568,21.47756 L21.27568,23.94956 C21.2102638,24.8865934 21.9130013,25.7009349 22.84952,25.7733467 L24.18852,25.7733467 C25.1227491,25.7009064 25.8246226,24.8900158 25.76236,23.9550533 L25.76236,21.4830533 C25.8277762,20.54602 25.1250387,19.7316785 24.18852,19.6592667 Z" id="Path_21757" fill="#112223"></path>
                        <path d="M5.45350667,19.6592667 L4.11450667,19.6592667 C3.1802776,19.7317069 2.47840402,20.5425975 2.54066667,21.47756 L2.54066667,23.94956 C2.47840402,24.8845225 3.1802776,25.6954131 4.11450667,25.7678533 L5.45350667,25.7678533 C6.38773574,25.6954131 7.08960931,24.8845225 7.02734667,23.94956 L7.02734667,21.47756 C7.08960931,20.5425975 6.38773574,19.7317069 5.45350667,19.6592667 Z" id="Path_21758" fill="#112223"></path>
                        <path d="M5.768,10.2972533 L22.7836,10.2972533 C25.9691784,10.2972533 28.5516,12.8796749 28.5516,16.0652533 L28.5516,16.0652533 C28.5516,19.2508318 25.9691784,21.8332533 22.7836,21.8332533 L5.768,21.8332533 C2.58242156,21.8332533 0,19.2508318 0,16.0652533 L0,16.0652533 C0,12.8796749 2.58242156,10.2972533 5.768,10.2972533 Z" id="Rectangle_6549" fill="#112223"></path>
                        <path d="M24.1377067,12.5399067 C23.2617439,12.5399067 22.4720341,13.0675739 22.1368176,13.876858 C21.8016012,14.686142 21.9868933,15.6176683 22.6062925,16.2370675 C23.2256917,16.8564667 24.157218,17.0417588 24.966502,16.7065424 C25.7757861,16.3713259 26.3034533,15.5816161 26.3034533,14.7056533 C26.3034533,13.5095445 25.3338155,12.5399067 24.1377067,12.5399067 L24.1377067,12.5399067 Z" id="Path_21759" fill="#F0BE2E"></path>
                        <path d="M3.87005333,12.5399062 C2.67412354,12.540665 1.7051747,13.5106384 1.70568,14.7065683 C1.70618569,15.9024982 2.67595415,16.8716521 3.87188415,16.8713996 C5.06781416,16.8711469 6.03717333,15.9015834 6.03717333,14.7056533 C6.03717333,14.1310236 5.80880871,13.5799492 5.40235535,13.1737534 C4.99590199,12.7675576 4.44468297,12.5395423 3.87005333,12.5399062 Z" id="Path_21760" fill="#F0BE2E"></path>
                        <path d="M7.92276,12.51656 L7.92276,14.4254933 C7.92276,16.3330533 13.8486933,16.8494267 13.8486933,16.8494267 C13.8486933,16.8494267 19.7746267,16.3330533 19.7746267,14.4254933 L19.7746267,12.51656 L7.92276,12.51656 Z" id="Path_21761" fill="#C8D1CC"></path>
                        <path d="M14.2291067,0.00961333333 C14.2291067,0.00961333333 7.63710667,-0.145573333 6.66204,0.859706667 C5.68697333,1.86498667 2.46513333,10.4620533 2.46513333,10.4620533 L25.99308,10.4620533 C25.99308,10.4620533 22.7726133,1.86498667 21.7961733,0.859706667 C20.8197333,-0.145573333 14.2291067,0.00961333333 14.2291067,0.00961333333 Z" id="Path_21762" fill="#112223"></path>
                        <path d="M14.22636,1.63838667 C14.22636,1.63838667 8.66298667,1.50105333 7.84036,2.35664 C7.01773333,3.21222667 4.29853333,10.4593067 4.29853333,10.4593067 L24.15556,10.4593067 C24.15556,10.4593067 21.43636,3.20398667 20.6137333,2.35664 C19.7911067,1.50929333 14.22636,1.63838667 14.22636,1.63838667 Z" id="Path_21763" fill="#B8C3BD"></path>
                        <rect id="Rectangle_6550" fill="#FFFFFF" x="22.91132" y="19.1058133" width="2.85104" height="1"></rect>
                        <rect id="Rectangle_6551" fill="#FFFFFF" x="2.44453333" y="19.1058133" width="2.85104" height="1"></rect>
                    </g>
                    <polygon id="Path_21764" fill="#B8C3BD" fill-rule="nonzero" opacity="0.75" style="mix-blend-mode: screen;" points="29.0391333 12.9024667 21.93488 7.47230667 27.3636667 14.57656 21.9335067 21.6821867 29.03776 16.2520267 36.1433867 21.6821867 30.7132267 14.57656 36.1433867 7.47093333"></polygon>
                    <polygon id="Path_21765" fill="#B8C3BD" fill-rule="nonzero" opacity="0.75" style="mix-blend-mode: screen;" points="8.77148 12.9024667 1.66722667 7.47230667 7.09738667 14.5779333 1.66722667 21.68356 8.77148 16.2534 15.8771067 21.68356 10.44008 14.57656 15.87024 7.47093333"></polygon>
                    <path d="M29.0391333,5.93692 C25.4912759,5.93692 22.2927891,8.07417116 20.9352112,11.3520172 C19.5776332,14.6298632 20.3283356,18.4027409 22.8372461,20.9112586 C25.3461565,23.4197762 29.1191517,24.1698878 32.3967851,22.8117966 C35.6744185,21.4537054 37.8111688,18.2548841 37.8106134,14.7070267 C37.8098549,9.86320836 33.8829517,5.93692 29.0391333,5.93692 Z" id="Path_21766" fill="#B8C3BD" fill-rule="nonzero" opacity="0.21" style="mix-blend-mode: screen;"></path>
                    <circle id="Ellipse_357" fill="#B8C3BD" fill-rule="nonzero" opacity="0.32" style="mix-blend-mode: screen;" transform="translate(29.039322, 14.707706) rotate(-12.807000) translate(-29.039322, -14.707706) " cx="29.0393219" cy="14.7077065" r="6.35853333"></circle>
                    <path d="M8.77148,5.93691989 C5.22362254,5.93691989 2.02513579,8.07417116 0.667557853,11.3520172 C-0.690020086,14.6298632 0.0606822556,18.4027409 2.56959272,20.9112586 C5.07850319,23.4197762 8.85149835,24.1698878 12.1291318,22.8117966 C15.4067652,21.4537054 17.5435155,18.2548841 17.5429601,14.7070267 C17.5429601,12.3808118 16.6187808,10.1498927 14.9737697,8.50513917 C13.3287586,6.86038565 11.0976948,5.93655573 8.77148,5.93691989 Z" id="Path_21767" fill="#B8C3BD" fill-rule="nonzero" opacity="0.21" style="mix-blend-mode: screen;"></path>
                    <circle id="Ellipse_358" fill="#B8C3BD" fill-rule="nonzero" opacity="0.32" style="mix-blend-mode: screen;" transform="translate(8.771639, 14.707184) rotate(-13.203000) translate(-8.771639, -14.707184) " cx="8.77163863" cy="14.7071838" r="6.35853333"></circle>
                </g>
                <g id="Group_10132" stroke-width="1" fill="none" fill-rule="evenodd" transform="translate(48.962080, 40.377373)">
                    <g id="Group_10129" transform="translate(3.617360, 0.000000)" fill-rule="nonzero">
                        <g id="Group_10128">
                            <path d="M36.1392667,8.9404 C36.1392667,8.9404 32.0096533,2.60521333 29.9455333,1.53676 C27.8814133,0.468306667 22.8261733,-0.598773333 13.57128,0.39552 C4.31638667,1.38981333 5.59770667,10.2931333 5.59770667,10.2931333 C-2.23029333,14.2085067 0.442213333,20.7579333 0.442213333,20.7579333 L5.13764,20.7579333 C5.5987783,18.2561754 7.82215707,16.4691771 10.3645467,16.5569067 C12.8709643,16.4320789 15.0472514,18.2665408 15.3483733,20.7579333 L32.3639733,20.7579333 C32.8206752,18.2362121 35.0719618,16.4409342 37.63208,16.5569067 C41.69028,16.5569067 42.78208,20.7579333 42.78208,20.7579333 L48.1930133,20.7579333 C48.5377032,17.7070749 47.7982706,14.6321825 46.1041733,12.0716 C44.11284,9.50896 36.1392667,8.9404 36.1392667,8.9404 Z" id="Path_21768" fill="#243435"></path>
                            <path d="M37.5345733,15.862 C35.0968474,15.862 33.12068,17.8381674 33.12068,20.2758933 C33.12068,22.7136193 35.0968474,24.6897867 37.5345733,24.6897867 C39.9722993,24.6897867 41.9484667,22.7136193 41.9484667,20.2758933 C41.9484667,17.8381674 39.9722993,15.862 37.5345733,15.862 L37.5345733,15.862 Z" id="Path_21769" fill="#112223"></path>
                            <path d="M37.5345733,17.7063867 C36.115474,17.7063867 34.9650667,18.856794 34.9650667,20.2758933 C34.9650667,21.6949927 36.115474,22.8454 37.5345733,22.8454 C38.9536727,22.8454 40.10408,21.6949927 40.10408,20.2758933 C40.10408,18.856794 38.9536727,17.7063867 37.5345733,17.7063867 Z" id="Path_21770" fill="#B8C3BD"></path>
                            <path d="M10.1242133,15.862 C7.68648736,15.862 5.71032,17.8381674 5.71032,20.2758933 C5.71032,22.7136193 7.68648736,24.6897867 10.1242133,24.6897867 C12.5619393,24.6897867 14.5381067,22.7136193 14.5381067,20.2758933 C14.5381067,19.105256 14.0730728,17.982565 13.2453072,17.1547994 C12.4175417,16.3270339 11.2948506,15.862 10.1242133,15.862 L10.1242133,15.862 Z" id="Path_21771" fill="#112223"></path>
                            <path d="M10.1242133,17.7063867 C8.70511399,17.7063867 7.55470667,18.856794 7.55470667,20.2758933 C7.55470667,21.6949927 8.70511399,22.8454 10.1242133,22.8454 C11.5433127,22.8454 12.69372,21.6949927 12.69372,20.2758933 C12.69372,18.856794 11.5433127,17.7063867 10.1242133,17.7063867 L10.1242133,17.7063867 Z" id="Path_21772" fill="#B8C3BD"></path>
                            <path d="M0.83636,14.6369867 C1.73153333,14.7482565 2.63704001,14.7482565 3.53221333,14.6369867 C4.2436,14.42412 3.82336,11.3409867 3.82336,11.3409867 C2.53689663,12.1361108 1.50141501,13.2787112 0.83636,14.6369867 Z" id="Path_21773" fill="#E05132"></path>
                            <path d="M43.6527733,10.4826533 C43.6527733,10.4826533 43.6239333,14.1467067 44.6141067,14.46532 C45.5643195,14.6744057 46.5365139,14.7666443 47.5090933,14.7399867 C47.11894,12.7123844 45.6320215,11.0708433 43.6527733,10.4826533 Z" id="Path_21774" fill="#F0BE2E"></path>
                            <path d="M29.09132,4.38505333 C27.5573067,2.94992 21.0463333,3.28638667 21.0463333,3.28638667 L21.0463333,9.22193333 L33.4338,9.22193333 C32.0767486,7.53067731 30.6270334,5.91590923 29.09132,4.38505333 Z" id="Path_21775" fill="#B8C3BD"></path>
                            <path d="M7.55470666,9.22468 L20.2855067,9.22468 L20.2855067,3.28913333 C17.3807289,3.27795371 14.478706,3.46931101 11.6005467,3.86181333 C7.55058667,4.65148 7.55470666,9.22468 7.55470666,9.22468 Z" id="Path_21776" fill="#B8C3BD"></path>
                            <rect id="Rectangle_6552" fill="#1F2F30" x="22.3276533" y="11.7886933" width="2.89498667" height="1.01352"></rect>
                            <rect id="Rectangle_6553" fill="#1F2F30" x="8.9198" y="11.7886933" width="2.89498667" height="1.01352"></rect>
                            <rect id="Rectangle_6554" fill="#112223" x="20.28688" y="9.22605333" width="1" height="11.5332533"></rect>
                            <rect id="Rectangle_6555" fill="#112223" x="32.6743467" y="9.22605333" width="1" height="7.97357333"></rect>
                            <rect id="Rectangle_6556" fill="#112223" x="7.55470667" y="9.22605333" width="1" height="7.10837333"></rect>
                            <path d="M44.1046,18.6072933 C44.1046,18.6072933 43.18996,14.40764 37.5345733,14.40764 C33.0149333,14.40764 31.7171333,16.9716533 31.1403333,18.3134 L30.1432933,20.7579333 L32.3653467,20.7579333 C32.8220485,18.2362121 35.0733352,16.4409342 37.6334533,16.5569067 C41.6916533,16.5569067 42.7834533,20.7579333 42.7834533,20.7579333 L48.1943867,20.7579333 C48.2648965,20.0432664 48.278673,19.3241364 48.2355867,18.6072933 L44.1046,18.6072933 Z" id="Path_21777" fill="#B8C3BD"></path>
                            <path d="M16.5596533,18.6072933 C16.5596533,18.6072933 15.5832133,14.40764 10.1242133,14.40764 C4.76821333,14.40764 3.79452,18.6072933 3.79452,18.6072933 L0.0151066667,18.6072933 C0.0495422145,19.3413237 0.193024915,20.0661428 0.44084,20.7579333 L5.13901333,20.7579333 C5.60015163,18.2561754 7.8235304,16.4691771 10.36592,16.5569067 C12.8723376,16.4320789 15.0486247,18.2665408 15.3497467,20.7579333 L17.2325867,20.7579333 L16.5678933,18.6072933 L16.5596533,18.6072933 Z" id="Path_21778" fill="#B8C3BD"></path>
                        </g>
                    </g>
                    <g id="Group_10130" transform="translate(41.297507, 5.313427)" fill="#B8C3BD" fill-rule="nonzero">
                        <path d="M7.89941333,-1.20211122e-07 C4.704149,-0.000555456654 1.82322793,1.92387121 0.600196603,4.87580428 C-0.622834721,7.82773734 0.0529182728,11.2257488 2.31231138,13.4851419 C4.5717045,15.7445351 7.96971599,16.4202881 10.9216491,15.1972567 C13.8735821,13.9742254 15.7980088,11.0933043 15.7974535,7.89804 C15.7974535,5.80334955 14.9653408,3.79445218 13.484171,2.31328236 C12.0030012,0.832112539 9.99410378,-1.20211122e-07 7.89941333,-1.20211122e-07 L7.89941333,-1.20211122e-07 Z" id="Path_21779" opacity="0.21" style="mix-blend-mode: screen;"></path>
                        <path d="M7.89804,2.17398667 C4.73597417,2.17398667 2.17261333,4.7373475 2.17261333,7.89941333 C2.17261333,11.0614792 4.73597417,13.62484 7.89804,13.62484 C11.0601058,13.62484 13.6234667,11.0614792 13.6234667,7.89941333 C13.6234667,6.38093577 13.0202538,4.92465109 11.946528,3.85092531 C10.8728022,2.77719953 9.41651756,2.17398667 7.89804,2.17398667 Z" id="Path_21780" opacity="0.32" style="mix-blend-mode: screen;"></path>
                        <path d="M7.89941333,4.54436 C6.04722701,4.54436 4.54573333,6.04585368 4.54573333,7.89804 C4.54573333,9.75022632 6.04722701,11.25172 7.89941333,11.25172 C9.75159965,11.25172 11.2530933,9.75022632 11.2530933,7.89804 C11.2530933,7.00858876 10.8997602,6.15556713 10.2708232,5.52663013 C9.6418862,4.89769313 8.78886457,4.54436 7.89941333,4.54436 L7.89941333,4.54436 Z" id="Path_21781" opacity="0.32" style="mix-blend-mode: screen;"></path>
                        <polygon id="Path_21782" opacity="0.75" style="mix-blend-mode: screen;" points="7.89804 6.38050667 1.45436 1.45573333 6.37913333 7.89941333 1.45436 14.3430933 7.89804 9.41832 14.34172 14.3430933 9.41694667 7.89941333 14.34172 1.45573333"></polygon>
                    </g>
                    <g id="Group_10131" transform="translate(0.000000, 8.223520)" fill="#B8C3BD" fill-rule="nonzero">
                        <path d="M5.87374667,0 C2.62976596,0 0,2.62976596 0,5.87374667 C0,9.11772738 2.62976596,11.7474933 5.87374667,11.7474933 C9.11772738,11.7474933 11.7474933,9.11772738 11.7474933,5.87374667 C11.7474933,2.62976596 9.11772738,0 5.87374667,0 Z" id="Path_21783" opacity="0.21" style="mix-blend-mode: screen;"></path>
                        <path d="M5.87512,1.61916 C4.1531894,1.61916 2.60081118,2.65642597 1.94185687,4.2472824 C1.28290256,5.83813884 1.64714193,7.6692938 2.86473073,8.8868826 C4.08231953,10.1044714 5.9134745,10.4687108 7.50433093,9.80975646 C9.09518737,9.15080215 10.1324533,7.59842393 10.1324533,5.87649333 C10.1324533,3.52523306 8.22638027,1.61916 5.87512,1.61916 L5.87512,1.61916 Z" id="Path_21784" opacity="0.32" style="mix-blend-mode: screen;"></path>
                        <path d="M5.87374667,3.37977333 C4.49636323,3.37977333 3.37977333,4.49636323 3.37977333,5.87374667 C3.37977333,7.25113011 4.49636323,8.36772 5.87374667,8.36772 C7.25113011,8.36772 8.36772,7.25113011 8.36772,5.87374667 C8.36772,4.49636323 7.25113011,3.37977333 5.87374667,3.37977333 L5.87374667,3.37977333 Z" id="Path_21785" opacity="0.32" style="mix-blend-mode: screen;"></path>
                        <polygon id="Path_21786" opacity="0.75" style="mix-blend-mode: screen;" points="5.87374667 4.74624 1.08081333 1.08356 4.74349333 5.87649333 1.08081333 10.6680533 5.87374667 7.00537333 10.6653067 10.6680533 7.00262667 5.87649333 10.6653067 1.08356"></polygon>
                    </g>
                </g>
                <g id="Group_10136" stroke-width="1" fill="none" fill-rule="evenodd" transform="translate(0.000000, 40.330680)">
                    <g id="Group_10134" fill-rule="nonzero">
                        <g id="Group_10133">
                            <path d="M18.8902,16.5555333 C22.9484,16.5555333 24.0402,20.7551867 24.0402,20.7551867 L29.4511333,20.7551867 C29.7959679,17.7047529 29.0565105,14.6302433 27.3622933,12.0702267 C25.3695867,9.50758667 17.39464,8.93765333 17.39464,8.93765333 C17.39464,8.93765333 13.2664,2.60658667 11.2009067,1.53264 C9.56114667,0.68392 6.02344,-0.16068 0,0.0260933333 L0,20.7551867 L13.6220933,20.7551867 C14.0794,18.2340146 16.3305195,16.4394569 18.8902,16.5555333 Z" id="Path_21787" fill="#243435"></path>
                            <path d="M18.7899467,15.8592533 C16.3522207,15.8592533 14.3760533,17.8354207 14.3760533,20.2731467 C14.3760533,22.7108726 16.3522207,24.68704 18.7899467,24.68704 C21.2276726,24.68704 23.20384,22.7108726 23.20384,20.2731467 C23.20384,17.8354207 21.2276726,15.8592533 18.7899467,15.8592533 L18.7899467,15.8592533 Z" id="Path_21788" fill="#112223"></path>
                            <path d="M18.7844533,17.7022667 C17.3655328,17.7022667 16.2151997,18.8523953 16.214947,20.2713158 C16.2146944,21.6902363 17.3646178,22.8407743 18.7835383,22.84128 C20.2024587,22.8417854 21.3532016,21.692067 21.3539604,20.2731467 C21.3543244,19.5914332 21.0837701,18.9375163 20.6018546,18.4553432 C20.1199392,17.9731702 19.4661669,17.7022667 18.7844533,17.7022667 L18.7844533,17.7022667 Z" id="Path_21789" fill="#B8C3BD"></path>
                            <path d="M24.9081467,10.47716 C24.9081467,10.47716 24.8793067,14.1412133 25.86948,14.4598267 C26.8196929,14.6689124 27.7918873,14.761151 28.7644667,14.7344933 C28.3743133,12.706891 26.8873948,11.06535 24.9081467,10.47716 L24.9081467,10.47716 Z" id="Path_21790" fill="#F0BE2E"></path>
                            <path d="M10.3466933,4.38093333 C8.81268,2.9458 2.30170667,3.28226667 2.30170667,3.28226667 L2.30170667,9.22193333 L14.6891733,9.22193333 C13.3321019,7.52938655 11.8823914,5.91324823 10.3466933,4.38093333 L10.3466933,4.38093333 Z" id="Path_21791" fill="#B8C3BD"></path>
                            <path d="M1.54225333,3.28501333 C1.54225333,3.28501333 0.927,3.28501333 0,3.30561333 L0,9.21918667 L1.54225333,9.21918667 L1.54225333,3.28501333 Z" id="Path_21792" fill="#B8C3BD"></path>
                            <rect id="Rectangle_6557" fill="#1F2F30" x="3.58302667" y="11.7845733" width="2.89498667" height="1.01352"></rect>
                            <rect id="Rectangle_6558" fill="#112223" x="1.54225333" y="9.22193333" width="1" height="11.5332533"></rect>
                            <rect id="Rectangle_6559" fill="#112223" x="13.92972" y="9.22193333" width="1" height="7.97357333"></rect>
                            <path d="M25.3599733,18.6045467 C25.3599733,18.6045467 24.4453333,14.40352 18.7899467,14.40352 C14.2703067,14.40352 12.9725067,16.9689067 12.3957067,18.3106533 L11.3986667,20.7551867 L13.62072,20.7551867 C14.0780267,18.2340146 16.3291462,16.4394569 18.8888267,16.5555333 C22.9470267,16.5555333 24.0388267,20.7551867 24.0388267,20.7551867 L29.44976,20.7551867 C29.5205415,20.0405358 29.5343183,19.3213841 29.49096,18.6045467 L25.3599733,18.6045467 Z" id="Path_21793" fill="#B8C3BD"></path>
                        </g>
                    </g>
                    <g id="Group_10135" transform="translate(18.935520, 5.310680)" fill="#B8C3BD" fill-rule="nonzero">
                        <path d="M7.89804,-0.00274678624 C3.53625181,-0.0019882267 0.000867781728,3.5344205 0.0013733864,7.89620873 C0.00187899106,12.257997 3.53808278,15.793586 7.89987103,15.7933332 C12.2616593,15.7930804 15.7974533,12.2570816 15.7974533,7.89529333 C15.7974533,5.80036492 14.9651523,3.79125939 13.4836854,2.31005009 C12.0022186,0.828840786 9.99296838,-0.00311093869 7.89804,-0.00274678624 L7.89804,-0.00274678624 Z" id="Path_21794" opacity="0.21" style="mix-blend-mode: screen;"></path>
                        <path d="M7.89804,2.17261333 C4.73597417,2.17261333 2.17261333,4.73597417 2.17261333,7.89804 C2.17261333,11.0601058 4.73597417,13.6234667 7.89804,13.6234667 C11.0601058,13.6234667 13.6234667,11.0601058 13.6234667,7.89804 C13.6234667,4.73597417 11.0601058,2.17261333 7.89804,2.17261333 L7.89804,2.17261333 Z" id="Path_21795" opacity="0.32" style="mix-blend-mode: screen;"></path>
                        <path d="M7.89804,4.54436 C6.04585368,4.54436 4.54436,6.04585368 4.54436,7.89804 C4.54436,9.75022632 6.04585368,11.25172 7.89804,11.25172 C9.75022632,11.25172 11.25172,9.75022632 11.25172,7.89804 C11.25172,6.04585368 9.75022632,4.54436 7.89804,4.54436 Z" id="Path_21796" opacity="0.32" style="mix-blend-mode: screen;"></path>
                        <polygon id="Path_21797" opacity="0.75" style="mix-blend-mode: screen;" points="7.89804 6.37913333 1.45436 1.45436 6.37913333 7.89804 1.45436 14.34172 7.89804 9.41694667 14.34172 14.34172 9.41694667 7.89804 14.34172 1.45436"></polygon>
                    </g>
                </g>
            </g>
        </g>
    </g>
</svg>