<?xml version="1.0" encoding="UTF-8"?>
<svg width="206px" height="127px" viewBox="0 0 206 127" version="1.1" xmlns="http://www.w3.org/2000/svg" xmlns:xlink="http://www.w3.org/1999/xlink">
    <title>Components / Image / Theory Lectures / 3 Active</title>
    <defs>
        <rect id="path-1" x="0" y="0" width="206" height="127"></rect>
    </defs>
    <g id="Components-/-Image-/-Theory-Lectures-/-3-Active" stroke="none" stroke-width="1" fill="none" fill-rule="evenodd">
        <mask id="mask-2" fill="white">
            <use xlink:href="#path-1"></use>
        </mask>
        <use id="Rectangle" fill="#00B0B9" xlink:href="#path-1"></use>
        <g id="3" mask="url(#mask-2)">
            <g transform="translate(0.000000, 9.000000)">
                <g id="Group_10047" transform="translate(0.000000, -0.000000)">
                    <g id="Group_10030" transform="translate(0.000000, 33.020427)" fill-rule="nonzero">
                        <rect id="Rectangle_6361" fill="#586365" x="0" y="0" width="206" height="73.7617333"></rect>
                        <g id="Group_10029" transform="translate(0.000000, 4.243600)" fill="#B8C3BD">
                            <polyline id="Path_21336" points="0 56.01964 206 56.01964 206 0 0 0"></polyline>
                        </g>
                    </g>
                    <g id="Group_10031" transform="translate(3.404493, 48.971693)" fill="#FFFFFF" fill-rule="nonzero">
                        <rect id="Rectangle_6362" x="81.15576" y="0" width="11.1885467" height="3.69426667"></rect>
                        <rect id="Rectangle_6363" x="60.8661333" y="0" width="11.1885467" height="3.69426667"></rect>
                        <rect id="Rectangle_6364" x="40.57788" y="0" width="11.1885467" height="3.69426667"></rect>
                        <rect id="Rectangle_6365" x="20.2882533" y="0" width="11.1885467" height="3.69426667"></rect>
                        <rect id="Rectangle_6366" x="0" y="0" width="11.1885467" height="3.69426667"></rect>
                        <rect id="Rectangle_6367" x="102.1348" y="0" width="11.1885467" height="3.69426667"></rect>
                        <rect id="Rectangle_6368" x="123.11384" y="0" width="11.1885467" height="3.69426667"></rect>
                        <rect id="Rectangle_6369" x="144.09288" y="0" width="11.1885467" height="3.69426667"></rect>
                        <rect id="Rectangle_6370" x="165.07192" y="0" width="11.1885467" height="3.69426667"></rect>
                        <rect id="Rectangle_6371" x="186.05096" y="0" width="11.1885467" height="3.69426667"></rect>
                    </g>
                    <g id="Group_10032" transform="translate(5.553760, 80.911307)" fill="#FFFFFF" fill-rule="nonzero">
                        <rect id="Rectangle_6372" x="81.15576" y="0" width="11.1885467" height="3.69426667"></rect>
                        <rect id="Rectangle_6373" x="60.8661333" y="0" width="11.1885467" height="3.69426667"></rect>
                        <rect id="Rectangle_6374" x="40.57788" y="0" width="11.1885467" height="3.69426667"></rect>
                        <rect id="Rectangle_6375" x="20.2882533" y="0" width="11.1885467" height="3.69426667"></rect>
                        <rect id="Rectangle_6376" x="0" y="0" width="11.1885467" height="3.69426667"></rect>
                        <rect id="Rectangle_6377" x="102.1348" y="0" width="11.1885467" height="3.69426667"></rect>
                        <rect id="Rectangle_6378" x="123.11384" y="0" width="11.1885467" height="3.69426667"></rect>
                        <rect id="Rectangle_6379" x="144.09288" y="0" width="11.1885467" height="3.69426667"></rect>
                        <rect id="Rectangle_6380" x="165.07192" y="0" width="11.1885467" height="3.69426667"></rect>
                        <rect id="Rectangle_6381" x="186.05096" y="0" width="11.1885467" height="3.69426667"></rect>
                    </g>
                    <rect id="Rectangle_6382" fill="#FFFFFF" fill-rule="nonzero" x="92.2687733" y="37.0827467" width="30.05952" height="56.3808267"></rect>
                    <rect id="Rectangle_6383" fill="#B8C3BD" fill-rule="nonzero" x="94.52928" y="41.2590533" width="27.7276" height="2.48436"></rect>
                    <rect id="Rectangle_6384" fill="#B8C3BD" fill-rule="nonzero" x="93.8316267" y="52.0136267" width="28.0503333" height="2.90872"></rect>
                    <rect id="Rectangle_6385" fill="#B8C3BD" fill-rule="nonzero" x="93.8316267" y="62.6020267" width="28.4266267" height="3.66542667"></rect>
                    <rect id="Rectangle_6386" fill="#B8C3BD" fill-rule="nonzero" x="93.8151467" y="73.3703333" width="28.1698133" height="4.05957333"></rect>
                    <rect id="Rectangle_6387" fill="#B8C3BD" fill-rule="nonzero" x="94.52928" y="84.2965733" width="27.15492" height="4.1406"></rect>
                    <polygon id="Path_21337" fill="#586365" fill-rule="nonzero" points="91.5601333 35.9538667 94.69408 35.9538667 95.2956 93.6654533 91.0726 93.6654533"></polygon>
                    <polygon id="Path_21338" fill="#586365" fill-rule="nonzero" points="120.56768 35.9538667 123.701627 35.9538667 124.303147 93.6654533 120.078773 93.6654533"></polygon>
                    <g id="Group_10046" transform="translate(2.467880, 0.000000)" fill-rule="nonzero">
                        <g id="Group_10034" transform="translate(165.691293, 26.770387)">
                            <g id="Group_10033">
                                <path d="M31.2364667,7.20588 C31.2364667,7.20588 32.1332533,0.973693333 25.65524,0.277413333 C19.1772267,-0.418866667 15.63952,0.328226667 14.1934,1.07669333 C12.74728,1.82516 9.85778667,6.25828 9.85778667,6.25828 C9.85778667,6.25828 4.27656,6.65792 2.88125333,8.45561333 C1.69771796,10.2447115 1.17961951,12.3924386 1.41728,14.5243733 L5.20493333,14.5243733 C5.63646777,12.8627639 7.09549395,11.6727543 8.80993333,11.5840667 C10.6027846,11.5016436 12.1800339,12.7583949 12.50008,14.5243733 L24.411,14.5243733 C24.6215297,12.7804889 26.1449085,11.4964125 27.8992667,11.5840667 C29.6787657,11.5225838 31.2350264,12.7733174 31.5578267,14.5243733 L34.84696,14.5243733 C34.84696,14.5243733 36.7119467,9.94568 31.2364667,7.20588 Z" id="Path_21339" fill="#1B9D5C"></path>
                                <path d="M8.88272,11.1033997 C7.63280684,11.1028445 6.50565929,11.8553465 6.02695326,13.0099563 C5.54824723,14.1645661 5.81227542,15.4938554 6.69590111,16.3778739 C7.5795268,17.2618925 8.90869858,17.5265116 10.0635211,17.0483189 C11.2183435,16.5701262 11.9713467,15.4433133 11.9713467,14.1934 C11.9713467,12.4873763 10.5887435,11.1041582 8.88272,11.1033997 L8.88272,11.1033997 Z" id="Path_21340" fill="#112223"></path>
                                <path d="M8.88272,12.3943328 C8.15494074,12.3937778 7.49851438,12.8317539 7.21962028,13.5039749 C6.94072618,14.1761958 7.09430752,14.9502316 7.60872879,15.4650459 C8.12315006,15.9798601 8.89706834,16.1340325 9.5695021,15.8556519 C10.2419359,15.5772712 10.6804133,14.9211795 10.6804133,14.1934 C10.6804133,13.200339 9.87578072,12.3950914 8.88272,12.3943328 L8.88272,12.3943328 Z" id="Path_21341" fill="#B8C3BD"></path>
                                <path d="M28.0681867,11.1033997 C26.8182735,11.1028445 25.691126,11.8553465 25.2124199,13.0099563 C24.7337139,14.1645661 24.9977421,15.4938554 25.8813678,16.3778739 C26.7649935,17.2618925 28.0941652,17.5265116 29.2489877,17.0483189 C30.4038102,16.5701262 31.1568133,15.4433133 31.1568133,14.1934 C31.1568133,12.4873763 29.7742102,11.1041582 28.0681867,11.1033997 Z" id="Path_21342" fill="#112223"></path>
                                <path d="M28.0681867,12.3943328 C27.3404074,12.3937778 26.683981,12.8317539 26.4050869,13.5039749 C26.1261928,14.1761958 26.2797742,14.9502316 26.7941955,15.4650459 C27.3086167,15.9798601 28.082535,16.1340325 28.7549688,15.8556519 C29.4274025,15.5772712 29.86588,14.9211795 29.86588,14.1934 C29.86588,13.200339 29.0612474,12.3950914 28.0681867,12.3943328 L28.0681867,12.3943328 Z" id="Path_21343" fill="#B8C3BD"></path>
                                <path d="M32.47796,7.93786667 C32.47796,7.93786667 32.1840667,10.0953733 32.6825867,10.2450667 C33.308719,10.3226886 33.942041,10.3226886 34.5681733,10.2450667 C34.1031152,9.29416507 33.3784579,8.49428056 32.47796,7.93786667 L32.47796,7.93786667 Z" id="Path_21344" fill="#E05132"></path>
                                <path d="M1.90344,10.3068667 C2.58391021,10.3257736 3.26414824,10.2616698 3.92910667,10.1159733 C4.61577333,9.89624 4.59929333,7.33222667 4.59929333,7.33222667 C3.21644679,7.74374086 2.17732372,8.89032291 1.90344,10.3068667 L1.90344,10.3068667 Z" id="Path_21345" fill="#F0BE2E"></path>
                                <path d="M14.7921733,3.0694 C13.7168944,4.14174952 12.7018206,5.27281873 11.7516133,6.45741333 L20.42284,6.45741333 L20.42284,2.30308 C20.42284,2.30308 15.86612,2.06412 14.7921733,3.0694 Z" id="Path_21346" fill="#1F2F30"></path>
                                <path d="M27.0340667,2.70409333 C25.0192748,2.42921113 22.9877615,2.29521477 20.95432,2.30308 L20.95432,6.45741333 L29.86588,6.45741333 C29.86588,6.45741333 29.8686267,3.25617333 27.0340667,2.70409333 Z" id="Path_21347" fill="#1F2F30"></path>
                                <rect id="Rectangle_6388" fill="#1F2F30" x="17.4990133" y="8.25236" width="2.02704" height="1"></rect>
                                <rect id="Rectangle_6389" fill="#1F2F30" x="26.8843733" y="8.25236" width="2.02704" height="1"></rect>
                                <rect id="Rectangle_6390" fill="#03894B" x="20.42284" y="6.45741333" width="1" height="8.07382667"></rect>
                                <rect id="Rectangle_6391" fill="#03894B" x="11.7516133" y="6.45741333" width="1" height="5.58122667"></rect>
                                <rect id="Rectangle_6392" fill="#03894B" x="29.3344" y="6.45741333" width="1" height="4.97558667"></rect>
                                <path d="M8.88272,10.08576 C4.9234,10.08576 4.28342667,13.0260667 4.28342667,13.0260667 L1.39256,13.0260667 C1.36194821,13.5295872 1.3715922,14.0347481 1.4214,14.5367333 L5.20905333,14.5367333 C5.64058777,12.8751239 7.09961395,11.6851143 8.81405333,11.5964267 C10.6058827,11.5154171 12.1815386,12.771834 12.5014533,14.5367333 L14.0505733,14.5367333 L13.3639067,12.8200667 C12.6702974,10.9918769 10.8257165,9.86636033 8.88272,10.08576 L8.88272,10.08576 Z" id="Path_21348" fill="#B8C3BD"></path>
                                <path d="M28.0668133,10.08576 C26.0573762,9.87229196 24.1747267,11.1008054 23.5609067,13.0260667 L23.5609067,13.0260667 L23.0953467,14.5367333 L24.4137467,14.5367333 C24.6242763,12.7928489 26.1476552,11.5087725 27.9020133,11.5964267 C29.6815123,11.5349438 31.2377731,12.7856774 31.5605733,14.5367333 L34.8497067,14.5367333 C35.0239661,14.0508963 35.1244198,13.5416838 35.14772,13.0260667 L32.5013067,13.0260667 C31.9036178,11.1212495 30.0540549,9.8948902 28.0668133,10.08576 Z" id="Path_21349" fill="#B8C3BD"></path>
                            </g>
                            <path d="M34.5668,10.2450667 L34.5668,10.2450667 C34.2074296,9.4892548 33.66793,8.83327232 32.9957067,8.33476 C32.96412,8.30729333 32.9284133,8.2812 32.8954533,8.25373333 C32.8226667,8.19605333 32.7485067,8.137 32.6688533,8.07932 L32.5411333,7.98456 L32.4765867,7.93649333 L32.4765867,7.93649333 C32.0831929,7.66155534 31.6700743,7.41597931 31.2405867,7.20176 C31.2899283,6.9555176 31.3042609,6.70354255 31.28316,6.45329333 L9.86877333,6.24592 L9.86877333,6.25416 C8.0776183,6.39121754 6.31087135,6.75342604 4.61028,7.33222667 L4.61028,7.33222667 C3.22743345,7.74374086 2.18831038,8.89032291 1.91442667,10.3068667 L1.91442667,10.3068667 C1.53903667,11.4376381 1.36110954,12.6245932 1.38844,13.8157333 L1.38844,13.8280933 C1.38844,13.9407067 1.39530667,14.0492 1.40217333,14.1535733 L1.40217333,14.1988933 C1.40904,14.31288 1.41865333,14.4227467 1.42964,14.52712 L5.21729333,14.52712 C5.21729333,14.52712 5.22965333,14.4804267 5.25574667,14.3994 C5.28184,14.3183733 5.32304,14.2043867 5.38072,14.0670533 C5.48821822,13.8114244 5.61684147,13.5652028 5.76525333,13.3309467 C5.8653392,13.175095 5.97495684,13.0255747 6.09348,12.88324 C5.47896359,14.2003616 5.86588728,15.7677178 7.02275217,16.6475493 C8.17961706,17.5273808 9.79337663,17.4816061 10.8985082,16.5376124 C12.0036398,15.5936188 12.3010959,14.00685 11.6129067,12.72668 C12.0649163,13.2375532 12.3742413,13.8585716 12.5096933,14.52712 L24.4206133,14.52712 C24.5430201,13.6765136 24.9647033,12.8974222 25.60992,12.3297867 C24.7135805,13.5125574 24.7846645,15.1655039 25.7792356,16.2669572 C26.7738067,17.3684105 28.4109486,17.6072653 29.6787609,16.835888 C30.9465732,16.0645106 31.4869626,14.5007764 30.96592,13.1112133 C31.2539298,13.5382297 31.4559162,14.0173058 31.5605733,14.5216267 L34.8497067,14.5216267 L34.8497067,14.5216267 L34.8565733,14.5024 L34.8565733,14.4927867 C35.0203832,14.0174064 35.1165421,13.5213557 35.1422267,13.0192 L35.1422267,13.0192 C35.2014816,12.0597027 35.0027955,11.1018363 34.5668,10.2450667 L34.5668,10.2450667 Z" id="Path_21350" fill="#B7BCBC" opacity="0.45" style="mix-blend-mode: multiply;"></path>
                        </g>
                        <g id="Group_10036" transform="translate(145.966107, 61.842573)">
                            <g id="Group_10035">
                                <path d="M40.0052,9.89761333 C40.0052,9.89761333 35.4333733,2.884 33.1481467,1.70156 C30.86292,0.51912 25.2665867,-0.66332 15.0201467,0.438093333 C4.77370667,1.53950667 6.19373333,11.39592 6.19373333,11.39592 C-2.47612,15.73016 0.48616,22.9799867 0.48616,22.9799867 L5.68697333,22.9799867 C6.197046,20.2104968 8.65844951,18.2322598 11.4728267,18.32988 C14.2474662,18.1908972 16.6568994,20.2218509 16.9895067,22.9799867 L35.8247733,22.9799867 C36.330684,20.188387 38.823168,18.2012076 41.65732,18.32988 C46.1494933,18.32988 47.3580267,22.9799867 47.3580267,22.9799867 L53.3471333,22.9799867 C53.7289156,19.603584 52.9107134,16.2004851 51.0358133,13.3666533 C48.8316133,10.5334667 40.0052,9.89761333 40.0052,9.89761333 Z" id="Path_21351" fill="#3DCDCA"></path>
                                <circle id="Ellipse_347" fill="#112223" cx="41.5502" cy="22.44576" r="4.88632"></circle>
                                <path d="M41.5502,19.600213 C40.399034,19.5996579 39.3609362,20.2927494 38.9201475,21.3561819 C38.4793587,22.4196144 38.7227243,23.6438677 39.5367217,24.457865 C40.350719,25.2718624 41.5749723,25.515228 42.6384048,25.0744392 C43.7018373,24.6336504 44.3949288,23.5955526 44.3943737,22.4443867 C44.3936156,20.8739071 43.1206796,19.6009711 41.5502,19.600213 L41.5502,19.600213 Z" id="Path_21352" fill="#B8C3BD"></path>
                                <circle id="Ellipse_348" fill="#112223" cx="11.2077733" cy="22.44576" r="4.88632"></circle>
                                <path d="M11.2077733,19.600212 C10.0564829,19.5991022 9.01796374,20.2918411 8.57674212,21.3552292 C8.13552051,22.4186174 8.37854677,23.6430958 9.19243581,24.4573781 C10.0063249,25.2716603 11.2306858,25.5152779 12.2942869,25.0745699 C13.3578881,24.633862 14.0511284,23.5956775 14.0505737,22.4443867 C14.0498164,20.8744429 12.7777166,19.6017285 11.2077733,19.600212 L11.2077733,19.600212 Z" id="Path_21353" fill="#B8C3BD"></path>
                                <path d="M0.927,16.20396 C1.91749505,16.3268682 2.91938495,16.3268682 3.90988,16.20396 C4.69817333,15.9677467 4.23261333,12.5550133 4.23261333,12.5550133 C2.80844121,13.434971 1.66240338,14.7000406 0.927,16.20396 Z" id="Path_21354" fill="#E05132"></path>
                                <path d="M48.3179867,11.5978 C48.3179867,11.5978 48.2850267,15.6532533 49.3768267,16.00208 C50.4286105,16.2322997 51.5045594,16.3332996 52.5808133,16.30284 C52.1473253,14.0628342 50.5044778,12.2495624 48.3179867,11.5978 L48.3179867,11.5978 Z" id="Path_21355" fill="#F0BE2E"></path>
                                <path d="M32.2032933,4.85336 C30.50448,3.26441333 23.2972267,3.64070667 23.2972267,3.64070667 L23.2972267,10.2121067 L37.00996,10.2121067 C35.5077032,8.33865368 33.903033,6.54967565 32.2032933,4.85336 L32.2032933,4.85336 Z" id="Path_21356" fill="#1F2F30"></path>
                                <path d="M8.36359999,10.21348 L22.4567467,10.21348 L22.4567467,3.64208 C19.241447,3.62977243 16.0292053,3.84178039 12.8434133,4.27656 C8.35948,5.15 8.36359999,10.21348 8.36359999,10.21348 Z" id="Path_21357" fill="#1F2F30"></path>
                                <rect id="Rectangle_6393" fill="#1F2F30" x="24.71588" y="13.0507867" width="3.20536" height="1.12064"></rect>
                                <rect id="Rectangle_6394" fill="#1F2F30" x="9.87289333" y="13.0507867" width="3.20536" height="1.12064"></rect>
                                <rect id="Rectangle_6395" fill="#03894B" x="22.4567467" y="10.2121067" width="1" height="12.76788"></rect>
                                <rect id="Rectangle_6396" fill="#03894B" x="36.16948" y="10.2121067" width="1" height="8.82641333"></rect>
                                <rect id="Rectangle_6397" fill="#03894B" x="8.3636" y="10.2121067" width="1" height="7.86782667"></rect>
                                <path d="M48.8233733,20.6 C48.8233733,20.6 47.8098533,15.9498933 41.5447067,15.9498933 C36.5416533,15.9498933 35.1037733,18.7885733 34.4651733,20.27452 L33.3665067,22.98136 L35.8261467,22.98136 C36.3320573,20.1897604 38.8245413,18.202581 41.6586933,18.3312533 C46.1508667,18.3312533 47.3594,22.98136 47.3594,22.98136 L53.3485067,22.98136 C53.4268033,22.1905034 53.4424164,21.3946924 53.3952,20.6013733 L48.8233733,20.6 Z" id="Path_21358" fill="#B8C3BD"></path>
                                <path d="M18.3326267,20.6 C18.3326267,20.6 17.2518133,15.9498933 11.2091467,15.9498933 C5.28596,15.9498933 4.20514667,20.6 4.20514667,20.6 L0.0206,20.6 C0.058415013,21.4123366 0.217179409,22.2144902 0.491653333,22.9799867 L5.69246667,22.9799867 C6.20253934,20.2104968 8.66394285,18.2322598 11.47832,18.32988 C14.250378,18.1946165 16.6556797,20.2246144 16.9881333,22.9799867 L19.0728533,22.9799867 L18.33812,20.6 L18.3326267,20.6 Z" id="Path_21359" fill="#B8C3BD"></path>
                            </g>
                            <path d="M52.5863067,16.30284 C52.1537612,14.0642298 50.5133316,12.2512906 48.3289733,11.5978 L48.3289733,11.5978 C45.6393646,10.6822399 42.8450044,10.1096175 40.0120667,9.89349333 L40.0024533,9.88113333 L6.13605333,10.20936 C6.10224853,10.6046445 6.12444102,11.0027224 6.20197333,11.3918 C5.51982723,11.7302592 4.86384701,12.1190732 4.23948,12.5550133 L4.23948,12.5550133 L4.13785333,12.6305467 C4.06781333,12.6799867 4.00052,12.7308 3.93597333,12.78024 C3.81237333,12.8717956 3.69335111,12.9633511 3.57890667,13.0549067 C3.52534667,13.09748 3.47041333,13.13868 3.41822667,13.1826267 C2.35524892,13.9711653 1.50215327,15.0086503 0.933866667,16.20396 L0.933866667,16.20396 C0.240450821,17.5603022 -0.0750111898,19.0783148 0.0206,20.5986267 L0.0206,20.5986267 C0.0591475913,21.3944082 0.211296533,22.1805881 0.472426667,22.9332933 L0.472426667,22.9484 L0.484786667,22.9786133 L0.484786667,22.9786133 L5.6856,22.9786133 C5.85091235,22.1810036 6.17047697,21.4233789 6.62633333,20.74832 C5.80958784,22.9440343 6.66662408,25.4104296 8.66893652,26.6265625 C10.671249,27.8426955 13.2550067,27.4661154 14.826893,25.7290466 C16.3987793,23.9919778 16.5161668,21.3835612 15.1066667,19.51232 C16.1250266,20.4080812 16.7918685,21.6366279 16.9881333,22.9786133 L35.8234,22.9786133 C36.037674,21.921663 36.5264889,20.9397703 37.24068,20.1316933 C36.1458799,22.1581175 36.6139004,24.6738339 38.3642163,26.1709566 C40.1145321,27.6680794 42.6723874,27.7405284 44.5046386,26.3448789 C46.3368898,24.9492294 46.9465567,22.4640375 45.9682133,20.3788933 C46.1560556,20.6037484 46.3298819,20.8399504 46.4887067,21.08616 C46.7232011,21.4569541 46.9266876,21.8464722 47.0970933,22.2507467 C47.1891067,22.4691067 47.2536533,22.6503867 47.2962267,22.7781067 C47.3388,22.9058267 47.35528,22.97724 47.35528,22.97724 L53.3443867,22.97724 C53.36224,22.8138133 53.3773467,22.6394 53.3883333,22.4594933 C53.3883333,22.4361467 53.3883333,22.4114267 53.3883333,22.3867067 C53.3979467,22.2205333 53.4048133,22.05024 53.4089333,21.87308 L53.4089333,21.85248 C53.4521214,19.9689927 53.1705931,18.0921375 52.5766933,16.3042133 L52.5863067,16.30284 Z" id="Path_21360" fill="#B7BCBC" opacity="0.45" style="mix-blend-mode: multiply;"></path>
                        </g>
                        <g id="Group_10038" transform="translate(97.303413, 0.000000)">
                            <g id="Group_10037">
                                <rect id="Rectangle_6398" fill="#889091" x="5.08957333" y="13.3185867" width="3.17652" height="23.9481867"></rect>
                                <path d="M9.94842667,0.940733333 L9.94842667,3.7904 C10.9681634,3.26911738 11.9251468,2.63327857 12.80084,1.8952 C14.2909067,0.649586667 9.94842667,0.940733333 9.94842667,0.940733333 Z" id="Path_21361" fill="#445052"></path>
                                <path d="M9.94842667,5.35188 L9.94842667,8.20841333 C10.9679226,7.68671943 11.924861,7.05091058 12.80084,6.31321333 C14.2909067,5.06622667 9.94842667,5.35188 9.94842667,5.35188 Z" id="Path_21362" fill="#445052"></path>
                                <path d="M9.94842667,9.76852 L9.94842667,12.6223067 C10.9680121,12.101311 11.924977,11.4659452 12.80084,10.72848 C14.2909067,9.48149333 9.94842667,9.76852 9.94842667,9.76852 Z" id="Path_21363" fill="#445052"></path>
                                <path d="M0.31312,1.8952 C1.18901349,2.63301136 2.14596536,3.26882916 3.16553333,3.7904 L3.16553333,0.940733333 C3.16553333,0.940733333 -1.17694667,0.649586667 0.31312,1.8952 Z" id="Path_21364" fill="#445052"></path>
                                <path d="M0.31312,6.31046667 C1.18926949,7.04793644 2.14618106,7.68372747 3.16553333,8.20566667 L3.16553333,5.35188 C3.16553333,5.35188 -1.17694667,5.06622667 0.31312,6.31046667 Z" id="Path_21365" fill="#445052"></path>
                                <path d="M0.31312,10.7271067 C1.18915417,11.4643434 2.14609206,12.0996912 3.16553333,12.6209333 L3.16553333,9.76852 C3.16553333,9.76852 -1.17694667,9.48149333 0.31312,10.7271067 Z" id="Path_21366" fill="#445052"></path>
                                <rect id="Rectangle_6399" fill="#112223" x="2.54890667" y="0" width="7.94061333" height="13.53008" rx="1.616"></rect>
                                <path d="M6.51646667,0.936612751 C5.61919541,0.936612751 4.89181333,1.66399541 4.89181333,2.56126667 C4.89181333,3.45853793 5.61919541,4.18592 6.51646667,4.18592 C7.41373793,4.18592 8.14112058,3.45853793 8.14112058,2.56126667 C8.14148479,2.13027009 7.97043359,1.71682117 7.66567288,1.41206046 C7.36091216,1.10729974 6.94746325,0.936248546 6.51646667,0.936612751 Z" id="Path_21367" fill="#E05132"></path>
                                <circle id="Ellipse_349" fill="#F0BE2E" cx="6.52058667" cy="6.76504" r="1.62465333"></circle>
                                <path d="M6.51646667,9.34553333 C5.61919541,9.34553333 4.89181333,10.0729154 4.89181333,10.9701867 C4.89181333,11.8674579 5.61919541,12.59484 6.51646667,12.59484 C7.41373793,12.59484 8.14112,11.8674579 8.14112,10.9701867 C8.14112,10.5393018 7.96995166,10.1260649 7.66527006,9.82138328 C7.36058845,9.51670168 6.94735152,9.34553333 6.51646667,9.34553333 L6.51646667,9.34553333 Z" id="Path_21368" fill="#1B9D5C"></path>
                            </g>
                            <path d="M12.7994667,6.31184 C13.95444,5.35050667 11.6032933,5.30106667 10.48952,5.32990667 L10.48952,3.50062667 C11.3051147,3.03429582 12.0780798,2.49708052 12.7994667,1.8952 C13.9942667,0.895413333 11.4343733,0.883053333 10.37828,0.916013333 C10.1490186,0.360101168 9.60627478,-0.00190893241 9.00494667,-7.51302969e-06 L6.54256,-7.51302969e-06 L6.54256,37.2667733 L8.25922667,37.2667733 L8.25922667,13.53008 L9.00494667,13.53008 C9.7063875,13.5297415 10.3113129,13.0372003 10.4538133,12.3503867 C11.2821504,11.8823127 12.0671381,11.3413698 12.7994667,10.7339733 C13.95444,9.77264 11.6032933,9.7232 10.48952,9.75204 L10.48952,7.91726667 C11.3051756,7.45103219 12.0781489,6.91381117 12.7994667,6.31184 Z" id="Path_21369" fill="#B7BCBC" opacity="0.65" style="mix-blend-mode: multiply;"></path>
                        </g>
                        <g id="Group_10040" transform="translate(130.713867, 35.081800)">
                            <g id="Group_10039">
                                <path d="M45.5987867,10.6708 C45.5987867,10.6708 46.9268,1.44337333 37.3326933,0.410626667 C27.7385867,-0.62212 22.5006933,0.48616 20.3596667,1.59306667 C18.21864,2.69997333 13.9393333,9.26862667 13.9393333,9.26862667 C13.9393333,9.26862667 5.67324,9.85916 3.60774667,12.51656 C1.85103009,15.1703484 1.08432463,18.3577428 1.442,21.5201333 L7.05206667,21.5201333 C7.05206667,21.5201333 8.18232,17.1652933 12.38884,17.1652933 C15.0428668,17.0450163 17.3768282,18.9059647 17.8505867,21.5201333 L35.4883067,21.5201333 C35.7995354,18.9369524 38.0561987,17.0348048 40.6547867,17.1652933 C43.2905742,17.0739614 45.5958346,18.9264654 46.07396,21.5201333 L50.9451733,21.5201333 C50.9451733,21.5201333 53.7179333,14.7303733 45.5987867,10.6708 Z" id="Path_21370" fill="#E05132"></path>
                                <path d="M12.4932133,16.4442933 C10.6422907,16.4442933 8.97364769,17.5593357 8.26545864,19.2694184 C7.55726958,20.9795011 7.94901993,22.947805 9.25801628,24.2564085 C10.5670126,25.565012 12.5354341,25.9561715 14.2453041,25.2474692 C15.9551742,24.5387668 17.0697155,22.8697892 17.0691602,21.0188667 C17.0684017,18.4921774 15.0199027,16.4442933 12.4932133,16.4442933 Z" id="Path_21371" fill="#112223"></path>
                                <path d="M12.4932133,18.3559733 C11.4154931,18.3559733 10.443918,19.0052499 10.0316208,20.0009867 C9.61932351,20.9967236 9.84751868,22.1427798 10.6097784,22.9046466 C11.3720381,23.6665134 12.5182119,23.8941177 13.513736,23.4813071 C14.5092601,23.0684965 15.1580355,22.0965867 15.1574804,21.0188667 C15.1567218,19.5479692 13.964111,18.3559733 12.4932133,18.3559733 L12.4932133,18.3559733 Z" id="Path_21372" fill="#B8C3BD"></path>
                                <path d="M40.9061067,16.4442933 C39.055184,16.4442933 37.386541,17.5593357 36.678352,19.2694184 C35.9701629,20.9795011 36.3619133,22.947805 37.6709096,24.2564085 C38.979906,25.565012 40.9483274,25.9561715 42.6581974,25.2474692 C44.3680675,24.5387668 45.4826088,22.8697892 45.4820535,21.0188667 C45.481295,18.4921774 43.432796,16.4442933 40.9061067,16.4442933 L40.9061067,16.4442933 Z" id="Path_21373" fill="#112223"></path>
                                <path d="M40.9061067,18.3559733 C39.8283864,18.3559733 38.8568114,19.0052499 38.4445141,20.0009867 C38.0322168,20.9967236 38.260412,22.1427798 39.0226717,22.9046466 C39.7849314,23.6665134 40.9311052,23.8941177 41.9266293,23.4813071 C42.9221535,23.0684965 43.5709289,22.0965867 43.5703737,21.0188667 C43.5696151,19.5479692 42.3770044,18.3559733 40.9061067,18.3559733 Z" id="Path_21374" fill="#B8C3BD"></path>
                                <path d="M47.43768,11.7557333 C47.43768,11.7557333 47.0023333,14.95148 47.7398133,15.1712133 C48.6673645,15.2865049 49.6056222,15.2865049 50.5331733,15.1712133 C49.8442479,13.7634714 48.7710857,12.5793745 47.43768,11.7557333 L47.43768,11.7557333 Z" id="Path_21375" fill="#E05132"></path>
                                <path d="M2.15750667,15.2714667 C3.16548167,15.300107 4.17318276,15.2055629 5.15824,14.9899333 C6.18137333,14.66308 6.15116,10.8699333 6.15116,10.8699333 C4.1044237,11.4793595 2.56564956,13.1752918 2.15750667,15.2714667 L2.15750667,15.2714667 Z" id="Path_21376" fill="#F0BE2E"></path>
                                <path d="M21.24684,4.54436 C19.6542332,6.13260351 18.1508745,7.80789251 16.74368,9.56252 L29.5816,9.56252 L29.5816,3.40998667 C29.5816,3.40998667 22.83716,3.05704 21.24684,4.54436 Z" id="Path_21377" fill="#1F2F30"></path>
                                <path d="M39.3762133,4.00464 C36.3925081,3.5972321 33.3840096,3.3985317 30.37264,3.40998667 L30.37264,9.56389333 L43.5703733,9.56389333 C43.5703733,9.56389333 43.5744933,4.82314667 39.3762133,4.00464 Z" id="Path_21378" fill="#1F2F30"></path>
                                <rect id="Rectangle_6400" fill="#1F2F30" x="25.2556" y="12.2212933" width="3.00210667" height="1.04922667"></rect>
                                <rect id="Rectangle_6401" fill="#1F2F30" x="39.1551067" y="12.2212933" width="3.00073333" height="1.04922667"></rect>
                                <rect id="Rectangle_6402" fill="#B83E1D" x="29.5843467" y="9.56389333" width="1" height="11.9548667"></rect>
                                <rect id="Rectangle_6403" fill="#B83E1D" x="16.74368" y="9.56389333" width="1" height="8.26609333"></rect>
                                <rect id="Rectangle_6404" fill="#B83E1D" x="42.78208" y="9.56389333" width="1" height="7.36793333"></rect>
                                <path d="M12.4932133,14.9363733 C6.63045333,14.9363733 5.68285333,19.2912133 5.68285333,19.2912133 L1.4008,19.2912133 C1.35607842,20.0341445 1.37031411,20.7794518 1.44337333,21.5201333 L7.05206667,21.5201333 C7.05206667,21.5201333 8.18369333,17.1652933 12.3902133,17.1652933 C15.0442401,17.0450163 17.3782015,18.9059647 17.85196,21.5201333 L20.15504,21.5201333 L19.1222933,18.9863333 C18.5248933,17.5937733 17.1790267,14.9363733 12.4932133,14.9363733 Z" id="Path_21379" fill="#B8C3BD"></path>
                                <path d="M40.9047333,14.9363733 C35.2452267,14.9363733 34.23308,19.2912133 34.23308,19.2912133 L34.2303333,19.2912133 L33.5436667,21.5201333 L35.4951733,21.5201333 C35.8063718,18.9375056 38.0622082,17.0355494 40.66028,17.1652933 C43.2960675,17.0739614 45.6013279,18.9264654 46.0794533,21.5201333 L50.9506667,21.5201333 C51.2071586,20.8030842 51.3557262,20.0519152 51.3915067,19.2912133 L47.4733867,19.2912133 C47.4733867,19.2912133 46.453,14.9363733 40.9047333,14.9363733 Z" id="Path_21380" fill="#B8C3BD"></path>
                            </g>
                            <path d="M50.5345467,15.1712133 C50.0022557,14.0520285 49.2034133,13.0805908 48.20812,12.3421467 L48.0584267,12.2226667 C47.9513067,12.13752 47.8400667,12.0523733 47.7233333,11.9658533 C47.6615333,11.91916 47.59836,11.8724667 47.5338133,11.82852 L47.4390533,11.75848 L47.4390533,11.75848 C46.8542958,11.3501558 46.2401105,10.9856841 45.6015333,10.6680533 C45.6736375,10.30377 45.694439,9.93119232 45.6633333,9.56114667 L13.9489467,9.25489333 L13.94208,9.26725333 C11.2891964,9.47009191 8.67248869,10.0067223 6.15390667,10.86444 L6.15390667,10.86444 C4.1056573,11.4747759 2.56655067,13.1731917 2.16025333,15.2714667 L2.16025333,15.2714667 C1.60423645,16.9456652 1.34082367,18.7031441 1.38157333,20.4667867 L1.38157333,20.4860133 C1.38157333,20.6508133 1.39118667,20.8114933 1.4008,20.96668 C1.4008,20.9886533 1.4008,21.012 1.4008,21.0339733 C1.41178667,21.2028933 1.42414667,21.36632 1.44062667,21.5201333 L7.05206667,21.5201333 C7.05206667,21.5201333 7.06992,21.4514667 7.10837333,21.3319867 C7.14682667,21.2125067 7.20862667,21.0435867 7.29514667,20.83896 C7.45413122,20.4605469 7.64478634,20.0962349 7.86508,19.7499067 C8.01363957,19.5192197 8.17598812,19.2977103 8.35124,19.0865867 C7.44438129,21.0368234 8.01901768,23.3554261 9.73166084,24.6564524 C11.444304,25.9574787 13.8320807,25.8893024 15.4676999,24.4926757 C17.103319,23.0960491 17.5447245,20.748436 16.5280667,18.85312 C17.1965438,19.6098495 17.6540821,20.5291889 17.8547067,21.51876 L35.4924267,21.51876 C35.6764995,20.2623648 36.3009672,19.1122344 37.2544133,18.2735733 C35.9306238,20.0265946 36.0388301,22.4728514 37.5122309,24.1021434 C38.9856317,25.7314354 41.4087227,26.0842965 43.2856051,24.9428873 C45.1624874,23.8014781 45.9638736,21.4876801 45.1950267,19.42992 C45.621945,20.0622478 45.9214297,20.7717749 46.0767067,21.51876 L50.94792,21.51876 L50.94792,21.51876 L50.96028,21.48992 L50.96028,21.4761867 C51.2049924,20.7727143 51.347891,20.0378734 51.38464,19.29396 L51.38464,19.29396 C51.4737899,17.8689251 51.1787875,16.4460843 50.5304267,15.17396 L50.5345467,15.1712133 Z" id="Path_21381" fill="#B7BCBC" opacity="0.45" style="mix-blend-mode: multiply;"></path>
                        </g>
                        <g id="Group_10042" transform="translate(0.000000, 47.467893)">
                            <g id="Group_10041">
                                <path d="M75.6294667,2.05450667 C74.8186388,0.772718565 73.4079675,-0.00465358985 71.8912533,-0.00549333333 L3.0282,-0.00549333333 C1.35425438,-0.00549333333 -0.00274666667,1.35150771 -0.00274666667,3.02545333 L-0.00274666667,33.6398 C-0.00274666667,34.4435308 0.316628037,35.2143228 0.88508031,35.7825175 C1.45353258,36.3507122 2.22446928,36.6693736 3.0282,36.6693736 L82.3931333,36.6693736 C83.5676509,36.6693736 84.6941879,36.2034177 85.524826,35.3730372 C86.3554641,34.5426566 86.8221382,33.4162643 86.8221382,32.2417467 L86.8221382,20.9708 C86.8233737,20.1301547 86.5851966,19.3065383 86.1354667,18.5963067 L75.6294667,2.05450667 Z" id="Path_21382" fill="#F0BE2E"></path>
                                <path d="M73.1148933,3.94421333 C72.6834424,3.2607361 71.931824,2.84605008 71.12356,2.84554667 L67.0873333,2.84554667 C66.4613471,2.84554667 65.8610196,3.0943126 65.4185093,3.5370805 C64.975999,3.9798484 64.7275823,4.5803205 64.7279463,5.20630667 L64.7279463,16.9853867 C64.7275821,17.6112466 64.9760425,18.2115777 65.4185924,18.6541276 C65.8611423,19.0966775 66.4614734,19.3451379 67.0873333,19.3447737 L78.6082267,19.3447737 C79.4691441,19.3451392 80.2619168,18.8765528 80.6767104,18.1221489 C81.0915039,17.3677449 81.0624614,16.4473003 80.6009333,15.7205467 L73.1148933,3.94421333 Z" id="Path_21383" fill="#273637"></path>
                                <path d="M71.0356667,28.8853199 C67.8870611,28.8847645 65.0482045,30.7810846 63.8430287,33.6899106 C62.6378529,36.5987366 63.3037362,39.9471297 65.5301366,42.1735301 C67.7565369,44.3999305 71.10493,45.0658138 74.013756,43.860638 C76.922582,42.6554622 78.8189021,39.8166056 78.8183468,36.668 C78.8175885,32.3700586 75.333608,28.8860782 71.0356667,28.8853199 Z" id="Path_21384" fill="#112223"></path>
                                <path d="M71.0356667,32.8322798 C69.4835823,32.8322798 68.0843521,33.7673065 67.4905235,35.2012987 C66.8966949,36.6352908 67.2252321,38.2858007 68.3229179,39.3830936 C69.4206037,40.4803865 71.0712311,40.8083329 72.5050106,40.213991 C73.93879,39.6196491 74.8733155,38.2200842 74.8727602,36.668 C74.8727602,35.6504658 74.4684522,34.6746272 73.7488181,33.9552507 C73.029184,33.2358742 72.0532008,32.8319157 71.0356667,32.8322798 Z" id="Path_21385" fill="#B8C3BD"></path>
                                <path d="M25.67584,28.8853199 C22.5272344,28.8847645 19.6883778,30.7810846 18.483202,33.6899106 C17.2780262,36.5987366 17.9439095,39.9471297 20.1703099,42.1735301 C22.3967103,44.3999305 25.7451034,45.0658138 28.6539294,43.860638 C31.5627554,42.6554622 33.4590755,39.8166056 33.4585201,36.668 C33.4585201,32.3697445 29.9740955,28.8853199 25.67584,28.8853199 Z" id="Path_21386" fill="#112223"></path>
                                <path d="M25.67584,32.83228 C24.1237557,32.83228 22.7245254,33.7673065 22.1306968,35.2012987 C21.5368682,36.6352908 21.8654054,38.2858007 22.9630912,39.3830936 C24.060777,40.4803865 25.7114044,40.8083329 27.1451839,40.213991 C28.5789633,39.6196491 29.5134888,38.2200842 29.5129336,36.668 C29.5121751,34.5493682 27.7944719,32.83228 25.67584,32.83228 L25.67584,32.83228 Z" id="Path_21387" fill="#B8C3BD"></path>
                                <path d="M57.9780133,4.33011844 L42.2162667,4.33011844 C40.8783237,4.33011844 39.7937067,5.41473706 39.7937067,6.75268 L39.7937067,36.668 L60.40332,36.668 L60.40332,6.75268 C60.40332,6.10970097 60.1477101,5.49309674 59.6927978,5.03869957 C59.2378854,4.5843024 58.620992,4.329391 57.9780133,4.33011844 L57.9780133,4.33011844 Z" id="Path_21388" fill="#E3E7E5"></path>
                                <path d="M56.7420133,6.04816 L43.3149333,6.04816 C42.7818259,6.04816 42.2705731,6.26002994 41.893738,6.63712261 C41.516903,7.01421528 41.3053823,7.52561266 41.3057462,8.05872 L41.3057462,36.6693733 L58.74708,36.6693733 L58.74708,8.05872 C58.74708,6.95046012 57.8502691,6.05118803 56.7420133,6.04816 L56.7420133,6.04816 Z" id="Path_21389" fill="#273637"></path>
                                <rect id="Rectangle_6405" fill="#3DCDCA" x="42.8370133" y="8.05734667" width="6.38462667" height="28.6120267"></rect>
                                <rect id="Rectangle_6406" fill="#3DCDCA" x="50.83668" y="8.05734667" width="6.38462667" height="28.6120267"></rect>
                                <rect id="Rectangle_6407" fill="#273637" x="52.0342267" y="10.46892" width="3.98953333" height="11.89444"></rect>
                                <rect id="Rectangle_6408" fill="#273637" x="44.0331867" y="10.46892" width="3.98953333" height="11.89444"></rect>
                                <rect id="Rectangle_6409" fill="#3DCDCA" x="2.82357333" y="11.5662133" width="9.23566667" height="25.10316"></rect>
                                <rect id="Rectangle_6410" fill="#273637" x="4.55534667" y="13.6811467" width="5.77074667" height="10.43596"></rect>
                                <rect id="Rectangle_6411" fill="#273637" x="13.70312" y="2.85104" width="23.5691467" height="16.4978533" rx="2.577"></rect>
                                <rect id="Rectangle_6412" fill="#F0BE2E" x="19.9614" y="2.85104" width="10.94272" height="16.4978533"></rect>
                                <rect id="Rectangle_6413" fill="#273637" x="20.93784" y="2.85104" width="8.98984" height="16.4978533"></rect>
                                <rect id="Rectangle_6414" fill="#273637" x="46.02864" y="23.28212" width="1.99408" height="1"></rect>
                                <rect id="Rectangle_6415" fill="#273637" x="8.33201333" y="24.73648" width="1.99408" height="1"></rect>
                                <rect id="Rectangle_6416" fill="#273637" x="52.0342267" y="23.28212" width="1.99545333" height="1"></rect>
                            </g>
                            <path d="M0,20.6260933 L0,33.6384267 C0.00309429382,35.2280246 1.237381,36.5433564 2.82357333,36.6474 L2.82357333,36.668 L17.89316,36.668 C17.89316,40.9666347 21.377892,44.4513667 25.6765267,44.4513667 C29.9751614,44.4513667 33.4598933,40.9666347 33.4598933,36.668 L63.2529867,36.668 C63.2529867,40.9666347 66.7377186,44.4513667 71.0363533,44.4513667 C75.334988,44.4513667 78.81972,40.9666347 78.81972,36.668 L82.3903867,36.668 C83.5649042,36.6683643 84.6914412,36.2020444 85.5220793,35.3716638 C86.3527175,34.5412833 86.8193867,33.4148909 86.8193867,32.2403733 L86.8193867,20.9639333 C86.8193867,20.8499467 86.80428,20.7387067 86.79604,20.6260933 L0,20.6260933 Z" id="Path_21390" fill="#B7BCBC" opacity="0.55" style="mix-blend-mode: multiply;"></path>
                        </g>
                        <g id="Group_10045" transform="translate(106.444320, 61.190240)">
                            <path d="M21.48992,32.97648 C21.48992,32.97648 19.1854667,34.41848 20.2978667,36.2917067 L24.6925333,34.2880133 L23.7531733,32.03712 L21.48992,32.97648 Z" id="Path_21391" fill="#112223"></path>
                            <polygon id="Path_21392" fill="#F0BE2E" points="15.3854533 7.67418667 17.6679333 9.62569333 18.96436 8.76873333 16.9126 6.57552"></polygon>
                            <path d="M19.6386667,11.0855467 C17.3342133,10.0871333 14.7647067,15.04212 14.03272,16.3467867 L9.22605333,20.7634267 L10.8589467,21.9870667 C10.8589467,21.9870667 15.52828,17.7297333 15.9086933,17.3836533 C16.2891067,17.0375733 21.94312,12.08396 19.6386667,11.0855467 Z" id="Path_21393" fill="#00ABAD"></path>
                            <path d="M27.1205867,20.2813867 C26.2009167,19.4039401 24.7861496,19.3075049 23.75592,20.05204 C23.75592,20.05204 18.1582133,25.1333733 18.3353733,26.73468 C19.113638,29.0909926 20.186465,31.3395457 21.5283733,33.4269333 L23.75592,32.1126533 C23.75592,32.1126533 21.3182533,28.00776 21.7302533,26.8939867 C22.1422533,25.7802133 27.1205867,20.2813867 27.1205867,20.2813867 Z" id="Path_21394" fill="#112223"></path>
                            <g id="Group_10043" transform="translate(24.651333, 26.887120)">
                                <rect id="Rectangle_6417" fill="#C3CCC7" x="7.2718" y="0.670186667" width="1" height="13.8459467"></rect>
                                <polygon id="Rectangle_6418" fill="#C3CCC7" transform="translate(7.588372, 7.592524) rotate(-45.000000) translate(-7.588372, -7.592524) " points="7.2718184 0.669551048 7.90492507 0.669551048 7.90492507 14.5154977 7.2718184 14.5154977"></polygon>
                                <rect id="Rectangle_6419" fill="#C3CCC7" x="0.666066667" y="7.27592" width="13.8459467" height="1"></rect>
                                <polygon id="Rectangle_6420" fill="#C3CCC7" transform="translate(7.588753, 7.592579) rotate(-45.029000) translate(-7.588753, -7.592579) " points="0.665779979 7.2760252 14.5117266 7.2760252 14.5117266 7.90913187 0.665779979 7.90913187"></polygon>
                                <polygon id="Rectangle_6421" fill="#C3CCC7" transform="translate(7.588577, 7.592810) rotate(-67.505000) translate(-7.588577, -7.592810) " points="0.665603414 7.27625632 14.5115501 7.27625632 14.5115501 7.90936299 0.665603414 7.90936299"></polygon>
                                <polygon id="Rectangle_6422" fill="#C3CCC7" transform="translate(7.591354, 7.593987) rotate(-22.514113) translate(-7.591354, -7.593987) " points="7.27472714 0.669404696 7.90798099 0.669404696 7.90798099 14.5185702 7.27472714 14.5185702"></polygon>
                                <polygon id="Rectangle_6423" fill="#C3CCC7" transform="translate(7.588374, 7.593256) rotate(-67.501000) translate(-7.588374, -7.593256) " points="7.27182088 0.670282973 7.90492755 0.670282973 7.90492755 14.5162296 7.27182088 14.5162296"></polygon>
                                <polygon id="Rectangle_6424" fill="#C3CCC7" transform="translate(7.590641, 7.593543) rotate(-22.514113) translate(-7.590641, -7.593543) " points="0.666057882 7.27691624 14.5152234 7.27691624 14.5152234 7.91017008 0.666057882 7.91017008"></polygon>
                                <path d="M7.52586667,0 C3.36944528,0 0,3.36944528 0,7.52586667 C0,11.6822881 3.36944528,15.0517333 7.52586667,15.0517333 C11.6822881,15.0517333 15.0517333,11.6822881 15.0517333,7.52586667 C15.0517333,3.36944528 11.6822881,0 7.52586667,0 Z M7.52586667,13.0068402 C5.30821457,13.0073955 3.30864373,11.6718682 2.45972841,9.62313105 C1.61081309,7.5743939 2.07977212,5.21600588 3.647889,3.647889 C5.21600588,2.07977212 7.5743939,1.61081309 9.62313105,2.45972841 C11.6718682,3.30864373 13.0073955,5.30821457 13.0068402,7.52586667 C13.0068402,10.5529247 10.5529247,13.0068402 7.52586667,13.0068402 L7.52586667,13.0068402 Z" id="Path_21395" fill="#112223"></path>
                                <path d="M7.52586667,6.10034667 C6.73857371,6.10034667 6.10034667,6.73857371 6.10034667,7.52586667 C6.10034667,8.31315962 6.73857371,8.95138667 7.52586667,8.95138667 C8.31315962,8.95138667 8.95138667,8.31315962 8.95138667,7.52586667 C8.95138667,7.14779526 8.80119838,6.78520867 8.53386153,6.51787181 C8.26652467,6.25053495 7.90393808,6.10034667 7.52586667,6.10034667 Z" id="Path_21396" fill="#424F50"></path>
                            </g>
                            <g id="Group_10044" transform="translate(0.000000, 26.887120)">
                                <rect id="Rectangle_6425" fill="#C3CCC7" x="7.2718" y="0.670186667" width="1" height="13.8459467"></rect>
                                <polygon id="Rectangle_6426" fill="#C3CCC7" transform="translate(7.589745, 7.592524) rotate(-45.000000) translate(-7.589745, -7.592524) " points="7.27319173 0.669551048 7.9062984 0.669551048 7.9062984 14.5154977 7.27319173 14.5154977"></polygon>
                                <rect id="Rectangle_6427" fill="#C3CCC7" x="0.666066667" y="7.27592" width="13.8459467" height="1"></rect>
                                <polygon id="Rectangle_6428" fill="#C3CCC7" transform="translate(7.588972, 7.593128) rotate(-45.000000) translate(-7.588972, -7.593128) " points="0.667044135 7.2766222 14.5108999 7.2766222 14.5108999 7.90963326 0.667044135 7.90963326"></polygon>
                                <polygon id="Rectangle_6429" fill="#C3CCC7" transform="translate(7.588832, 7.592251) rotate(-67.521000) translate(-7.588832, -7.592251) " points="0.665858785 7.2750111 14.5118055 7.2750111 14.5118055 7.9094911 0.665858785 7.9094911"></polygon>
                                <polygon id="Rectangle_6430" fill="#C3CCC7" transform="translate(7.591989, 7.593724) rotate(-22.514113) translate(-7.591989, -7.593724) " points="7.2746748 0.669141702 7.9093023 0.669141702 7.9093023 14.5183072 7.2746748 14.5183072"></polygon>
                                <polygon id="Rectangle_6431" fill="#C3CCC7" transform="translate(7.589748, 7.593256) rotate(-67.501000) translate(-7.589748, -7.593256) " points="7.27319422 0.670282973 7.90630088 0.670282973 7.90630088 14.5162296 7.27319422 14.5162296"></polygon>
                                <polygon id="Rectangle_6432" fill="#C3CCC7" transform="translate(7.589267, 7.589423) rotate(-22.514113) translate(-7.589267, -7.589423) " points="0.664684549 7.27279624 14.51385 7.27279624 14.51385 7.90605008 0.664684549 7.90605008"></polygon>
                                <path d="M7.52586667,0 C3.36944528,0 0,3.36944528 0,7.52586667 C0,11.6822881 3.36944528,15.0517333 7.52586667,15.0517333 C11.6822881,15.0517333 15.0517333,11.6822881 15.0517333,7.52586667 C15.0517333,3.36944528 11.6822881,0 7.52586667,0 Z M7.52586667,13.00684 C5.30833947,13.00684 3.3091901,11.6709604 2.46070754,9.62217925 C1.61222497,7.5733981 2.08152304,5.21523534 3.64974797,3.64740325 C5.2179729,2.07957116 7.57625316,1.6108639 9.62482168,2.45985973 C11.6733902,3.30885556 13.0087688,5.30833954 13.0082135,7.52586667 C13.007455,10.5531468 10.5531469,13.00684 7.52586667,13.00684 L7.52586667,13.00684 Z" id="Path_21397" fill="#112223"></path>
                                <path d="M7.52586667,6.10034667 C6.73857371,6.10034667 6.10034667,6.73857371 6.10034667,7.52586667 C6.10034667,8.31315962 6.73857371,8.95138667 7.52586667,8.95138667 C8.31315962,8.95138667 8.95138667,8.31315962 8.95138667,7.52586667 C8.95138667,6.73857371 8.31315962,6.10034667 7.52586667,6.10034667 L7.52586667,6.10034667 Z" id="Path_21398" fill="#424F50"></path>
                            </g>
                            <polygon id="Path_21399" fill="#A6B3AC" points="19.99436 34.1644133 20.4420667 34.48028 29.2986933 21.9829467 27.7509467 21.9829467"></polygon>
                            <path d="M20.2113467,31.6567067 C18.7626669,31.6567067 17.58828,32.8310936 17.58828,34.2797733 C17.58828,35.7284531 18.7626669,36.90284 20.2113467,36.90284 C21.6600264,36.90284 22.8344133,35.7284531 22.8344133,34.2797733 C22.8344133,32.8310936 21.6600264,31.6567067 20.2113467,31.6567067 Z M20.2113467,36.0197872 C19.2503638,36.0197872 18.4713333,35.2407562 18.4713333,34.2797733 C18.4713333,33.3187905 19.2503638,32.53976 20.2113467,32.53976 C21.1723295,32.53976 21.9513605,33.3187905 21.9513605,34.2797733 C21.9517248,34.7413653 21.7685196,35.1841564 21.4421247,35.5105513 C21.1157298,35.8369462 20.6729386,36.0201514 20.2113467,36.0197872 L20.2113467,36.0197872 Z" id="Path_21400" fill="#A6B3AC"></path>
                            <rect id="Rectangle_6433" fill="#A6B3AC" x="11.6609733" y="25.38744" width="14.16456" height="1.49968"></rect>
                            <path d="M20.21272,33.4241867 C19.7401925,33.4241867 19.3571333,33.8072459 19.3571333,34.2797733 C19.3571333,34.7523008 19.7401925,35.13536 20.21272,35.13536 C20.6852475,35.13536 21.0683067,34.7523008 21.0683067,34.2797733 C21.0683067,33.8072459 20.6852475,33.4241867 20.21272,33.4241867 Z" id="Path_21401" fill="#A6B3AC"></path>
                            <polygon id="Path_21402" fill="#445052" points="26.2141867 22.2383867 31.5701867 34.4129867 32.5864533 34.33608 27.4405733 21.98844"></polygon>
                            <polygon id="Path_21403" fill="#A6B3AC" points="10.8424667 26.13728 19.6318 34.4129867 20.46816 33.4241867 12.19932 25.09904"></polygon>
                            <polygon id="Path_21404" fill="#445052" points="7.09876 34.2152267 8.08069333 34.7576933 14.3856667 21.7838133 12.6580133 21.61764"></polygon>
                            <path d="M8.19193333,21.7769467 C4.45646667,26.0026933 9.55428,26.13728 9.55428,26.13728 C9.96156183,25.970014 10.1741494,25.5198285 10.04456,25.09904 C9.46688647,25.0843191 8.89972697,24.9412391 8.3842,24.6801733 C8.19026094,24.5584414 8.05438394,24.3628519 8.0079831,24.1386244 C7.96158225,23.9143969 8.00867486,23.6809444 8.13837333,23.49224 C9.55565333,21.3594533 11.13224,21.9815733 11.13224,21.9815733 L11.6582267,20.8485733 C10.42477,20.355058 9.01361496,20.733006 8.19193333,21.7769467 Z" id="Path_21405" fill="#112223"></path>
                            <path d="M11.3506,20.63296 C10.1214667,20.85544 10.4675467,21.6094 10.4675467,21.6094 C11.5778848,22.7192827 13.2179512,23.1105838 14.7097733,22.6215467 C17.07328,21.70004 12.5797333,20.41048 11.3506,20.63296 Z" id="Path_21406" fill="#112223"></path>
                            <path d="M8.85388,19.43404 C8.85388,19.43404 4.51826667,21.49404 7.28141333,22.9964667 C7.28141333,22.9964667 8.92941333,20.6837733 10.1420667,20.6618 C10.1420667,20.65768 10.27528,19.5494 8.85388,19.43404 Z" id="Path_21407" fill="#F0BE2E"></path>
                            <path d="M18.9176667,9.75616 C16.6132133,8.75774667 14.0437067,13.7127333 13.31172,15.0174 L8.50505333,19.43404 L10.1379467,20.65768 C10.1379467,20.65768 14.80728,16.4003467 15.1876933,16.0542667 C15.5681067,15.7081867 21.22212,10.7545733 18.9176667,9.75616 Z" id="Path_21408" fill="#3DCDCA"></path>
                            <path d="M15.2137867,2.23026223 C13.9777612,2.22473311 12.8603479,2.96501751 12.3834837,4.10536409 C11.9066195,5.24571068 12.1644137,6.56107215 13.036452,7.43705099 C13.9084903,8.31302984 15.2226761,8.57675171 16.3651611,8.10503369 C17.507646,7.63331567 18.2529811,6.51925126 18.2529811,5.28321333 C18.2547965,4.47534914 17.9356212,3.69984891 17.3656627,3.1273149 C16.7957042,2.5547809 16.0216509,2.23211244 15.2137867,2.23026223 L15.2137867,2.23026223 Z" id="Path_21409" fill="#F0BE2E"></path>
                            <path d="M12.1746,3.30561333 C13.1802245,4.29850816 14.4024893,5.04455984 15.7452667,5.48509333 C15.8108326,5.25675581 15.9486436,5.05582153 16.13804,4.91241333 C16.4044613,4.74212258 16.7565846,4.80150256 16.9524267,5.04974667 C17.0794526,5.21162519 17.1271886,5.42193689 17.0824951,5.62279188 C17.0378015,5.82364688 16.9053896,5.99387268 16.7217067,6.08661333 C16.7217067,6.08661333 16.6173333,6.79388 17.5333467,7.24708 C17.5333467,7.24708 20.48464,4.76272 18.5262667,2.5544 C16.5678933,0.34608 12.8653867,0.693533333 12.1746,3.30561333 Z" id="Path_21410" fill="#112223"></path>
                            <path d="M19.6510267,7.79366667 L16.14216,9.97726667 C17.3160536,12.920864 19.3169619,15.4617075 21.9032933,17.2930133 C21.9032933,17.2930133 27.17552,15.7081867 28.0970267,14.2400933 C28.0970267,14.2400933 22.8508933,7.66182667 19.6510267,7.79366667 Z" id="Path_21411" fill="#3DCDCA"></path>
                            <path d="M28.0393467,14.3183733 L21.733,17.1598 L22.3441333,17.8121333 C22.3441333,17.8121333 13.5781467,19.1772267 14.3884133,22.4677333 C14.8786933,24.4576933 16.2849867,29.2121733 16.2849867,29.2121733 L18.9671067,28.5735733 C18.9671067,28.5735733 17.0142267,23.56228 17.8135067,22.9950933 C18.6127867,22.4279067 21.6492267,21.2289867 26.6976,21.20976 C31.7459733,21.1905333 32.2087867,17.0389467 28.0393467,14.3183733 Z" id="Path_21412" fill="#445052"></path>
                            <path d="M30.51684,20.16328 C30.51684,20.16328 25.3984267,20.6975067 24.8655733,21.27568 C24.5320372,21.6483082 24.2686913,22.0782227 24.0882667,22.54464 C24.0882667,22.54464 23.37276,23.36864 24.21736,23.5897467 C26.3311617,23.7040078 28.4506567,23.5284229 30.51684,23.06788 C30.9981958,22.741232 31.2864292,22.1973036 31.2864292,21.61558 C31.2864292,21.0338564 30.9981958,20.489928 30.51684,20.16328 Z" id="Path_21413" fill="#112223"></path>
                            <path d="M16.5610267,29.0817067 C16.5610267,29.0817067 14.1343467,30.3080933 15.0723333,32.2747067 L19.6263067,30.6788933 L18.8970667,28.3524667 L16.5610267,29.0817067 Z" id="Path_21414" fill="#112223"></path>
                            <path d="M16.3138267,0.126346667 C11.87796,-0.65096 12.02216,2.40196 12.02216,2.40196 C9.48836,3.20810667 10.37416,3.87142667 10.37416,3.87142667 C15.5008133,5.80096 16.8288267,3.38114667 16.8288267,3.38114667 L19.1978267,4.17356 C19.5809867,3.68328 20.7510667,0.905026667 16.3138267,0.126346667 Z" id="Path_21415" fill="#008D94"></path>
                            <path d="M16.3138267,0.126346667 C11.87796,-0.65096 12.02216,2.40196 12.02216,2.40196 C12.3545067,2.49534667 16.8288267,3.38114667 16.8288267,3.38114667 L19.1978267,4.17356 C19.5809867,3.68328 20.7510667,0.905026667 16.3138267,0.126346667 Z" id="Path_21416" fill="#3DCDCA"></path>
                            <path d="M22.6806,7.91177333 C22.56524,9.17936 18.4438667,13.9928933 18.4438667,13.9928933 L19.0192933,14.6452267 C19.0192933,14.6452267 21.836,11.82852 23.5114667,10.14756 C25.1869333,8.4666 22.6806,7.91177333 22.6806,7.91177333 Z" id="Path_21417" fill="#445052"></path>
                            <path d="M25.82416,11.2338667 C25.0880533,12.86676 18.9574933,13.9805333 18.9574933,13.9805333 L19.0124267,14.6452267 C21.6998561,14.6091833 24.3366577,13.9090556 26.6879867,12.6072 C27.4446933,11.96448 26.55752,9.60234667 25.82416,11.2338667 Z" id="Path_21418" fill="#445052"></path>
                            <path d="M25.4176533,5.68422667 C23.4016,5.48234667 21.0710533,6.58238667 21.9032933,7.87194667 C21.9032933,7.87194667 24.8422267,12.9999733 27.94596,13.7196 C27.94596,13.7196 32.03712,12.4245467 31.05656,10.1777733 C29.9802223,7.88275798 27.895024,6.22109972 25.4176533,5.68422667 Z" id="Path_21419" fill="#2F3E3F"></path>
                            <path d="M22.3523733,6.37089333 C21.7796933,6.77190667 21.5283733,7.30064 21.90192,7.87332 C21.90192,7.87332 24.8408533,13.0013467 27.9445867,13.7209733 L29.1421333,13.21696 C25.8351467,12.4781067 22.37984,6.51097333 22.3523733,6.37089333 Z" id="Path_21420" fill="#112223"></path>
                            <path d="M23.2148267,5.94378667 C23.2148267,5.94378667 21.7879333,6.71834667 25.9367733,8.92529333 C26.4900329,9.22262883 27.1565763,9.2179713 27.7056267,8.91293333 C28.3097565,8.63348246 28.8060017,8.16424383 29.1187867,7.57668 C27.6638315,5.8857932 25.3318623,5.2408266 23.2148267,5.94378667 L23.2148267,5.94378667 Z" id="Path_21421" fill="#687173"></path>
                            <polygon id="Path_21422" fill="#008D94" points="15.3854533 9.31257333 16.3783733 10.5856533 19.7856133 7.79366667 18.6869467 6.57826667"></polygon>
                        </g>
                    </g>
                </g>
                <g id="Group_10049" transform="translate(78.768907, 6.947693)">
                    <path d="M14.93912,24.2022533 L13.63308,25.2377467 L14.78668,26.79648 L17.7599467,24.6444667 C17.7599467,24.6444667 17.2216,23.4771333 14.93912,24.2022533 Z" id="Path_21423" fill="#112223" fill-rule="nonzero"></path>
                    <path d="M5.86825333,10.918 L3.97168,14.84024 L5.28733333,15.5887067 L6.93533333,11.948 C6.93533333,11.948 11.0278667,9.66689333 9.87014667,8.16172 C8.71242667,6.65654667 6.40385333,10.1008667 5.86825333,10.918 Z" id="Path_21424" fill="#778081" fill-rule="nonzero"></path>
                    <polygon id="Path_21425" fill="#F0BE2E" fill-rule="nonzero" points="8.71792 4.88357333 8.66161333 7.12210667 10.2148533 7.12210667 10.0019867 4.88357333"></polygon>
                    <path d="M3.85494667,16.583 C4.66658667,17.10624 5.20081333,16.2506533 5.28733333,15.5887067 L3.97168,14.84024 C3.97168,14.84024 2.99798667,16.0295467 3.85494667,16.583 Z" id="Path_21426" fill="#F0BE2E" fill-rule="nonzero"></path>
                    <path d="M9.26450667,6.78152 C6.84057333,6.78152 8.2194,14.0052533 8.2194,14.0052533 L11.1253733,14.0052533 C11.9177867,11.09516 11.6953067,6.78152 9.26450667,6.78152 Z" id="Path_21427" fill="#3A3F40" fill-rule="nonzero"></path>
                    <path d="M3.36192,24.1445733 L2.31818667,25.7774667 L5.38758667,27.7921467 C5.38758667,27.7921467 6.28437333,26.8733867 4.79293333,25.00016 L3.36192,24.1445733 Z" id="Path_21428" fill="#112223" fill-rule="nonzero"></path>
                    <g id="Group_10048" transform="translate(0.000000, 15.734280)" fill-rule="nonzero">
                        <path d="M5.74190667,2.07648 L2.05588,0.0563066667 C1.91511317,-0.0116765723 1.75309899,-0.0209290979 1.60550768,0.0305861938 C1.45791637,0.0821014855 1.33684876,0.190160918 1.26896,0.330973333 L0.0810266667,2.50770667 C-0.0857965819,2.78554468 0.00245755993,3.14591576 0.278786667,3.31522667 L3.96618667,5.32853333 C4.10695349,5.39651657 4.26896768,5.4057691 4.41655899,5.35425381 C4.5641503,5.30273851 4.6852179,5.19467908 4.75310667,5.05386667 L5.94104,2.87713333 C6.10379569,2.60055563 6.01526243,2.24459088 5.74190667,2.07648 Z" id="Path_21429" fill="#2E3C3E"></path>
                        <path d="M4.65285333,0.3914 L4.03348,0.0521866667 C3.94250642,0.00188267634 3.83521525,-0.0100222912 3.73542693,0.0191148675 C3.6356386,0.0482520262 3.55161112,0.116020064 3.502,0.207373333 L3.2342,0.69628 L3.52672,0.85696 L3.69564,0.54796 C3.74970944,0.432180992 3.88680946,0.381380539 4.00326667,0.433973333 L4.34110667,0.618 C4.44839779,0.687195102 4.48021037,0.829739901 4.41252,0.937986667 L4.2436,1.24698667 L4.53612,1.40629333 L4.80392,0.916013333 C4.90474159,0.729172579 4.83760024,0.49600899 4.65285333,0.3914 L4.65285333,0.3914 Z" id="Path_21430" fill="#445052"></path>
                    </g>
                    <path d="M10.9990267,14.0052466 C10.9990267,14.0052466 8.82778667,13.9874 8.99533333,15.7905867 C9.34812939,17.307798 10.0360477,18.7268054 11.00864,19.9435467 C11.00864,19.9435467 12.73492,24.7433467 13.7223467,25.5261467 L15.6958267,23.9262133 L12.9999733,19.5686267 L10.9990267,14.0052466 Z" id="Path_21431" fill="#112223" fill-rule="nonzero"></path>
                    <path d="M8.34437333,14.0052533 C7.32133574,14.8317109 7.11963222,16.3122749 7.88430667,17.38228 C7.56792613,18.4477332 7.02917029,19.43397 6.3036,20.2758933 C5.21454667,21.4088933 3.03644,24.23384 3.03644,24.23384 L5.28870667,25.52752 C5.28870667,25.52752 8.10816,21.13972 8.27845333,20.7634267 C8.40617333,20.4791467 10.22996,17.8876667 10.5705467,17.4784133 C11.28056,16.6255733 11.0004,14.0066267 11.0004,14.0066267 L8.34437333,14.0052533 Z" id="Path_21432" fill="#445052" fill-rule="nonzero"></path>
                    <path d="M9.46501333,7.24845333 C7.83212,7.55470667 10.9564533,12.5275467 10.9564533,12.5275467 L14.09452,14.8388667 L14.98032,13.6138533 L12.0743467,11.37532 C12.0743467,11.37532 11.1006533,6.9422 9.46501333,7.24845333 Z" id="Path_21433" fill="#778081" fill-rule="nonzero"></path>
                    <path d="M14.9816933,13.6152267 L14.02036,14.78668 C14.02036,14.78668 15.02976,15.9471467 15.7191733,15.19868 C16.37288,14.4818 15.6202933,13.81024 14.9816933,13.6152267 Z" id="Path_21434" fill="#F0BE2E" fill-rule="nonzero"></path>
                    <path d="M9.37437333,1.25110667 C7.93233631,1.20560716 6.72565689,2.33610112 6.67714667,3.77804 C6.7680062,5.20094277 7.9485726,6.30852845 9.37437333,6.30852845 C10.8001741,6.30852845 11.9807405,5.20094277 12.0716,3.77804 C12.0230898,2.33610112 10.8164104,1.20560716 9.37437333,1.25110667 Z" id="Path_21435" fill="#F0BE2E" fill-rule="nonzero"></path>
                    <path d="M11.2366133,1.02862667 C10.7051444,0.957099844 10.1994955,0.755689341 9.7644,0.442213333 C9.27876035,0.144609509 8.71737932,-0.0061096135 8.14798667,0.00824 C6.17450667,0.199133333 6.67165333,1.48045333 6.67165333,1.48045333 C3.96618667,2.31406667 7.45445333,5.81057333 7.45445333,5.81057333 L8.27158667,4.97696 C7.68929333,4.70229333 6.81173333,3.96481333 7.82525333,3.35230667 C8.55724,2.91009333 8.90194667,4.1612 8.90194667,4.1612 L9.50758667,3.87142667 L8.74813333,2.26325333 C9.50003018,2.75541067 10.4077656,2.95114878 11.2956667,2.81258667 C11.6122499,2.79212741 11.9129139,2.66644793 12.14988,2.45552 C13.1112133,1.53950667 11.7474933,0.00824 11.7474933,0.00824 C11.7474933,0.00824 12.1224133,0.998413333 11.2366133,1.02862667 Z" id="Path_21436" fill="#112223" fill-rule="nonzero"></path>
                </g>
            </g>
        </g>
    </g>
</svg>