<?xml version="1.0" encoding="UTF-8"?>
<svg width="206px" height="127px" viewBox="0 0 206 127" version="1.1" xmlns="http://www.w3.org/2000/svg" xmlns:xlink="http://www.w3.org/1999/xlink">
    <title>Components / Image / Theory Lectures / 4 Active</title>
    <defs>
        <rect id="path-1" x="0" y="0" width="206" height="127"></rect>
        <linearGradient x1="49.9%" y1="-2.8%" x2="49.9%" y2="97.2%" id="linearGradient-3">
            <stop stop-color="#F39B95" offset="0%"></stop>
            <stop stop-color="#F3B39A" offset="37.3%"></stop>
            <stop stop-color="#F3C49D" offset="72.8%"></stop>
            <stop stop-color="#F4CA9F" offset="100%"></stop>
        </linearGradient>
        <rect id="path-4" x="5.01222798" y="-4.72707475" width="6.70409405" height="16.5661745"></rect>
    </defs>
    <g id="Components-/-Image-/-Theory-Lectures-/-4-Active" stroke="none" stroke-width="1" fill="none" fill-rule="evenodd">
        <mask id="mask-2" fill="white">
            <use xlink:href="#path-1"></use>
        </mask>
        <use id="Rectangle" fill="#00B0B9" xlink:href="#path-1"></use>
        <g id="4" mask="url(#mask-2)">
            <g transform="translate(57.000000, 15.000000)">
                <g id="Group_10071" stroke-width="1" fill="none" fill-rule="evenodd" transform="translate(0.000000, 76.650000)">
                    <path d="M73.594,12.751 L63.936,12.751 C62.6969396,12.1620381 61.951512,10.8679 62.0637509,9.50058545 C62.1759898,8.13327088 63.122481,6.97801755 64.441,6.599 L85.366,6.599 C87.1885397,6.599 88.666,5.12153967 88.666,3.299 C88.666,1.47646033 87.1885397,-0.001 85.366,-0.001 L3.3,-0.001 C1.47746033,-0.001 -1.12965193e-14,1.47646033 -1.12965193e-14,3.299 C-1.12965193e-14,5.12153967 1.47746033,6.599 3.3,6.599 L21.37,6.599 C22.6921379,6.97469995 23.6421746,8.1316355 23.7535176,9.50159967 C23.8648606,10.8715638 23.1141169,12.1667293 21.87,12.751 L9.009,12.751 C7.18646033,12.751 5.709,14.2284603 5.709,16.051 C5.709,17.8735397 7.18646033,19.351 9.009,19.351 L33.817,19.351 C33.87,19.351 33.917,19.345 33.974,19.342 C34.031,19.339 34.074,19.351 34.131,19.351 L73.594,19.351 C75.4165397,19.351 76.894,17.8735397 76.894,16.051 C76.894,14.2284603 75.4165397,12.751 73.594,12.751 L73.594,12.751 Z" id="Path_21538" fill="#ACACAC" fill-rule="nonzero"></path>
                    <path d="M88.439,12.751 L82.472,12.751 C80.6494603,12.751 79.172,14.2284603 79.172,16.051 C79.172,17.8735397 80.6494603,19.351 82.472,19.351 L88.439,19.351 C90.2615397,19.351 91.739,17.8735397 91.739,16.051 C91.739,14.2284603 90.2615397,12.751 88.439,12.751 Z" id="Path_21539" fill="#ACACAC" fill-rule="nonzero"></path>
                </g>
                <path d="M76.918,46.567 L10.159,44.928 L14.624,14.884 C16.157,8.847 20.485,5.608 26.81,5.763 L62.21,6.632 C68.535,6.787 72.698,10.232 73.934,16.339 L73.97,16.579 L76.918,46.567 Z M15.68,40.282 L71.631,41.655 L69.223,17.174 C68.41,13.343 66.142,11.511 62.091,11.411 L26.691,10.541 C22.64,10.441 20.283,12.161 19.284,15.947 L15.68,40.282 Z" id="Path_21540" fill="#76BEB7" fill-rule="nonzero"></path>
                <path d="M74.274,44.111 L71.589,16.811 C70.389,10.878 66.322,9.122 62.149,9.019 L54.386,8.829 L34.514,8.341 L26.751,8.151 C22.578,8.051 18.43,9.604 16.94,15.471 L12.919,42.605 L74.274,44.111 Z" id="Path_21541" fill="#47746F" fill-rule="nonzero"></path>
                <path d="M37.111,39.014 C37.0764152,40.434022 36.4790633,41.7821251 35.4503908,42.7616614 C34.4217183,43.7411977 33.0460141,44.2719043 31.626,44.237 L24.052,44.051 C22.631978,44.0164152 21.2838749,43.4190633 20.3043386,42.3903908 C19.3248023,41.3617183 18.7940957,39.9860141 18.829,38.566 L19.124,26.552 C19.1585848,25.131978 19.7559367,23.7838749 20.7846092,22.8043386 C21.8132817,21.8248023 23.1889859,21.2940957 24.609,21.329 L32.183,21.515 C33.6031117,21.5498458 34.9512132,22.1474173 35.9307222,23.1762486 C36.9102311,24.2050799 37.4409066,25.5808897 37.406,27.001 L37.111,39.014 Z" id="Path_21542" fill="#44A1A3" fill-rule="nonzero"></path>
                <path d="M67.287,39.754 C67.2521542,41.1738466 66.6546882,42.5216937 65.6260444,43.5010151 C64.5974006,44.4803365 63.2218451,45.0109066 61.802,44.976 L54.228,44.79 C52.8079759,44.7551564 51.4599742,44.1575522 50.4806241,43.1286907 C49.5012739,42.0998292 48.9708239,40.724016 49.006,39.304 L49.301,27.29 C49.3355848,25.869978 49.9329367,24.5218749 50.9616092,23.5423386 C51.9902817,22.5628023 53.3659859,22.0320957 54.786,22.067 L62.36,22.252 C65.3169942,22.3251092 67.6551317,24.7809818 67.583,27.738 L67.287,39.754 Z" id="Path_21543" fill="#44A1A3" fill-rule="nonzero"></path>
                <path d="M21.292,65.823 L21.292,76.534 C21.292,79.7803298 18.6603298,82.412 15.414,82.412 C12.1676702,82.412 9.536,79.7803298 9.536,76.534 L9.536,65.823 C9.536,62.5766702 12.1676702,59.945 15.414,59.945 C18.6603298,59.945 21.292,62.5766702 21.292,65.823 L21.292,65.823 Z" id="Path_21544" fill="#424241" fill-rule="nonzero"></path>
                <path d="M78.245,64.466 L78.245,75.177 C78.245,78.4233298 75.6133298,81.055 72.367,81.055 C69.1206702,81.055 66.489,78.4233298 66.489,75.177 L66.489,64.466 C66.489,61.2196702 69.1206702,58.588 72.367,58.588 C75.6133298,58.588 78.245,61.2196702 78.245,64.466 L78.245,64.466 Z" id="Path_21545" fill="#424241" fill-rule="nonzero"></path>
                <path d="M78.2450001,64.465 L78.2450001,74.547 L66.489,74.547 L66.489,64.465 C66.4887478,62.282225 67.6992771,60.2794402 69.632,59.265 L75.102,59.265 C77.0348829,60.2792703 78.245477,62.2821623 78.2450001,64.465 L78.2450001,64.465 Z" id="Path_21546" fill="#353534" fill-rule="nonzero"></path>
                <path d="M21.292,65.823 L21.292,75.905 L9.53599986,75.905 L9.53599986,65.823 C9.53552296,63.6401623 10.7461171,61.6372703 12.679,60.623 L18.15,60.623 C20.082563,61.6376101 21.293,63.6402876 21.293,65.823 L21.292,65.823 Z" id="Path_21547" fill="#353534" fill-rule="nonzero"></path>
                <path d="M9.25,38.454 C9.19707312,40.6174941 7.40050317,42.3285558 5.237,42.276 L5.237,42.276 C4.19786635,42.2505855 3.2113945,41.8133938 2.4946206,41.0606124 C1.7778467,40.307831 1.38949222,39.3011314 1.415,38.262 L1.415,38.262 C1.44041448,37.2228663 1.87760624,36.2363945 2.63038763,35.5196206 C3.38316901,34.8028467 4.38986864,34.4144922 5.429,34.44 L5.429,34.44 C6.46813365,34.4654145 7.4546055,34.9026062 8.1713794,35.6553876 C8.8881533,36.408169 9.27650778,37.4148686 9.251,38.454 L9.25,38.454 Z" id="Path_21548" fill="#5B938D" fill-rule="nonzero"></path>
                <path d="M11.906,41.562 C12.3274584,41.8402182 12.4438252,42.4072824 12.166,42.829 L12.166,42.829 C12.0327328,43.0314978 11.8244797,43.1727592 11.5870568,43.2217066 C11.3496339,43.270654 11.102491,43.2232775 10.9,43.09 L5.445,39.498 C5.02381296,39.2201499 4.90704929,38.653779 5.184,38.232 L5.184,38.232 C5.46189451,37.810195 6.02902247,37.6933675 6.451,37.971 L11.906,41.562 Z" id="Path_21549" fill="#DCDCDC" fill-rule="nonzero"></path>
                <path d="M78.199,39.63 C78.1732227,40.6690371 78.5613517,41.6757401 79.2779668,42.4285517 C79.9945819,43.1813632 80.9809539,43.6185878 82.02,43.644 L82.02,43.644 C84.1832935,43.6965644 85.9799882,41.9862578 86.034,39.823 L86.034,39.823 C86.0865599,37.6593256 84.3756521,35.8624695 82.212,35.809 L82.212,35.809 C81.1728686,35.7834922 80.166169,36.1718467 79.4133876,36.8886206 C78.6606062,37.6053945 78.2234145,38.5918663 78.198,39.631 L78.199,39.63 Z" id="Path_21550" fill="#5B938D" fill-rule="nonzero"></path>
                <path d="M75.393,42.604 C74.958417,42.860793 74.8138866,43.4210162 75.07,43.856 L75.07,43.856 C75.326793,44.290583 75.8870162,44.4351134 76.322,44.179 L81.947,40.859 C82.381583,40.602207 82.5261134,40.0419838 82.27,39.607 L82.27,39.607 C82.1468602,39.3980837 81.9457429,39.2466681 81.710925,39.1860881 C81.476107,39.125508 81.2268395,39.1607301 81.018,39.284 L75.393,42.604 Z" id="Path_21551" fill="#DCDCDC" fill-rule="nonzero"></path>
                <path d="M83.525,69.596 C83.495396,70.8079844 82.9854251,71.9585402 82.1073277,72.7944394 C81.2292302,73.6303387 80.0549729,74.0830733 78.843,74.053 L7.281,72.298 C4.78709286,72.2253967 2.81166005,70.1672151 2.84106746,67.6724286 C2.87113768,65.1776421 4.89507083,63.1671344 7.39,63.154 L7.505,63.154 L79.067,64.91 C80.7435249,64.9518851 82.2625617,65.9082873 83.025,67.402 C83.3739163,68.0795041 83.5459105,68.8342145 83.525,69.596 L83.525,69.596 Z" id="Path_21552" fill="#DCDCDC" fill-rule="nonzero"></path>
                <path d="M83.026,67.405 C82.2267205,68.9705322 80.6002212,69.9387329 78.843,69.895 L7.281,68.142 C6.09862238,68.6956287 4.69032119,68.3525695 3.8950243,67.3171833 C3.09972741,66.2817972 3.13141366,64.8326603 3.97120747,63.8330263 C4.81100129,62.8333924 6.23295172,62.5522183 7.39,63.157 L7.505,63.157 L79.067,64.913 C80.7438871,64.9545223 82.2633919,65.9109774 83.026,67.405 L83.026,67.405 Z" id="Path_21553" fill="#E9E9E9" fill-rule="nonzero"></path>
                <path d="M76.599,67.814 L10.522,66.192 C5.257,66.063 5.161,65.057 5.29,59.792 L5.496,51.435 C5.50026155,50.6589169 5.63932956,49.8894749 5.907,49.161 C6.58986827,45.7212628 8.61898252,42.6970329 11.543,40.761 C12.3369063,40.2368717 13.1843467,39.7987369 14.071,39.454 C15.566,38.493 17.871,38.408 20.471,38.472 L67.315,39.622 C69.908,39.686 72.209,39.883 73.655,40.922 C74.5276829,41.3104561 75.3561037,41.7915504 76.126,42.357 C78.9453523,44.4346244 80.819793,47.550774 81.334,51.015 C81.5658145,51.7558976 81.6673199,52.5313989 81.634,53.307 L81.429,61.665 C81.294,66.926 81.865,67.944 76.599,67.814 Z" id="Path_21554" fill="#8DCCC6" fill-rule="nonzero"></path>
                <path d="M63.853,61.883 L63.715,67.498 L22.715,66.491 L22.853,60.876 C22.9145703,58.3474393 23.9782708,55.9469448 25.8100186,54.2027803 C27.6417665,52.4586157 30.0914569,51.5137088 32.62,51.576 L54.558,52.114 C59.8221227,52.2454674 63.9833036,56.6188483 63.853,61.883 Z" id="Path_21555" fill="#DCDCDC" fill-rule="nonzero"></path>
                <path d="M64.76,67.524 L62.671,67.472 L62.809,61.857 C62.9208573,57.1696928 59.2161053,53.2770186 54.529,53.157 L32.591,52.619 C27.9036928,52.5071427 24.0110186,56.2118947 23.891,60.899 L23.753,66.514 L21.663,66.463 L21.801,60.848 C21.9510316,55.0093402 26.7990204,50.393976 32.638,50.531 L54.577,51.069 C60.4193989,51.2179315 65.0373779,56.0703893 64.897,61.913 L64.76,67.524 Z" id="Path_21556" fill="#8F9090" fill-rule="nonzero"></path>
                <rect id="Rectangle_6507" fill="#8F9090" fill-rule="nonzero" transform="translate(43.450221, 57.331056) rotate(-88.593000) translate(-43.450221, -57.331056) " x="42.4052209" y="44.2685558" width="2.09" height="26.125"></rect>
                <rect id="Rectangle_6508" fill="#8F9090" fill-rule="nonzero" transform="translate(43.364208, 60.823827) rotate(-88.594000) translate(-43.364208, -60.823827) " x="42.3192082" y="47.7613274" width="2.09" height="26.125"></rect>
                <rect id="Rectangle_6509" fill="#8F9090" fill-rule="nonzero" transform="translate(43.279208, 64.316827) rotate(-88.594000) translate(-43.279208, -64.316827) " x="42.2342082" y="51.2543274" width="2.09" height="26.125"></rect>
                <g id="Group_10074" stroke-width="1" fill="none" fill-rule="evenodd" transform="translate(8.084000, 52.160000)">
                    <g id="Group_10072" fill-rule="nonzero">
                        <path d="M11.232,5.755 C11.1763029,8.02623702 9.75789775,10.0402701 7.63821185,10.85792 C5.51852595,11.67557 3.1150165,11.1358064 1.54848237,9.49033062 C-0.0180517628,7.84485484 -0.439092735,5.41773167 0.481698288,3.34077148 C1.40248931,1.26381129 3.48376904,-0.0539432739 5.755,0.002 C8.85600512,0.0783816545 11.3080455,2.65398662 11.232,5.755 Z" id="Path_21557" fill="#DCDCDC"></path>
                        <path d="M9.665,5.717 C9.61806934,7.60960902 8.26593091,9.21704958 6.40931775,9.58739936 C4.55270459,9.95774914 2.68730262,8.99213068 1.91779829,7.26238085 C1.14829395,5.53263102 1.68013256,3.50056528 3.1983606,2.36956793 C4.71658864,1.23857058 6.81586359,1.31059977 8.253,2.543 C9.17656,3.33517647 9.69501988,4.50060967 9.665,5.717 Z" id="Path_21558" fill="#F6A200"></path>
                        <path d="M8.857,4.769 C8.81887732,6.3329359 7.88322427,7.73499018 6.45365706,8.37035339 C5.02408985,9.00571659 3.35640576,8.76070103 2.17,7.741 C0.743509435,6.51365499 0.350938965,4.46514629 1.22261969,2.79738617 C2.09430042,1.12962606 4.00031493,0.282508495 5.82235592,0.75305896 C7.64439691,1.22360942 8.90187677,2.88771396 8.857,4.769 L8.857,4.769 Z" id="Path_21559" fill="#FFCE00"></path>
                        <path d="M6.156,3.891 C6.13948073,4.59247576 5.63887604,5.18876981 4.95085673,5.32650346 C4.26283742,5.46423711 3.57126714,5.10660294 3.28598765,4.46554386 C3.00070816,3.82448478 3.19795647,3.07131497 3.76083831,2.65238161 C4.32372015,2.23344825 5.10181314,2.26070548 5.634,2.718 C5.97499889,3.0110116 6.16658473,3.4415292 6.156,3.891 L6.156,3.891 Z" id="Path_21560" fill="#FFFFFF"></path>
                    </g>
                    <g id="Group_10073" transform="translate(59.441000, 1.459000)" fill-rule="nonzero">
                        <path d="M11.232,5.755 C11.1763029,8.02623702 9.75789775,10.0402701 7.63821185,10.85792 C5.51852595,11.67557 3.1150165,11.1358064 1.54848237,9.49033062 C-0.0180517628,7.84485484 -0.439092735,5.41773167 0.481698288,3.34077148 C1.40248931,1.26381129 3.48376904,-0.0539432739 5.755,0.002 C7.24425166,0.038416806 8.65801827,0.665039704 9.68519402,1.74397746 C10.7123698,2.82291522 11.2687857,4.2657574 11.232,5.755 L11.232,5.755 Z" id="Path_21561" fill="#DCDCDC"></path>
                        <path d="M9.665,5.716 C9.617737,7.60877964 8.26507509,9.21608465 6.40817876,9.58592864 C4.55128244,9.95577264 2.68601162,8.98939361 1.91714257,7.25916561 C1.14827353,5.52893761 1.68112269,3.49689543 3.20009026,2.3665919 C4.71905783,1.23628837 6.81852335,1.30955629 8.255,2.543 C9.17754103,3.33533606 9.69521406,4.50028396 9.665,5.716 Z" id="Path_21562" fill="#F6A200"></path>
                        <path d="M8.855,4.769 C8.64084407,6.0582998 7.55693921,7.02396013 6.25156521,7.08842285 C4.9461912,7.15288558 3.77241842,6.29871519 3.43227633,5.03678805 C3.09213425,3.77486091 3.67762261,2.44649614 4.83856286,1.84618414 C5.9995031,1.24587214 7.42189048,1.53598199 8.255,2.543 C8.66647982,3.21118157 8.87493093,3.98453521 8.855,4.769 Z" id="Path_21563" fill="#FFCE00"></path>
                        <path d="M6.157,3.891 C6.14008549,4.59250842 5.63908813,5.1885443 4.95093998,5.32584794 C4.26279183,5.46315159 3.57141415,5.10502588 3.28657397,4.46372546 C3.0017338,3.82242503 3.19956033,3.06935014 3.76280535,2.65083465 C4.32605037,2.23231917 5.10417548,2.26021965 5.636,2.718 C5.97662701,3.01120263 6.16783353,3.44169256 6.157,3.891 L6.157,3.891 Z" id="Path_21564" fill="#FFFFFF"></path>
                    </g>
                </g>
                <path d="M76.122,42.351 C68.158,44.941 56.579,46.414 43.727,46.098 C30.875,45.782 19.371,43.742 11.544,40.761 C12.3379063,40.2368717 13.1853467,39.7987369 14.072,39.454 C15.567,38.493 17.872,38.408 20.472,38.472 L67.316,39.622 C69.909,39.686 72.21,39.883 73.656,40.922 C74.5266862,41.3088761 75.3534063,41.7879446 76.122,42.351 L76.122,42.351 Z" id="Path_21565" fill="#76BEB7" fill-rule="nonzero"></path>
                <path d="M57.844,32.175 C57.844,32.175 59.006,32.254 58.801,32.35 C58.596,32.446 59.721,36.066 59.721,36.066 L59.65,38.948 L51.76,38.752 C51.76,38.752 52.16,35.018 53.923,33.089 C54.7796673,32.2869556 55.7721113,31.6436108 56.854,31.189 L57.844,32.175 Z" id="Path_21566" fill="#D3DEE3" fill-rule="nonzero"></path>
                <path d="M57.708,28.464 L57.452,30.577 C57.452,30.577 59.547,37.309 60.296,37.396 C60.296,37.396 60.08,32.215 60.643,31.545 L60.315,28.517 C60.315,28.517 58.204,27.793 57.708,28.464 Z" id="Path_21567" fill="#D3996E" fill-rule="nonzero"></path>
                <path d="M54.782,21.678 C54.7557612,22.645255 53.9507775,23.4083259 52.983502,23.3828564 C52.0162265,23.3573869 51.2525156,22.5530102 51.2772159,21.5857148 C51.3019162,20.6184193 52.1056852,19.854069 53.073,19.878 C53.5385951,19.889252 53.9805498,20.0854222 54.3012232,20.4231706 C54.6218965,20.760919 54.7948957,21.2124475 54.782,21.678 L54.782,21.678 Z" id="Path_21568" fill="#E6AE80" fill-rule="nonzero"></path>
                <path d="M67.499,21.991 C67.4722302,22.9574271 66.6676793,23.7195052 65.7012213,23.6938727 C64.7347634,23.6682402 63.971739,22.8645867 63.9962342,21.8980992 C64.0207293,20.9316118 64.8234844,20.1676422 65.79,20.191 C66.2555951,20.202252 66.6975498,20.3984222 67.0182232,20.7361706 C67.3388965,21.073919 67.5118957,21.5254475 67.499,21.991 L67.499,21.991 Z" id="Path_21569" fill="#E6AE80" fill-rule="nonzero"></path>
                <path d="M65.824,17.107 L65.624,25.216 C65.537,28.78 62.624,29.728 59.058,29.641 C57.4772734,29.6885097 55.9117686,29.3202368 54.518,28.573 C53.2722397,27.7866012 52.5759228,26.3653409 52.718,24.899 L52.918,16.79 C52.9744478,14.4843864 54.256638,12.3840262 56.2815819,11.2801047 C58.3065258,10.1761833 60.7665862,10.2364125 62.7350821,11.4381047 C64.7035781,12.6397969 65.8814481,14.8003864 65.825,17.106 L65.824,17.107 Z" id="Path_21570" fill="url(#linearGradient-3)" fill-rule="nonzero"></path>
                <path d="M65.631,21.24 C65.4919726,22.6902792 65.2422446,24.1278034 64.884,25.54 C61.2225371,24.644693 57.4404157,24.3471886 53.684,24.659 C53.12,24.198 53.012,20.676 53.012,20.676 C52.947,20.722 52.882,20.77 52.82,20.819 L52.72,24.9 C52.5779228,26.3663409 53.2742397,27.7876012 54.52,28.574 C55.9137686,29.3212368 57.4792734,29.6895097 59.06,29.642 C62.624,29.729 65.538,28.781 65.626,25.217 L65.726,21.17 C65.6917986,21.1896819 65.65993,21.2131641 65.631,21.24 Z M61.101,28.548 C58.148,27.708 56.919,28.253 56.919,28.253 C54.027,27.479 54.519,25.86 54.519,25.86 C55.8655655,25.1736365 57.3880853,24.9101235 58.887,25.104 C63.453,25.404 64.04,26.254 64.04,26.254 C63.415,28.126 61.102,28.548 61.102,28.548 L61.101,28.548 Z" id="Path_21571" fill="#E4AC7F" fill-rule="nonzero" opacity="0.37" style="mix-blend-mode: multiply;"></path>
                <path d="M55.075,14.849 C55.075,14.849 52.921,16.857 53.025,21.363 L52.69,21.282 L52.678,18.066 C52.678,18.066 50.66,10.01 59.021,10.144 C59.021,10.144 65.008,11.177 65.669,10.479 C65.667,10.479 67.149,18.077 55.075,14.849 Z" id="Path_21572" fill="#353B3D" fill-rule="nonzero"></path>
                <path d="M62.868,13.528 C64.7378125,15.8991776 65.6814597,18.8694449 65.523,21.885 L65.88,21.862 C65.88,21.862 65.952,18.612 66.666,18.63 C66.666,18.63 67.509,13.785 64.547,12.14 C64.546,12.139 62.335,11.942 62.868,13.528 Z" id="Path_21573" fill="#353B3D" fill-rule="nonzero"></path>
                <path d="M60.025,19.483 L59.864,22.877 L58.464,23.264 C58.464,23.264 59.148,24.513 60.695,23.546 L60.025,19.483 Z" id="Path_21574" fill="#E4AC7F" fill-rule="nonzero" opacity="0.65" style="mix-blend-mode: multiply;"></path>
                <path d="M51.871,17.342 C51.7030167,17.3387459 51.5419736,17.2743998 51.418,17.161 L51.563,16.999 C51.973,17.363 52.606,16.804 52.612,16.799 L52.757,16.961 C52.5116606,17.1820704 52.2002223,17.3159959 51.871,17.342 L51.871,17.342 Z" id="Path_21575" fill="#353B3D" fill-rule="nonzero"></path>
                <path d="M66.239,14.511 L66.027,14.46 C66.0855582,14.2376114 66.2245201,14.0448462 66.417,13.919 C66.6140439,13.8117475 66.8472636,13.7928574 67.059,13.867 L66.998,14.075 C66.8438579,14.0193912 66.6735029,14.0306274 66.528,14.106 C66.3861614,14.2019189 66.2835779,14.3456778 66.239,14.511 L66.239,14.511 Z" id="Path_21576" fill="#353B3D" fill-rule="nonzero"></path>
                <path d="M51.907,20.677 C51.907,20.677 52.512,20.692 52.616,21.733 C52.616,21.733 52.087,22.11 52.774,22.386 C52.774,22.386 51.819,22.45 52.141,21.721 C52.139,21.72 52.41,21.339 51.907,20.677 Z" id="Path_21577" fill="#D3996E" fill-rule="nonzero"></path>
                <path d="M66.917,21.0029856 C66.917,21.0029856 66.312,20.987 66.157,22.023 C66.157,22.023 66.667,22.423 65.968,22.668 C65.968,22.668 66.918,22.778 66.633,22.035 C66.633,22.034 66.382,21.634 66.917,21.0029856 Z" id="Path_21578" fill="#D3996E" fill-rule="nonzero"></path>
                <path d="M57.477,30.421 C57.477,30.421 57.459,31.356 58.801,32.35 L57.481,34.594 C56.7925424,33.557193 56.4672402,32.3213961 56.556,31.08 L57.477,30.421 Z" id="Path_21579" fill="#EBF8FD" fill-rule="nonzero"></path>
                <path d="M60.271,32.235 C60.271,32.235 59.106,32.257 59.306,32.363 C59.506,32.469 58.206,36.029 58.206,36.029 L58.135,38.911 L66.023,39.105 C66.023,39.105 65.812,35.356 64.14,33.341 C63.3238084,32.4982081 62.364624,31.8068369 61.307,31.299 L60.271,32.235 Z" id="Path_21580" fill="#D3DEE3" fill-rule="nonzero"></path>
                <path d="M60.538,30.637 C60.538,30.637 60.695,31.437 59.307,32.363 L60.515,34.669 C61.2544633,33.6676556 61.6412878,32.4495102 61.615,31.205 L60.538,30.637 Z" id="Path_21581" fill="#EBF8FD" fill-rule="nonzero"></path>
                <g id="Group_10079" stroke-width="1" fill="none" fill-rule="evenodd" transform="translate(51.384000, 32.523000)">
                    <g id="Group_10078-Clipped">
                        <mask id="mask-5" fill="white">
                            <use xlink:href="#path-4"></use>
                        </mask>
                        <g id="SVGID" transform="translate(8.364275, 3.556012) rotate(-88.567904) translate(-8.364275, -3.556012) "></g>
                        <g id="Group_10078" mask="url(#mask-5)">
                            <g transform="translate(1.000000, 2.000000)" id="Group_10077">
                                <g transform="translate(0.513000, 0.563000)">
                                    <path d="M6.084,0.002 C2.8055875,-0.0781956661 0.0828697937,2.51441543 0.00257003809,5.79282538 C-0.0777297175,9.07123534 2.51479493,11.7940354 5.79320233,11.8744392 C9.07160974,11.954843 11.7944921,9.36240485 11.875,6.084 C11.9136645,4.50952116 11.3252473,2.98417676 10.2392083,1.84356385 C9.15316926,0.702950943 7.65848252,0.040514578 6.084,0.002 Z M5.828,10.449 C3.33694536,10.3875019 1.36736115,8.31831951 1.42872471,5.82726155 C1.49008827,3.3362036 3.55916433,1.36650766 6.05022559,1.4277367 C8.54128686,1.48896574 10.5110945,3.55793543 10.45,6.049 C10.4206594,7.24560129 9.91705293,8.38150878 9.05002054,9.20671806 C8.18298815,10.0319273 7.02358979,10.4788062 5.827,10.449 L5.828,10.449 Z" id="Path_21582" fill="#2C2D2C" fill-rule="nonzero"></path>
                                    <g id="Group_10075" transform="translate(0.593000, 5.062000)" fill="#2C2D2C" fill-rule="nonzero">
                                        <polygon id="Path_21583" points="0.03 0.538 0.02 0.811 -0.001 1.349 5.241 1.126 5.246 1.009 5.256 0.736 5.256 0.621 0.045 0"></polygon>
                                        <polygon id="Path_21584" points="10.671 0.942 10.661 1.215 10.64 1.753 5.43 1.133 5.43 1.016 5.44 0.744 5.44 0.628 10.683 0.405"></polygon>
                                    </g>
                                    <g id="Group_10076" transform="translate(5.063000, 0.592000)" fill="#2C2D2C" fill-rule="nonzero">
                                        <polygon id="Path_21585" points="0.538 10.66 0.811 10.67 1.349 10.691 1.126 5.448 1.009 5.448 0.737 5.438 0.62 5.438 0 10.648"></polygon>
                                        <polygon id="Path_21586" points="0.942 0.021 1.214 0.031 1.753 0.051 1.132 5.262 1.016 5.262 0.743 5.252 0.627 5.252 0.404 0.009"></polygon>
                                    </g>
                                    <path d="M7.281,5.971 C7.26255873,6.71183101 6.64712507,7.29748743 5.90629036,7.27919547 C5.16545564,7.26090352 4.57967519,6.64558792 4.59781783,5.90474954 C4.61596046,5.16391115 5.23115797,4.57800669 5.972,4.596 C6.71302223,4.61454992 7.2988942,5.22996165 7.281,5.971 L7.281,5.971 Z" id="Path_21587" fill="#5E6061" fill-rule="nonzero"></path>
                                    <path d="M6.175,13.818 C6.17211929,13.9417799 6.12009759,14.0593249 6.03041728,14.14469 C5.94073698,14.2300552 5.8207715,14.2762218 5.697,14.273 L5.697,14.273 C5.57313256,14.2701167 5.45548798,14.2181278 5.36996412,14.1284777 C5.28444026,14.0388277 5.23804801,13.9188658 5.241,13.795 L5.432,6.025 C5.43854678,5.76744589 5.65243615,5.56384826 5.91,5.57 L5.91,5.57 C6.16755411,5.57654678 6.37115174,5.79043615 6.365,6.048 L6.175,13.818 Z" id="Path_21588" fill="#6F7072" fill-rule="nonzero"></path>
                                </g>
                            </g>
                        </g>
                    </g>
                </g>
                <path d="M67.918,39.632 C67.475829,38.9294421 66.7108968,38.4953422 65.881,38.476 L39.981,37.84 C39.1512244,37.8189475 38.3661023,38.2150755 37.89,38.895 L67.918,39.632 Z" id="Path_21589" fill="#2C2D2C" fill-rule="nonzero"></path>
                <path d="M54.422,36.021 C54.422,36.021 56.1,35.721 56.757,36.849 C56.757,36.849 56.91,37.624 55.857,36.998 L55.133,36.851 C55.4314858,37.1440971 55.6830963,37.4813766 55.879,37.851 C55.879,37.851 55.479,38.569 54.344,37.599 L54.629,38.205 L53.429,38.176 C53.429,38.176 52.932,37.44 54.422,36.021 Z" id="Path_21590" fill="#E6AE80" fill-rule="nonzero"></path>
                <path d="M63.201,36.237 C63.201,36.237 61.541,35.853 60.829,36.949 C60.829,36.949 60.639,37.715 61.723,37.142 L62.454,37.031 C62.1412227,37.3098633 61.8733982,37.6353678 61.66,37.996 C61.66,37.996 62.027,38.733 63.206,37.82 L62.892,38.412 L64.092,38.441 C64.092,38.441 64.621,37.727 63.201,36.237 Z" id="Path_21591" fill="#E6AE80" fill-rule="nonzero"></path>
                <path d="M50.561,12.462 C50.5476375,13.0174178 50.3140988,13.5447587 49.9117966,13.9279304 C49.5094945,14.3111021 48.9714098,14.518692 48.416,14.505 L40.164,14.305 C39.6087576,14.2913764 39.0816727,14.0577235 38.6987159,13.6554501 C38.3157592,13.2531768 38.1083057,12.7152407 38.122,12.16 L38.122,12.16 C38.1356236,11.6047576 38.3692765,11.0776727 38.7715499,10.6947159 C39.1738232,10.3117592 39.7117593,10.1043057 40.267,10.118 L48.519,10.318 C49.0744201,10.3316213 49.6016595,10.5654124 49.984645,10.9679035 C50.3676305,11.3703946 50.5749638,11.9085884 50.561,12.464 L50.561,12.462 Z" id="Path_21592" fill="#5B938D" fill-rule="nonzero"></path>
                <path d="M43.895,8.573 L43.804,11.656 C43.7948873,12.0301729 44.0908271,12.3408873 44.465,12.35 C44.8391729,12.3591127 45.1498873,12.0631729 45.159,11.689 L45.251,8.606 L43.895,8.573 Z" id="Path_21593" fill="#DCDCDC" fill-rule="nonzero"></path>
                <path d="M51.715,15.807 C51.7111012,15.9509422 51.5913642,16.0645327 51.4474164,16.0608477 C51.3034686,16.0571627 51.1897003,15.9375945 51.1931715,15.7936414 C51.1966428,15.6496883 51.3160419,15.5357426 51.46,15.539 C51.5294052,15.5405705 51.5953251,15.5697272 51.6431796,15.6200213 C51.6910341,15.6703155 51.7168797,15.7376025 51.715,15.807 L51.715,15.807 Z" id="Path_21594" fill="#FFFFFF" fill-rule="nonzero"></path>
                <path d="M67.413,19.48 C67.4129347,19.5616066 67.3632949,19.6349886 67.2875733,19.6654169 C67.2118518,19.6958453 67.1252378,19.6772163 67.0687226,19.6183463 C67.0122074,19.5594763 66.9971277,19.4721744 67.0306201,19.3977573 C67.0641125,19.3233403 67.1394587,19.2767358 67.221,19.28 C67.3283208,19.2842962 67.413086,19.3725933 67.413,19.48 L67.413,19.48 Z" id="Path_21595" fill="#FFFFFF" fill-rule="nonzero"></path>
                <g id="Group_10084" stroke-width="1" fill="none" fill-rule="evenodd" transform="translate(48.442000, 16.868000)">
                    <path d="M2.077,2.564 C1.81479,2.55729202 1.60764829,2.3393201 1.61430049,2.07710868 C1.62095269,1.81489725 1.83888053,1.60770918 2.10109336,1.61430559 C2.3633062,1.62090201 2.57054063,1.83878577 2.564,2.101 C2.55691064,2.36312985 2.33915344,2.57015569 2.077,2.564 Z M2.098,1.733 C1.90147746,1.72809457 1.73817665,1.88340844 1.73322936,2.07992993 C1.72828206,2.27645142 1.88356114,2.43978532 2.08008157,2.44477448 C2.276602,2.44976364 2.43996897,2.29451936 2.445,2.098 C2.44948584,1.90195521 2.29500457,1.73899086 2.099,1.733 L2.098,1.733 Z" id="Path_21596" fill="#FFFFFF" fill-rule="nonzero"></path>
                    <g id="Group_10080" transform="translate(1.004000, 0.000000)" fill="#FFFFFF" fill-rule="nonzero">
                        <polygon id="Path_21597" points="1.164 1.359 1.045 1.359 1.053 1.003 1.172 1.003"></polygon>
                        <rect id="Rectangle_6510" transform="translate(1.063914, 2.999537) rotate(-88.573000) translate(-1.063914, -2.999537) " x="0.88591433" y="2.94003695" width="1" height="1"></rect>
                    </g>
                    <g id="Group_10081" transform="translate(1.000000, 1.004000)" fill="#FFFFFF" fill-rule="nonzero">
                        <rect id="Rectangle_6511" transform="translate(0.179377, 1.063792) rotate(-88.624000) translate(-0.179377, -1.063792) " x="0.11987747" y="0.885791547" width="1" height="1"></rect>
                        <polygon id="Path_21598" points="2.177 1.172 1.821 1.164 1.821 1.045 2.178 1.054"></polygon>
                    </g>
                    <g id="Group_10082" transform="translate(0.261000, 0.296000)" fill="#FFFFFF" fill-rule="nonzero">
                        <polygon id="Path_21599" points="1.082 2.588 1 2.502 1.258 2.256 1.34 2.342"></polygon>
                        <polygon id="Path_21600" points="2.404 1.333 2.322 1.246 2.58 1.001 2.663 1.087"></polygon>
                    </g>
                    <g id="Group_10083" transform="translate(1.297000, 1.260000)" fill="#FFFFFF" fill-rule="nonzero">
                        <rect id="Rectangle_6512" transform="translate(1.420784, 1.488977) rotate(-43.563000) translate(-1.420784, -1.488977) " x="1.36128373" y="1.31097731" width="1" height="1"></rect>
                        <rect id="Rectangle_6513" transform="translate(0.165655, 0.170220) rotate(-43.479000) translate(-0.165655, -0.170220) " x="0.106154566" y="-0.00777973772" width="1" height="1"></rect>
                    </g>
                </g>
                <g id="Group_10089" stroke-width="1" fill="none" fill-rule="evenodd" transform="translate(66.849000, 13.801000)">
                    <path d="M1.079,1.564 C0.886867754,1.55948939 0.716385662,1.43964707 0.647095122,1.26038758 C0.577804581,1.08112808 0.623360947,0.87777877 0.762509101,0.745215817 C0.901657255,0.612652864 1.10697473,0.577000961 1.28266708,0.654894128 C1.45835942,0.732787295 1.56980227,0.908874823 1.565,1.101 C1.55845188,1.36297189 1.34098153,1.57015044 1.079,1.564 L1.079,1.564 Z M1.099,0.733 C0.902591478,0.728649257 0.739784519,0.884224082 0.735212423,1.08062758 C0.730640327,1.27703107 0.886031567,1.44001326 1.08242978,1.4448067 C1.278828,1.44960015 1.44198522,1.29439269 1.447,1.098 C1.44941424,1.00323546 1.41393376,0.911421456 1.3484219,0.842906185 C1.28291004,0.774390914 1.19277756,0.734833205 1.098,0.733 L1.099,0.733 Z" id="Path_21601" fill="#FFFFFF" fill-rule="nonzero"></path>
                    <g id="Group_10085" transform="translate(1.004000, 0.000000)" fill="#FFFFFF" fill-rule="nonzero">
                        <rect id="Rectangle_6514" transform="translate(0.108416, 0.179309) rotate(-88.739696) translate(-0.108416, -0.179309) " x="-0.0696270708" y="0.119794603" width="1" height="1"></rect>
                        <rect id="Rectangle_6515" transform="translate(0.063450, 1.999475) rotate(-88.567904) translate(-0.063450, -1.999475) " x="-0.114605616" y="1.94045657" width="1" height="1"></rect>
                    </g>
                    <g id="Group_10086" transform="translate(0.000000, 1.003000)" fill="#FFFFFF" fill-rule="nonzero">
                        <rect id="Rectangle_6516" transform="translate(0.179436, 0.063983) rotate(-88.563000) translate(-0.179436, -0.063983) " x="0.119936146" y="-0.114017448" width="1" height="1"></rect>
                        <rect id="Rectangle_6517" transform="translate(1.999875, 0.108797) rotate(-88.626000) translate(-1.999875, -0.108797) " x="1.9403754" y="-0.0697027254" width="1" height="1"></rect>
                    </g>
                    <g id="Group_10087" transform="translate(0.260000, 0.296000)" fill="#FFFFFF" fill-rule="nonzero">
                        <rect id="Rectangle_6518" transform="translate(0.169842, 1.421137) rotate(-43.667000) translate(-0.169842, -1.421137) " x="-0.00815831878" y="1.36163728" width="1" height="1"></rect>
                        <rect id="Rectangle_6519" transform="translate(1.487822, 0.166096) rotate(-43.681000) translate(-1.487822, -0.166096) " x="1.30982216" y="0.106595787" width="1" height="1"></rect>
                    </g>
                    <g id="Group_10088" transform="translate(0.296000, 0.260000)" fill="#FFFFFF" fill-rule="nonzero">
                        <rect id="Rectangle_6520" transform="translate(1.420913, 1.488734) rotate(-43.647000) translate(-1.420913, -1.488734) " x="1.36141253" y="1.31073416" width="1" height="1"></rect>
                        <rect id="Rectangle_6521" transform="translate(0.165854, 0.169844) rotate(-43.609000) translate(-0.165854, -0.169844) " x="0.106354305" y="-0.00815582277" width="1" height="1"></rect>
                    </g>
                </g>
                <path d="M69.235,17.9509989 C69.2349994,18.2032638 69.0305964,18.4078152 68.7783326,18.4079988 C68.5260688,18.4081824 68.3213683,18.2039288 68.3210005,17.9516652 C68.3206327,17.6994017 68.5247368,17.494552 68.777,17.494 C68.8983771,17.4937344 69.0148739,17.5417652 69.1007944,17.6274981 C69.186715,17.7132311 69.2350003,17.8296226 69.235,17.9509989 L69.235,17.9509989 Z" id="Path_21602" fill="#FFFFFF" fill-rule="nonzero"></path>
                <path d="M28.902,30.48 C28.902,30.48 30.696,30.839 30.644,33.606 C30.3571199,32.4254793 29.7550264,31.345029 28.902,30.48 L28.902,30.48 Z" id="Path_21603" fill="#75A340" fill-rule="nonzero"></path>
                <polygon id="Path_21604" fill="#75A340" fill-rule="nonzero" points="29.162 28.744 29.094 30.244 28.753 30.074"></polygon>
                <polygon id="Path_21605" fill="#FFFFFF" fill-rule="nonzero" points="49.762 21.261 49.962 21.671 50.414 21.737 50.087 22.056 50.164 22.506 49.764 22.293 49.364 22.506 49.441 22.056 49.114 21.737 49.566 21.671"></polygon>
                <polygon id="Path_21606" fill="#FFFFFF" fill-rule="nonzero" points="67.098 11.726 67.249 12.033 67.588 12.082 67.343 12.321 67.401 12.659 67.101 12.5 66.801 12.659 66.859 12.321 66.614 12.082 66.953 12.033"></polygon>
                <path d="M62.026,26.008 C61.8907232,26.2035033 61.7022981,26.3561867 61.483,26.448 C60.274,25.475 57.868,25.875 57.177,26.016 C57.1077177,25.9307863 57.0674308,25.8256901 57.062,25.716 L56.898,25.699 L56.735,25.678 C56.7274076,25.9426537 56.8403299,26.196453 57.042,26.368 L57.06,26.35 L57.067,26.379 C57.097,26.371 60.121,25.664 61.344,26.764 L61.418,26.831 L61.512,26.796 C61.8366388,26.6729415 62.1158177,26.4534372 62.312,26.167 L62.026,26.008 Z" id="Path_21607" fill="#E4AC7F" fill-rule="nonzero"></path>
                <g id="Group_10090" stroke-width="1" fill="none" fill-rule="evenodd" transform="translate(54.178000, 18.253000)">
                    <path d="M9.912,2.38 C9.97680127,2.75205268 9.87143905,3.13356315 9.62488457,3.41962834 C9.37833008,3.70569352 9.01654186,3.86619498 8.639,3.857 C7.47984001,3.72120845 6.64870034,2.67367738 6.78,1.514 C6.78,1.514 6.959,0.342 9.785,1.667 C9.785,1.667 7.467,1.52 7.399,2.231 L9.912,2.38 Z" id="Path_21608" fill="#E4AC7F" fill-rule="nonzero" opacity="0.65" style="mix-blend-mode: multiply;"></path>
                    <path d="M9.905,2.386 L7.392,2.686 C7.87356217,3.32052286 8.72385619,3.5481185 9.458,3.239 C9.73476309,3.04244674 9.90088921,2.72543201 9.905,2.386 Z" id="Path_21609" fill="#FFFFFF" fill-rule="nonzero"></path>
                    <polygon id="Path_21610" fill="#353B3D" fill-rule="nonzero" points="9.085 2.455 9.212 3.067 8.321 3.143 8.143 2.583"></polygon>
                    <polygon id="Path_21611" fill="#FFFFFF" fill-rule="nonzero" points="8.336 2.62 8.341 2.955 8.079 2.99 8.087 2.664"></polygon>
                    <path d="M9.879,1.282 C8.96508941,0.88399953 7.9330163,0.853202068 6.997,1.196 L7.097,1.727 C7.98227377,1.52438249 8.9022577,1.52780378 9.786,1.737 L9.879,1.282 Z" id="Path_21612" fill="#353B3D" fill-rule="nonzero"></path>
                    <path d="M3.975,0.019 C3.97092384,0.331458283 3.89676792,0.639017395 3.758,0.919 C3.00481428,0.398790411 2.12973514,0.082521653 1.218,0.001 C1.218,0.001 3.457,1.289 3.525,2.001 L1.02,2.156 C0.935940161,2.51274249 1.02588,2.88821583 1.26244898,3.16815579 C1.49901796,3.44809575 1.85423489,3.59939126 2.22,3.576 C2.73567433,3.56031654 3.22280042,3.3356065 3.56944646,2.95350375 C3.91609249,2.57140099 4.0924516,2.06476118 4.058,1.55 C4.06971699,1.49764758 4.06971699,1.44335242 4.058,1.391 C4.23604154,0.944128129 4.20561357,0.441150024 3.975,0.019 L3.975,0.019 Z" id="Path_21613" fill="#E4AC7F" fill-rule="nonzero" opacity="0.65" style="mix-blend-mode: multiply;"></path>
                    <path d="M1.217,0.003 C2.21500669,-0.016616426 3.18212455,0.349455593 3.917,1.025 L3.617,1.476 C2.87614926,0.950700441 2.02462698,0.602428169 1.128,0.458 L1.217,0.003 Z" id="Path_21614" fill="#353B3D" fill-rule="nonzero"></path>
                    <path d="M1.02,2.157 L3.533,2.457 C3.05135906,3.0907392 2.20189516,3.31822276 1.468,3.01 C1.19098407,2.81355289 1.02450396,2.4965718 1.02,2.157 Z" id="Path_21615" fill="#FFFFFF" fill-rule="nonzero"></path>
                    <polygon id="Path_21616" fill="#353B3D" fill-rule="nonzero" points="1.84 2.228 1.713 2.839 2.604 2.915 2.783 2.355"></polygon>
                    <polygon id="Path_21617" fill="#FFFFFF" fill-rule="nonzero" points="1.893 2.366 1.898 2.701 1.636 2.736 1.644 2.41"></polygon>
                    <path d="M1.293,2.856 C1.293,2.856 2.05,3.639 3.387,2.68 C3.387,2.68 2.1,4.245 1.293,2.856 Z" id="Path_21618" fill="#E4AC7F" fill-rule="nonzero" opacity="0.65" style="mix-blend-mode: multiply;"></path>
                    <path d="M7.577,2.907 C7.577,2.907 8.84,4.018 9.777,2.932 C9.773,2.932 8.89,4.576 7.577,2.907 Z" id="Path_21619" fill="#E4AC7F" fill-rule="nonzero" opacity="0.65" style="mix-blend-mode: multiply;"></path>
                </g>
                <g id="Group_10091" stroke-width="1" fill="none" fill-rule="evenodd" transform="translate(67.897000, 21.612000)">
                    <path d="M2.114,0.771 L0.875,0.68 C0.546,0.656 0.419,0.498 0.45,0.307 C0.478840042,0.124389156 0.640315594,-0.00737489567 0.825,0.001 L2.755,0.143 C3.101,0.168 3.255,0.299 3.219,0.533 C3.20702623,0.633106823 3.1675686,0.727943584 3.105,0.807 L1.134,2.619 L2.576,2.725 C2.66957368,2.72387029 2.75900983,2.76350451 2.82102626,2.83358498 C2.88304268,2.90366546 2.91150359,2.99725859 2.899,3.09 C2.85757573,3.27475434 2.68796296,3.40196392 2.499,3.39 L0.409,3.236 C0.123,3.215 -0.028,3.036 0.009,2.828 C0.0250444875,2.74919068 0.0592888333,2.67522289 0.109,2.612 L2.114,0.771 Z" id="Path_21620" fill="#231F20" fill-rule="nonzero"></path>
                </g>
                <g id="Group_10092" stroke-width="1" fill="none" fill-rule="evenodd" transform="translate(71.268000, 14.554000)">
                    <path d="M3.703,1.35 L1.533,1.19 C0.957,1.148 0.733,0.871 0.789,0.537 C0.83913339,0.216716538 1.12214575,-0.0146040686 1.446,-1.42108547e-14 L4.827,0.249 C5.432,0.293 5.708,0.522 5.64,0.933 C5.61873495,1.10804289 5.5495221,1.27380765 5.44,1.412 L1.984,4.589 L4.509,4.775 C4.67307876,4.7729197 4.82992819,4.84240102 4.93863465,4.96531998 C5.04734111,5.08823895 5.09712487,5.25240647 5.075,5.415 C5.00541106,5.7412187 4.70797659,5.9676938 4.375,5.948 L0.713,5.679 C0.213,5.642 -0.052,5.337 0.013,4.964 C0.038594314,4.82675251 0.0957679966,4.69734142 0.18,4.586 L3.703,1.35 Z" id="Path_21621" fill="#231F20" fill-rule="nonzero"></path>
                </g>
                <g id="Group_10093" stroke-width="1" fill="none" fill-rule="evenodd" transform="translate(71.867000, 0.000000)">
                    <path d="M8.297,3.026 L3.433,2.668 C2.143,2.573 1.642,1.954 1.766,1.205 C1.88019618,0.48892014 2.51359763,-0.0274397341 3.238,0.005 L10.816,0.562 C12.173,0.662 12.791,1.173 12.638,2.094 C12.59127,2.4862922 12.4369086,2.85800546 12.192,3.168 L4.446,10.289 L10.105,10.705 C10.4727209,10.6999477 10.8244096,10.8552948 11.0683276,11.1305188 C11.3122455,11.4057428 11.4242046,11.7735509 11.375,12.138 C11.2211146,12.8725033 10.5520873,13.3832112 9.803,13.338 L1.596,12.738 C0.471,12.655 -0.119,11.971 0.019,11.138 C0.0770612302,10.8308467 0.205408893,10.5412943 0.394,10.292 L8.297,3.026 Z" id="Path_21622" fill="#231F20" fill-rule="nonzero"></path>
                </g>
            </g>
        </g>
    </g>
</svg>