<?xml version="1.0" encoding="UTF-8"?>
<svg width="206px" height="127px" viewBox="0 0 206 127" version="1.1" xmlns="http://www.w3.org/2000/svg" xmlns:xlink="http://www.w3.org/1999/xlink">
    <title>Components / Image / Theory Lectures / 1 Inactive</title>
    <defs>
        <rect id="path-1" x="0" y="0" width="206" height="127"></rect>
    </defs>
    <g id="Components-/-Image-/-Theory-Lectures-/-1-Inactive" stroke="none" stroke-width="1" fill="none" fill-rule="evenodd">
        <mask id="mask-2" fill="white">
            <use xlink:href="#path-1"></use>
        </mask>
        <use id="Mask" fill="#F5F5F5" xlink:href="#path-1"></use>
        <g id="1" style="mix-blend-mode: luminosity;" mask="url(#mask-2)">
            <g transform="translate(13.000000, 24.000000)">
                <path d="M11.0013158,35.2965789 L10.5548684,35.2965789 L10.5548684,33.3840789 L11.0013158,33.3840789 L11.0013158,35.2965789 Z M11.0013158,31.4715789 L10.5548684,31.4715789 L10.5548684,29.5590789 L11.0013158,29.5590789 L11.0013158,31.4715789 Z M11.0013158,27.6465789 L10.5548684,27.6465789 L10.5548684,25.7340789 L11.0013158,25.7340789 L11.0013158,27.6465789 Z M11.0013158,23.8215789 L10.5548684,23.8215789 L10.5548684,21.9090789 L11.0013158,21.9090789 L11.0013158,23.8215789 Z M11.0013158,19.9965789 L10.5548684,19.9965789 L10.5548684,18.0840789 L11.0013158,18.0840789 L11.0013158,19.9965789 Z M11.0013158,16.1715789 L10.5548684,16.1715789 L10.5548684,14.2578947 L11.0013158,14.2578947 L11.0013158,16.1715789 Z M11.0013158,12.3465789 L10.5548684,12.3465789 L10.5548684,11.0723684 L11.6443421,11.0723684 L11.6443421,11.5188158 L11.0013158,11.5188158 L11.0013158,12.3465789 Z M45.5411842,11.5176316 L44.1580263,11.5176316 L44.1580263,11.0723684 L45.5411842,11.0723684 L45.5411842,11.5176316 Z M42.2455263,11.5176316 L40.3330263,11.5176316 L40.3330263,11.0723684 L42.2455263,11.0723684 L42.2455263,11.5176316 Z M38.4205263,11.5176316 L36.5044737,11.5176316 L36.5044737,11.0723684 L38.4169737,11.0723684 L38.4205263,11.5176316 Z M34.5955263,11.5176316 L32.6818421,11.5176316 L32.6818421,11.0723684 L34.5943421,11.0723684 L34.5955263,11.5176316 Z M30.7705263,11.5176316 L28.8568421,11.5176316 L28.8568421,11.0723684 L30.7693421,11.0723684 L30.7705263,11.5176316 Z M26.9455263,11.5176316 L25.0318421,11.5176316 L25.0318421,11.0723684 L26.9443421,11.0723684 L26.9455263,11.5176316 Z M23.1205263,11.5176316 L21.2068421,11.5176316 L21.2068421,11.0723684 L23.1228947,11.0723684 L23.1205263,11.5176316 Z M19.2955263,11.5176316 L17.3818421,11.5176316 L17.3818421,11.0723684 L19.2943421,11.0723684 L19.2955263,11.5176316 Z M15.4705263,11.5176316 L13.5568421,11.5176316 L13.5568421,11.0723684 L15.4693421,11.0723684 L15.4705263,11.5176316 Z" id="Path_18604" fill="#FFFFFF" fill-rule="nonzero"></path>
                <path d="M78.0382895,64.1711842 L77.3834211,64.1711842 L77.3834211,63.7306579 L78.0382895,63.7306579 L78.0382895,64.1711842 Z M75.4697368,64.1711842 L73.5572368,64.1711842 L73.5572368,63.7306579 L75.4697368,63.7306579 L75.4697368,64.1711842 Z M71.6447368,64.1711842 L69.7322368,64.1711842 L69.7322368,63.7306579 L71.6447368,63.7306579 L71.6447368,64.1711842 Z M67.8197368,64.1711842 L65.9060526,64.1711842 L65.9060526,63.7306579 L67.8185526,63.7306579 L67.8197368,64.1711842 Z M63.9947368,64.1711842 L62.0822368,64.1711842 L62.0822368,63.7306579 L63.9947368,63.7306579 L63.9947368,64.1711842 Z M60.1697368,64.1711842 L58.2572368,64.1711842 L58.2572368,63.7306579 L60.1697368,63.7306579 L60.1697368,64.1711842 Z M56.3447368,64.1711842 L54.4322368,64.1711842 L54.4322368,63.7306579 L56.3447368,63.7306579 L56.3447368,64.1711842 Z M52.5197368,64.1711842 L50.6060526,64.1711842 L50.6060526,63.7306579 L52.5244737,63.7306579 L52.5197368,64.1711842 Z M50.7434211,62.1284211 L50.2969737,62.1284211 L50.2969737,60.2159211 L50.7434211,60.2159211 L50.7434211,62.1284211 Z M50.7434211,58.3034211 L50.2969737,58.3034211 L50.2969737,56.3885526 L50.7434211,56.3885526 L50.7434211,58.3034211 Z M50.7434211,54.4784211 L50.2969737,54.4784211 L50.2969737,52.5647368 L50.7434211,52.5647368 L50.7434211,54.4784211 Z M50.7434211,50.6534211 L50.2969737,50.6534211 L50.2969737,48.7397368 L50.7434211,48.7397368 L50.7434211,50.6534211 Z M50.7434211,46.8284211 L50.2969737,46.8284211 L50.2969737,44.9147368 L50.7434211,44.9147368 L50.7434211,46.8284211 Z M50.7434211,43.0034211 L50.2969737,43.0034211 L50.2969737,41.0897368 L50.7434211,41.0897368 L50.7434211,43.0034211 Z" id="Path_18605" fill="#FFFFFF" fill-rule="nonzero"></path>
                <path d="M113.517237,66.2376316 L111.604737,66.2376316 L111.604737,65.7911842 L113.517237,65.7911842 L113.517237,66.2376316 Z M109.692237,66.2376316 L107.779737,66.2376316 L107.779737,65.7911842 L109.692237,65.7911842 L109.692237,66.2376316 Z M105.867237,66.2376316 L103.954737,66.2376316 L103.954737,65.7911842 L105.867237,65.7911842 L105.867237,66.2376316 Z M102.042237,66.2376316 L100.129737,66.2376316 L100.129737,65.7911842 L102.042237,65.7911842 L102.042237,66.2376316 Z M98.2172368,66.2376316 L96.3047368,66.2376316 L96.3047368,65.7911842 L98.2172368,65.7911842 L98.2172368,66.2376316 Z M94.3922368,66.2376316 L92.4797368,66.2376316 L92.4797368,65.7911842 L94.3886842,65.7911842 L94.3922368,66.2376316 Z M114.856579,65.2180263 L114.410132,65.2180263 L114.410132,63.3055263 L114.856579,63.3055263 L114.856579,65.2180263 Z M114.856579,61.3930263 L114.410132,61.3930263 L114.410132,59.4805263 L114.856579,59.4805263 L114.856579,61.3930263 Z M114.856579,57.5680263 L114.410132,57.5680263 L114.410132,55.6555263 L114.856579,55.6555263 L114.856579,57.5680263 Z M114.856579,53.7430263 L114.410132,53.7430263 L114.410132,51.8293421 L114.856579,51.8293421 L114.856579,53.7430263 Z M114.856579,49.9180263 L114.410132,49.9180263 L114.410132,48.0043421 L114.856579,48.0043421 L114.856579,49.9180263 Z M114.856579,46.0930263 L114.410132,46.0930263 L114.410132,45.6572368 L114.856579,45.6572368 L114.856579,46.0930263 Z" id="Path_18606" fill="#FFFFFF" fill-rule="nonzero"></path>
                <path d="M154.969342,42.3319737 L154.522895,42.3319737 L154.522895,40.7628947 L154.969342,40.7628947 L154.969342,42.3319737 Z M154.969342,38.8503947 L154.522895,38.8503947 L154.522895,36.9378947 L154.969342,36.9378947 L154.969342,38.8503947 Z M154.969342,35.0253947 L154.522895,35.0253947 L154.522895,33.1128947 L154.969342,33.1128947 L154.969342,35.0253947 Z M154.969342,31.2003947 L154.522895,31.2003947 L154.522895,29.2878947 L154.969342,29.2878947 L154.969342,31.2003947 Z M154.969342,27.3753947 L154.522895,27.3753947 L154.522895,25.4628947 L154.969342,25.4628947 L154.969342,27.3753947 Z M154.969342,23.5503947 L154.522895,23.5503947 L154.522895,21.6367105 L154.969342,21.6367105 L154.969342,23.5503947 Z M154.969342,19.7253947 L154.522895,19.7253947 L154.522895,17.8117105 L154.969342,17.8117105 L154.969342,19.7253947 Z M154.969342,15.9003947 L154.522895,15.9003947 L154.522895,13.9867105 L154.969342,13.9867105 L154.969342,15.9003947 Z M154.969342,12.0753947 L154.522895,12.0753947 L154.522895,11.5330263 L153.598026,11.5330263 L153.598026,11.0865789 L154.969342,11.0865789 L154.969342,12.0753947 Z M151.685526,11.5330263 L149.773026,11.5330263 L149.773026,11.0865789 L151.685526,11.0865789 L151.685526,11.5330263 Z M147.860526,11.5330263 L145.948026,11.5330263 L145.948026,11.0865789 L147.860526,11.0865789 L147.860526,11.5330263 Z M144.035526,11.5330263 L142.123026,11.5330263 L142.123026,11.0865789 L144.035526,11.0865789 L144.035526,11.5330263 Z M140.210526,11.5330263 L138.298026,11.5330263 L138.298026,11.0865789 L140.210526,11.0865789 L140.210526,11.5330263 Z M136.385526,11.5330263 L134.473026,11.5330263 L134.473026,11.0865789 L136.385526,11.0865789 L136.385526,11.5330263 Z M132.560526,11.5330263 L130.648026,11.5330263 L130.648026,11.0865789 L132.560526,11.0865789 L132.560526,11.5330263 Z M128.735526,11.5330263 L126.823026,11.5330263 L126.823026,11.0865789 L128.729605,11.0865789 L128.735526,11.5330263 Z M124.910526,11.5330263 L122.998026,11.5330263 L122.998026,11.0865789 L124.910526,11.0865789 L124.910526,11.5330263 Z M121.085526,11.5330263 L119.173026,11.5330263 L119.173026,11.0865789 L121.085526,11.0865789 L121.085526,11.5330263 Z M118.480263,10.3121053 L118.033816,10.3121053 L118.033816,8.3925 L118.480263,8.3925 L118.480263,10.3121053 Z M118.480263,6.47644737 L118.033816,6.47644737 L118.033816,4.58171053 L118.480263,4.58171053 L118.480263,6.47644737 Z" id="Path_18607" fill="#FFFFFF" fill-rule="nonzero"></path>
                <path d="M97.2189474,23.6202632 L95.3064474,23.6202632 L95.3064474,23.1738158 L97.2189474,23.1738158 L97.2189474,23.6202632 Z M93.3939474,23.6202632 L91.4814474,23.6202632 L91.4814474,23.1738158 L93.3939474,23.1738158 L93.3939474,23.6202632 Z M89.5689474,23.6202632 L87.6564474,23.6202632 L87.6564474,23.1738158 L89.5642105,23.1738158 L89.5689474,23.6202632 Z M85.7439474,23.6202632 L83.8314474,23.6202632 L83.8314474,23.1738158 L85.7439474,23.1738158 L85.7439474,23.6202632 Z M82.1830263,23.3561842 L81.7365789,23.3561842 L81.7365789,21.4425 L82.1830263,21.4425 L82.1830263,23.3561842 Z M98.7619737,22.8090789 L98.3155263,22.8090789 L98.3155263,20.8953947 L98.7619737,20.8953947 L98.7619737,22.8090789 Z M82.1830263,19.5311842 L81.7365789,19.5311842 L81.7365789,17.6175 L82.1830263,17.6175 L82.1830263,19.5311842 Z M98.7619737,18.9840789 L98.3155263,18.9840789 L98.3155263,17.0680263 L98.7619737,17.0680263 L98.7619737,18.9840789 Z M82.1830263,15.7061842 L81.7365789,15.7061842 L81.7365789,13.7925 L82.1830263,13.7925 L82.1830263,15.7061842 Z M98.7619737,15.1590789 L98.3155263,15.1590789 L98.3155263,13.2453947 L98.7619737,13.2453947 L98.7619737,15.1590789 Z M82.1830263,11.8811842 L81.7365789,11.8811842 L81.7365789,11.5022368 L80.6459211,11.5022368 L80.6459211,11.0557895 L82.1853947,11.0557895 L82.1830263,11.8811842 Z M78.7334211,11.5057895 L76.8209211,11.5057895 L76.8209211,11.0593421 L78.7334211,11.0593421 L78.7334211,11.5057895 Z M74.9084211,11.5057895 L72.9959211,11.5057895 L72.9959211,11.0593421 L74.9084211,11.0593421 L74.9084211,11.5057895 Z M71.0834211,11.5057895 L69.1709211,11.5057895 L69.1709211,11.0593421 L71.0834211,11.0593421 L71.0834211,11.5057895 Z M67.2584211,11.5057895 L65.3459211,11.5057895 L65.3459211,11.0593421 L67.2584211,11.0593421 L67.2584211,11.5057895 Z M63.4334211,11.5057895 L61.5197368,11.5057895 L61.5197368,11.0593421 L63.4322368,11.0593421 L63.4334211,11.5057895 Z M59.6084211,11.5057895 L57.6947368,11.5057895 L57.6947368,11.0593421 L59.6036842,11.0593421 L59.6084211,11.5057895 Z M55.7834211,11.5057895 L53.8697368,11.5057895 L53.8697368,11.0593421 L55.7822368,11.0593421 L55.7834211,11.5057895 Z M51.9584211,11.5057895 L50.0447368,11.5057895 L50.0447368,11.0593421 L51.9572368,11.0593421 L51.9584211,11.5057895 Z M98.7678947,11.3340789 L98.3214474,11.3340789 L98.3214474,10.0207895 L99.3694737,10.0207895 L99.3694737,10.4672368 L98.7678947,10.4672368 L98.7678947,11.3340789 Z M110.846842,10.4684211 L108.934342,10.4684211 L108.934342,10.0219737 L110.846842,10.0219737 L110.846842,10.4684211 Z M107.021842,10.4684211 L105.109342,10.4684211 L105.109342,10.0219737 L107.021842,10.0219737 L107.021842,10.4684211 Z M103.196842,10.4684211 L101.284342,10.4684211 L101.284342,10.0219737 L103.196842,10.0219737 L103.196842,10.4684211 Z" id="Path_18608" fill="#FFFFFF" fill-rule="nonzero"></path>
                <g id="Group_9443" stroke-width="1" fill="none" fill-rule="evenodd" transform="translate(0.000000, 25.153816)">
                    <rect id="Rectangle_6309" fill="#26252E" fill-rule="nonzero" x="4.43368421" y="37.1498684" width="16.3113158" height="10.7064474"></rect>
                    <rect id="Rectangle_6310" fill="#1C1C1F" fill-rule="nonzero" x="6.49539474" y="37.1498684" width="12.1878947" height="10.7064474"></rect>
                    <path d="M5.84171053,5.07078947 C5.84171053,5.07078947 12.9635526,10.1498684 13.6847368,11.9392105 L13.2785526,12.6071053 C10.8217982,10.2520738 8.24465856,8.02593102 5.5575,5.93763158 L5.84171053,5.07078947 Z" id="Path_18609" fill="#1C1C1F" fill-rule="nonzero"></path>
                    <g id="Group_9436" transform="translate(9.754342, 26.155658)" fill-rule="nonzero">
                        <path d="M17.6021053,19.6010526 L18.3671053,19.2327632 L21.1156579,18.9757895 L20.8681579,19.6673684 L22.4976316,20.0806579 L24.8411842,20.8492105 L24.8411842,21.6923684 C24.8411842,21.6923684 21.8463158,21.7207895 21.7113158,21.6923684 C21.7113158,21.6923684 19.2706579,21.4555263 18.9876316,21.3880263 L18.8940789,21.6923684 L17.4671053,21.6923684 L17.3356579,20.8160526 L17.6021053,19.6010526 Z" id="Path_18610" fill="#09161C"></path>
                        <path d="M21.8960526,19.6886842 L21.15,3.93039474 C21.1374546,2.81622199 20.4367949,1.82605695 19.3902632,1.44355263 C17.64,0.948552632 6.62921053,0.00236842105 6.62921053,0.00236842105 C5.20105263,0.00236842105 3.05407895,2.70355263 3.05407895,2.70355263 C2.70710526,5.01157895 3.36315789,6.00513158 4.79131579,6.00513158 L16.2781579,5.96486842 L16.6582895,20.0392105 L21.8960526,19.6886842 Z" id="Path_18611" fill="#041D2B"></path>
                        <g id="Group_9435" transform="translate(0.000000, 0.658421)">
                            <path d="M9.40973684,18.9426316 L10.1759211,18.5743421 L12.9244737,18.3173684 L12.6769737,19.0089474 L14.3076316,19.4222368 L16.6511842,20.1907895 L16.6511842,21.0339474 C16.6511842,21.0339474 13.6551316,21.0623684 13.5201316,21.0339474 C13.5201316,21.0339474 11.0806579,20.7971053 10.7964474,20.7296053 L10.7017105,21.0339474 L9.27947368,21.0339474 L9.14802632,20.1576316 L9.40973684,18.9426316 Z" id="Path_18612" fill="#09161C"></path>
                            <path d="M16.2675,1.30618421 C16.1360526,1.27184211 3.66513158,0.00355263158 3.66513158,0.00355263158 C2.23460526,0.00355263158 0.0911842105,2.70473684 0.0911842105,2.70473684 C-0.256973684,5.01157895 0.397894737,6.04421053 1.82723684,6.04421053 L12.3785526,6.06315789 L8.87447368,19.3263158 L14.6096053,19.5063158 L17.9514474,4.51894737 C18.3307499,3.17093544 17.5918634,1.7612315 16.2675,1.30618421 L16.2675,1.30618421 Z" id="Path_18613" fill="#0E2C40"></path>
                        </g>
                    </g>
                    <g id="_4" transform="translate(6.739342, 0.000000)" fill-rule="nonzero">
                        <g id="Group_9440">
                            <path d="M21.3134211,19.0468421 C21.3990331,19.0877038 21.5001936,19.0780759 21.5765604,19.0217979 C21.6529272,18.96552 21.6920775,18.8717468 21.6783984,18.7778747 C21.6647193,18.6840025 21.6004359,18.6053018 21.5111842,18.5731579 L20.6467105,18.2107895 C20.6467105,18.2107895 20.6668421,18.1515789 20.6775,18.1563158 L21.555,18.4902632 C21.6859904,18.533199 21.8276041,18.4656477 21.8766641,18.3368257 C21.9257241,18.2080037 21.86492,18.0633645 21.7385526,18.0082895 L20.8752632,17.6530263 L20.8823684,17.6044737 C21.2558273,17.6460959 21.6318306,17.6603444 22.0073684,17.6471053 C22.2323684,17.5926316 22.3555263,17.3297368 22.0571053,17.1615789 C21.3645694,17.0367305 20.6608646,16.9847365 19.9575,17.0064474 L17.8863158,17.7596053 C17.8863158,17.7596053 16.8276316,17.7714474 16.8086842,17.7856579 C16.7897368,17.7998684 15.6019737,19.1617105 16.4830263,19.4115789 C17.0679985,19.4957481 17.6577546,19.5424222 18.2486842,19.5513158 C18.2486842,19.5513158 20.5472368,19.4328947 21.0315789,19.4222368 C21.2281579,19.4222368 21.3465789,19.1605263 21.15,19.0669737 C20.9534211,18.9734211 20.5164474,18.8372368 20.5164474,18.8372368 C20.5282895,18.8111842 20.5271053,18.7803947 20.5306579,18.7803947 L21.3134211,19.0468421 Z" id="Path_18614" fill="#EDB485"></path>
                            <g id="Group_9439" transform="translate(0.123158, 0.000000)">
                                <polygon id="Path_18615" fill="#EDB485" points="4.92868421 9.74486842 1.61289474 9.11131579 2.2725 6.78197368 5.79789474 6.49776316"></polygon>
                                <g id="Group_9438">
                                    <g id="Group_9437" transform="translate(1.397368, 1.286053)" fill="#FFC89F">
                                        <path d="M6.09986842,4.35789474 C6.03399064,3.98608342 5.87738862,3.63627112 5.64394737,3.33947368 C6.09986842,1.35236842 5.71736842,0.948552632 5.71736842,0.948552632 C5.3237663,1.05015886 4.92041287,1.10931207 4.51421053,1.125 C4.46921053,1.07644737 4.42184211,1.02671053 4.37684211,0.974605263 C4.18386809,0.761212419 3.97949048,0.558416061 3.76460526,0.367105263 C3.60355263,0.225 3.39276316,0.153947368 3.22697368,0.0118421053 C3.21459777,0.000886244886 3.19617311,0.000300451959 3.18312624,0.0104480211 C3.17007936,0.0205955903 3.16611183,0.0385975309 3.17368421,0.0532894737 C3.18586331,0.0779129704 3.20097279,0.100974812 3.21868421,0.121973684 C2.97239365,0.445406692 2.77746995,0.804897128 2.64078947,1.18776316 C1.83790593,1.16742861 1.04716795,1.3867574 0.369473684,1.81776316 C-0.402631579,2.68697368 0.232105263,4.50710526 0.503289474,4.75815789 C0.621710526,4.86355263 2.39802632,6.68960526 2.39802632,6.68960526 C3.21615782,7.09268611 4.11495591,7.30523972 5.02697368,7.31131579 C5.20102265,7.21815966 5.34977871,7.08403534 5.46039474,6.92052632 C5.62855263,6.64697368 5.47105263,6.42671053 5.38578947,6.20052632 C5.28039474,5.92578947 5.88197368,5.75407895 5.56815789,5.44026316 C5.40118421,5.27565789 5.74342105,5.28868421 5.69486842,5.06368421 C5.67236842,4.95828947 5.57644737,4.72855263 5.56460526,4.62078947 C5.55276316,4.51302632 6.09986842,4.56631579 6.09986842,4.35789474 Z" id="Path_18616"></path>
                                    </g>
                                    <path d="M1.90065789,8.12013158 C1.90065789,8.12013158 2.1375,7.14671053 2.59578947,6.89210526 C2.75210526,6.80565789 2.84802632,6.51907895 2.95105263,6.27513158 C3.12276316,5.88078947 2.81368421,4.80315789 2.87407895,4.64565789 C2.91789474,4.53552632 3.25539474,5.30407895 3.58460526,5.25552632 C4.19684211,5.16671053 3.83092105,2.80065789 4.80078947,2.71539474 C4.99736842,2.69881579 5.31828947,2.79947368 5.87486842,2.85868421 C6.24981,2.90149365 6.62949939,2.87092544 6.99276316,2.76868421 C6.99276316,2.76868421 8.3475,2.04986842 7.60855263,1.55723684 C7.03871383,1.07675383 6.4157045,0.663136031 5.75171053,0.324473684 C4.47418219,-0.162452675 3.05147915,-0.0946436008 1.82605263,0.511578947 C0.62380007,1.11419915 -0.0938790772,2.38476745 0.0106578947,3.72552632 C0.362922784,5.29484698 1.00380674,6.78502264 1.90065789,8.12013158 L1.90065789,8.12013158 Z" id="Path_18617" fill="#662410"></path>
                                </g>
                                <path d="M3.38092105,5.23657895 C3.51828947,5.82868421 3.36078947,6.38052632 3.02565789,6.45631579 C2.69052632,6.53210526 2.31513158,6.10105263 2.17776316,5.50894737 C2.04039474,4.91684211 2.20026316,4.365 2.53302632,4.28921053 C2.86578947,4.21342105 3.24355263,4.63618421 3.38092105,5.23657895 Z" id="Path_18618" fill="#FFC89F"></path>
                            </g>
                            <path d="M18.0651316,17.5275 C18.2762941,18.4053597 18.4344744,19.2951236 18.5388158,20.1919737 C16.605,20.5709211 14.6593421,20.9025 12.7113158,21.2068421 C11.7117516,21.3995122 10.7006393,21.5264946 9.68447368,21.5869737 C8.54644737,21.6106579 7.79684211,20.4773684 7.11828947,19.6697368 C6.03947368,18.3848684 0.454736842,13.2477632 3.0375,11.2464474 C3.87764573,10.6273845 5.03412853,10.6711087 5.82513158,11.3518421 C6.98328947,12.2103947 9.70934211,18.0319737 11.2784211,18.0402632 C13.2003947,18.0497368 18.0272368,17.4102632 18.0651316,17.5275 Z" id="Path_18619" fill="#0E2C40"></path>
                            <path d="M5.44855263,8.94671053 C5.62144737,9.25223684 5.87842105,9.71763158 6.16736842,10.2919737 C6.87640828,11.6966569 7.4673926,13.1578775 7.93421053,14.6605263 C8.10473684,15.2218421 8.32026316,16.0022368 8.51328947,16.9555263 C6.43144737,15.0714474 4.7025,14.1702632 3.65802632,13.2228947 C2.7199982,12.4567222 1.89511,11.5616647 1.20789474,10.5643421 C1.03680208,10.1401977 1.10544987,9.65695346 1.38789474,9.29723684 C2.20144737,8.145 4.72618421,9.44526316 4.72618421,9.44526316 L5.44855263,8.94671053 Z" id="Path_18620" fill="#BCBEC0"></path>
                            <path d="M6.55815789,15.7109211 L5.26736842,9.61223684 L5.535,9.68565789 L5.84289474,9.51039474 C5.86894737,9.56131579 5.89026316,9.61460526 5.91394737,9.66907895 C6.03947368,9.97460526 8.03605263,14.1240789 8.11065789,15.3236842 C8.13197368,15.6682895 6.55815789,15.7109211 6.55815789,15.7109211 Z" id="Path_18621" fill="#C62B27"></path>
                            <path d="M5.91513158,9.66552632 C5.91513158,9.66552632 6.06671053,10.0113158 5.81802632,9.90236842 C5.81802632,9.90236842 5.27447368,9.67618421 5.25789474,9.65723684 C5.12533847,9.53012735 5.02191101,9.37579418 4.95473684,9.20486842 C4.96065789,9.13973684 5.44855263,8.88986842 5.44855263,8.88986842 C5.61483324,9.06928402 5.74830846,9.2765113 5.84289474,9.50210526 C5.86894737,9.56131579 5.89026316,9.61105263 5.91513158,9.66552632 Z" id="Path_18622" fill="#FA7564"></path>
                            <polygon id="Path_18623" fill="#E6E7E8" points="1.64723684 8.04552632 5.45328947 8.95263158 5.05657895 10.6105263 1.25763158 9.53052632"></polygon>
                            <path d="M9.97342105,24.4811842 C9.91421053,24.1732895 9.855,23.8772368 9.80881579,23.5871053 C8.73473684,17.5997368 8.94789474,15.5226316 7.26986842,13.365 C6.18533267,11.9951229 4.81383626,10.8794936 3.25184211,10.0965789 L1.25289474,9.52815789 C0.826617153,10.532599 0.458121015,11.5605925 0.149210526,12.6071053 C0.0563649545,13.4770949 0.0132685054,14.351676 0.0201315789,15.2265789 C-0.0597213775,16.8765532 0.110764272,18.5291062 0.525789474,20.1280263 C0.845526316,21.3631579 1.13921053,22.6776316 1.39381579,24.0702632 C1.57026316,25.0472368 1.71473684,25.9957895 1.83315789,26.9218421 C2.07,28.8035526 2.205,30.5715789 2.25473684,32.1975 L12.2021053,28.9267105 C10.8817105,26.1189474 10.2303947,25.8335526 9.97342105,24.4811842 Z" id="Path_18624" fill="#1A4B6C"></path>
                            <polygon id="Rectangle_6311" fill="#052538" transform="translate(7.850648, 27.192276) rotate(-10.981000) translate(-7.850648, -27.192276) " points="6.21702937 26.6191179 9.48426621 26.6191179 9.48426621 27.7654337 6.21702937 27.7654337"></polygon>
                            <path d="M7.76605263,14.0944737 C6.75323975,13.3389308 5.62899239,12.7456446 4.43368421,12.3359211 C4.14741917,12.2625973 3.9218338,12.042426 3.84157895,11.7580263 L3.60473684,10.5536842 L3.07776316,11.2168421 C3.00795986,11.3189873 2.89113622,11.3787843 2.76745734,11.3756744 C2.64377846,11.3725645 2.53010776,11.3069717 2.46552632,11.2014474 L1.25289474,9.52460526 L1.48026316,8.55473684 C1.48026316,8.55473684 6.42197368,11.6455263 7.76605263,14.0944737 Z" id="Path_18625" fill="#16405E"></path>
                        </g>
                    </g>
                    <g id="Group_9441" transform="translate(0.648947, 32.680658)" fill="#FF4140" fill-rule="nonzero">
                        <path d="M22.1767105,2.71657895 C22.1767105,1.47315789 21.3678947,-0.045 19.9503947,0.00118421053 C14.4225,0.209605263 8.89697368,0.496184211 3.36434211,0.571973684 C2.1623431,0.592353738 1.19412006,1.56424826 1.17828947,2.76631579 L1.17828947,3.12157895 C1.19339853,4.32185288 2.15828315,5.29355091 3.35842105,5.31710526 C8.89105263,5.39289474 14.4165789,5.67947368 19.9444737,5.88671053 C21.3655263,5.93407895 22.1696053,4.41710526 22.1707895,3.1725 L22.1767105,2.71657895 Z" id="Path_18626"></path>
                    </g>
                    <rect id="Rectangle_6312" fill="#26252E" fill-rule="nonzero" x="2.23815789" y="7.07565789" width="1" height="2.45368421"></rect>
                    <rect id="Rectangle_6313" fill="#26252E" fill-rule="nonzero" x="4.31407895" y="7.79684211" width="1" height="2.45368421"></rect>
                    <path d="M9.22736842,34.11 L1.88526316,36.3232895 C1.42508463,27.3471665 1.50417426,18.3515126 2.12210526,9.38486842 C2.16473684,8.84131579 3.70302632,8.76197368 4.30105263,9.53763158 C8.94315789,15.5427632 9.22736842,34.11 9.22736842,34.11 Z" id="Path_18627" fill="#FF4140" fill-rule="nonzero"></path>
                    <path d="M9.22736842,34.11 L1.88526316,36.3232895 C1.42508463,27.3471665 1.50417426,18.3515126 2.12210526,9.38486842 C2.16473684,8.84131579 3.70302632,8.76197368 4.30105263,9.53763158 C8.94315789,15.5427632 9.22736842,34.11 9.22736842,34.11 Z" id="Path_18628" fill="#FF4140" fill-rule="nonzero"></path>
                    <path d="M4.0725,1.62473684 L4.0725,1.62473684 C5.66831225,1.62473684 6.96197368,2.91839828 6.96197368,4.51421053 L6.96197368,5.23184211 C6.96131985,6.82653785 5.66838009,8.11894737 4.07368421,8.11894737 L4.07368421,8.11894737 C2.47787196,8.11894737 1.18421053,6.82528594 1.18421053,5.22947368 L1.18421053,4.51302632 C1.18421053,2.91786809 2.47734177,1.62473684 4.0725,1.62473684 Z" id="Rectangle_6314" fill="#FF4140" fill-rule="nonzero"></path>
                    <path d="M4.58171053,34.3267105 C4.58171053,34.3267105 13.1423684,17.3178947 13.4289474,11.3719737 C13.4289474,11.3719737 13.7984211,12.1582895 13.9097368,12.4259211 C13.9902632,12.6189474 14.2105263,13.2086842 14.2105263,13.2086842 C14.2105263,13.2086842 10.9764474,25.6428947 5.57763158,34.6831579 L4.58171053,34.3267105 Z" id="Path_18629" fill="#1C1C1F" fill-rule="nonzero"></path>
                    <path d="M4.83631579,34.0803947 C4.83631579,34.0803947 14.0577632,30.6130263 18.5648684,26.3759211 L20.3802632,26.5203947 C15.8538952,29.8703497 10.9776336,32.7196334 5.83697368,35.0182895 L4.83631579,34.0803947 Z" id="Path_18630" fill="#1C1C1F" fill-rule="nonzero"></path>
                    <polygon id="Rectangle_6315" fill="#1C1C1F" fill-rule="nonzero" transform="translate(29.259001, 20.579922) rotate(-57.515000) translate(-29.259001, -20.579922) " points="28.4365665 17.7236065 30.0814349 17.7236065 30.0814349 23.436238 28.4365665 23.436238"></polygon>
                    <path d="M24.0465789,21.2885526 C23.9157433,21.5033318 23.8756763,21.7613196 23.9352074,22.0056638 C23.9947386,22.250008 24.148982,22.4606548 24.3639474,22.5911842 L24.3639474,22.5911842 C24.5785829,22.7221236 24.8364652,22.7623733 25.0807937,22.7030681 C25.3251222,22.6437629 25.5358558,22.4897673 25.6665789,22.275 L29.1753947,16.5197368 C29.3063341,16.3051013 29.3465838,16.0472191 29.2872786,15.8028905 C29.2279734,15.558562 29.0739778,15.3478284 28.8592105,15.2171053 L28.8592105,15.2171053 C28.6444314,15.0862696 28.3864435,15.0462026 28.1420993,15.1057338 C27.8977551,15.1652649 27.6871084,15.3195083 27.5565789,15.5344737 L24.0465789,21.2885526 Z" id="Path_18631" fill="#1C1C1F" fill-rule="nonzero"></path>
                    <path d="M27.3540789,19.9290789 C27.4891344,19.9735524 27.6346713,19.9001212 27.6791447,19.7650658 C27.7236182,19.6300104 27.650187,19.4844735 27.5151316,19.44 L26.6222368,19.1463158 C26.6222368,19.1463158 26.6388158,19.0871053 26.6482895,19.0894737 L27.5506579,19.3511842 C27.6158291,19.3706387 27.6860649,19.3633373 27.745841,19.3308938 C27.805617,19.2984503 27.8500111,19.2435363 27.8692105,19.1782895 C27.9046871,19.0436412 27.8280131,18.9048978 27.6951316,18.8632895 L26.8081579,18.5778947 L26.8081579,18.5305263 C27.1838682,18.5412935 27.5598636,18.5246705 27.9331579,18.4807895 C28.1522368,18.4097368 28.2552632,18.1361842 27.9438158,17.9940789 C27.243119,17.9238775 26.5369686,17.9278469 25.8371053,18.0059211 L23.8334211,18.9213158 C23.8334211,18.9213158 22.7806579,19.0172368 22.7605263,19.0338158 C22.7403947,19.0503947 21.6675,20.5010526 22.5651316,20.6798684 C23.1566477,20.7172231 23.7499313,20.7172231 24.3414474,20.6798684 C24.3414474,20.6798684 26.6234211,20.3767105 27.1053947,20.3246053 C27.3019737,20.3056579 27.3990789,20.0380263 27.1930263,19.9693421 C26.9869737,19.9006579 26.5428947,19.7917105 26.5428947,19.7917105 C26.5475011,19.7721779 26.5510588,19.7524128 26.5535526,19.7325 L27.3540789,19.9290789 Z" id="Path_18632" fill="#FFC89F" fill-rule="nonzero"></path>
                    <path d="M22.8931579,18.5992105 C23.237222,19.4332447 23.5314246,20.286986 23.7742105,21.1559211 C22.9819737,21.4484211 15.2478947,24.2017105 14.6557895,23.9980263 C13.9453371,23.6250079 13.335844,23.0854034 12.8794737,22.4253947 C12.0706579,21.4910526 11.34,20.4915789 10.62,19.4861842 C9.92526316,18.5072368 9.25026316,17.5132895 8.595,16.5043421 C8.17205342,15.9836999 7.81415061,15.4134414 7.52921053,14.8061842 C7.45312626,14.4929796 7.46666821,14.16469 7.56828947,13.8588158 C7.70012103,13.5288494 7.88891326,13.2246173 8.12605263,12.96 C8.83045501,12.1208987 10.0505117,11.9399236 10.9681579,12.5384211 C12.2482895,13.2003947 12.3430263,14.1240789 12.9055263,15.3355263 C13.3685526,16.335 14.7185526,20.4193421 16.2686842,20.1777632 C18.1705263,19.8817105 22.8363158,18.4878947 22.8931579,18.5992105 Z" id="Path_18633" fill="#16405E" fill-rule="nonzero"></path>
                    <path d="M22.7936842,34.9578947 C22.6302632,36.0935526 21.8534211,37.2777632 20.5981579,37.2351316 C15.0702632,37.0278947 9.54473684,36.7413158 4.01210526,36.6655263 C2.9993276,36.6434502 2.12824304,35.9424993 1.89,34.9578947 C1.85215717,35.1177648 1.83315766,35.2815016 1.83315766,35.4457895 L1.83315766,35.8010526 C1.84826695,37.0013266 2.81315157,37.9730246 4.01328947,37.9965789 C9.54592105,38.0723684 15.0714474,38.3589474 20.5993421,38.5661842 C22.0203947,38.6135526 22.8244737,37.0965789 22.8256579,35.8519737 L22.8256579,35.3972368 C22.8246159,35.250248 22.8139351,35.1034857 22.7936842,34.9578947 Z" id="Path_18634" fill="#26252E" fill-rule="nonzero"></path>
                    <g id="Group_9442" transform="translate(2.637237, 33.905132)" fill="#26252E" fill-rule="nonzero">
                        <path d="M0.678601973,1.25350282 L2.35564277,1.25350282 C2.50085273,1.25350282 2.61856866,1.37121875 2.61856866,1.51642871 L2.61856866,3.14846418 C2.61856866,3.29432823 2.50032248,3.41257442 2.35445842,3.41257442 L0.678601973,3.41257442 C0.532737916,3.41257442 0.414491734,3.29432823 0.414491734,3.14846418 L0.414491734,1.51761306 C0.414491734,1.371749 0.532737916,1.25350282 0.678601973,1.25350282 Z" id="Rectangle_6316" transform="translate(1.516530, 2.333039) rotate(-54.975127) translate(-1.516530, -2.333039) "></path>
                        <path d="M1.69567967,0.33697539 L2.98188469,0.33697539 C3.09242741,0.33697539 3.18203998,0.426587967 3.18203998,0.537130683 L3.18203998,1.79372693 C3.18203998,1.90557785 3.0913669,1.99625093 2.97951599,1.99625093 L1.69449532,1.99625093 C1.5832985,1.99625093 1.49315568,1.9061081 1.49315568,1.79491128 L1.49315568,0.539499384 C1.49315568,0.427648471 1.58382876,0.33697539 1.69567967,0.33697539 Z" id="Rectangle_6317" transform="translate(2.337598, 1.166613) rotate(-54.975127) translate(-2.337598, -1.166613) "></path>
                    </g>
                </g>
                <g id="Group_9452" stroke-width="1" fill="none" fill-rule="evenodd" transform="translate(37.535921, 0.242763)">
                    <rect id="Rectangle_6318" fill="#1C1C1F" fill-rule="nonzero" x="5.49355263" y="32.6640789" width="15.3225" height="16.1313158"></rect>
                    <path d="M22.0653947,30.0043421 L22.0653947,12.4875 C22.0647408,7.67698095 18.1648612,3.7776315 13.3543421,3.7776315 L12.9576316,3.7776315 C10.6475346,3.77731743 8.43196291,4.69486076 6.79847763,6.32834605 C5.16499234,7.96183133 4.24744901,10.177403 4.24776308,12.4875 L4.24776308,30.0043421 L22.0653947,30.0043421 Z" id="Path_18635" fill="#FF4140" fill-rule="nonzero"></path>
                    <path d="M5.83815789,29.0984211 L20.4702632,29.0984211 C21.2554436,29.0984211 22.008465,29.4103328 22.5636714,29.9655391 C23.1188778,30.5207455 23.4307895,31.273767 23.4307895,32.0589474 L23.4307895,32.0589474 C23.4307895,33.6940009 22.1053167,35.0194737 20.4702632,35.0194737 L5.83815789,35.0194737 C4.20310436,35.0194737 2.87763158,33.6940009 2.87763158,32.0589474 L2.87763158,32.0589474 C2.87763158,30.4238938 4.20310436,29.0984211 5.83815789,29.0984211 Z" id="Rectangle_6319" fill="#DB2525" fill-rule="nonzero"></path>
                    <g id="Group_9451" transform="translate(2.386184, 0.000000)" fill-rule="nonzero">
                        <path d="M14.4201316,14.2898684 C14.2105263,13.4396053 15.4421053,12.5206579 16.2923684,12.3110526 C16.6369345,12.1819924 17.0219155,12.2204274 17.3341652,12.4150615 C17.6464149,12.6096956 17.8504542,12.9384137 17.8863158,13.3046053 L21.5372368,22.9417105 L18.1231579,23.3822368 L14.4201316,14.2898684 Z" id="Path_18636" fill="#FFC89F"></path>
                        <g id="Group_9447">
                            <rect id="Rectangle_6320" fill="#D4A47D" x="8.89578947" y="8.01828947" width="3.74684211" height="6.68486842"></rect>
                            <polygon id="Path_18637" fill="#0F2B3D" points="16.3610526 34.0543421 10.7692105 31.1767105 4.635 34.0543421 4.65513158 30.06 15.795 30.06"></polygon>
                            <path d="M3.35842105,49.5331579 C3.21497104,50.1259346 3.15282235,50.7354699 3.17368421,51.345 C3.35745199,51.8731772 3.67973576,52.3422882 4.10684211,52.7032895 C4.74184806,52.9556413 5.44885611,52.9581799 6.08565789,52.7103947 C6.77550704,52.3064294 7.3535275,51.73655 7.76723684,51.0525 C7.89979927,50.5570979 7.96433861,50.0459623 7.95907895,49.5331579 L3.35842105,49.5331579 Z" id="Path_18638" fill="#030D19"></path>
                            <path d="M18.1539474,49.5331579 C18.297094,50.1259865 18.3592385,50.7354803 18.3386842,51.345 C18.1553744,51.8737113 17.8325381,52.3430309 17.4043421,52.7032895 C16.7705211,52.9554162 16.0646974,52.9579551 15.4290789,52.7103947 C14.7390146,52.3067102 14.1609316,51.7367692 13.7475,51.0525 C13.6153111,50.5570248 13.5507782,50.0459403 13.5556579,49.5331579 L18.1539474,49.5331579 Z" id="Path_18639" fill="#030D19"></path>
                            <g id="Group_9444" transform="translate(0.000000, 12.249474)" fill="#FFC89F">
                                <path d="M6.68013158,1.93736842 C6.88973684,1.08592105 6.09631579,0.27 5.24605263,0.0615789474 C4.39578947,-0.146842105 3.97539474,0.18 3.76815789,1.035 L0,10.6922368 L3.41526316,11.1327632 L6.68013158,1.93736842 Z" id="Path_18640"></path>
                            </g>
                            <g id="Group_9446" transform="translate(6.086842, 0.000000)">
                                <path d="M4.68355263,2.16947368 C1.87460526,2.16947368 1.70289474,4.43723684 1.70289474,6.45868421 C1.77220412,7.42870178 2.06918141,8.36872417 2.56973684,9.2025 C3.02661538,9.66751037 3.5351839,10.0787357 4.08552632,10.4281579 L5.28039474,10.4281579 C5.74794315,10.1313787 6.18436275,9.78819421 6.58302632,9.40381579 C7.19632524,8.53455912 7.56854222,7.51841902 7.66184211,6.45868421 C7.66184211,4.43723684 7.66184211,2.16947368 4.68355263,2.16947368 Z" id="Path_18641" fill="#FFC89F"></path>
                                <path d="M6.03473684,2.38263158 C5.93595889,2.97708294 5.94558777,3.58450452 6.06315789,4.17552632 C5.7457281,4.10353749 5.41774587,4.09069118 5.09565789,4.13763158 C4.40171053,4.20986842 3.51,4.57460526 2.82434211,4.29986842 C2.81069565,4.29401783 2.79486862,4.29696357 2.78424088,4.3073321 C2.77361314,4.31770062 2.77027757,4.33345011 2.77578947,4.34723684 C2.9475,4.87184211 3.88657895,4.79960526 4.31526316,4.75105263 C4.79685881,4.67846246 5.28523019,4.6617728 5.77065789,4.70131579 C6.0226392,4.75380817 6.2491065,4.8908585 6.4125,5.08973684 C6.43736842,5.13118421 6.46105263,5.17618421 6.48592105,5.21881579 C6.89199224,6.0157466 6.95529266,6.94386763 6.66118421,7.78855263 C6.48592105,8.31315789 5.90210526,8.72289474 5.49355263,9.18828947 C4.95708334,9.70190833 4.25303868,10.0043027 3.51118421,10.0397368 C3.68300149,10.199134 3.87932078,10.3298802 4.09263158,10.4269737 L5.2875,10.4269737 C5.75504376,10.1301879 6.19146272,9.78700392 6.59013158,9.40263158 C7.20595755,8.53410764 7.58064657,7.51791178 7.67605263,6.4575 C7.66421053,4.80552632 7.66184211,2.98776316 6.03473684,2.38263158 Z" id="Path_18642" fill="#F0B990"></path>
                                <g id="Group_9445" transform="translate(0.000000, 5.825132)">
                                    <path d="M2.09131579,0.695131579 C2.18960526,1.13092105 2.07592105,1.52407895 1.83552632,1.58210526 C1.59513158,1.64013158 1.31921053,1.32986842 1.22092105,0.895263158 C1.12263158,0.460657895 1.23513158,0.0663157895 1.47552632,0.00710526316 C1.71592105,-0.0521052632 1.99302632,0.261710526 2.09131579,0.695131579 Z" id="Path_18643" fill="#FFC89F"></path>
                                    <path d="M7.27460526,0.695131579 C7.17631579,1.13092105 7.28881579,1.52407895 7.53039474,1.58210526 C7.77197368,1.64013158 8.04552632,1.32986842 8.14381579,0.895263158 C8.24210526,0.460657895 8.12842105,0.0663157895 7.88802632,0.00710526316 C7.64763158,-0.0521052632 7.37289474,0.261710526 7.27460526,0.695131579 Z" id="Path_18644" fill="#F0B990"></path>
                                </g>
                                <path d="M7.85842105,3.14171053 C7.46052632,1.94210526 6.13065789,1.50039474 4.66105263,1.57026316 C3.195,1.50039474 1.86631579,1.94210526 1.46368421,3.14171053 C1.36470661,4.04404357 1.40464417,4.95621759 1.58210526,5.84644737 C1.65789474,6.11763158 1.91723684,7.40960526 2.00723684,6.48 C2.03294127,5.78332923 2.14065781,5.09211496 2.32815789,4.42065789 C2.44124869,4.18834238 2.64266688,4.01099358 2.88742896,3.92821949 C3.13219105,3.8454454 3.39990797,3.86414124 3.63078947,3.98013158 C4.28724173,4.25302759 5.02538985,4.25302759 5.68184211,3.98013158 C5.91272361,3.86414124 6.18044053,3.8454454 6.42520261,3.92821949 C6.6699647,4.01099358 6.87138289,4.18834238 6.98447368,4.42065789 C7.17172242,5.0922084 7.2798245,5.7833463 7.30657895,6.48 C7.39894737,7.40960526 7.65473684,6.11881579 7.73171053,5.84644737 C7.91101497,4.95652944 7.95374167,4.04449399 7.85842105,3.14171053 Z" id="Path_18645" fill="#3B2C23"></path>
                                <path d="M7.61092105,2.64315789 C6.59941733,1.3997051 4.9506311,0.868362503 3.40342105,1.28723684 C2.78213082,1.37255095 2.24680013,1.76780344 1.98236842,2.33644737 C1.63205361,2.54890402 1.44047518,2.94837285 1.49410226,3.35455314 C1.54772935,3.76073344 1.83641806,4.09679365 2.22986842,4.21105263 C2.36207281,4.25375718 2.48978552,4.30928444 2.61118421,4.37684211 C2.88190966,4.44561808 3.16333384,4.46169946 3.44013158,4.42421053 C4.37622845,4.24539802 5.33152996,4.18847797 6.28223684,4.25486842 C6.89831596,4.34691897 7.45741534,4.66682693 7.84894737,5.15131579 C7.99287434,4.30892744 7.91073833,3.44343453 7.61092105,2.64315789 Z" id="Path_18646" fill="#3B2C23"></path>
                            </g>
                        </g>
                        <path d="M16.6985526,27.6015789 C16.7613158,28.2138158 16.8252632,29.6052632 16.8844737,30.0623684 L4.65631579,30.0623684 C4.72381579,29.5578947 4.7925,27.9047368 4.86236842,27.4346053 C4.92513158,26.9940789 4.99026316,26.5464474 5.05065789,26.1011842 C5.16197368,25.2556579 5.25197368,21.4827632 5.30052632,19.1084211 L4.93342105,20.0723684 C3.61367025,19.7959357 2.31182513,19.4400242 1.035,19.0065789 C1.035,19.0065789 2.05105263,16.5280263 2.77105263,14.7801316 C3.15355263,13.8528947 3.45434211,13.1305263 3.48157895,13.0902632 C3.56092105,12.9256579 3.63434211,12.7871053 3.70539474,12.6675 C3.88105212,12.3576192 4.12382581,12.0909728 4.41592105,11.8871053 C4.95193277,11.5075814 5.57438769,11.268207 6.22657895,11.1907895 C7.14146807,11.1291222 8.04236862,10.9336212 8.90052632,10.6105263 C9.24590255,11.2512518 9.93265079,11.6323162 10.6590789,11.5863158 L10.8876316,11.5863158 C11.61434,11.6321895 12.3013704,11.2512251 12.6473684,10.6105263 C13.5054922,10.9337362 14.4064099,11.129241 15.3213158,11.1907895 C15.9731441,11.2682022 16.5952167,11.5075862 17.1307895,11.8871053 C17.5573477,12.1903341 17.8845308,12.6131173 18.0710526,13.1021053 C18.1326316,13.2205263 20.4892105,18.9971053 20.4892105,18.9971053 C20.3897368,19.0267105 16.4475,20.2286842 16.425,20.2334211 L16.2047368,19.7538158 C16.2532895,21.2932895 16.3148684,22.9890789 16.3728947,24.2668421 C16.4131579,25.1455263 16.4557895,25.8205263 16.4913158,26.1047368 C16.5505263,26.5488158 16.6097368,26.9976316 16.6772368,27.4381579 C16.6831579,27.4831579 16.6890789,27.5364474 16.6985526,27.6015789 Z" id="Path_18647" fill="#62B2F0"></path>
                        <g id="Group_9448" transform="translate(2.870526, 27.882237)" fill="#1A4B6C">
                            <path d="M5.44618421,22.1092105 L7.11355263,3.09671053 C7.26463158,1.54471771 6.1289665,0.164105262 4.57697368,0.0130263158 C3.02498087,-0.138052631 1.64436842,0.997612447 1.49328947,2.54960526 L0.00118421053,22.1092105 L5.44618421,22.1092105 Z" id="Path_18648"></path>
                        </g>
                        <g id="Group_9449" transform="translate(11.542500, 27.882237)" fill="#1A4B6C">
                            <path d="M1.68039474,22.1092105 L7.12776316,22.1092105 L5.63328947,2.55078947 C5.48221053,0.998796658 4.10159808,-0.13686842 2.54960526,0.0142105263 C0.997612447,0.165289473 -0.138052631,1.54590192 0.0130263158,3.09789474 L1.68039474,22.1092105 Z" id="Path_18649"></path>
                        </g>
                    </g>
                    <path d="M19.0823684,27.6015789 L5.16078947,14.7789474 C5.54328947,13.8517105 5.84407895,13.1293421 5.87131579,13.0890789 C5.95065789,12.9244737 6.02407895,12.7859211 6.09513158,12.6663158 C10.0432895,16.1005263 14.9210526,20.6313158 18.7661842,24.2644737 C18.8064474,25.1431579 18.8490789,25.8181579 18.8846053,26.1023684 C18.9438158,26.5464474 19.0030263,26.9952632 19.0705263,27.4357895 C19.0693421,27.4784211 19.0752632,27.5364474 19.0823684,27.6015789 Z" id="Path_18650" fill="#2278BA" fill-rule="nonzero"></path>
                    <path d="M25.6878947,29.4596053 C25.6878947,29.4596053 7.15855263,11.4726316 1.23513158,7.38 L0,8.61276316 L24.0477632,30.7575 L25.6878947,29.4596053 Z" id="Path_18651" fill="#26252E" fill-rule="nonzero"></path>
                    <path d="M25.6843421,29.4596053 C25.6843421,29.4596053 12.3821053,24.3994737 1.23513158,29.5472368 L1.23513158,31.4905263 C8.47506872,28.3783821 16.6237876,28.1178126 24.0477632,30.7610526 L25.6843421,29.4596053 Z" id="Path_18652" fill="#26252E" fill-rule="nonzero"></path>
                    <path d="M25.4806579,28.1688158 C25.7367359,28.3688035 25.9028292,28.6623699 25.9423647,28.9848725 C25.9819001,29.3073751 25.8916357,29.6323683 25.6914474,29.8882895 L25.0602632,30.6947368 C24.6434539,31.2271643 23.8744277,31.3219685 23.3407895,30.9067105 L23.3407895,30.9067105 C22.8082205,30.4886748 22.7144604,29.7184645 23.1311842,29.1848684 L23.7635526,28.3772368 C23.9633115,28.1211454 24.2567934,27.9551027 24.5791904,27.9157752 C24.9015873,27.8764476 25.2263785,27.9670703 25.4818421,28.1676316 L25.4806579,28.1688158 Z" id="Path_18653" fill="#1C1C1F" fill-rule="nonzero"></path>
                    <path d="M23.7564474,22.5639474 C23.5286268,22.1802002 23.1573261,21.9030122 22.7246488,21.7936762 C22.2919714,21.6843401 21.8335633,21.7518637 21.4507895,21.9813158 L16.4936842,26.9360526 L16.4936842,26.9360526 L15.0288158,27.6892105 C14.6306847,28.1843081 14.2742053,28.7115016 13.9630263,29.2653947 C13.9265067,29.6173447 13.9265067,29.972129 13.9630263,30.3240789 C13.9630263,30.4839474 13.8860526,30.9706579 14.1513158,31.0346053 C14.2969737,31.0689474 14.4023684,30.8486842 14.4153947,30.7480263 C14.4153947,30.7314474 14.4153947,30.7160526 14.4153947,30.6971053 C14.4221178,30.7866108 14.4383946,30.8751406 14.4639474,30.9611842 C14.4819115,31.0356298 14.538839,31.0944757 14.6126486,31.1148964 C14.6864582,31.135317 14.7655367,31.1140995 14.8192105,31.0594737 C14.8610953,30.8952234 14.8845296,30.7268139 14.8890789,30.5573684 C14.9054956,30.6245992 14.9285017,30.6900475 14.9577632,30.7527632 C15.0069232,30.8198223 15.0912384,30.8512462 15.1722962,30.8327187 C15.2533541,30.8141912 15.3156446,30.7492574 15.3307895,30.6675 C15.3743529,30.1999107 15.5727277,29.7602355 15.8944737,29.4181579 C16.2911842,29.0628947 23.1726316,24.8672368 23.1726316,24.8672368 C23.2563666,24.8182522 23.3356207,24.7619818 23.4094737,24.6990789 C24.0265014,24.1650661 24.172628,23.2658637 23.7564474,22.5639474 Z" id="Path_18654" fill="#FFC89F" fill-rule="nonzero"></path>
                    <path d="M12.3525,30.3228947 C12.3890196,29.9709448 12.3890196,29.6161604 12.3525,29.2642105 C12.0406624,28.7107244 11.6842185,28.1835835 11.2867105,27.6880263 L9.81473684,26.9360526 L9.81473684,26.9360526 L4.85881579,21.9825 C4.10773178,21.5220887 3.12862635,21.7193976 2.61448694,22.4347761 C2.10034753,23.1501546 2.22547878,24.1410736 2.90131579,24.7061842 C2.97542368,24.768759 3.05464866,24.8250087 3.13815789,24.8743421 L8.58552632,28.2753947 L8.58552632,28.2753947 C9.22143184,28.6175572 9.83384003,29.001697 10.4186842,29.4252632 C10.7406861,29.7674199 10.9398109,30.2069108 10.9847368,30.6746053 C10.9993136,30.7564639 11.0614037,30.8216851 11.1424469,30.8402683 C11.22349,30.8588514 11.3077934,30.8271981 11.3565789,30.7598684 C11.3862392,30.6971937 11.4096421,30.631745 11.4264474,30.5644737 C11.4309868,30.73392 11.4544213,30.9023306 11.4963158,31.0665789 C11.5493176,31.1228216 11.629089,31.1451199 11.7035725,31.1245128 C11.7780559,31.1039058 11.8350224,31.0437767 11.8515789,30.9682895 C11.8795813,30.8828512 11.8959132,30.7940216 11.9001316,30.7042105 C11.9014529,30.7213139 11.9038259,30.7383198 11.9072368,30.7551316 C11.9214474,30.8557895 12.0256579,31.0760526 12.1701316,31.0417105 C12.4294737,30.9694737 12.3489474,30.4827632 12.3525,30.3228947 Z" id="Path_18655" fill="#FFC89F" fill-rule="nonzero"></path>
                </g>
                <g id="Group_9463" stroke-width="1" fill="none" fill-rule="evenodd" transform="translate(71.210132, 31.327105)">
                    <g id="Group_9453" transform="translate(13.630263, 12.055263)" fill-rule="nonzero">
                        <path d="M2.54960526,5.86894737 L4.51539474,3.33710526 L7.40842105,7.96381579 C7.69645432,8.41956299 7.71850085,8.99462245 7.46620645,9.47108463 C7.21391206,9.94754682 6.72587892,10.2525109 6.18703934,10.2704156 C5.64819976,10.2883203 5.1409986,10.0164262 4.85763158,9.55776316 L2.54960526,5.86894737 Z" id="Path_18656" fill="#EDB485"></path>
                        <path d="M6.11052632,5.26381579 C5.06013158,5.86894737 3.99671053,6.44802632 2.93328947,7.02473684 L0.275921053,2.77578947 C-0.255471346,1.92556164 0.00299584566,0.805537136 0.853223684,0.274144737 C1.70345152,-0.257247662 2.82347602,0.00121952987 3.35486842,0.851447368 L6.11052632,5.26381579 Z" id="Path_18657" fill="#2278BA"></path>
                        <path d="M10.9018421,2.60644737 C11.5063804,2.06817214 12.4326346,2.12116152 12.9718421,2.72486842 L12.9718421,2.72486842 C13.2310877,3.01532262 13.3642671,3.3969029 13.3420564,3.78559119 C13.3198456,4.17427948 13.1440658,4.53820495 12.8534211,4.79723684 L7.14197368,9.88934211 C6.53727253,10.4284154 5.61010717,10.3754043 5.07078947,9.77092105 L5.07078947,9.77092105 C4.8113136,9.48080217 4.67796694,9.09934516 4.70018484,8.71075404 C4.72240274,8.32216291 4.8983583,7.95839043 5.18921053,7.69973684 L10.9018421,2.60644737 Z" id="Path_18658" fill="#EDB485"></path>
                    </g>
                    <g id="Group_9460" transform="translate(7.123026, 0.000000)" fill-rule="nonzero">
                        <g id="Group_9457" transform="translate(3.482763, 24.646974)">
                            <g id="Group_9455" transform="translate(7.708026, 0.794605)">
                                <path d="M12.9611842,13.9878947 C13.0097882,13.2272786 12.5808682,12.5164751 11.8852861,12.204923 C11.1897039,11.8933709 10.3737795,12.0466071 9.83863022,12.589299 C9.30348096,13.1319909 9.16167871,13.94998 9.48293504,14.6411338 C9.80419137,15.3322876 10.5209281,15.7512178 11.2807895,15.6919737 C12.2134787,15.6809335 12.9631982,14.9206471 12.9611842,13.9878947 L12.9611842,13.9878947 Z" id="Path_18659" fill="#1A4B6C"></path>
                                <g id="Group_9454" transform="translate(0.492632, 0.538816)" fill="#EDB485">
                                    <polygon id="Path_18660" points="8.86263158 13.7226316 7.66302632 3.28855263 11.5934211 2.33289474 12.4673684 13.4455263"></polygon>
                                    <polygon id="Path_18661" points="9.95328947 0.594473684 2.41815789 0.00236842105 -0.00118421053 3.56921053 9.10776316 4.66223684"></polygon>
                                    <path d="M7.80631579,3.77881579 C7.39487275,3.16154547 7.34399351,2.37166192 7.67284377,1.70670663 C8.00169403,1.04175135 8.66031363,0.602746857 9.40060693,0.555061898 C10.1409002,0.507376938 10.8503991,0.858255992 11.2618421,1.47552632 C11.4277861,1.73741548 11.5400883,2.0296427 11.5922368,2.33526316 C11.7596587,3.13245313 11.3924189,3.94641355 10.6839474,4.34842105 C9.73182652,4.98479996 8.44420542,4.72992517 7.80631579,3.77881579 L7.80631579,3.77881579 Z" id="Path_18662"></path>
                                </g>
                                <polygon id="Path_18663" fill="#263248" points="0.138552632 0 -0.00118421053 4.33065789 3.83210526 4.38039474 4.34605263 0.0509210526"></polygon>
                            </g>
                            <path d="M18.1622368,15.3651316 C18.1728066,14.6029951 17.7088828,13.9144628 16.9985567,13.6380562 C16.2882307,13.3616496 15.480941,13.5555192 14.9735972,14.1243479 C14.4662534,14.6931765 14.3655906,15.5172936 14.7211004,16.1915165 C15.0766102,16.8657394 15.8135003,17.2482248 16.5694737,17.1509211 C17.5002416,17.0930889 18.2107898,16.2964296 18.1622368,15.3651316 L18.1622368,15.3651316 Z" id="Path_18664" fill="#1A4B6C"></path>
                            <g id="Group_9456" transform="translate(4.996184, 1.943289)" fill="#FFC89F">
                                <polygon id="Path_18665" points="9.58026316 13.8777632 7.86078947 3.51592105 11.7367105 2.36605263 13.1648684 13.4218421"></polygon>
                                <polygon id="Path_18666" points="10.0136842 0.708157895 -0.00118421053 -0.00236842105 0.219078947 4.17197368 9.37184211 4.80907895"></polygon>
                                <path d="M8.0325,3.99434211 C7.37879852,3.07269483 7.58228706,1.79748329 8.49035945,1.12505198 C9.39843184,0.452620667 10.6775417,0.629962021 11.3684211,1.52407895 C11.5481457,1.77678065 11.6750207,2.06315565 11.7414474,2.36605263 C11.9515348,3.1546954 11.6255123,3.98844982 10.9361842,4.42539474 C10.4941715,4.7538525 9.93965718,4.89299274 9.3949364,4.8121288 C8.85021562,4.73126487 8.36003453,4.43703934 8.0325,3.99434211 L8.0325,3.99434211 Z" id="Path_18667"></path>
                            </g>
                            <path d="M4.09973684,0 L4.05,0.473684211 C2.70477821,0.258063315 1.35674898,0.843066576 0.595401627,1.97287375 C-0.165945726,3.10268093 -0.202088401,4.57173005 0.502778692,5.73761016 C1.20764578,6.90349026 2.5252761,7.55407613 3.87947368,7.40486842 L12.3513158,7.08986842 L12.6165789,2.31276316 L8.82710526,1.93973684 L4.09973684,0 Z" id="Path_18668" fill="#1A4B6C"></path>
                        </g>
                        <g id="Group_9459">
                            <path d="M4.64092105,11.2417105 L4.7025,12.1156579 C4.91921053,12.2340789 4.46565789,12.8830263 5.24723684,13.6089474 C6.01351924,14.1079641 6.82371709,14.536053 7.66776316,14.8878947 L8.14144737,13.0559211 L7.49486842,11.9569737 L7.39776316,10.6910526 L4.64092105,11.2417105 Z" id="Path_18669" fill="#EDB485"></path>
                            <g id="Group_9458">
                                <path d="M10.2907895,6.92763158 C10.3474462,5.8384353 10.1609637,4.75028344 9.74486842,3.74210526 C8.744626,2.59479505 7.21872661,2.05175439 5.71855263,2.30921053 C3.11699083,2.41444324 1.05471072,4.54077902 1.02907895,7.14434211 C1.31795551,9.86063102 3.56065206,11.9508868 6.29052632,12.0481579 C8.80463053,11.7308114 10.5912881,9.44380514 10.2907895,6.92763158 Z" id="Path_18670" fill="#FFC89F"></path>
                                <path d="M10.2694737,6.28578947 L10.3156579,6.28578947 C10.2967105,5.56578947 10.2138158,4.50947368 10.2138158,4.47631579 C10.1342705,3.58681631 9.91444588,2.7155114 9.5625,1.89473684 C9.13387134,1.26387845 8.54594836,0.757668194 7.85842105,0.4275 C6.52026998,-0.11763744 5.02612919,-0.140038986 3.67223684,0.364736842 C1.47917537,0.826694118 -0.0656968015,2.79648104 0.00828947368,5.03644737 C-0.116577863,7.17940512 0.875608978,9.2345533 2.63131579,10.4696053 C2.50852411,9.94749846 2.52774196,9.40203887 2.68697368,8.88986842 C2.55707721,8.87789385 2.43056301,8.84174694 2.31394737,8.78328947 C1.93090635,8.58013552 1.62113628,8.26208283 1.42815789,7.87381579 C1.28378815,7.62896059 1.25022602,7.33430476 1.3358327,7.06325461 C1.42143937,6.79220445 1.61815536,6.57027812 1.87697368,6.45276316 C2.13253791,6.42030695 2.39208139,6.4425074 2.63842105,6.51789474 C2.71834657,5.68403238 3.16206102,4.92789788 3.85105263,4.45144737 C5.2875143,3.53953198 6.97145078,3.09558509 8.67078947,3.18078947 C9.57315789,3.20328947 9.95328947,4.48342105 10.1782895,5.54921053 C10.2280624,5.79194781 10.2585523,6.0382426 10.2694737,6.28578947 Z" id="Path_18671" fill="#915533"></path>
                                <path d="M8.49671053,1.85092105 C8.2341328,3.13703852 8.58421005,4.47214563 9.44407895,5.46394737 C9.79896649,5.84250326 10.1012859,6.26710464 10.3428947,6.72631579 C10.7173562,5.63836528 10.7467203,4.46132176 10.4269737,3.35605263 C9.87157895,1.63776316 8.64236842,1.125 8.49671053,1.85092105 Z" id="Path_18672" fill="#915533"></path>
                                <path d="M2.97355263,8.17460526 C4.18026316,5.45921053 6.81631579,4.57342105 9.30197368,3.0825 C10.3677632,2.44421053 8.62697368,1.94328947 8.64592105,1.93026316 C8.64592105,1.93026316 3.65802632,1.34644737 2.24171053,4.67881579 C1.90302632,5.48171053 2.475,9.29605263 2.97355263,8.17460526 Z" id="Path_18673" fill="#915533"></path>
                            </g>
                        </g>
                        <path d="M12.5680263,27.0390789 L10.5252632,17.9123684 C10.2730263,15.5155263 9.43934211,12.8735526 7.49013158,11.9534211 C7.49013158,11.9534211 7.83236842,13.2382895 7.25328947,13.5296053 C6.44565789,13.9334211 4.70368421,12.0931579 4.70368421,12.0931579 C2.81960526,12.5668421 1.67328947,14.1903947 1.94802632,16.7909211 L3.33236842,28.9373684 L12.5680263,27.0390789 Z" id="Path_18674" fill="#62B2F0"></path>
                    </g>
                    <g id="Group_9461" transform="translate(10.843816, 16.259211)" fill="#FFC89F" fill-rule="nonzero">
                        <path d="M0,2.31276316 L2.22039474,-1.68286437e-14 L4.61013158,4.90618421 C4.8592366,5.39092112 4.8266088,5.97249294 4.52484745,6.4263247 C4.22308609,6.88015647 3.69941592,7.1352249 3.15605307,7.09303488 C2.61269022,7.05084487 2.13466932,6.71799901 1.90657895,6.22302632 L0,2.31276316 Z" id="Path_18675"></path>
                    </g>
                    <path d="M19.6910526,26.8803947 C17.5073684,26.6246053 14.1761842,29.0522368 12.9753947,28.9965789 C10.3819737,28.8781579 10.0657895,26.865 10.035,24.6481579 C10.020433,24.0745425 10.1286396,23.504439 10.3523684,22.9760526 C10.0792609,22.9038903 9.81481146,22.80224 9.56368421,22.6728947 C8.13532783,21.7436959 7.22224983,20.2013166 7.09460526,18.5021053 C6.93353958,16.3736022 7.49376077,14.2528543 8.685,12.4815789 C8.28355263,10.125 9.15868421,7.54105263 5.39881579,7.70565789 C2.1375,7.84776316 -1.25052632,10.8532895 0.460657895,27.2735526 C2.17184211,43.6938158 20.0475,40.4052632 23.2235526,38.2310526 C25.6156579,36.5921053 26.1142105,27.6347368 19.6910526,26.8803947 Z" id="Path_18676" fill="#FF4140" fill-rule="nonzero"></path>
                    <path d="M21.5005263,27.3753947 C21.4614278,28.1471497 21.3791941,28.9161138 21.2542105,29.6786842 C20.8011577,31.7391581 19.5478834,33.5351487 17.7702632,34.6713158 C16.5217902,35.5458838 15.053907,36.0544547 13.5319737,36.1397368 C10.3734224,36.3711421 7.32686609,34.920101 5.51605263,32.3218421 C3.16657895,28.9634211 2.99960526,25.2284211 2.03447368,21.3667105 C1.41666598,18.0762936 1.09210328,14.7375381 1.06460526,11.3897368 C0.0236842105,14.2117105 -0.394342105,19.0669737 0.460657895,27.2735526 C2.17065789,43.695 20.0475,40.4052632 23.2235526,38.2310526 C25.3634211,36.765 25.9886842,29.4430263 21.5005263,27.3753947 Z" id="Path_18677" fill="#DB2525" fill-rule="nonzero"></path>
                    <path d="M5.62381579,32.0767105 C5.62381579,32.0767105 14.4675,19.8568421 16.5659211,13.9689474 C16.5659211,13.9689474 16.8335526,14.5326316 16.9519737,14.8286842 C17.0632895,15.1046053 17.2172368,15.6292105 17.2172368,15.6292105 C14.3185032,21.7237325 10.7271882,27.4639556 6.51434211,32.7363158 L5.62381579,32.0767105 Z" id="Path_18678" fill="#1C1C1F" fill-rule="nonzero"></path>
                    <path d="M5.62381579,32.04 C5.62381579,32.04 14.0317105,28.0788158 20.0167105,24.7867105 L21.7219737,25.7743421 C16.8724088,28.5629978 11.829381,31.0008108 6.63157895,33.0690789 L5.62381579,32.04 Z" id="Path_18679" fill="#1C1C1F" fill-rule="nonzero"></path>
                    <g id="Group_9462" transform="translate(3.815526, 30.854605)" fill="#26252E" fill-rule="nonzero">
                        <path d="M1.54557232,0.472464384 L3.30294074,0.472464384 C3.37643362,0.472464384 3.44691643,0.501659319 3.49888375,0.553626637 C3.55085107,0.605593954 3.580046,0.676076762 3.580046,0.749569647 L3.580046,2.47022754 C3.580046,2.62261453 3.45651194,2.74614859 3.30412495,2.74614859 L1.5432039,2.74614859 C1.39016288,2.74614859 1.26609863,2.62208434 1.26609863,2.46904333 L1.26609863,0.751938069 C1.26609863,0.597589015 1.39122326,0.472464384 1.54557232,0.472464384 Z" id="Rectangle_6321" transform="translate(2.423072, 1.609306) rotate(-38.085000) translate(-2.423072, -1.609306) "></path>
                        <path d="M0.558981934,1.76870112 L1.90783684,1.76870112 C1.9649845,1.76774853 2.02012081,1.78978558 2.06086853,1.82986532 C2.10161626,1.86994505 2.12455365,1.9247096 2.12455365,1.9818652 L2.12455365,3.296377 C2.12455365,3.35322571 2.10197059,3.40774605 2.06177248,3.44794415 C2.02157437,3.48814226 1.96705404,3.51072532 1.91020533,3.51072532 L0.558981934,3.51072532 C0.503075468,3.51072532 0.449458786,3.48851657 0.409926945,3.44898473 C0.370395104,3.40945288 0.348186348,3.3558362 0.348186348,3.29992974 L0.348186348,1.97949671 C0.348186348,1.86307752 0.442562746,1.76870112 0.558981934,1.76870112 Z" id="Rectangle_6322" transform="translate(1.236370, 2.639698) rotate(-38.096085) translate(-1.236370, -2.639698) "></path>
                    </g>
                    <path d="M21.5301316,24.4728947 C21.8689308,24.6645673 22.1176786,24.9830144 22.2216211,25.35814 C22.3255635,25.7332656 22.2761805,26.134321 22.0843421,26.4730263 L22.0843421,26.4730263 C21.8930987,26.8119466 21.5749517,27.0609253 21.200001,27.1651029 C20.8250503,27.2692806 20.4240641,27.2201085 20.0853947,27.0284211 L13.4277632,23.2626316 C13.088964,23.0709591 12.8402161,22.7525119 12.7362737,22.3773863 C12.6323312,22.0022607 12.6817143,21.6012053 12.8735526,21.2625 L12.8735526,21.2625 C13.064996,20.9237818 13.3832309,20.6750557 13.758164,20.571105 C14.1330971,20.4671544 14.5339744,20.5165058 14.8725,20.7082895 L21.5301316,24.4728947 Z" id="Path_18680" fill="#FFC89F" fill-rule="nonzero"></path>
                    <path d="M10.8438158,18.5719737 L13.0642105,16.2592105 L15.4539474,21.1653947 C15.7030524,21.6501316 15.6704246,22.2317035 15.3686632,22.6855352 C15.0669019,23.139367 14.5432317,23.3944354 13.9998689,23.3522454 C13.456506,23.3100554 12.9784851,22.9772095 12.7503947,22.4822368 L10.8438158,18.5719737 Z" id="Path_18681" fill="#FFC89F" fill-rule="nonzero"></path>
                    <path d="M14.4485526,18.3446053 C13.3413158,18.8360526 12.2222368,19.2919737 11.1043421,19.7656579 L8.90763158,15.2597368 C8.62374646,14.6773704 8.67211458,13.9877908 9.03451613,13.4507558 C9.39691768,12.9137209 10.0182952,12.6108191 10.6645819,12.6561506 C11.3108686,12.701482 11.883878,13.0881599 12.1677632,13.6705263 L14.4485526,18.3446053 Z" id="Path_18682" fill="#2278BA" fill-rule="nonzero"></path>
                    <path d="M7.0875,18.5032895 C7.21514456,20.2025008 8.12822257,21.7448801 9.55657895,22.6740789 C9.80770236,22.8034328 10.0721528,22.9050834 10.3452632,22.9772368 C11.0190789,21.4081579 12.5028947,20.6502632 12.2861842,18.4606579 C12.1073684,16.6689474 9.94618421,15.6682895 9.02013158,13.6421053 C8.85633917,13.2721052 8.74129793,12.882398 8.67789474,12.4827632 C7.4866555,14.2540385 6.92643432,16.3747865 7.0875,18.5032895 L7.0875,18.5032895 Z" id="Path_18683" fill="#FF4140" fill-rule="nonzero"></path>
                </g>
                <g id="Group_9477" stroke-width="1" fill="none" fill-rule="evenodd" transform="translate(141.070263, 30.984868)">
                    <path d="M31.3721053,38.8373684 L31.7072368,38.1351316 L33.5226316,36.3694737 L33.7452632,37.0053947 L35.145,36.3623684 L37.26,35.5630263 L37.7467105,36.1646053 C37.7467105,36.1646053 35.6246053,37.9077632 35.5121053,37.9669737 C35.5121053,37.9669737 33.6363158,39.2032895 33.3959211,39.3146053 L33.5048684,39.5857895 L32.4840789,40.4147368 L31.8919737,39.8640789 L31.3721053,38.8373684 Z" id="Path_18684" fill="#000000" fill-rule="nonzero"></path>
                    <path d="M21.3442105,14.2247368 C21.4374523,13.7658286 21.7095265,13.3629091 22.1003554,13.1049487 C22.4911843,12.8469883 22.9686196,12.7552059 23.4272368,12.8498684 L29.4430263,14.9092105 C30.1227632,15.0548684 30.8498684,15.2159211 30.8830263,15.2028947 C31.1198684,15.1211842 31.3496053,15.0335526 31.5840789,14.9530263 C32.0352632,14.8002632 32.5219737,14.8073684 32.9743421,14.6652632 C33.1093421,14.6214474 33.5238158,14.4189474 33.6623684,14.4971053 C33.6916331,14.5202114 33.7083061,14.5557512 33.7073684,14.5930263 C33.7547368,15.1709211 33.0382895,15.2052632 32.6557895,15.3035526 C32.5113158,15.3414474 32.3680263,15.4219737 32.2259211,15.4764474 L33.5107895,15.7215789 C33.7571053,15.7677632 35.0040789,15.9678947 34.9389474,16.2663158 C34.9057895,16.4167105 34.6831579,16.4025 34.5682895,16.3977632 C34.0682076,16.3789964 33.5702348,16.3227864 33.0785526,16.2296053 C33.4918421,16.3172368 33.9075,16.4048684 34.3196053,16.4936842 C34.5102632,16.5339474 35.2468421,16.7305263 35.1627632,17.0206579 C35.1380468,17.1018499 35.060283,17.1550049 34.9756579,17.1485526 C34.5745027,17.1247552 34.1772826,17.0560361 33.7914474,16.9436842 L34.5209211,17.1805263 C34.6393421,17.2172368 34.8548684,17.3072368 34.8560526,17.4706579 C34.8560526,17.6707895 34.5990789,17.6731579 34.4782895,17.6577632 C33.9588812,17.5880231 33.4465451,17.473114 32.9471053,17.3143421 C33.2917105,17.5405263 34.5303947,17.8732895 34.2011842,18.0592105 C34.1057931,18.1009453 33.9995123,18.1109091 33.8980263,18.0876316 C32.6861265,17.9948045 31.5015946,17.6801068 30.4034211,17.1592105 L29.2867105,16.9413158 L22.7190789,16.3077632 C22.6198696,16.288664 22.522716,16.2601127 22.4289474,16.2225 C21.6290783,15.909633 21.170989,15.0659684 21.3442105,14.2247368 L21.3442105,14.2247368 Z" id="Path_18685" fill="#CC9B72" fill-rule="nonzero"></path>
                    <path d="M26.2492105,15.2478947 C26.5991403,15.491887 26.8377874,15.8649184 26.9126327,16.2848961 C26.987478,16.7048737 26.8923881,17.1373813 26.6482895,17.4872368 L26.6482895,17.4872368 C26.1393079,18.2162316 25.1358738,18.3948672 24.4065789,17.8863158 L16.9140789,12.8984211 C16.5632207,12.6548421 16.3239534,12.281431 16.2492696,11.8608902 C16.1745859,11.4403495 16.2706494,11.007387 16.5161842,10.6578947 L16.5161842,10.6578947 C16.7599889,10.3073681 17.1332702,10.0682801 17.5536314,9.99340603 C17.9739925,9.91853198 18.4068695,10.0140284 18.7567105,10.2588158 L26.2492105,15.2478947 Z" id="Path_18686" fill="#2590BD" fill-rule="nonzero"></path>
                    <path d="M22.5094737,30.6047368 C23.2188063,29.6882711 24.0563382,28.878657 24.9963158,28.2007895 C25.3385526,27.9153947 25.7719737,27.4819737 26.2385526,27.1196053 C25.9607107,26.368879 25.3076605,25.8202449 24.5202632,25.6760526 L24.5202632,25.6760526 L13.2418421,24.4503947 C11.9321053,24.4503947 9.96513158,26.9289474 9.96513158,26.9289474 C9.64657895,29.0439474 10.2481579,29.9569737 11.5578947,29.9569737 L22.0855263,29.9190789 L22.5094737,30.6047368 Z" id="Path_18687" fill="#041D2B" fill-rule="nonzero"></path>
                    <path d="M4.51302632,3.46026316 C4.51302632,3.46026316 12.7172368,7.90223684 14.2436842,9.35763158 L13.8493421,10.0053947 C13.8493421,10.0053947 6.63513158,5.94118421 4.24065789,4.30105263 L4.51302632,3.46026316 Z" id="Path_18688" fill="#1C1C1F" fill-rule="nonzero"></path>
                    <g id="Group_9464" transform="translate(15.528553, 5.705526)" fill="#FFC89F" fill-rule="nonzero">
                        <path d="M2.64671053,4.89078947 L1.6425,5.64394737 L0.00473684211,3.78355263 L0.317368421,3.13223684 C0.317368421,3.13223684 1.27421053,1.49092105 2.21921053,0.00118421053 C2.21921053,0.00118421053 4.79368421,1.10131579 4.40289474,1.75855263 C3.80368421,2.75328947 2.64671053,4.89078947 2.64671053,4.89078947 Z" id="Path_18689"></path>
                    </g>
                    <path d="M23.6617105,28.9539474 C23.8784739,27.7855702 23.2046961,26.6352055 22.0796053,26.2527632 C22.0061842,26.2338158 10.5240789,25.0543421 10.5240789,25.0543421 C9.52105263,25.0543421 8.42565789,23.6214474 7.82763158,24.7405263 C7.57671677,25.6582283 7.44341263,26.6040908 7.43092105,27.5553947 C7.54012857,29.3108086 9.00942285,30.6706097 10.7680263,30.6438158 L21.1665789,30.5017105 C21.8800878,29.8159312 22.7303374,29.2885102 23.6617105,28.9539474 L23.6617105,28.9539474 Z" id="Path_18690" fill="#0E2C40" fill-rule="nonzero"></path>
                    <g id="Group_9466" transform="translate(6.997500, 8.643553)" fill="#62C3ED" fill-rule="nonzero">
                        <g id="Group_9465">
                            <path d="M5.76592105,0.904736842 C4.24421053,1.81894737 1.96105263,5.4675 1.26,7.21894737 C-0.282619216,11.1770744 -0.41601011,15.5455216 0.882236842,19.5903947 C0.949736842,19.6365789 1.01723684,19.6839474 1.08592105,19.7277632 C1.59024368,20.0754517 2.1340464,20.3620612 2.70592105,20.5815789 C3.22982257,20.7737802 3.77177674,20.9126411 4.32355263,20.9960526 C4.89939396,21.084972 5.48378969,21.1048495 6.06434211,21.0552632 C6.67262426,20.9752593 7.26903654,20.8221802 7.84065789,20.5993421 C8.25085139,20.455612 8.64337244,20.2657081 9.01065789,20.0332895 C9.25191288,19.8776992 9.48004142,19.7026423 9.69276316,19.5098684 C9.18916301,18.2521868 8.84619356,16.9360117 8.67197368,15.5925 C8.77310058,12.3944383 9.59827376,9.26096666 11.0853947,6.42789474 C11.7698684,5.07078947 12.8048684,2.34236842 10.7301316,0.949736842 C9.00710526,-0.198947368 7.95434211,-0.410921053 5.76592105,0.904736842 Z" id="Path_18691"></path>
                        </g>
                    </g>
                    <g id="Group_9467" transform="translate(19.552500, 4.007368)" fill="#E0E0E0" fill-rule="nonzero">
                        <path d="M12.3122368,5.53381579 C12.6888158,8.87802632 11.8077632,12.5265789 7.965,12.9576316 C4.07368421,13.3957895 0.447631579,12.0955263 0.0153947368,8.27763158 C-0.207236842,6.29171053 1.94447368,5.79078947 2.62065789,4.15302632 C3.34421053,2.39684211 3.735,0.213157895 6.48710526,0.0201315789 C10.3428947,-0.249868421 11.9344737,2.18960526 12.3122368,5.53381579 Z" id="Path_18692"></path>
                    </g>
                    <g id="Group_9468" transform="translate(19.654342, 4.476316)" fill="#CCCCCC" fill-rule="nonzero">
                        <path d="M12.2115789,5.06486842 C11.9475,2.73197368 11.0913158,0.837236842 9.29013158,0 C10.9182909,2.20182531 11.3506543,5.06695295 10.4447368,7.65118421 C10.0927509,9.05060236 9.22086408,10.2633677 8.00644737,11.0427632 C6.62618669,11.7179682 5.01905818,11.7530375 3.61065789,11.1386842 C2.13616372,10.6265128 0.868658791,9.64792753 0,8.35105263 C0.702236842,11.7485526 4.16605263,12.9055263 7.86552632,12.4886842 C11.7071053,12.0588158 12.5881579,8.41026316 12.2115789,5.06486842 Z" id="Path_18693"></path>
                    </g>
                    <g id="Group_9471" fill-rule="nonzero">
                        <rect id="Rectangle_6323" fill="#1C1C1F" x="3.15" y="34.4427632" width="15.8151316" height="10.3784211"></rect>
                        <g id="Group_9469" transform="translate(0.627632, 30.109737)" fill="#FF4140">
                            <path d="M20.3518421,2.63368421 C20.3518421,1.42697368 19.5678947,-0.045 18.1930263,0.00118421053 C12.8344737,0.2025 7.47828947,0.480789474 2.11618421,0.555394737 C0.950771401,0.577101784 0.0137910252,1.52142691 0.00118421053,2.68697368 L0.00118421053,3.03157895 C0.0137910252,4.19712572 0.950771401,5.14145085 2.11618421,5.16315789 C7.47828947,5.23657895 12.8344737,5.51842105 18.1930263,5.715 C19.5690789,5.76236842 20.3518421,4.29394737 20.3518421,3.0825 L20.3518421,2.63368421 Z" id="Path_18694"></path>
                        </g>
                        <rect id="Rectangle_6324" fill="#26252E" x="1.02078947" y="5.28513158" width="1" height="2.37907895"></rect>
                        <rect id="Rectangle_6325" fill="#26252E" x="3.03276316" y="5.98381579" width="1" height="2.37907895"></rect>
                        <path d="M7.79802632,31.4940789 L0.675,33.6410526 C0.231484144,24.9374411 0.310573612,16.2150591 0.911842105,7.52092105 C0.954473684,6.99157895 2.44421053,6.91697368 3.02447368,7.66776316 C7.52328947,13.4893421 7.79802632,31.4940789 7.79802632,31.4940789 Z" id="Path_18695" fill="#FF4140"></path>
                        <path d="M2.79947368,-1.00374226e-06 L2.79947368,-1.00374226e-06 C3.54203647,-0.000628491789 4.25440095,0.293912968 4.77969438,0.818762177 C5.30498781,1.34361139 5.60013158,2.05572642 5.60013158,2.79828947 L5.60013158,3.49578947 C5.60013158,5.04320414 4.34570414,6.29763158 2.79828947,6.29763158 L2.79828947,6.29763158 C1.25283687,6.29763158 0,5.04479471 0,3.49934211 L0,2.79947368 C0,1.25336706 1.25336706,-1.00374226e-06 2.79947368,-1.00374226e-06 Z" id="Rectangle_6326" fill="#FF4140"></path>
                        <path d="M3.53842105,31.4680263 C3.53842105,31.4680263 12.3951316,29.0344737 16.7636842,24.9264474 L18.4215789,24.9844737 C18.4215789,24.9844737 13.9097368,28.9018421 4.50236842,32.3775 L3.53842105,31.4680263 Z" id="Path_18696" fill="#1C1C1F"></path>
                        <path d="M20.9475,32.3182895 C20.9008388,33.4887147 19.9840027,34.4381494 18.8159211,34.5256579 C13.4573684,34.3243421 8.10118421,34.0519737 2.73907895,33.9726316 C1.75570317,33.9513293 0.909853547,33.2707607 0.678552632,32.3147368 C0.642736818,32.4700975 0.624464639,32.628986 0.624078947,32.7884211 L0.624078947,33.1330263 C0.636685762,34.2985731 1.57366614,35.2428982 2.73907895,35.2646053 C8.10118421,35.3380263 13.4573684,35.6198684 18.8159211,35.8164474 C20.1919737,35.8638158 20.9748558,34.3953947 20.9748558,33.1839474 L20.9748558,32.7434211 C20.97602,32.6012364 20.9669169,32.4591479 20.9475,32.3182895 Z" id="Path_18697" fill="#26252E"></path>
                        <g id="Group_9470" transform="translate(1.408026, 32.083816)" fill="#26252E">
                            <path d="M0.664037285,0.430044587 L2.28501802,0.430044587 C2.42487976,0.431987298 2.53722321,0.545926729 2.53722321,0.685801958 L2.53722321,2.2724449 C2.53722321,2.34059001 2.51015267,2.40594406 2.46196681,2.45412993 C2.41378094,2.5023158 2.34842688,2.52938633 2.28028178,2.52938633 L0.660485099,2.52938633 C0.59296806,2.52938633 0.528216343,2.50256529 0.480474587,2.45482354 C0.432732831,2.40708178 0.405911791,2.34233006 0.405911791,2.27481303 L0.405911791,0.688170081 C0.405911791,0.545611308 0.521478511,0.430044587 0.664037285,0.430044587 Z" id="Rectangle_6327" transform="translate(1.471567, 1.479715) rotate(-54.895313) translate(-1.471567, -1.479715) "></path>
                        </g>
                    </g>
                    <path d="M3.29328947,31.7048684 C3.29328947,31.7048684 16.7281579,18.0627632 18.0852632,13.8564474 L18.6098684,14.7872368 C14.4544778,21.0367017 9.64293134,26.8240551 4.25723684,32.0506579 L3.29328947,31.7048684 Z" id="Path_18698" fill="#1C1C1F" fill-rule="nonzero"></path>
                    <path d="M3.05462343,31.6224261 L4.2992287,31.6224261 C4.40779625,31.6224261 4.49580764,31.7104375 4.49580764,31.819005 L4.49580764,33.0434787 C4.49580764,33.1500842 4.40938682,33.236505 4.30278133,33.236505 L3.05225501,33.236505 C2.94545627,33.236505 2.8586957,33.1502755 2.85804449,33.0434787 L2.85804449,31.819005 C2.85804449,31.7104375 2.94605588,31.6224261 3.05462343,31.6224261 Z" id="Rectangle_6328" fill="#26252E" fill-rule="nonzero" transform="translate(3.676926, 32.429466) rotate(-54.974000) translate(-3.676926, -32.429466) "></path>
                    <path d="M20.0415789,16.5682895 C20.1350907,16.1095995 20.4072776,15.7069709 20.7980751,15.4492535 C21.1888725,15.191536 21.6661574,15.0999137 22.1246053,15.1946053 L28.1427632,17.2492105 C28.8225,17.3948684 29.5496053,17.5559211 29.5827632,17.5440789 C29.8196053,17.4611842 30.0493421,17.3735526 30.2838158,17.2930263 C30.735,17.1402632 31.2205263,17.1473684 31.6728947,17.0052632 C31.8078947,16.9614474 32.2235526,16.7601316 32.3621053,16.8382895 C32.39137,16.8613956 32.408043,16.8969354 32.4071053,16.9342105 C32.4544737,17.5109211 31.7380263,17.5464474 31.3567105,17.6447368 C31.2122368,17.6838158 31.0677632,17.7631579 30.9256579,17.82 L32.2105263,18.0639474 C32.4568421,18.1101316 33.7038158,18.3114474 33.6386842,18.6098684 C33.6067105,18.7590789 33.3828947,18.7460526 33.2692105,18.7413158 C32.7686611,18.7235635 32.270218,18.6673451 31.7782895,18.5731579 L33.0193421,18.8372368 C33.21,18.8775 33.9453947,19.0740789 33.8625,19.3642105 C33.8375093,19.4446704 33.7606552,19.4975382 33.6765789,19.4921053 C33.2754417,19.4673832 32.8782803,19.3982771 32.4923684,19.2860526 L33.2206579,19.5228947 C33.3390789,19.5584211 33.5557895,19.6496053 33.5557895,19.8118421 C33.5557895,20.0119737 33.3,20.0155263 33.1792105,19.9989474 C32.6598413,19.928989 32.147524,19.8140842 31.6480263,19.6555263 C31.9926316,19.8817105 33.2313158,20.2144737 32.9021053,20.4003947 C32.8066303,20.441804 32.7004552,20.4517579 32.5989474,20.4288158 C31.3844347,20.3365653 30.1971508,20.0222843 29.0960526,19.5015789 L27.9793421,19.2836842 L21.4117105,18.6501316 C21.3129652,18.6307075 21.2162349,18.6021641 21.1227632,18.5648684 C20.3251638,18.2503994 19.8690451,17.4081035 20.0415789,16.5682895 L20.0415789,16.5682895 Z" id="Path_18699" fill="#EDB485" fill-rule="nonzero"></path>
                    <g id="Group_9474" transform="translate(15.718026, 1.246974)" fill-rule="nonzero">
                        <g id="Group_9473">
                            <g id="Group_9472" transform="translate(1.023158, 1.637763)" fill="#FFC89F">
                                <path d="M1.46486842,5.25315789 C1.46764181,5.25667821 1.47082179,5.25985819 1.47434211,5.26263158 C1.45539474,5.26263158 1.44947368,5.26026316 1.46486842,5.25315789 Z" id="Path_18700"></path>
                                <path d="M0.937894737,5.41421053 L0.928421053,5.40236842 C0.928421053,5.40236842 0.0923684211,3.5775 0.0319736842,3.4425 C-0.1125,3.11447368 0.220263158,1.01486842 1.24105263,0.538815789 C2.00896582,0.415074841 2.79633264,0.522667899 3.50289474,0.847894737 C3.77135848,0.557610561 4.08290013,0.310374302 4.42657895,0.114868421 C4.42035847,0.0892112581 4.41639598,0.0630588008 4.41473684,0.0367105263 C4.41451838,0.0212668252 4.42499191,0.00771762129 4.4399925,0.00403823116 C4.45499309,0.000358841036 4.47054745,0.00752384613 4.4775,0.0213157895 C4.56986842,0.213157895 4.72973684,0.357631579 4.81973684,0.545921053 C4.93868114,0.797884031 5.04306338,1.05646729 5.13236842,1.32039474 C5.15368421,1.38434211 5.17618421,1.43881579 5.19631579,1.50631579 C5.67,1.71 5.97671053,1.86157895 5.97671053,1.86157895 C5.84907563,2.59743085 5.62739104,3.31382629 5.31710526,3.99315789 C5.42506518,4.31533997 5.44348407,4.6607964 5.37039474,4.99263158 C5.33013158,5.09684211 4.81736842,4.93578947 4.79131579,5.02697368 C4.76526316,5.11815789 4.75697368,5.36684211 4.73802632,5.46868421 C4.69421053,5.68894737 4.39578947,5.54684211 4.47986842,5.75644737 C4.63855263,6.15671053 4.03815789,6.07736842 4.02631579,6.36157895 C4.01565789,6.59842105 3.94578947,7.11 3.66276316,7.19052632 C2.78644737,7.44986842 1.30736842,5.92815789 0.939078947,5.41421053 L0.937894737,5.41421053 Z" id="Path_18701"></path>
                            </g>
                            <path d="M0.423947368,7.08039474 L1.31210526,5.64157895 C1.31210526,5.64157895 2.52236842,4.94526316 2.65263158,5.03644737 C3.14644737,5.37631579 3.94697368,2.38263158 4.84342105,2.67868421 C5.02460526,2.73907895 5.54684211,3.26368421 6.02763158,3.53131579 C6.34327708,3.71151808 6.69064146,3.82931642 7.05078947,3.87828947 C7.05078947,3.87828947 7.84539474,2.97828947 7.64289474,2.56618421 C7.30514693,2.03567814 6.88546932,1.56204197 6.39947368,1.16289474 C5.65593499,0.339543471 4.56711636,-0.0841299044 3.46263158,0.0201315789 C2.19398741,0.184735498 1.09083191,0.970800411 0.521052632,2.11618421 C-0.136951491,3.69930425 -0.171642045,5.47275307 0.423947368,7.08039474 L0.423947368,7.08039474 Z" id="Path_18702" fill="#662410"></path>
                        </g>
                        <path d="M2.75684211,4.73802632 C2.66921053,5.22473684 2.37671053,5.58118421 2.10671053,5.53026316 C1.83671053,5.47934211 1.69105263,5.04473684 1.77986842,4.55684211 C1.86868421,4.06894737 2.16118421,3.71486842 2.43118421,3.76460526 C2.70118421,3.81434211 2.84802632,4.25131579 2.75684211,4.73802632 Z" id="Path_18703" fill="#FFC89F"></path>
                    </g>
                    <g id="Group_9475" transform="translate(12.975395, 8.328553)" fill-rule="nonzero">
                        <path d="M7.59197368,9.91421053 C7.95725454,10.2091669 8.42502566,10.3463815 8.89175786,10.2954855 C9.35849005,10.2445894 9.78569284,10.00978 10.0788158,9.64302632 L10.0788158,9.64302632 C10.3737721,9.27774546 10.5109868,8.80997434 10.4600907,8.34324214 C10.4091947,7.87650995 10.1743853,7.44930716 9.80763158,7.15618421 L2.87526316,1.56789474 C2.50985935,1.27324565 2.04216806,1.13622555 1.57553255,1.18711104 C1.10889705,1.23799653 0.681730289,1.47259877 0.388421053,1.83907895 L0.388421053,1.83907895 C0.0937719664,2.20448276 -0.0432481349,2.67217405 0.00763735581,3.13880955 C0.0585228465,3.60544506 0.293125088,4.03261182 0.659605263,4.32592105 L7.59197368,9.91421053 Z" id="Path_18704" fill="#EDB485"></path>
                        <path d="M6.81986842,6.07144737 C6.26092105,6.69434211 5.68776316,7.30539474 5.13118421,7.93184211 L0.660789474,4.32 C-0.073255875,3.70246257 -0.17997187,2.61182748 0.420448035,1.86371587 C1.02086794,1.11560425 2.10874751,0.983728445 2.87052632,1.56671053 L7.48894737,5.28986842 C7.27105263,5.55513158 7.04842105,5.81684211 6.81986842,6.07144737 Z" id="Path_18705" fill="#2FB4ED"></path>
                    </g>
                    <path d="M30.8013158,39.1109211 L22.6373684,29.0167105 C22.2952747,28.585735 22.1385065,28.0364605 22.2015861,27.4898446 C22.2646657,26.9432287 22.5424202,26.4440983 22.9736842,26.1023684 L22.9736842,26.1023684 C23.871573,25.3913237 25.1756907,25.5418192 25.8880263,26.4386842 L34.0519737,36.5328947 C34.7636842,37.4305263 31.5142105,40.0085526 30.8013158,39.1109211 Z" id="Path_18706" fill="#041D2B" fill-rule="nonzero"></path>
                    <g id="Group_9476" transform="translate(29.452500, 37.380789)" fill="#0D2029" fill-rule="nonzero">
                        <path d="M-0.00473684211,3.105 L0.350526316,2.41105263 L2.21565789,0.699868421 L2.41934211,1.34289474 L3.84039474,0.740131579 L5.97789474,0.00118421053 L6.44565789,0.616973684 C6.44565789,0.616973684 4.27381579,2.29736842 4.16131579,2.35302632 C4.16131579,2.35302632 2.24881579,3.53723684 2.00605263,3.63907895 L2.10671053,3.91263158 L1.06342105,4.70605263 L0.479605263,4.13881579 L-0.00473684211,3.105 Z" id="Path_18707"></path>
                    </g>
                    <path d="M28.8580263,40.5284211 L20.0510526,29.5875 C19.708959,29.1565245 19.5521907,28.60725 19.6152703,28.0606341 C19.6783499,27.5140182 19.9561044,27.0148877 20.3873684,26.6731579 L20.3873684,26.6731579 C20.8183439,26.3310642 21.3676184,26.174296 21.9142343,26.2373756 C22.4608502,26.3004552 22.9599807,26.5782096 23.3017105,27.0094737 L32.1086842,37.9503947 C32.8215789,38.8480263 29.5709211,41.4236842 28.8580263,40.5284211 Z" id="Path_18708" fill="#0E2C40" fill-rule="nonzero"></path>
                </g>
                <path d="M129.848684,78.9785526 L127.939737,78.9785526 L127.939737,78.5321053 L129.848684,78.5321053 L129.848684,78.9785526 Z M126.027237,78.9785526 L124.114737,78.9785526 L124.114737,78.5321053 L126.027237,78.5321053 L126.027237,78.9785526 Z M122.202237,78.9785526 L120.289737,78.9785526 L120.289737,78.5321053 L122.202237,78.5321053 L122.202237,78.9785526 Z M118.377237,78.9785526 L116.464737,78.9785526 L116.464737,78.5321053 L118.377237,78.5321053 L118.377237,78.9785526 Z M114.552237,78.9785526 L112.639737,78.9785526 L112.639737,78.5321053 L114.552237,78.5321053 L114.552237,78.9785526 Z M110.727237,78.9785526 L108.81,78.9785526 L108.81,78.5321053 L110.7225,78.5321053 L110.727237,78.9785526 Z M106.902237,78.9785526 L104.989737,78.9785526 L104.989737,78.5321053 L106.902237,78.5321053 L106.902237,78.9785526 Z M103.077237,78.9785526 L101.164737,78.9785526 L101.164737,78.5321053 L103.077237,78.5321053 L103.077237,78.9785526 Z M99.2522368,78.9785526 L97.3397368,78.9785526 L97.3397368,78.5321053 L99.2522368,78.5321053 L99.2522368,78.9785526 Z M95.4272368,78.9785526 L93.5123684,78.9785526 L93.5123684,78.5321053 L95.4284211,78.5321053 L95.4272368,78.9785526 Z M91.6022368,78.9785526 L89.6873684,78.9785526 L89.6873684,78.5321053 L91.5998684,78.5321053 L91.6022368,78.9785526 Z M87.7772368,78.9785526 L85.8623684,78.9785526 L85.8623684,78.5321053 L87.7748684,78.5321053 L87.7772368,78.9785526 Z M83.9522368,78.9785526 L82.0373684,78.9785526 L82.0373684,78.5321053 L83.9498684,78.5321053 L83.9522368,78.9785526 Z M80.1272368,78.9785526 L78.2123684,78.9785526 L78.2123684,78.5321053 L80.1248684,78.5321053 L80.1272368,78.9785526 Z M76.3022368,78.9785526 L74.3873684,78.9785526 L74.3873684,78.5321053 L76.2998684,78.5321053 L76.3022368,78.9785526 Z M72.4772368,78.9785526 L70.56,78.9785526 L70.56,78.5321053 L72.4725,78.5321053 L72.4772368,78.9785526 Z M68.6522368,78.9785526 L66.7361842,78.9785526 L66.7361842,78.5321053 L68.6486842,78.5321053 L68.6522368,78.9785526 Z M64.8272368,78.9785526 L62.9111842,78.9785526 L62.9111842,78.5321053 L64.8236842,78.5321053 L64.8272368,78.9785526 Z M61.0022368,78.9785526 L59.0861842,78.9785526 L59.0861842,78.5321053 L60.9986842,78.5321053 L61.0022368,78.9785526 Z M57.1772368,78.9785526 L55.2611842,78.9785526 L55.2611842,78.5321053 L57.1784211,78.5321053 L57.1772368,78.9785526 Z M53.3522368,78.9785526 L51.4361842,78.9785526 L51.4361842,78.5321053 L53.3486842,78.5321053 L53.3522368,78.9785526 Z M49.5272368,78.9785526 L47.61,78.9785526 L47.61,78.5321053 L49.5225,78.5321053 L49.5272368,78.9785526 Z M45.7022368,78.9785526 L43.785,78.9785526 L43.785,78.5321053 L45.6975,78.5321053 L45.7022368,78.9785526 Z M41.8772368,78.9785526 L39.96,78.9785526 L39.96,78.5321053 L41.8725,78.5321053 L41.8772368,78.9785526 Z M38.9984211,78.0311842 L38.5519737,78.0311842 L38.5519737,76.1198684 L38.9984211,76.1198684 L38.9984211,78.0311842 Z M129.853421,76.6101316 L129.406974,76.6101316 L129.406974,74.7035526 L129.853421,74.7035526 L129.853421,76.6101316 Z M38.9936842,74.2073684 L38.5472368,74.2073684 L38.5472368,72.2936842 L38.9936842,72.2936842 L38.9936842,74.2073684 Z M129.848684,72.7863158 L129.402237,72.7863158 L129.402237,70.8785526 L129.848684,70.8785526 L129.848684,72.7863158 Z M38.9936842,70.3811842 L38.5472368,70.3811842 L38.5472368,68.4663158 L38.9936842,68.4663158 L38.9936842,70.3811842 Z M129.848684,68.9601316 L129.402237,68.9601316 L129.402237,67.0535526 L129.848684,67.0535526 L129.848684,68.9601316 Z M38.9936842,66.5561842 L38.5472368,66.5561842 L38.5472368,64.6436842 L38.9936842,64.6436842 L38.9936842,66.5561842 Z M129.848684,65.1351316 L129.402237,65.1351316 L129.402237,63.2273684 L129.848684,63.2273684 L129.848684,65.1351316 Z M37.4388158,64.2860526 L35.5263158,64.2860526 L35.5263158,63.8407895 L37.4388158,63.8407895 L37.4388158,64.2860526 Z M33.6138158,64.2860526 L31.7013158,64.2860526 L31.7013158,63.8407895 L33.6126316,63.8407895 L33.6138158,64.2860526 Z M29.7888158,64.2860526 L27.8763158,64.2860526 L27.8763158,63.8407895 L29.7888158,63.8407895 L29.7888158,64.2860526 Z M129.854605,61.3160526 L129.408158,61.3160526 L129.408158,59.4023684 L129.854605,59.4023684 L129.854605,61.3160526 Z M129.854605,57.4910526 L129.408158,57.4910526 L129.408158,55.5773684 L129.854605,55.5773684 L129.854605,57.4910526 Z M129.854605,53.6660526 L129.408158,53.6660526 L129.408158,51.7523684 L129.854605,51.7523684 L129.854605,53.6660526 Z M129.854605,49.8410526 L129.408158,49.8410526 L129.408158,47.9273684 L129.854605,47.9273684 L129.854605,49.8410526 Z M129.854605,46.0160526 L129.408158,46.0160526 L129.408158,44.1023684 L129.854605,44.1023684 L129.854605,46.0160526 Z M128.022632,44.0230263 L126.099474,44.0230263 L126.099474,43.5777632 L128.011974,43.5777632 L128.022632,44.0230263 Z M124.197632,44.0230263 L122.285132,44.0230263 L122.285132,43.5777632 L124.197632,43.5777632 L124.197632,44.0230263 Z M120.372632,44.0230263 L119.586316,44.0230263 L119.586316,43.5777632 L120.372632,43.5777632 L120.372632,44.0230263 Z" id="Path_18709" fill="#FFFFFF" fill-rule="nonzero"></path>
                <g id="Group_9478" stroke-width="1" fill="none" fill-rule="evenodd" transform="translate(107.037237, 1.184211)">
                    <rect id="Rectangle_6329" fill="#1C1C1F" fill-rule="nonzero" x="1.90065789" y="0" width="14.9139474" height="14.5243421"></rect>
                    <rect id="Rectangle_6330" fill="#1C1C1F" fill-rule="nonzero" x="1.90065789" y="16.2153947" width="14.9139474" height="3.21631579"></rect>
                    <rect id="Rectangle_6331" fill="#1C1C1F" fill-rule="nonzero" x="1.90065789" y="31.3922368" width="14.9139474" height="18.2309211"></rect>
                    <path d="M16.8146053,13.5047368 C16.6710722,13.4796732 16.5257018,13.4666017 16.38,13.4656579 L2.34,13.4656579 C2.19390699,13.4666289 2.04814545,13.4796999 1.90421053,13.5047368 C0.804228775,13.7184166 0.00988264644,14.6815613 0.00947368421,15.8021053 L0.00947368421,22.0251316 L6.56644737,22.0251316 L6.56644737,21.9161842 C6.56581575,21.7093317 6.64770807,21.5107693 6.79397553,21.3645018 C6.94024299,21.2182344 7.13880543,21.1363421 7.34565789,21.1369737 L11.3885526,21.1369737 C11.5952971,21.1363402 11.7937392,21.21827 11.9398191,21.3645722 C12.0858989,21.5108744 12.1675268,21.709441 12.1665789,21.9161842 L12.1665789,22.0251316 L18.7259211,22.0251316 L18.7259211,15.8021053 C18.7239912,14.676397 17.9211771,13.7114285 16.8146053,13.5047368 L16.8146053,13.5047368 Z M16.8773684,16.2153947 L1.83789474,16.2153947 C1.37092345,16.2153947 0.992368421,15.8368397 0.992368421,15.3698684 C0.992368421,14.9028971 1.37092345,14.5243421 1.83789474,14.5243421 L16.8773684,14.5243421 C17.1794459,14.5243421 17.458577,14.6854985 17.6096157,14.9471052 C17.7606545,15.208712 17.7606545,15.5310248 17.6096157,15.7926316 C17.458577,16.0542384 17.1794459,16.2153947 16.8773684,16.2153947 L16.8773684,16.2153947 Z" id="Path_18710" fill="#26252E" fill-rule="nonzero"></path>
                    <path d="M18.7140789,29.4880263 L18.7140789,35.7146053 C18.7140789,37.0049895 17.6680158,38.0510526 16.3776316,38.0510526 L2.33763158,38.0510526 C1.71828126,38.0507386 1.12442265,37.8044015 0.686697923,37.3662326 C0.248973193,36.9280637 0.00323847977,36.3339556 0.00355233074,35.7146053 L0.00355233074,29.4880263 L18.7140789,29.4880263 Z" id="Path_18711" fill="#26252E" fill-rule="nonzero"></path>
                    <path d="M17.3522368,19.5406579 L17.3522368,23.7576316 L12.1571053,23.7576316 L12.1571053,21.9161842 C12.1580532,21.709441 12.0764253,21.5108744 11.9303454,21.3645722 C11.7842656,21.21827 11.5858234,21.1363402 11.3790789,21.1369737 L7.33618421,21.1369737 C7.12933175,21.1363421 6.93076931,21.2182344 6.78450185,21.3645018 C6.63823439,21.5107693 6.55634207,21.7093317 6.55697368,21.9161842 L6.55697368,23.7576316 L1.36302632,23.7576316 L1.36302632,19.5406579 L17.3522368,19.5406579 Z" id="Path_18712" fill="#D7E0E9" fill-rule="nonzero"></path>
                    <path d="M4.83631579,20.3352632 L4.83631579,27.8360526 L13.8789474,27.8360526 L13.8789474,20.3352632 L4.83631579,20.3352632 Z M12.1571134,25.9661842 C12.1577369,26.1727226 12.0759693,26.3709838 11.929924,26.5170292 C11.7838786,26.6630746 11.5856173,26.7448421 11.3790789,26.7442142 L7.33618421,26.7442142 C7.12953745,26.7448408 6.93115553,26.6631108 6.78492245,26.5170999 C6.63868936,26.3710891 6.55665771,26.1728317 6.55697006,25.9661842 L6.55697006,21.9161842 C6.55634207,21.7093317 6.63823439,21.5107693 6.78450185,21.3645018 C6.93076931,21.2182344 7.12933175,21.1363421 7.33618421,21.13697 L11.3790789,21.13697 C11.5858234,21.1363402 11.7842656,21.21827 11.9303454,21.3645722 C12.0764253,21.5108744 12.1580532,21.709441 12.1571134,21.9161842 L12.1571134,25.9661842 Z" id="Path_18713" fill="#D7E0E9" fill-rule="nonzero"></path>
                    <path d="M18.2013158,30.6840789 C18.2013158,31.0764918 17.8832023,31.3946053 17.4907895,31.3946053 L1.22092105,31.3946053 C0.828508204,31.3946053 0.510394737,31.0764918 0.510394737,30.6840789 L0.510394737,30.6840789 C0.510394737,30.2916661 0.828508204,29.9735526 1.22092105,29.9735526 L17.4943421,29.9735526 C17.6827854,29.9735526 17.8635105,30.0484114 17.9967601,30.181661 C18.1300096,30.3149105 18.2048684,30.4956357 18.2048684,30.6840789 L18.2013158,30.6840789 Z" id="Path_18714" fill="#FF4140" fill-rule="nonzero"></path>
                </g>
            </g>
        </g>
    </g>
</svg>