<?xml version="1.0" encoding="UTF-8"?>
<svg width="92px" height="92px" viewBox="0 0 92 92" version="1.1" xmlns="http://www.w3.org/2000/svg" xmlns:xlink="http://www.w3.org/1999/xlink">
    <title>GTX/Avatar/1</title>
    <defs>
        <circle id="path-1" cx="46" cy="46" r="46"></circle>
        <rect id="path-3" x="0" y="0" width="92" height="108"></rect>
        <polygon id="path-5" points="0 -6.48756411e-15 84 -6.48756411e-15 84 35.4718852 0 35.4718852"></polygon>
    </defs>
    <g id="Design" stroke="none" stroke-width="1" fill="none" fill-rule="evenodd">
        <g id="rta-gitex-UI-05.00" transform="translate(-347.000000, -573.000000)">
            <g id="Group-2" transform="translate(347.000000, 232.000000)">
                <g id="Avatar" transform="translate(0.000000, 288.000000)">
                    <g id="GTX/Avatar/1" transform="translate(0.000000, 53.000000)">
                        <mask id="mask-2" fill="white">
                            <use xlink:href="#path-1"></use>
                        </mask>
                        <use fill="#FBFBFB" xlink:href="#path-1"></use>
                        <g id="Group" mask="url(#mask-2)">
                            <g id="GTX/Avatar/Character/1">
                                <rect id="Rectangle" fill="#DB3B34" x="0" y="0" width="92" height="108"></rect>
                                <mask id="mask-4" fill="white">
                                    <use xlink:href="#path-3"></use>
                                </mask>
                                <use id="Rectangle" fill="#DB3B34" xlink:href="#path-3"></use>
                                <g id="Group-74" mask="url(#mask-4)">
                                    <g transform="translate(4.000000, 10.000000)">
                                        <path d="M1.40801757,99.8343423 C1.30065321,81.2491601 16.2767432,67.3759787 34.8619254,67.2633412 L48.7398001,67.1788631 C67.3249823,67.0709189 82.4794149,80.7610644 82.5920524,99.3462466" id="Fill-1" fill="#181D8B"></path>
                                        <g id="Group-5" stroke-width="1" fill="none" transform="translate(0.000000, 65.770285)">
                                            <mask id="mask-6" fill="white">
                                                <use xlink:href="#path-5"></use>
                                            </mask>
                                            <g id="Clip-4"></g>
                                            <path d="M1.40855052,35.4718852 C0.634637252,35.4718852 0.005275401,34.8467473 0,34.0723647 C-0.108770035,15.1328438 15.2000698,0.20415541 34.8534307,0.0854167464 L48.7313053,0.000469322783 C48.8059277,-6.48756411e-15 48.8833659,-6.48756411e-15 48.9575189,-6.48756411e-15 C68.5137299,-6.48756411e-15 83.885459,14.7024748 84,33.5669041 C84.004667,34.3450412 83.3781211,34.9790963 82.6009226,34.9837895 L82.5920055,34.9837895 C81.8185615,34.9837895 81.1887303,34.3591209 81.1840371,33.5847383 C81.1324116,25.0660605 77.7401465,17.2264927 71.6314412,11.5101412 C65.634904,5.89891805 57.5897729,2.8159367 48.9584576,2.8159367 C48.8885285,2.8159367 48.8185994,2.8159367 48.748201,2.81640602 L34.8707956,2.90135344 C26.1606341,2.95391759 18.0742025,6.13827267 12.0997235,11.8672959 C6.06423252,17.6559231 2.76723998,25.5358526 2.81651887,34.0554691 C2.8212121,34.8336062 2.19419686,35.467192 1.41699833,35.4718852 L1.40855052,35.4718852 Z" id="Fill-3" fill="#1D1D1B" mask="url(#mask-6)"></path>
                                        </g>
                                        <path d="M40.704994,89.2698882 C34.9431182,89.2731717 30.2691326,84.604818 30.2658474,78.8429422 C30.2658474,78.601241 30.2742952,78.3595398 30.2907215,78.1187772 L31.083877,66.5546638 C31.2359376,64.3953097 33.0259347,62.7179501 35.1904513,62.706217 L46.6278476,62.6733644 C48.7918949,62.6789963 50.5894012,64.3455615 50.757888,66.5030383 L51.5932826,77.8324903 C51.9232165,82.1094288 49.5906823,86.1493593 45.7220546,88.002715 L45.2527318,88.2326831 C43.8330304,88.9132012 42.2791027,89.2680092 40.704994,89.2698882" id="Fill-6" fill="#FFFFFF"></path>
                                        <path d="M46.6137679,61.265396 L46.6137679,61.265396 L35.1857581,61.2982486 C32.2797114,61.3109204 29.8749015,63.5617924 29.6712154,66.4607992 L28.8827531,78.0249126 C28.4307953,84.5513152 33.3553993,90.208532 39.8818019,90.6604899 C41.9388436,90.803164 43.996824,90.4061169 45.853465,89.5092411 L46.3227877,89.2792729 C50.7147103,87.1785842 53.3630988,82.5928313 52.9871713,77.7386257 L52.1517767,66.4091737 C51.9293177,63.5200227 49.5254464,61.2855769 46.6278476,61.2747825 L46.6137679,61.265396 Z M46.637234,64.0813327 C48.0639753,64.0822714 49.2490153,65.1833026 49.3546129,66.6062893 L50.1900075,77.9357413 C50.4617454,81.6330662 48.446004,85.1206038 45.1072417,86.7308502 L44.637919,86.9655116 C40.1549477,89.1502092 34.7497573,87.2865284 32.5650597,82.8035572 C31.870462,81.3777546 31.5635249,79.7947288 31.6752237,78.2126417 L32.4683792,66.6485284 C32.566937,65.2241337 33.7486918,64.1184092 35.1763717,64.1141853 L46.6137679,64.0813327 L46.637234,64.0813327 Z" id="Fill-8" fill="#000000"></path>
                                        <path d="M19.6464808,57.1775946 C15.9951495,57.1775946 12.8037546,55.0140166 11.1141926,51.3861515 C9.85875415,48.6903614 9.85875415,45.5778127 11.1141926,42.8820226 C12.3391251,40.1646437 15.0466482,38.420171 18.0273172,38.4281222 C20.4677957,38.4281222 22.9833658,39.4841257 25.5036291,41.5632256 C25.8260539,41.8293316 26.0133137,42.2249708 26.0151909,42.642668 L26.0480488,54.3757376 C26.0494515,54.8915233 25.7683272,55.3669473 25.3159,55.6147497 C23.5883228,56.6059595 21.6378174,57.1438034 19.6464808,57.1775946" id="Fill-10" fill="#FFFFFF"></path>
                                        <path d="M18.0085443,37.0436472 L18.0085443,37.0436472 C14.4858075,37.0305062 11.2822102,39.0837934 9.82355495,42.2906759 C8.39258978,45.3628629 8.39258978,48.9100045 9.82355495,51.9821914 C11.7524716,56.1169251 15.4178825,58.585563 19.6324011,58.585563 C21.8569911,58.5466092 24.0351181,57.9439987 25.9635654,56.834989 C26.8778062,56.3459546 27.4494414,55.3936987 27.4513187,54.3569647 L27.4184661,42.6238951 C27.4161195,41.7866233 27.0411305,40.9934678 26.3953424,40.4603171 C23.6169515,38.1653287 20.8010148,37.0014082 18.022624,37.0014082 L18.0085443,37.0436472 Z M18.0132375,39.8361178 C19.918688,39.8361178 22.1620509,40.643353 24.5837565,42.6520545 L24.6166091,54.385124 C23.1016351,55.2665122 21.3890763,55.750384 19.6370943,55.7930924 C16.3518349,55.7930924 13.7611731,53.7843909 12.3766709,50.8135777 C11.2967592,48.4941845 11.2967592,45.8162287 12.3766709,43.4968355 C13.3599021,41.2694296 15.5736977,39.839403 18.0085443,39.8595839 L18.0132375,39.8361178 Z" id="Fill-12" fill="#000000"></path>
                                        <path d="M16.7225998,45.5243099 C16.7225998,45.5243099 20.1627358,42.3657676 24.513358,49.2460396" id="Fill-14" fill="#FFFFFF"></path>
                                        <path d="M24.5148599,50.6538671 C24.0478837,50.6538671 23.5912326,50.4220217 23.3237187,49.9986925 C21.5201112,47.1461487 20.0595787,46.3783366 19.1519084,46.2356625 C18.251278,46.0948656 17.6763576,46.5613725 17.6519528,46.5815533 C17.079379,47.1062562 16.2008068,47.0588546 15.6737573,46.4867501 C15.1481158,45.913707 15.1973947,45.0130766 15.7699685,44.4869658 C15.9206211,44.3489849 17.3013687,43.1470492 19.4687013,43.4366214 C21.6688865,43.7285402 23.76629,45.4298352 25.7031852,48.493105 C26.1190051,49.1506263 25.9232975,50.0202814 25.2662456,50.435632 C25.0325229,50.583938 24.7720488,50.6538671 24.5148599,50.6538671" id="Fill-16" fill="#000000"></path>
                                        <path d="M61.3317303,57.0696504 C59.3544735,57.0335125 57.4175783,56.5008312 55.6998569,55.5208852 C55.2450832,55.276368 54.9606736,54.8028213 54.9583269,54.2865663 L54.9301534,42.5534967 C54.9282903,42.1353301 55.1122648,41.738283 55.432343,41.4693611 C57.9572995,39.3621018 60.4822561,38.2967295 62.9415075,38.2967295 C65.9062195,38.2920458 68.6006016,40.0177457 69.8358592,42.7130664 C71.0992761,45.4046326 71.1110092,48.5162427 69.8687118,51.2171953 C68.1885362,54.8732197 64.9877548,57.0555707 61.3129574,57.0555707 L61.3317303,57.0696504 Z" id="Fill-18" fill="#FFFFFF"></path>
                                        <path d="M62.9743601,36.8840775 C60.1818895,36.8840775 57.3424867,38.0620777 54.568789,40.3852254 C53.9154917,40.9244773 53.5395642,41.7298352 53.5455922,42.5769628 L53.5738247,54.3100324 C53.57711,55.3416039 54.1445212,56.2886973 55.0521915,56.7786702 C56.9689057,57.8670298 59.1277905,58.4574378 61.3317303,58.4963916 C65.5556354,58.4963916 69.2492057,56.0089809 71.1640426,51.8413946 C72.5860907,48.7645144 72.572011,45.2159648 71.1264968,42.1498791 C69.664087,38.9575455 66.4717535,36.9136448 62.9602804,36.9216233 L62.9743601,36.8840775 Z M62.9602804,39.7187871 C65.3885565,39.693913 67.6004747,41.1112678 68.5921538,43.3278793 C69.681452,45.6430486 69.6917771,48.3210044 68.6203132,50.6446215 C67.2498906,53.6295144 64.6545356,55.661682 61.34581,55.661682 C59.6093157,55.6199123 57.9108366,55.1458963 56.4038411,54.281873 L56.3756818,42.5488035 C58.8067738,40.5119426 61.0689096,39.7000142 62.9743601,39.7000142 L62.9602804,39.7187871 Z" id="Fill-20" fill="#000000"></path>
                                        <path d="M64.2462248,45.3928995 C64.2462248,45.3928995 61.0876825,42.3469947 56.7699129,49.2507328" id="Fill-22" fill="#FFFFFF"></path>
                                        <path d="M56.768458,50.6588889 C56.5136157,50.6588889 56.2554882,50.5898984 56.0231734,50.4448777 C55.3642442,50.032343 55.1638434,49.1631572 55.5759088,48.504228 C57.5489418,45.3499096 59.644468,43.6162312 61.8038221,43.3505945 C63.8327045,43.1013841 65.0876736,44.2474704 65.2237772,44.3788807 C65.7836793,44.9190713 65.7996363,45.8103152 65.2599151,46.369748 C64.7281724,46.9216716 63.853824,46.9446684 63.292514,46.4284133 C63.2296247,46.3758492 62.7987864,46.0445073 62.090109,46.1533902 C61.3786157,46.2622731 59.8969637,46.9066532 57.9638231,49.9976131 C57.6967785,50.4246968 57.2377808,50.6588889 56.768458,50.6588889" id="Fill-24" fill="#000000"></path>
                                        <path d="M34.8009134,73.3222983 C28.6997173,73.3222983 23.6122583,68.8778116 23.2227204,63.2036991 L20.8761065,28.943136 C20.821665,28.1673454 21.4064412,27.4943366 22.1822318,27.4398951 C22.216023,27.4375485 22.2498143,27.4366099 22.2840748,27.4366099 L60.0129333,27.3380008 C60.7906012,27.3314816 61.4260642,27.9566195 61.4327634,28.733818 C61.4335734,28.7990539 61.4293495,28.8642898 61.4209017,28.9290563 L56.9200962,63.7762729 C56.216112,69.1875646 51.2882228,73.2847525 45.421688,73.2988322 L34.8009134,73.3222983 Z" id="Fill-26" fill="#FFFFFF"></path>
                                        <path d="M60.0035469,25.9300837 L60.0035469,25.9300837 L22.2887681,26.0239483 C20.7334324,26.0201937 19.4700154,27.2779788 19.4662608,28.8333145 C19.4662608,28.899489 19.4681381,28.9661328 19.4728314,29.0323073 L21.8194453,63.2928705 C22.2559155,69.7038197 27.9581873,74.7255734 34.8009134,74.7255734 L34.8384593,74.7255734 L45.4076083,74.6974141 C51.9781273,74.6974141 57.5067497,70.060505 58.2952119,63.9452291 L62.7960174,29.0980125 C62.9954796,27.5558179 61.9071201,26.1436256 60.3649254,25.9441634 C60.2447788,25.9286758 60.1241628,25.9206973 60.0035469,25.9206973 L60.0035469,25.9300837 Z M60.0035469,28.7413272 L55.5027414,63.5885438 C54.8926218,68.3146242 50.5560792,71.8720909 45.3982219,71.8861706 L34.8290728,71.91433 L34.8009134,71.91433 C29.4224743,71.91433 24.9686011,68.0611899 24.6259955,63.1051413 L22.2793816,28.8445782 L60.0035469,28.7460204 L60.0035469,28.7413272 Z" id="Fill-28" fill="#000000"></path>
                                        <path d="M32.8062916,44.3040668 L31.9521241,44.3040668 C31.4583966,44.3026627 31.0482085,44.6842221 31.0134786,45.1770111 L31.0134786,48.7344777 C31.0186411,49.4384619 31.5907456,50.0063425 32.2947298,50.0063425 L32.463686,50.0063425 C33.1657929,50.0011799 33.7332041,49.4318914 33.7355507,48.7297845 L33.7355507,45.1676246 C33.6965969,44.6823448 33.2929793,44.3073559 32.8062916,44.3040668" id="Fill-30" fill="#1D1D1B"></path>
                                        <path d="M49.3639994,44.3040707 L48.5098319,44.3040707 C48.0161043,44.3026627 47.6059162,44.6842221 47.5711864,45.1770111 L47.5711864,48.7344777 C47.5763489,49.4384619 48.1484534,50.0063425 48.8524375,50.0063425 L49.0401667,50.0063425 C49.7422735,50.0011799 50.3096848,49.4318914 50.3120314,48.7297845 L50.3120314,45.1676246 C50.2726083,44.675305 49.8581963,44.2975002 49.3639994,44.3040707" id="Fill-32" fill="#1D1D1B"></path>
                                        <path d="M27.5686494,41.8776719 C29.1779572,40.2707107 31.5959082,39.7891855 33.6980049,40.6574327" id="Fill-34" fill="#FFFFFF"></path>
                                        <path d="M27.5686963,43.285828 C27.2077871,43.285828 26.8478165,43.1483164 26.5727933,42.8728239 C26.0232164,42.3227776 26.0236857,41.4315337 26.573732,40.8819567 C28.5927586,38.8652767 31.5997097,38.2668901 34.2354264,39.3561883 C34.9539596,39.6528003 35.2960959,40.4764618 34.9990146,41.194995 C34.7024026,41.9135282 33.8792104,42.2561338 33.1602079,41.9585831 C31.5795288,41.3057551 29.774044,41.6643178 28.5636606,42.8737626 C28.2886374,43.1483164 27.9291362,43.285828 27.5686963,43.285828" id="Fill-36" fill="#000000"></path>
                                        <path d="M48.2798638,40.1599505 L48.2798638,40.1599505 C50.0388855,39.542791 51.989391,39.8361178 53.4893466,40.9437196" id="Fill-38" fill="#FFFFFF"></path>
                                        <path d="M53.4882203,42.3517818 C53.1977095,42.3517818 52.9043827,42.2626104 52.6528257,42.0762893 C51.526451,41.2451186 50.0663879,41.0240676 48.7461829,41.4886972 C48.0131007,41.7463554 47.2086814,41.3601027 46.9510232,40.6260819 C46.693365,39.8925304 47.080087,39.0890498 47.8136385,38.8313916 C50.0133544,38.0588863 52.448201,38.424958 54.3254921,39.8113375 C54.9510994,40.2726818 55.0834484,41.1545393 54.6216348,41.7801466 C54.345673,42.1541969 53.9195279,42.3517818 53.4882203,42.3517818" id="Fill-40" fill="#000000"></path>
                                        <path d="M59.2526304,24.4000915 L58.7833076,24.4000915 L58.914718,27.8402275 L48.819585,27.7088171 L50.8705255,28.9759886 C55.7993534,32.0148536 58.6411028,37.5317429 58.2529729,43.3091064 L57.4457377,49.9218644 L58.9898097,49.9218644 L64.9455158,32.4161246 C66.0263661,29.2491345 64.3353961,25.8057132 61.168406,24.7248628 C60.5517159,24.5141369 59.9045198,24.4043154 59.2526304,24.4000915" id="Fill-42" fill="#1D1D1B"></path>
                                        <path d="M52.146708,28.6907811 C56.9000092,32.0018534 59.5812502,37.5431475 59.1893657,43.3721364 C59.1884271,43.389032 59.1865498,43.4059277 59.1846725,43.4228233 L58.61116,48.120275 L64.0567123,32.1135522 C64.4988143,30.8186906 64.4105817,29.4294952 63.8075019,28.2017468 C63.2048914,26.9739984 62.1597096,26.0545951 60.8653174,25.6129623 C60.5062854,25.4904691 60.1350511,25.4083376 59.7595929,25.3679758 L59.8529881,27.8042304 C59.8623746,28.0614193 59.7661634,28.311099 59.5868821,28.4955429 C59.4076008,28.6799867 59.1541665,28.785115 58.9026095,28.7785445 L52.146708,28.6907811 Z M58.9899035,50.8606507 L57.4458316,50.8606507 C57.1773789,50.8606507 56.9211287,50.7456667 56.7432554,50.5443272 C56.5649127,50.3429877 56.4813732,50.0750044 56.5142258,49.8084291 L57.3181758,43.2210145 C57.6739224,37.785318 55.0166168,32.6349698 50.3778305,29.7753861 L48.3264206,28.5072759 C47.9673886,28.2857556 47.8003097,27.851632 47.9185791,27.4466064 C48.0349711,27.0453355 48.4024509,26.7703123 48.8196788,26.7703123 L48.8323505,26.7703123 L57.9390898,26.8885817 L57.8452252,24.4363701 C57.8353695,24.1810585 57.9297034,23.9332561 58.106638,23.7492816 C58.2840421,23.565307 58.5280899,23.4615867 58.7834015,23.4615867 L59.2527243,23.4615867 L59.2588255,23.4615867 C60.0130272,23.4667493 60.7578424,23.5925278 61.4716824,23.8361063 C63.2410293,24.4401247 64.6687092,25.6969711 65.49284,27.3743307 C66.3160322,29.0521597 66.4375868,30.9505703 65.8335683,32.7189786 L59.8788009,50.2242491 C59.7487985,50.6048698 59.3921131,50.8606507 58.9899035,50.8606507 L58.9899035,50.8606507 Z" id="Fill-44" fill="#1D1D1B"></path>
                                        <path d="M55.6200721,8.27885389 C61.4340427,8.27885389 66.1469821,12.9917933 66.1469821,18.8057639 C66.1469821,24.6197345 61.4340427,29.3326739 55.6200721,29.3326739 C49.8061014,29.3326739 45.0931621,24.6197345 45.0931621,18.8057639 C45.0931621,12.9917933 49.8061014,8.27885389 55.6200721,8.27885389" id="Fill-46" fill="#1D1D1B"></path>
                                        <path d="M55.6106856,7.34020716 C49.2757667,7.33739238 44.1385595,12.470845 44.1357424,18.8057639 C44.1329276,25.1406828 49.2663802,30.27789 55.6012992,30.2807071 C61.9362181,30.2835219 67.0734253,25.1500693 67.0762412,18.8151504 L67.0762412,18.8057639 C67.0682627,12.4769462 61.9395033,7.34818681 55.6106856,7.34020716 M55.6106856,9.2174948 C60.9088705,9.2123369 65.2078672,13.5028858 65.2130344,18.8010707 C65.2181923,24.0992556 60.9276434,28.3982523 55.6294585,28.4034195 C50.3312736,28.4085774 46.0322769,24.1180285 46.0271144,18.8198436 C46.0271144,18.8151504 46.0271144,18.8104571 46.0271144,18.8057639 C46.0271144,13.5122722 50.317194,9.22031539 55.6106856,9.2174948" id="Fill-48" fill="#1D1D1B"></path>
                                        <path d="M42.9907837,33.7980925 C42.3388944,33.7980925 41.807621,33.269635 41.807621,32.6177457 C41.807621,31.9658563 42.3342011,31.4373989 42.9856212,31.4373989 C47.440433,31.4373989 51.060789,27.8175122 51.060789,23.3673936 C51.060789,22.7155043 51.5892464,22.1870468 52.2411358,22.1870468 C52.8930251,22.1870468 53.4214826,22.7155043 53.4214826,23.3673936 C53.4214826,29.1189443 48.7423344,33.7980925 42.9907837,33.7980925" id="Fill-50" fill="#FFFFFF"></path>
                                        <path d="M40.9631216,0.938645565 C49.4958791,0.938645565 56.4132276,7.85599406 56.4132276,16.3887516 C56.4132276,24.9215091 49.4958791,31.8388576 40.9631216,31.8388576 C32.4303641,31.8388576 25.5130156,24.9215091 25.5130156,16.3887516 C25.5130156,7.85599406 32.4303641,0.938645565 40.9631216,0.938645565" id="Fill-52" fill="#1D1D1B"></path>
                                        <path d="M40.9631216,0 C31.9117624,0 24.57437,7.33739238 24.57437,16.3887516 C24.57437,25.4401108 31.9117624,32.7775031 40.9631216,32.7775031 C50.0144808,32.7775031 57.3518731,25.4401108 57.3518731,16.3887516 C57.3312229,7.34584019 50.0060329,0.0206502024 40.9631216,0 M40.9631216,1.87729113 C48.9777467,1.87729113 55.474582,8.37412641 55.474582,16.3887516 C55.474582,24.4033767 48.9777467,30.900212 40.9631216,30.900212 C32.9484964,30.900212 26.4516611,24.4033767 26.4516611,16.3887516 C26.4516611,8.37412641 32.9484964,1.87729113 40.9631216,1.87729113" id="Fill-54" fill="#1D1D1B"></path>
                                        <path d="M21.9180031,24.4000915 L22.3873258,24.4000915 L22.2559155,27.8402275 L32.3510485,27.7088171 L30.2672554,28.9900683 C25.3459367,32.0336265 22.5116964,37.5500465 22.9035809,43.3231861 L23.6967364,49.9359441 L22.1667441,49.9359441 L16.211038,32.4302043 C15.1222092,29.2660301 16.8047313,25.8183849 19.9693749,24.7295561 C20.5963901,24.5136676 21.25485,24.4024381 21.9180031,24.4000915" id="Fill-56" fill="#1D1D1B"></path>
                                        <path d="M21.4111344,25.3660986 C21.0248818,25.405991 20.644261,25.4899998 20.274904,25.6171862 C18.9809811,26.0621042 17.9390845,26.9843235 17.3388207,28.2130106 C16.7390261,29.4426362 16.6536094,30.8318317 17.0989967,32.1248159 L22.53,48.0883611 L21.9715059,43.4350257 C21.9691592,43.4185994 21.9682206,43.4026424 21.9672819,43.3866854 C21.5711735,37.5530032 24.2542919,32.0046693 29.0132249,28.6907811 L22.2681178,28.7785445 C22.0113983,28.7818298 21.7631265,28.6799867 21.5838452,28.4955429 C21.4040946,28.311099 21.3078834,28.0614193 21.3177392,27.8042304 L21.4111344,25.3660986 Z M23.6967364,50.8747304 L22.1667441,50.8747304 C21.7650038,50.8747304 21.4078492,50.6189495 21.2783161,50.2387981 L15.3221407,32.7325889 C14.7153063,30.9684046 14.8316984,29.0695246 15.6520746,27.3898184 C16.4719815,25.7101122 17.8963761,24.4499805 19.6638457,23.8422075 C20.3894188,23.5920584 21.147375,23.4644026 21.9147178,23.4615867 L21.9180031,23.4615867 L22.3873258,23.4615867 C22.6426374,23.4615867 22.8866853,23.565307 23.06362,23.7492816 C23.2405547,23.9332561 23.3353579,24.1810585 23.3255021,24.4363701 L23.2316375,26.8885817 L32.3388461,26.7703123 C32.7668685,26.7637418 33.1352869,27.0420502 33.2526176,27.4475451 C33.3704176,27.85304 33.2028694,28.2871636 32.8428988,28.5082146 L30.7591056,29.7894658 C26.1297057,32.6523348 23.478032,37.8036216 23.8384719,43.2355635 L24.6283421,49.824386 C24.6607254,50.0909614 24.5771859,50.358006 24.3988433,50.5588762 C24.2205006,50.7597464 23.965189,50.8747304 23.6967364,50.8747304 L23.6967364,50.8747304 Z" id="Fill-58" fill="#1D1D1B"></path>
                                        <path d="M26.1466013,30.1352159 C20.4443295,30.1352159 15.8215001,25.5123865 15.8215001,19.8101147 C15.8215001,14.1078428 20.4443295,9.48501344 26.1466013,9.48501344 C31.8488731,9.48501344 36.4717025,14.1078428 36.4717025,19.8101147 C36.4717025,25.5123865 31.8488731,30.1352159 26.1466013,30.1352159" id="Fill-60" fill="#1D1D1B"></path>
                                        <path d="M26.1466013,8.5510611 C19.9257278,8.5510611 14.8828545,13.5939344 14.8828545,19.8148079 C14.8828545,26.0356814 19.9257278,31.0785547 26.1466013,31.0785547 C32.3674748,31.0785547 37.4103481,26.0356814 37.4103481,19.8148079 C37.4103481,13.5939344 32.3674748,8.5510611 26.1466013,8.5510611 M26.1466013,10.4283522 C31.3307408,10.4283522 35.533057,14.6306684 35.533057,19.8148079 C35.533057,24.9989473 31.3307408,29.2012635 26.1466013,29.2012635 C20.9624619,29.2012635 16.7601457,24.9989473 16.7601457,19.8148079 C16.7601457,14.6306684 20.9624619,10.4283522 26.1466013,10.4283522" id="Fill-62" fill="#1D1D1B"></path>
                                        <path d="M40.8550365,62.1595967 C39.3320841,62.1595967 37.8086624,61.6912126 36.5086382,60.753975 C35.9797115,60.3724156 35.8600342,59.6351095 36.2415936,59.1061827 C36.6222144,58.5777253 37.3599898,58.4571093 37.8893859,58.8391381 C39.663426,60.118512 42.0475857,60.1175733 43.8206872,58.8391381 C44.3486753,58.4585173 45.0873894,58.5777253 45.4684795,59.1061827 C45.8500389,59.6351095 45.7303616,60.3724156 45.2014348,60.753975 C43.9014107,61.6912126 42.3784583,62.1595967 40.8550365,62.1595967" id="Fill-64" fill="#000000"></path>
                                        <path d="M47.5101744,57.2198337 L34.2001803,57.2198337 C34.2001803,55.5964462 35.5147534,54.2799957 37.1381409,54.2771798 L44.5722138,54.2771798 C46.1956013,54.2799957 47.5101744,55.5964462 47.5101744,57.2198337" id="Fill-66" fill="#1D1D1B"></path>
                                        <path d="M35.8354416,56.0395807 L45.8751946,56.0395807 C45.5527699,55.6828954 45.0872017,55.4585591 44.570008,55.4576205 L37.1378124,55.4576205 C36.622496,55.4585591 36.1573971,55.6828954 35.8354416,56.0395807 M47.5103152,58.399805 L34.2003211,58.399805 C33.5484317,58.399805 33.0199743,57.8713475 33.0199743,57.2199275 C33.0199743,54.9498132 34.8667594,53.1002121 37.1359351,53.0969269 L44.5718852,53.0969269 C46.8438768,53.1002121 48.690662,54.9498132 48.690662,57.2199275 C48.690662,57.8713475 48.1622045,58.399805 47.5103152,58.399805" id="Fill-68" fill="#1D1D1B"></path>
                                        <path d="M40.3717749,41.8025802 C40.3717749,41.8025802 43.2862693,50.057968 43.2862693,52.8457453 L38.4287785,52.8457453" id="Fill-70" fill="#FFFFFF"></path>
                                        <path d="M43.2864101,54.2535259 L38.42845,54.2535259 C37.6507822,54.2535259 37.0204817,53.6232254 37.0204817,52.8455576 C37.0204817,52.0678897 37.6507822,51.4375892 38.42845,51.4375892 L41.7127709,51.4375892 C41.2105955,48.7230263 39.6970295,44.1199084 39.0442015,42.2717153 C38.7856047,41.5381638 39.16998,40.7337445 39.9030622,40.4751477 C40.638491,40.2165508 41.4405636,40.6009262 41.6996298,41.3340084 C42.0060976,42.2022555 44.6943785,49.9019651 44.6943785,52.8455576 C44.6943785,53.6232254 44.064078,54.2535259 43.2864101,54.2535259" id="Fill-72" fill="#EAA8C6"></path>
                                    </g>
                                </g>
                            </g>
                        </g>
                    </g>
                </g>
            </g>
        </g>
    </g>
</svg>