<?xml version="1.0" encoding="UTF-8"?>
<svg width="92px" height="108px" viewBox="0 0 92 108" version="1.1" xmlns="http://www.w3.org/2000/svg" xmlns:xlink="http://www.w3.org/1999/xlink" style="background: #DB3B34;">
    <title>GTX/Avatar/Character/2</title>
    <defs>
        <rect id="path-1" x="0" y="0" width="92" height="108"></rect>
        <polygon id="path-3" points="0 -6.66945984e-15 84 -6.66945984e-15 84 35.5144976 0 35.5144976"></polygon>
    </defs>
    <g id="GTX/Avatar/Character/2" stroke="none" stroke-width="1" fill="none" fill-rule="evenodd">
        <rect fill="#DB3B34" x="0" y="0" width="92" height="108"></rect>
        <mask id="mask-2" fill="white">
            <use xlink:href="#path-1"></use>
        </mask>
        <use id="Rectangle" fill="#EAA8C6" xlink:href="#path-1"></use>
        <g id="Group-66" mask="url(#mask-2)">
            <g transform="translate(4.000000, 5.000000)">
                <path d="M1.4079634,103.106643 C1.28204558,84.5215107 16.2440154,70.6342872 34.8291473,70.5075703 L48.7116777,70.4090128 C67.2968096,70.282296 82.465281,83.9630181 82.5919978,102.54815" id="Fill-1" fill="#DB3B34"></path>
                <g id="Group-5" stroke-width="1" fill="none" transform="translate(0.000000, 69.000110)">
                    <mask id="mask-4" fill="white">
                        <use xlink:href="#path-3"></use>
                    </mask>
                    <g id="Clip-4"></g>
                    <path d="M1.40876239,35.5144976 C0.635789854,35.5144976 0.00642970473,34.8902999 -7.13467637e-06,34.1163888 C-0.127796248,15.1750418 15.1659839,0.233252792 34.8192916,0.0994961608 L48.701822,0.000938643027 C48.7905237,0.000469321513 48.8801641,-6.66945984e-15 48.9688659,-6.66945984e-15 C58.3032015,-6.66945984e-15 67.017094,3.34391578 73.5350312,9.4328931 C80.2200468,15.6772158 83.9366039,24.2385789 83.9999929,33.5381847 C84.0055942,34.3158504 83.3795193,34.9503731 82.6018535,34.956005 L82.5919978,34.956005 C81.8190252,34.956005 81.1896651,34.3318073 81.1840332,33.5574268 C81.1258374,25.0392414 77.7265416,17.2015721 71.6126903,11.4903986 C65.6189852,5.89139296 57.5856089,2.81592908 48.9688659,2.81592908 C48.8862653,2.81592908 48.8041341,2.8163984 48.7215335,2.81686772 L34.8390031,2.91542524 C26.1298038,2.97455975 18.04621,6.16547672 12.077379,11.9005856 C6.04753622,17.6938904 2.75853106,25.5770838 2.81672693,34.0966773 C2.82188946,34.8748123 2.19581456,35.5088657 1.41861814,35.5144976 L1.40876239,35.5144976 Z" id="Fill-3" fill="#1D1D1B" mask="url(#mask-4)"></path>
                </g>
                <path d="M40.6862798,92.5140561 C34.9164412,92.5088936 30.2434068,87.8269422 30.2490336,82.0571035 C30.2490336,81.8285439 30.2570172,81.6004536 30.2720355,81.3723634 L31.0511092,69.8035881 C31.2055159,67.6447091 32.9931616,65.9668847 35.1576724,65.9504585 L46.5950377,65.9129127 C48.7567326,65.9157287 50.5537647,67.5780655 50.725067,69.7331898 L51.5698457,81.0673044 C51.9082265,85.343762 49.5780452,89.3864975 45.70802,91.2375016 L45.2386985,91.4674691 C43.8194703,92.1545558 42.2632001,92.5121788 40.6862798,92.5140561" id="Fill-6" fill="#FFFFFF"></path>
                <path d="M46.5997309,64.5049482 L46.5997309,64.5049482 L35.1529792,64.5424939 C32.2525722,64.564552 29.8557473,66.8116634 29.6478378,69.7050306 L28.8640709,81.2691126 C28.4186848,87.7936203 33.3465607,93.443782 39.8710684,93.8891681 C41.9290432,94.0294953 43.9879567,93.6301027 45.8441233,92.729944 L46.3134448,92.4999765 C50.7020703,90.400232 53.3495129,85.819654 52.9778103,80.9687469 L52.1283383,69.6393255 C51.9035333,66.7544062 49.5024845,64.525129 46.6091173,64.5143346 L46.5997309,64.5049482 Z M46.6091173,67.3208773 C48.0335081,67.3218159 49.2161983,68.4204976 49.3217957,69.8411338 L50.1665744,81.1705551 C50.4439434,84.866462 48.4338394,88.3558675 45.0979021,89.9703335 L44.6285805,90.200301 C40.1423362,92.3784222 34.7399763,90.5077066 32.5613858,86.0219316 C31.8742991,84.6064579 31.5687708,83.0361081 31.6753068,81.4662277 L32.4543805,69.8974524 C32.552938,68.4725923 33.7342203,67.3649935 35.1623656,67.358423 L46.5997309,67.3208773 L46.6091173,67.3208773 Z" id="Fill-8" fill="#000000"></path>
                <path d="M75.308229,24.8707464 C75.3339406,18.7709747 70.4116965,13.8046144 64.3119248,13.7759858 C64.3119248,13.7759858 68.8878096,12.1709062 68.7141606,8.33654948 C68.5405117,4.50219271 64.3870163,4.37078269 62.9133467,4.46934021 C62.4444945,4.49421425 61.9742344,4.49421425 61.5053822,4.46934021 C49.1669196,3.94370011 49.7723443,-0.364671381 40.0151501,0.0248654752 C32.726587,0.315844814 26.8319088,6.079113 26.8741477,13.4896997 L26.8741477,14.3767174 C25.4887106,13.8524852 24.0187956,13.5868492 22.5376169,13.5929504 L22.1809326,13.5929504 C14.7609594,13.8557705 9.40130776,20.7125578 10.7294876,27.9354159 L17.2436702,63.4630544 C17.2568112,67.5245628 20.5598961,70.8069975 24.6214044,70.7938565 C24.6228124,70.7938565 24.6246897,70.7938565 24.6260977,70.7938565 C25.2197894,70.787286 25.8106651,70.7103172 26.3860533,70.5638889 C28.2943146,73.3305392 31.4448699,74.9778578 34.8056813,74.966187 L45.3748018,74.928579 C48.8130512,74.9177846 52.0138239,73.1742552 53.888294,70.2916824 C59.7759324,68.5486223 63.1362744,62.3624955 61.3932143,56.4748571 C61.0689132,55.37993 60.5780029,54.3413215 59.9378483,53.396108 L64.250913,51.7253234 C69.9320499,51.6610263 74.4854073,47.0030103 74.4211102,41.3218734 C74.4211102,41.3199961 74.4211102,41.3176495 74.4211102,41.3157722 C74.4201716,38.4158346 73.2111994,35.6468377 71.0842343,33.675218 C73.7664067,31.5421517 75.3226768,28.2977321 75.308229,24.8707464" id="Fill-10" fill="#181D8B"></path>
                <path d="M19.5996642,60.4406239 C15.9483429,60.4406239 12.7616498,58.2770517 11.0673991,54.6538896 C9.81196408,51.9581069 9.81196408,48.8455666 11.0673991,46.1497838 C12.291859,43.4310043 14.9989054,41.6851282 17.980505,41.6912135 C20.4209769,41.6912135 22.9365402,42.7425096 25.4567967,44.8216039 C25.7792206,45.0877092 25.9664799,45.4833473 25.9683572,45.9010434 L26.0106014,57.6340812 C26.0120041,58.1498656 25.7308805,58.6252883 25.2784546,58.87309 C23.5480661,59.8666437 21.59475,60.4058941 19.5996642,60.4406239" id="Fill-12" fill="#FFFFFF"></path>
                <path d="M17.9664254,40.306731 L17.9664254,40.306731 C14.4375969,40.2903047 11.2283764,42.3487489 9.77207175,45.5631319 C8.34111046,48.6353105 8.34111046,52.1824425 9.77207175,55.2546212 C11.7056764,59.3846505 15.3710774,61.8251223 19.5808914,61.8251223 C21.8073526,61.7847607 23.9868817,61.1807439 25.9167318,60.0698599 C26.8253383,59.5841121 27.3955639,58.6407759 27.404481,57.6106152 L27.3622421,45.8775773 C27.3598955,45.0403077 26.9849076,44.2471544 26.3391212,43.7140051 C23.5607378,41.4237162 20.7448087,40.264492 17.9664254,40.264492 L17.9664254,40.306731 Z M17.9617322,43.099194 C19.8718707,43.099194 22.1105343,43.9017338 24.5322333,45.915123 L24.5744723,57.6481609 C23.0576252,58.5290774 21.343663,59.0134172 19.5902778,59.0561254 C16.3050272,59.0561254 13.7190657,57.0474293 12.3345672,54.0813174 C11.2527811,51.7623998 11.2527811,49.0835126 12.3345672,46.764595 C13.3163878,44.5353178 15.5301774,43.1034179 17.9664254,43.12266 L17.9617322,43.099194 Z" id="Fill-14" fill="#000000"></path>
                <path d="M16.6757912,48.7873707 C16.6757912,48.7873707 20.1112247,45.6241437 24.4665283,52.5043971" id="Fill-16" fill="#FFFFFF"></path>
                <path d="M24.4678424,53.9122208 C24.0013369,53.9122208 23.544687,53.6808453 23.2767044,53.257048 C21.4712246,50.4045118 20.010696,49.6376405 19.1034975,49.4963747 C18.2047468,49.3565169 17.631236,49.8230225 17.6073006,49.8432033 C17.0347283,50.3693127 16.1552198,50.3237885 15.6286411,49.7512163 C15.1020623,49.1791134 15.1499331,48.2784854 15.722036,47.7514373 C15.8726882,47.6134568 17.2510855,46.4124631 19.4174736,46.6964026 C21.6176529,46.9864433 23.7164587,48.6872644 25.6561645,51.7514646 C26.0719834,52.4080454 25.8767456,53.2776982 25.2196955,53.6939863 C24.9859734,53.8418226 24.7254999,53.9122208 24.4678424,53.9122208" id="Fill-18" fill="#000000"></path>
                <path d="M61.2848011,60.3186003 C59.3174053,60.2782386 57.3913098,59.747436 55.6811022,58.7745325 C55.2263296,58.530016 54.9419208,58.0564706 54.9395742,57.5402169 L54.9020142,45.8071791 C54.9001512,45.3890136 55.0841252,44.9919676 55.4042025,44.7230464 C57.8916065,42.6392589 60.4916477,41.5410328 62.9133467,41.5410328 C65.8742961,41.5354147 68.565855,43.2601712 69.7982933,45.9526688 C71.0696853,48.6414117 71.0851729,51.75536 69.8405322,54.4567746 C68.1650544,58.108096 64.9502021,60.3186003 61.2848011,60.3186003" id="Fill-20" fill="#FFFFFF"></path>
                <path d="M62.9133467,40.1002295 C60.1537362,40.1002295 57.248636,41.3157722 54.5031052,43.6107544 C53.8610734,44.1476582 53.4917173,44.9422196 53.4940528,45.7790198 L53.5316097,57.5120576 C53.5358335,58.544565 54.1051205,59.4921251 55.0146656,59.9806888 C56.9262122,61.0770239 59.0818059,61.6772861 61.2848011,61.7265648 C65.5321608,61.7265648 69.2069482,59.2344676 71.1405528,55.0575061 C72.5569652,51.978757 72.5396003,48.4311557 71.0936207,45.3660169 C69.6293376,42.1689987 66.4299728,40.1241649 62.9133467,40.1377752 L62.9133467,40.1002295 Z M62.9133467,42.9537043 C65.3388003,42.9339928 67.5474273,44.3475892 68.5452049,46.5580935 C69.637316,48.8718486 69.6513957,51.5497971 68.5827506,53.8748159 C67.2076386,56.864394 64.6169838,58.9012493 61.3035739,58.9012493 C59.5609831,58.8552558 57.857346,58.3742013 56.3475387,57.5026712 L56.309993,45.7696334 C58.7457717,43.732778 61.0032081,42.9161586 62.9133467,42.9161586 L62.9133467,42.9537043 Z" id="Fill-22" fill="#000000"></path>
                <path d="M64.1945944,48.6231082 C64.1945944,48.6231082 61.0313674,45.5819048 56.7276892,52.4856242" id="Fill-24" fill="#FFFFFF"></path>
                <path d="M56.7263751,53.893401 C56.4720028,53.893401 56.2148146,53.8248801 55.9829698,53.6803291 C55.3231037,53.2687341 55.1217648,52.4004893 55.5328905,51.7406233 C57.4988783,48.587252 59.5897056,46.8521704 61.7476459,46.5837185 C63.7737069,46.3331008 65.0333658,47.4768373 65.1704077,47.6082473 C65.7312469,48.1470284 65.7486118,49.03827 65.2093614,49.5991092 C64.6771508,50.1519699 63.8037435,50.175436 63.242435,49.660121 C63.1790765,49.6070877 62.7501167,49.274808 62.0376866,49.3860372 C61.3276032,49.4958585 59.8483018,50.1411755 57.9226756,53.2302497 C57.6556317,53.658271 57.1961659,53.893401 56.7263751,53.893401" id="Fill-26" fill="#000000"></path>
                <path d="M34.7681356,76.5712043 C28.6669559,76.5712043 23.5842039,72.1314228 23.1899738,66.4620189 L20.8058205,32.2015484 C20.7541952,31.42576 21.3408471,30.7546302 22.1166355,30.7030048 C22.1490187,30.7006582 22.1814019,30.6997196 22.2137851,30.6997196 L59.9472347,30.5635721 C60.7249005,30.5575152 61.3603618,31.1826514 61.3665021,31.9603172 C61.3669323,32.0236756 61.3631777,32.087034 61.3551993,32.1499231 L56.8825653,67.0017386 C56.1879694,72.4177089 51.2507071,76.5148857 45.3982678,76.5383518 L34.7681356,76.5712043 Z" id="Fill-28" fill="#FFFFFF"></path>
                <path d="M59.9378483,29.1509586 L59.9378483,29.1509586 L22.2137851,29.2870618 C21.434242,29.2884698 20.6898981,29.612771 20.1581568,30.1834659 C19.6329861,30.7565075 19.3682887,31.5205629 19.4260153,32.2954127 L21.8101686,66.5558832 C22.2513308,72.9574286 27.9535872,77.9744756 34.7869084,77.9744756 L34.8385338,77.9744756 L45.4076543,77.9369299 C51.9781554,77.9134638 57.5020697,73.2859537 58.2858366,67.1753876 L62.7584706,32.3188788 C62.9555856,30.776219 61.8648824,29.3659078 60.3222226,29.1687928 C60.1959751,29.1528359 60.0692583,29.1453267 59.9425415,29.1461872 L59.9378483,29.1509586 Z M59.9378483,31.9668877 L55.4699075,66.8187033 C54.8644828,71.5400777 50.5326452,75.1069212 45.3748018,75.125694 L34.8056813,75.1632398 L34.7634423,75.1632398 C29.389711,75.1632398 24.9358498,71.3148033 24.5932451,66.3634614 L22.2137851,32.1029909 L59.9378483,31.9668877 L59.9378483,31.9668877 Z" id="Fill-30" fill="#000000"></path>
                <path d="M32.2408861,47.1669913 L32.4051487,47.1665147 C33.1100696,47.1641753 33.6835805,47.7334623 33.6859271,48.4383832 L33.698606,51.9958403 C33.7009454,52.7007612 33.1316584,53.2742721 32.4262681,53.277088 L32.2620056,53.2775646 C31.5570847,53.279904 30.9835738,52.710617 30.9812272,52.0052267 L30.9690144,48.4477697 C30.9662089,47.7428487 31.5359652,47.1693379 32.2408861,47.1669913" id="Fill-32" fill="#181D8B"></path>
                <path d="M48.7935274,47.1045246 L48.9577899,47.104048 C49.6627108,47.1017086 50.2362217,47.6709956 50.2385683,48.3759165 L50.2512472,51.9333736 C50.2535866,52.6382945 49.6842996,53.2118054 48.9789094,53.2146213 L48.8146469,53.2150979 C48.1097259,53.2174373 47.5362151,52.6481503 47.5338684,51.94276 L47.5216557,48.385303 C47.5188502,47.6803821 48.0886065,47.1068712 48.7935274,47.1045246" id="Fill-34" fill="#181D8B"></path>
                <path d="M40.362448,45.9902145 L40.362448,52.4199192 C40.3586934,53.1727109 40.7322733,53.8776318 41.3574096,54.2972053 L43.3614125,55.6253852 C43.9447791,56.0167993 44.1001245,56.8071367 43.7087104,57.390034 C43.616254,57.5275453 43.4984543,57.645345 43.3614125,57.737332 L40.2122651,59.8398923" id="Fill-36" fill="#FFFFFF"></path>
                <path d="M40.2134853,61.2476692 C39.7587128,61.2476692 39.312388,61.0280267 39.0411202,60.6215943 C38.6093444,59.9748692 38.7834627,59.1005232 39.4301877,58.6687474 L42.4066248,56.6816402 L40.5795561,55.4707907 C39.5536193,54.7818267 38.9486639,53.6404367 38.9542957,52.413161 L38.9542957,45.9900268 C38.9542957,45.212361 39.5845945,44.5820622 40.3622603,44.5820622 C41.1403953,44.5820622 41.7702248,45.212361 41.7702248,45.9900268 L41.7702248,52.4197315 C41.7688168,52.7088335 41.907736,52.9707149 42.1423968,53.128407 L44.1388905,54.4518936 C44.7405607,54.8550408 45.1437078,55.4618735 45.2821577,56.1639785 C45.4201382,56.8660835 45.2765258,57.5803909 44.8776025,58.1745519 C44.6818955,58.4664699 44.4355017,58.7123943 44.1449917,58.9071628 L40.993967,61.0106618 C40.7536744,61.1711698 40.4819372,61.2476692 40.2134853,61.2476692" id="Fill-38" fill="#EAA8C6"></path>
                <path d="M45.3231764,64.0731724 C43.2675482,65.2793287 39.5786811,65.7486502 37.0631178,64.5424939" id="Fill-40" fill="#FFFFFF"></path>
                <path d="M40.5059196,66.6462276 C39.0895073,66.6462276 37.670279,66.3951406 36.454267,65.8122433 C35.7531006,65.4757397 35.4569587,64.6351849 35.7934623,63.9340186 C36.1299658,63.2319136 36.9719286,62.9381183 37.671687,63.2732139 C39.7235606,64.2569118 42.9158855,63.8537646 44.6106055,62.8592723 C45.2817353,62.4645729 46.1438789,62.6893779 46.5376397,63.3605077 C46.9309311,64.0311681 46.7065954,64.8942504 46.035935,65.2870725 C44.6350103,66.1093238 42.5746888,66.6462276 40.5059196,66.6462276" id="Fill-42" fill="#000000"></path>
                <path d="M33.8056979,78.6180562 C33.6250091,78.6180562 33.4419738,78.5833264 33.2655089,78.5096429 C32.5469776,78.2106851 32.2076582,77.3865566 32.5061467,76.668964 L34.557551,71.7410881 C34.8560395,71.0220875 35.6825147,70.6822987 36.3977606,70.9817259 C37.1162919,71.2806837 37.4556113,72.1048123 37.1571229,72.8224048 L35.1061878,77.7502807 C34.8809135,78.2918778 34.3571507,78.6180562 33.8056979,78.6180562" id="Fill-44" fill="#000000"></path>
                <path d="M38.0717835,78.6038358 C37.8915641,78.6038358 37.7085287,78.569106 37.5320638,78.4958918 C36.8135326,78.196934 36.4737438,77.3728054 36.771763,76.6552128 L38.8231673,71.7226437 C39.1221251,71.0050511 39.946723,70.6652624 40.6633769,70.9628122 C41.3819082,71.2613007 41.721697,72.0854293 41.4236778,72.8034912 L39.3722735,77.735591 C39.1469991,78.277188 38.6237056,78.6038358 38.0717835,78.6038358" id="Fill-46" fill="#000000"></path>
                <path d="M42.3332229,78.5896153 C42.1530034,78.5896153 41.969968,78.5548855 41.7935032,78.4816714 C41.0749719,78.1827136 40.7351831,77.358585 41.0332023,76.6409924 L43.0846066,71.7084233 C43.3830951,70.9908307 44.2081623,70.6505726 44.9248163,70.9485918 C45.6433475,71.2470803 45.9831363,72.0712088 45.6851171,72.7892707 L43.6337128,77.7213705 C43.4084385,78.2629676 42.885145,78.5896153 42.3332229,78.5896153" id="Fill-48" fill="#000000"></path>
                <path d="M46.5947092,78.5708425 C46.4140204,78.5708425 46.230985,78.5361127 46.0545201,78.4624292 C45.3359889,78.1634714 44.9966694,77.3393428 45.2951579,76.6217502 L47.3465622,71.6938743 C47.6445814,70.9748738 48.4719952,70.6360236 49.1867719,70.9345121 C49.9053031,71.2334699 50.2446226,72.0575985 49.9461341,72.7751911 L47.8951991,77.703067 C47.6699248,78.244664 47.1461619,78.5708425 46.5947092,78.5708425" id="Fill-50" fill="#000000"></path>
                <path d="M27.1510474,47.0368015 C28.0094364,44.9361184 30.0444145,43.5563131 32.313584,43.5356282 C34.1791371,43.5290925 35.9254824,44.4531865 36.9692535,45.9996009" id="Fill-52" fill="#FFFFFF"></path>
                <path d="M27.1504373,47.9760077 C27.0321683,47.9760077 26.9120219,47.9530109 26.7956302,47.9060788 C26.3159836,47.7099024 26.0855468,47.1617349 26.2817232,46.6816189 C27.2865405,44.2242515 29.650513,42.6210492 32.3049955,42.5971138 L32.3279922,42.5971138 C34.5079906,42.5971138 36.530297,43.6713908 37.7472477,45.474524 C38.0368191,45.9044225 37.9237126,46.4877892 37.4942834,46.7778299 C37.0634463,47.0674012 36.4810183,46.9542947 36.1909776,46.5248656 C35.3241407,45.2398633 33.8828544,44.4743999 32.3326854,44.4743999 L32.3167285,44.4743999 C30.4258321,44.4912954 28.7372133,45.6364399 28.02009,47.3921717 C27.8713151,47.7554266 27.5202626,47.9760077 27.1504373,47.9760077" id="Fill-54" fill="#1D1D1B"></path>
                <path d="M44.3282148,46.2389549 C45.4850923,44.2804762 47.7073297,43.2099538 49.9600729,43.5262765 C51.8049758,43.7956671 53.3973837,44.9605231 54.2121258,46.6378782" id="Fill-56" fill="#FFFFFF"></path>
                <path d="M54.2125013,47.5763813 C53.8647341,47.5768497 53.5301078,47.3820813 53.3677226,47.0479244 C52.688145,45.6493463 51.3637197,44.679728 49.8243452,44.454923 C47.9470591,44.192103 46.1040335,45.0791206 45.1362926,46.7161141 C44.8730032,47.1624388 44.2966764,47.3107444 43.8512903,47.0469857 C43.4049655,46.7836964 43.2561906,46.2083082 43.5204186,45.7619834 C44.8744112,43.4684092 47.4505169,42.2242379 50.0909198,42.5968792 C52.2502681,42.9122632 54.1050267,44.2690717 55.0563414,46.2275504 C55.2825544,46.6935866 55.0882553,47.2553645 54.622219,47.4820468 C54.4903396,47.5463438 54.3504818,47.5763813 54.2125013,47.5763813" id="Fill-58" fill="#1D1D1B"></path>
                <path d="M14.512219,30.3993538 C14.4657562,30.3115907 14.4460447,30.2120945 14.4559005,30.1130677 C15.1176438,24.1104455 18.5577705,18.797726 24.4759148,19.4031508 C26.9215492,19.6500139 29.2071449,20.7322693 30.9478584,22.4678202 C31.1337098,22.6480397 31.4312596,22.6438158 31.6114791,22.4574952 C31.6424543,22.4255813 31.6687363,22.3899129 31.6893864,22.3504899 C34.3706202,17.0260373 40.8603981,14.8831153 46.18532,17.5638797 C48.2799019,18.6189145 49.9741526,20.3272448 51.0113531,22.4302745 C51.1258676,22.6625887 51.4074605,22.7583303 51.6397746,22.6438158 C51.7021944,22.6133099 51.7566357,22.5691937 51.7998133,22.5147524 C54.0844704,19.6279558 57.6827584,18.1050075 61.3458129,18.4738942 C67.3625147,19.1295363 71.7084319,24.5384668 71.0527897,30.5551686 C71.0523204,30.5593925 71.0518511,30.5640857 71.0513817,30.5683096 C70.4271841,36.6319435 65.0863053,41.7850937 59.1212289,41.1749758 C55.305645,40.7854389 52.1564976,37.7019966 50.5467248,34.4730646 C50.4322104,34.2407504 50.1506175,34.1450088 49.9183033,34.2595233 C49.8558836,34.2900292 49.8014423,34.3341454 49.7582647,34.3885867 C46.0961489,39.0564585 39.3430817,39.8716699 34.6752099,36.2095542 C34.3128937,35.9251453 33.9693503,35.618209 33.6464571,35.289684 C33.4615445,35.1080566 33.1644639,35.1108725 32.9828365,35.2957852 C32.964533,35.3140887 32.9481067,35.3342695 32.9330884,35.355389 L29.2066756,40.7197339 C27.5053851,43.176632 24.1342487,43.7890966 21.6773506,42.0878061 C20.9973037,41.6170766 20.4341179,40.9961643 20.03144,40.2738785 L14.512219,30.3993538 Z" id="Fill-60" fill="#181D8B"></path>
                <path d="M51.9734622,31.3379968 C50.5917797,35.8941701 46.4091864,39.0236059 41.6483889,39.063029" id="Fill-62" fill="#181D8B"></path>
                <path d="M41.6485297,39.7670112 C41.2622781,39.7670112 40.9478327,39.4558511 40.9445218,39.0691301 C40.9412622,38.6800626 41.2538303,38.3623319 41.6424286,38.3590467 C46.1192865,38.3219703 50.0005754,35.4182781 51.2996573,31.1333727 C51.4127638,30.76167 51.8065246,30.5518833 52.1782272,30.6640512 C52.5503992,30.7771576 52.7601859,31.1704491 52.6475487,31.542621 C51.167778,36.4193409 46.7505239,39.7247723 41.6546309,39.7670112 L41.6485297,39.7670112 Z" id="Fill-64" fill="#FFFFFF"></path>
            </g>
        </g>
    </g>
</svg>