<?xml version="1.0" encoding="UTF-8"?>
<svg width="92px" height="108px" viewBox="0 0 92 108" version="1.1" xmlns="http://www.w3.org/2000/svg" xmlns:xlink="http://www.w3.org/1999/xlink" style="background: #7fc7cf;">
    <title>GTX/Avatar/Character/3</title>
    <defs>
        <rect id="path-1" x="0" y="0" width="92" height="108"></rect>
    </defs>
    <g id="GTX/Avatar/Character/3" stroke="none" stroke-width="1" fill="none" fill-rule="evenodd">
        <rect fill="#7fc7cf" x="0" y="0" width="92" height="108"></rect>
        <mask id="mask-2" fill="white">
            <use xlink:href="#path-1"></use>
        </mask>
        <use id="Rectangle" fill="#7FC7D0" xlink:href="#path-1"></use>
        <g id="Group-41" mask="url(#mask-2)">
            <g transform="translate(4.000000, 16.000000)">
                <path d="M1.40793648,92.8135988 C1.30057153,74.2283139 16.2767443,60.3550557 34.8620292,60.2424177 L48.7399806,60.1626323 C67.3252656,60.0499942 82.479782,73.7449087 82.5924201,92.3301937" id="Fill-1" fill="#FFFFFF"></path>
                <path d="M1.4085633,94.2216688 C0.634645753,94.2216688 0.00528042235,93.5965274 -2.88870508e-15,92.8221405 C-0.10923497,73.8825149 15.1996895,58.953744 34.8536283,58.8345354 L48.7315797,58.7547501 C58.1471854,58.6885752 66.981297,62.0536381 73.5556069,68.2064938 C80.2345763,74.4574385 83.9436548,83.021688 84,92.3213704 C84.0046671,93.0990425 83.3781177,93.7335704 82.6009149,93.7382637 L82.5919977,93.7382637 C81.8185495,93.7382637 81.1887148,93.1135916 81.1840215,92.3387354 C81.1328651,83.8195412 77.7405813,75.9794607 71.6313728,70.2626083 C65.6366798,64.6522928 57.5957281,61.5697637 48.968589,61.5697637 C48.8953743,61.5697637 48.8216902,61.570233 48.7484754,61.5707023 L34.870524,61.6504876 C26.1607837,61.7030521 18.0743074,64.8874248 12.0997954,70.616949 C6.06380171,76.4056082 2.76726027,84.2855813 2.81653943,92.8052448 C2.82123268,93.5833863 2.19421398,94.2169756 1.41701116,94.2216688 L1.4085633,94.2216688 Z" id="Fill-3" fill="#181D8B"></path>
                <path d="M45.5814208,1.4077884 L36.3028581,1.4077884 C23.8277203,1.4077884 13.7142276,11.5212809 13.7142276,23.9964188 L13.7142276,77.818653 C13.7142276,79.4364176 14.780535,80.8608201 16.3330634,81.3151271 L26.1888963,84.1920916 C28.189161,84.1869291 29.8111495,82.5691645 29.8214747,80.5688997 L29.8214747,59.4492578 L52.2176817,59.4492578 L52.2176817,80.5688997 C52.2176817,82.5804283 53.848118,84.2108647 55.8596466,84.2108647 L65.5652954,81.3385933 C67.1135998,80.8824091 68.1761525,79.4608225 68.1747459,77.8468125 L68.1747459,23.9964188 C68.1747459,11.5212809 58.0612519,1.4077884 45.5861141,1.4077884 L45.5814208,1.4077884 Z" id="Fill-5" fill="#FFFFFF"></path>
                <path d="M29.8215216,58.0414694 L52.2177286,58.0414694 C52.9954008,58.0414694 53.6257047,58.6717733 53.6257047,59.4494455 L53.6257047,80.5690875 C53.6257047,81.7400543 54.5315027,82.7040486 55.6799419,82.795567 L65.1659464,79.988532 C66.1097598,79.7106913 66.7677539,78.8302369 66.7668163,77.8479389 L66.7668163,23.9966065 C66.7668163,12.3174445 57.265323,2.81595226 45.586161,2.81595226 L36.3029051,2.81595226 C24.6237431,2.81595226 15.1222506,12.3174445 15.1222506,23.9966065 L15.1222506,77.8188407 C15.1222506,78.8048934 15.7825916,79.6867557 16.7287516,79.964127 L26.3644709,82.7763247 C27.5039929,82.6824596 28.4074443,81.7240972 28.4135455,80.5615783 L28.4135455,59.4494455 C28.4135455,58.6717733 29.0438495,58.0414694 29.8215216,58.0414694 M55.8596935,85.6190285 C53.0751861,85.6190285 50.8097525,83.3535949 50.8097525,80.5690875 L50.8097525,60.8574216 L31.2294977,60.8574216 L31.2294977,80.5690875 C31.2149487,83.3395152 28.955147,85.5932156 26.1926978,85.6002555 C26.0641027,85.5866451 25.9237744,85.5819518 25.7942406,85.5439365 L15.9384076,82.6669719 C13.7982839,82.0404225 12.3062984,80.0467283 12.3062984,77.8183714 L12.3062984,23.9966065 C12.3062984,10.7649162 23.0707454,0 36.3029051,0 L45.586161,0 C58.8178514,0 69.5827693,10.7649162 69.5827693,23.9966065 L69.5827693,77.8465309 C69.5846449,80.0692559 68.0964141,82.0610728 65.9633302,82.6894995 L56.2590894,85.5613015 C56.1295556,85.5993168 55.9948592,85.6190285 55.8596935,85.6190285" id="Fill-7" fill="#181D8B"></path>
                <path d="M40.7051302,82.2537796 C34.9432225,82.2570631 30.2692111,77.5886836 30.2659258,71.8267759 C30.2659258,71.5850734 30.2743737,71.3433708 30.2908001,71.1026069 L31.0839599,59.5384296 C31.238368,57.3804715 33.026967,55.7040413 35.190557,55.6899615 L46.6280164,55.661802 C48.7906678,55.6674339 50.5872453,57.3311923 50.7580798,59.4868038 L51.5934789,70.8163184 C51.9234147,75.0932806 49.5908675,79.1332334 45.7222185,80.9865993 L45.2528931,81.2165687 C43.8341225,81.8994372 42.2797168,82.2542472 40.7051302,82.2537796" id="Fill-9" fill="#FFFFFF"></path>
                <path d="M46.6327097,54.2585191 L46.6327097,54.2585191 L35.190557,54.2866786 C32.2863716,54.3035743 29.8843643,56.5525815 29.6759838,59.4492578 L28.8875172,71.0134351 C28.4421274,77.5403431 33.3723905,83.1928979 39.8997678,83.6378184 C41.9502504,83.7776773 44.0021409,83.3815667 45.8536296,82.4884405 L46.3229549,82.2584711 C50.7214724,80.1605866 53.3740994,75.5715231 52.9967618,70.7130668 L52.1613626,59.3835522 C51.9389024,56.4953238 49.5345485,54.2622737 46.6374029,54.2538258 L46.6327097,54.2585191 Z M46.6374029,57.0697781 C48.0627441,57.0707168 49.246852,58.1689381 49.3547969,59.5900554 L50.190196,70.9242632 C50.4591195,74.6206699 48.444775,78.1068188 45.1074022,79.7194208 L44.6380768,79.9493902 C42.0727443,81.1865319 39.0737552,81.1410074 36.5469073,79.8273656 C33.3432923,78.176279 31.4284448,74.7778939 31.6753099,71.1823922 L32.4684698,59.6182149 C32.5792306,58.1952204 33.7680318,57.098407 35.1952503,57.1026309 L46.6327097,57.0744714 L46.6374029,57.0697781 Z" id="Fill-11" fill="#000000"></path>
                <path d="M34.8010169,66.3061015 C28.699787,66.3061015 23.6122999,61.8615902 23.2227599,56.1874464 L20.8808263,21.9032276 C20.8292005,21.1274328 21.4158572,20.4562975 22.191652,20.4046717 C22.2240355,20.4023251 22.2564189,20.4013864 22.2888024,20.4013864 L60.0178694,20.3028128 C60.4210199,20.3009508 60.8053974,20.4717852 61.0738515,20.7721535 C61.3432443,21.0762763 61.4680849,21.4817734 61.4164591,21.8844546 L56.9156287,56.7318638 C56.2116406,62.1478787 51.2837242,66.240396 45.417157,66.2544757 L34.8010169,66.3061015 Z" id="Fill-13" fill="#FFFFFF"></path>
                <path d="M60.0131762,18.913625 L60.0131762,18.913625 L22.2888024,19.0121833 C20.7334581,19.0084287 19.4700342,20.2662207 19.4662796,21.821565 C19.4662796,21.8877399 19.4681569,21.9543841 19.4728501,22.020559 L19.9093227,28.3799178 L21.819477,56.2860047 C22.2559496,62.6922961 27.9582529,67.7140777 34.8010169,67.7140777 L34.838563,67.7140777 L45.4077705,67.6859181 C51.9783257,67.6859181 57.5069787,63.0489834 58.2954453,56.938367 L62.7962757,22.0909578 C62.995739,20.5487546 61.9073734,19.1365545 60.3651702,18.9370912 C60.2450229,18.9216035 60.1244063,18.913625 60.0037897,18.913625 L60.0131762,18.913625 Z M60.0037897,21.7295772 L55.5029593,56.5769865 C54.8928363,61.2983997 50.5562698,64.8558861 45.3983839,64.8699659 L34.8291765,64.8981254 L34.8010169,64.8981254 C29.4225481,64.8981254 24.9686503,61.044964 24.6260428,56.0935813 L22.7158885,28.1874944 L22.2888024,21.8281356 L60.0131762,21.7295772 L60.0037897,21.7295772 Z" id="Fill-15" fill="#000000"></path>
                <path d="M32.8063841,35.4667271 L31.9522119,35.4667271 C31.4584816,35.465323 31.0482912,35.8468846 31.0135611,36.3396762 L31.0135611,39.9018558 C31.0187237,40.6049052 31.59177,41.1718503 32.2948194,41.1690448 L32.4637766,41.1690448 C33.1658873,41.1638718 33.7333017,40.5945801 33.7356483,39.8924693 L33.7356483,36.334983 C33.6990409,35.8478232 33.2949518,35.4700163 32.8063841,35.4667271" id="Fill-17" fill="#181D8B"></path>
                <path d="M49.3641834,35.466731 L48.5100112,35.466731 C48.0162809,35.465323 47.6060905,35.8468846 47.5713604,36.3396762 L47.5713604,39.9018558 C47.576523,40.6049052 48.1495693,41.1718503 48.8526187,41.1690448 L49.0403489,41.1690448 C49.7424596,41.1638718 50.309874,40.5945801 50.3122206,39.8924693 L50.3122206,36.334983 C50.2751439,35.8407833 49.859791,35.4601604 49.3641834,35.466731" id="Fill-19" fill="#181D8B"></path>
                <path d="M40.8552674,57.6967968 C39.3323065,57.6967968 37.8088763,57.2279408 36.508845,56.290698 C35.9799153,55.9091364 35.8602374,55.171357 36.2417989,54.6428966 C36.6228911,54.1139669 37.3616093,53.9952276 37.8896003,54.3758504 C39.6645889,55.6557007 42.0478231,55.6552314 43.8209344,54.3758504 C44.3489255,53.9952276 45.0871743,54.1139669 45.4687358,54.6428966 C45.8502974,55.171357 45.7306194,55.9091364 45.2016897,56.290698 C43.9021277,57.2279408 42.3786975,57.6967968 40.8552674,57.6967968" id="Fill-21" fill="#1D1D1B"></path>
                <path d="M38.4274941,49.4244677 C37.6972238,49.4244677 37.080061,48.8608079 37.0246806,48.1211511 C36.9674229,47.3453563 37.548917,46.6699971 38.3242425,46.6122701 L41.0815291,46.4071749 C39.6918567,42.6460013 39.3652062,36.7423574 39.3271909,35.9473202 C39.2896448,35.171056 39.888504,34.5111845 40.6652375,34.4736385 C41.4537042,34.4243593 42.1018425,35.035421 42.1393885,35.8112158 C42.3013058,39.1382634 43.057389,45.0611497 44.3991902,46.792491 C44.7164542,47.2022121 44.7835677,47.7532 44.5728406,48.2272187 C44.3621135,48.700768 43.9078065,49.0208479 43.39061,49.0593326 L38.5335617,49.4207131 C38.4978929,49.4230597 38.4622242,49.4244677 38.4274941,49.4244677" id="Fill-23" fill="#EAA8C6"></path>
                <path d="M45.9037066,33.223121 C45.1692124,33.223121 44.5501722,32.6528907 44.5004237,31.90901 C44.4478593,31.1336845 45.0349853,30.4620798 45.8112495,30.4104541 L54.0056706,29.8613434 C54.7734869,29.805963 55.4521314,30.3963743 55.5042265,31.1721691 C55.5563216,31.9474947 54.9691956,32.6190993 54.1934007,32.6707251 L45.9989796,33.2198358 C45.9675348,33.2221824 45.9351514,33.223121 45.9037066,33.223121" id="Fill-25" fill="#000000"></path>
                <path d="M36.4823751,33.223121 C36.4509303,33.223121 36.4190162,33.2221824 36.387102,33.2198358 L28.192681,32.6707251 C27.4168861,32.6190993 26.8297601,31.9474947 26.8818552,31.1721691 C26.933481,30.3963743 27.5971071,29.805963 28.3804111,29.8613434 L36.5748322,30.4104541 C37.3510964,30.4620798 37.9382224,31.1336845 37.885658,31.90901 C37.8359095,32.6528907 37.2168693,33.223121 36.4823751,33.223121" id="Fill-27" fill="#000000"></path>
                <path d="M47.9927677,60.7657154 C47.8801296,61.2167371 47.7013166,61.6405379 47.4643073,62.0258541 L34.3053624,62.0258541 C33.227322,60.1814054 33.5703989,57.766257 35.2346267,56.306655 C35.7917159,55.817618 36.4675444,55.4693786 37.1893668,55.2990135 C39.6336134,54.7212739 42.2125564,54.737231 44.6483551,55.34313 L44.9276037,55.4130595 L44.9858,55.4130595 C47.2296446,56.111885 48.5690993,58.4575732 47.9927677,60.7657154 M45.872825,50.7892659 L45.593107,50.7198058 L45.4940794,50.7198058 C42.4199982,50.0017379 39.1825917,50.0050232 36.1103878,50.7310696 C34.6446847,51.0774317 33.2714386,51.7856437 32.1398951,52.7782669 C28.3073841,56.1405139 27.9244146,61.9934706 31.2861923,65.8259817 L31.9887723,66.6214882 L49.1698357,66.6214882 C49.7212931,66.4722427 50.2154927,66.1540401 50.5806278,65.6931626 L50.8382875,65.373552 C51.6535056,64.3438521 52.2279599,63.1761706 52.5461625,61.9028908 C53.7701631,56.99891 50.7768058,52.0137358 45.872825,50.7892659" id="Fill-29" fill="#000000"></path>
                <path d="M34.0532408,65.0822417 C31.1054081,65.0822417 27.5418205,64.965849 24.702402,62.1320624 C21.8066644,59.2419567 20.4582926,54.2999605 20.4582926,46.5804967 C20.4582926,45.28422 21.5086428,44.2338698 22.8049195,44.2338698 C24.1011962,44.2338698 25.1515464,45.28422 25.1515464,46.5804967 C25.1515464,52.7967113 26.11601,56.9117562 28.0181858,58.8101774 C29.6077908,60.3974358 31.9553564,60.3964972 34.4404342,60.3885186 L34.8290357,60.3880493 L45.8168814,60.3401781 C50.6485861,60.3392395 55.2118368,60.3378315 55.2118368,46.5617237 C55.2118368,45.265447 56.262187,44.2150968 57.5584637,44.2150968 C58.8547404,44.2150968 59.9050905,45.265447 59.9050905,46.5617237 C59.9050905,54.4341876 58.3506849,59.6253956 55.1522325,62.4329 C52.191728,65.0320239 48.5084624,65.0329626 45.8187587,65.0334319 L45.4048137,65.0339012 L34.4493514,65.0817724 C34.3184096,65.0822417 34.1865292,65.0822417 34.0532408,65.0822417" id="Fill-31" fill="#000000"></path>
                <path d="M21.763158,13.5680089 C20.0172676,16.2572433 18.9472057,23.0671545 18.7923283,26.4744568 L63.2937606,26.4744568 C63.1201102,23.0671545 62.0688213,16.2713231 60.3041579,13.5680089 L21.763158,13.5680089 Z" id="Fill-33" fill="#FFFFFF"></path>
                <path d="M14.0943813,14.2250644 L67.7945909,14.2250644 C68.5229839,14.2250644 69.1133952,14.8154758 69.1133952,15.5438688 L69.1133952,15.5438688 C69.1133952,16.2722617 68.5229839,16.8626731 67.7945909,16.8626731 L14.0943813,16.8626731 C13.3659883,16.8626731 12.775577,16.2722617 12.775577,15.5438688 L12.775577,15.5438688 C12.775577,14.8154758 13.3659883,14.2250644 14.0943813,14.2250644" id="Fill-35" fill="#000000"></path>
                <path d="M14.0945221,14.4010615 C13.4642181,14.4010615 12.9512455,14.9135648 12.9512455,15.5438688 C12.9512455,16.1737034 13.4642181,16.686676 14.0945221,16.686676 L67.7947317,16.686676 C68.4250357,16.686676 68.9370697,16.1737034 68.9370697,15.5438688 C68.9370697,14.9135648 68.4250357,14.4010615 67.7947317,14.4010615 L14.0945221,14.4010615 Z M67.7947317,17.0386701 L14.0945221,17.0386701 C13.2699174,17.0386701 12.5992515,16.3680041 12.5992515,15.5438688 C12.5992515,14.7197334 13.2699174,14.0490674 14.0945221,14.0490674 L67.7947317,14.0490674 C68.6188671,14.0490674 69.2890637,14.7197334 69.2890637,15.5438688 C69.2890637,16.3680041 68.6188671,17.0386701 67.7947317,17.0386701 L67.7947317,17.0386701 Z" id="Fill-37" fill="#000000"></path>
                <path d="M61.4587922,27.8212798 L20.4303678,27.8212798 C19.6526956,27.8212798 19.0223916,27.1909758 19.0223916,26.4133037 C19.0223916,25.6356315 19.6526956,25.0053276 20.4303678,25.0053276 L61.4587922,25.0053276 C62.2364644,25.0053276 62.8667683,25.6356315 62.8667683,26.4133037 C62.8667683,27.1909758 62.2364644,27.8212798 61.4587922,27.8212798" id="Fill-39" fill="#000000"></path>
            </g>
        </g>
    </g>
</svg>