<?xml version="1.0" encoding="UTF-8"?>
<svg width="92px" height="108px" viewBox="0 0 92 108" version="1.1" xmlns="http://www.w3.org/2000/svg" xmlns:xlink="http://www.w3.org/1999/xlink" style="background: #e9a9c6;">
    <title>GTX/Avatar/Character/4</title>
    <defs>
        <rect id="path-1" x="0" y="0" width="92" height="108"></rect>
        <polygon id="path-3" points="0 0 86 0 86 32.9373841 0 32.9373841"></polygon>
    </defs>
    <g id="GTX/Avatar/Character/4" stroke="none" stroke-width="1" fill="none" fill-rule="evenodd">
        <rect fill="#e9a9c6" x="0" y="0" width="92" height="108"></rect>
        <mask id="mask-2" fill="white">
            <use xlink:href="#path-1"></use>
        </mask>
        <use id="Rectangle" fill="#EAA8C6" xlink:href="#path-1"></use>
        <g id="Group-46" mask="url(#mask-2)">
            <g transform="translate(3.000000, 18.000000)">
                <path d="M84.555529,90.6570578 C83.672818,72.3649784 68.4618087,59.0555256 49.9090049,59.1632789 L35.679801,59.2498663 C17.2948806,59.3566575 2.36047003,72.6247407 1.44456725,90.6570578 L84.555529,90.6570578 Z" id="Fill-1" fill="#1D1D1B"></path>
                <g id="Group-5" stroke-width="1" fill="none" transform="translate(0.000000, 57.719674)">
                    <mask id="mask-4" fill="white">
                        <use xlink:href="#path-3"></use>
                    </mask>
                    <g id="Clip-4"></g>
                    <path d="M2.89240559,32.9373841 C3.31908929,24.9698958 6.63057812,17.6532564 12.3501601,12.1664985 C18.4752599,6.29009704 26.7636028,3.02526922 35.6883635,2.97331675 L49.9170864,2.8867293 C49.9897236,2.88624826 50.0609177,2.88624826 50.134036,2.88624826 C58.9799059,2.88624826 67.2254361,6.0466901 73.3707397,11.7975398 C79.2750416,17.322781 82.6990941,24.7832517 83.1132707,32.9373841 L86,32.9373841 C85.5824561,23.9755832 81.8356248,15.7656501 75.3430094,9.69009748 C68.6599015,3.43607855 59.7163802,0 50.133555,0 C50.0561073,0 49.9772165,0 49.8997689,0.000481041376 L35.671046,0.0870684891 C26.0045196,0.14335033 17.0128941,3.69343569 10.3519142,10.0835893 C4.05989301,16.1206586 0.429473741,24.1747344 -9.62082753e-05,32.9373841 L2.89240559,32.9373841 Z" id="Fill-3" fill="#181D8B" mask="url(#mask-4)"></path>
                </g>
                <path d="M42.1159903,72.0888606 L42.1159903,72.0888606 C56.1431568,72.0888606 68.0633621,60.9094591 68.0633621,45.6075329 L68.7801137,25.4951929 C68.7801137,12.2117164 58.0115215,1.44312413 44.7280449,1.44312413 L39.7252146,1.44312413 C27.5115741,1.44312413 15.4566772,12.300228 15.4566772,25.7020407 L16.1734288,45.6075329 C16.1734288,60.9094591 27.9829946,72.0888606 42.1159903,72.0888606" id="Fill-6" fill="#FFFFFF"></path>
                <path d="M16.8997051,25.6760645 L17.6154947,45.5550994 C17.6159757,45.5724169 17.6164568,45.5897344 17.6164568,45.6075329 C17.6164568,59.6476875 28.3778334,70.6457365 42.1158941,70.6457365 C55.8563599,70.6457365 66.6201418,59.6476875 66.6201418,45.6075329 C66.6201418,45.5902154 66.6206228,45.5728979 66.6211038,45.5560615 L67.3373745,25.4696977 C67.3234243,13.0150555 57.1864393,2.88624826 44.7284298,2.88624826 L39.7251184,2.88624826 C34.1440764,2.88624826 28.4167977,5.32753324 24.013826,9.58474942 C19.432869,14.0132163 16.9069207,19.7270258 16.8997051,25.6760645 M42.1158941,73.5319848 C26.7682689,73.5319848 14.7436777,61.280342 14.7302085,45.6335091 L14.0144189,25.7539932 C14.0134569,25.7366757 14.0134569,25.7193582 14.0134569,25.7020407 C14.0134569,18.9539923 16.8525631,12.4931256 22.0078835,7.50905588 C26.9443301,2.73664439 33.4023106,0 39.7251184,0 L44.7284298,0 C58.7863829,0 70.2236227,11.4367587 70.2236227,25.4951929 C70.2236227,25.5120294 70.2236227,25.5293469 70.2226606,25.5461833 L69.50639,45.6335091 C69.4934019,61.2798609 57.4668865,73.5319848 42.1158941,73.5319848" id="Fill-8" fill="#181D8B"></path>
                <path d="M35.8654348,90.6570578 L34.4963911,61.8426793 L26.6698479,64.4884069 C20.0252233,66.7348701 15.5525006,72.9686853 15.5529817,79.9827496 L15.2249115,90.6570578 L35.8654348,90.6570578 Z" id="Fill-10" fill="#FFFFFF"></path>
                <path d="M16.6680837,90.6570578 L16.9961539,79.9827496 C16.9956729,73.5829752 21.0691312,67.9052438 27.1321767,65.8550455 L33.145675,63.8226456 L34.4209157,90.6570578 L37.3105312,90.6570578 L35.9381202,61.7738904 C35.9164733,61.3217115 35.6836493,60.9056107 35.3093991,60.6501778 C34.93563,60.3952258 34.4627663,60.3298042 34.0341584,60.4755597 L26.2076152,63.1212873 C18.9708288,65.5683448 14.1094246,72.3442936 14.1103867,79.9384938 L13.7808733,90.6570578 L16.6680837,90.6570578 Z" id="Fill-12" fill="#181D8B"></path>
                <path d="M55.5274238,56.1760119 L57.0330833,55.5458477 L61.4346119,64.5846152 C62.3283868,66.3991032 61.9190206,68.5849553 60.4292355,69.9530369 C49.7597377,79.6027269 34.2702054,80.5792409 20.7529427,71.569336 C19.4671191,70.7087529 18.9644309,69.0616673 19.5503393,67.6296071 L24.8417944,56.8639011 C36.1703189,60.8132508 44.4201785,60.8421133 55.5274238,56.1760119" id="Fill-14" fill="#FFFFFF"></path>
                <path d="M20.8701725,68.2153712 L25.5776434,58.6378374 C36.908092,62.3740857 45.2964915,62.0383189 56.0843254,57.5073901 L56.3325428,57.4034852 L60.1399853,65.2223317 C60.7465785,66.4533166 60.4642072,67.9618624 59.4612359,68.8830566 C49.115479,78.2388303 34.2354261,78.8208904 21.5556565,70.3704365 C20.8547792,69.9009402 20.5704837,69.0004307 20.8701725,68.2153712 M19.9523456,72.770352 C26.4300488,77.0876983 33.4445941,79.2307376 40.2412277,79.2302567 C47.9441433,79.2297756 55.3675738,76.4767758 61.4056051,71.0159941 C63.3538227,69.2265201 63.8983616,66.3195871 62.7318362,63.9528635 L58.3303076,54.9140961 C57.9950218,54.2257259 57.1791756,53.9178594 56.4758931,54.2146619 L54.9702336,54.8448261 C54.9692715,54.8453072 54.9687905,54.8453072 54.9683094,54.8457882 C44.4099323,59.2809897 36.6502538,59.4527215 25.316438,55.5009666 C24.6290298,55.261889 23.8680224,55.5721607 23.5462057,56.227339 L18.2547506,66.993045 C18.2403193,67.0228696 18.2268502,67.0526942 18.2143431,67.0829998 C17.3725207,69.1408948 18.1027415,71.5316704 19.9523456,72.770352" id="Fill-16" fill="#181D8B"></path>
                <path d="M56.8887709,54.1845006 C57.273604,52.5200975 57.4467789,50.759486 57.6872996,48.9315288 L60.2704918,28.9153971 C60.6745666,25.8030594 54.8539659,22.7099634 52.2707737,20.9301103 C46.8782999,17.2020396 48.5282718,12.7524069 35.8095378,20.1556337 C32.5240252,22.0797992 23.1870121,25.7260928 23.4467744,29.5263197 L23.8989533,36.1598803 L24.6830508,47.5846129 C24.9861069,52.0053832 25.115988,55.8344725 28.1754112,59.3172121 C31.126119,62.7734944 35.3179135,64.931446 39.845475,65.3254189 C40.1437206,65.3254189 40.4371559,65.3590918 40.7354015,65.3687126 C45.6511633,65.4341342 50.3846105,63.5080446 53.8582103,60.0291533 C55.401391,58.4070818 56.4524664,56.3804545 56.8887709,54.1845006" id="Fill-18" fill="#FFFFFF"></path>
                <path d="M39.9145525,63.8826796 C40.0959051,63.8850848 40.2762956,63.8961488 40.4566861,63.9081748 C40.5644394,63.9149094 40.6721927,63.922606 40.780908,63.9264544 C45.2416047,63.9788879 49.6580456,62.1932623 52.836767,59.0097305 C54.1702137,57.6074948 55.0899648,55.8334143 55.4733548,53.9034763 C55.476241,53.889045 55.4791273,53.8736517 55.4824946,53.8592204 C55.7706384,52.6138043 55.9361166,51.2885353 56.1112156,49.8858187 C56.1583577,49.5082012 56.2059808,49.1272164 56.2564901,48.7428644 L58.8392013,28.7310621 C59.0614424,27.021441 55.0793819,24.4671113 52.9406719,23.0942192 C52.3860312,22.7382486 51.8766084,22.4106594 51.4518489,22.1186673 C50.0900207,21.1767883 49.1337105,20.1887293 48.3650064,19.395011 C46.2291827,17.1875122 45.3445476,16.2749767 36.5357179,21.4028777 C35.8112696,21.8271562 34.8530351,22.3081976 33.7432727,22.8652435 C30.8233515,24.3304956 24.7468369,27.3802979 24.8868199,29.428091 L26.1615796,48.0597856 C26.4372163,52.1611444 26.6560901,55.400477 29.2599671,58.3641729 C31.9826613,61.5539583 35.7597981,63.5069863 39.9145525,63.8826796 M40.9718815,66.8131837 C40.8867371,66.8131837 40.8015928,66.8131837 40.7159674,66.8117405 C40.547603,66.8064491 40.4061768,66.7977903 40.2652317,66.7881695 C40.0848412,66.7761435 39.9015644,66.7790297 39.7206928,66.7626743 C34.7847273,66.3340665 30.2946871,64.0221816 27.0779634,60.2537035 C23.841998,56.5708507 23.5697286,52.5305842 23.2815848,48.2536453 L22.0068252,29.6243559 C21.7364799,25.6620181 27.6758978,22.6810047 32.4483093,20.2854186 C33.5133349,19.7514627 34.433086,19.289663 35.0805677,18.9106024 C44.9178639,13.1842858 47.1061211,13.9438502 50.4392568,17.3876254 C51.1545653,18.1265049 51.9656011,18.964479 53.0917189,19.742804 C53.4919454,20.0184407 53.9744299,20.3277503 54.499246,20.6649603 C57.731844,22.7392107 62.1583868,25.57976 61.7013975,29.1009829 L59.1186863,49.1161525 C59.068177,49.4976183 59.021516,49.8718685 58.975336,50.2432324 C58.7915782,51.714738 58.6179223,53.1049476 58.2999539,54.4879415 C57.8073675,56.946063 56.6336266,59.2055143 54.9038018,61.0238507 C51.2137334,64.7201726 46.1575075,66.8131837 40.9718815,66.8131837" id="Fill-20" fill="#000000"></path>
                <path d="M41.0673201,42.0574475 C41.0673201,42.7982512 41.4425323,44.6117772 42.0582653,45.0254728 L44.0209141,46.3435262 C44.6015311,46.7322076 44.7569074,47.5182292 44.3677449,48.0988462 C44.275866,48.235943 44.1580109,48.3537981 44.0209141,48.445677 L41.6157072,49.7925929" id="Fill-22" fill="#FFFFFF"></path>
                <path d="M41.616525,50.9950047 C41.1956138,50.9954849 40.7867286,50.7737248 40.5659306,50.380233 C40.2421898,49.8005781 40.4485565,49.0674711 41.0277304,48.7432492 L43.3564517,47.4396271 C43.3843521,47.3992196 43.3742502,47.3583311 43.3511602,47.3424567 L41.3875493,46.0234413 C40.1291451,45.1782516 39.8645723,42.5416638 39.8645723,42.0572551 C39.8645723,41.392937 40.4033387,40.8546517 41.0671758,40.8546517 C41.7314939,40.8546517 42.2697792,41.392937 42.2697792,42.0572551 C42.2697792,42.6345048 42.5603282,43.7625468 42.7806451,44.0617545 L44.6913415,45.3451729 C45.2378045,45.7112454 45.6101305,46.2692534 45.7376065,46.9162541 C45.8655635,47.5627737 45.7342392,48.2208383 45.3667236,48.7682634 C45.1863331,49.0371655 44.9592815,49.264217 44.6913415,49.4446075 C44.6644032,49.4624061 44.6365028,49.4792425 44.6086024,49.4951169 L42.2033955,50.8420327 C42.0172325,50.9459377 41.8156761,50.9950047 41.616525,50.9950047 L41.616525,50.9950047 Z" id="Fill-24" fill="#EAA8C6"></path>
                <path d="M46.4405522,52.654789 C44.333591,53.8910654 40.5477954,54.3672963 37.974224,53.1021575" id="Fill-26" fill="#FFFFFF"></path>
                <path d="M41.5502856,55.0454204 C40.1138961,55.0454204 38.6731771,54.785177 37.4441164,54.180989 C36.8481062,53.8885159 36.602294,53.1674348 36.8952482,52.5714246 C37.1882024,51.9749333 37.9088024,51.728159 38.5048127,52.0230374 C40.6656505,53.0851768 44.0367885,52.6700381 45.8315539,51.6175195 C46.403512,51.2822337 47.1409485,51.4727261 47.4776774,52.0461274 C47.8139254,52.6190477 47.6219899,53.355522 47.0495506,53.692251 C45.6506823,54.5129076 43.6052944,55.0454204 41.5502856,55.0454204" id="Fill-28" fill="#e9a9c6"></path>
                <path d="M33.5245913,37.31919 L33.5245913,37.31919 C34.4039349,37.31919 35.1168382,38.0320933 35.1168382,38.9114369 L35.1168382,41.2877813 C35.1168382,42.167125 34.4039349,42.8800283 33.5245913,42.8800283 L33.5245913,42.8800283 C32.6452476,42.8800283 31.9323443,42.167125 31.9323443,41.2877813 L31.9323443,38.9114369 C31.9323443,38.0320933 32.6452476,37.31919 33.5245913,37.31919" id="Fill-30" fill="#181D8B"></path>
                <path d="M28.6260507,41.277487 C28.2715232,41.277487 27.9145905,41.1937858 27.5860393,41.021092 L27.4604875,40.9470116 L25.0985743,39.3836271 C24.4342562,38.9434743 24.2519415,38.0482563 24.6916133,37.3834571 C25.1312851,36.71962 26.0265031,36.5373053 26.6917834,36.9769771 L28.5168543,38.184872 C30.0518574,36.4425402 31.7571491,35.5853244 33.558168,35.5997557 C36.5617903,35.6517081 38.5566689,38.277713 38.6398891,38.3893146 C39.1170821,39.0281376 38.9852768,39.9324954 38.3469349,40.4092074 C37.7081119,40.8854383 36.8042352,40.7545951 36.3270421,40.1162532 C36.3193455,40.1061513 35.0763346,38.5033214 33.4951516,38.4850419 L33.4691753,38.4850419 C32.4666851,38.4850419 31.430522,39.1440685 30.3885863,40.4443234 C29.9397747,40.9874191 29.2865205,41.277487 28.6260507,41.277487" id="Fill-32" fill="#000000"></path>
                <path d="M26.9592905,34.7167561 C26.5763815,34.7167561 26.2002072,34.5344414 25.9669021,34.1948262 C25.5907278,33.6469201 25.7302298,32.8989008 26.2776548,32.5222454 C29.9148087,30.0261217 33.1363428,30.169953 35.197124,30.7303662 C37.4387769,31.3393646 38.8222519,32.5679443 38.8799768,32.6203778 C39.3735253,33.064379 39.4139327,33.8249054 38.9694505,34.3189349 C38.5259304,34.8105592 37.7687712,34.8524098 37.2742607,34.4112949 C37.0895408,34.2487029 33.0386914,30.7981931 27.6390019,34.50606 C27.430711,34.6479672 27.1940387,34.7167561 26.9592905,34.7167561" id="Fill-34" fill="#000000"></path>
                <path d="M49.8174627,42.8752179 L49.8174627,42.8752179 C48.9381191,42.8752179 48.2252157,42.1623145 48.2252157,41.2829709 L48.2252157,38.9066265 C48.2252157,38.0272829 48.9381191,37.3143796 49.8174627,37.3143796 L49.8174627,37.3143796 C50.6968063,37.3143796 51.4097097,38.0272829 51.4097097,38.9066265 L51.4097097,41.2829709 C51.4097097,42.1623145 50.6968063,42.8752179 49.8174627,42.8752179" id="Fill-36" fill="#181D8B"></path>
                <path d="M54.7025822,41.2932652 C54.0363399,41.2932652 53.3840478,40.9964627 52.9410087,40.4408599 C51.9019593,39.1444534 50.8657962,38.4854267 49.8633059,38.4854267 L49.8368487,38.4854267 C48.2556657,38.5037063 47.0126547,40.1065361 47.0001477,40.1224105 C46.5186253,40.7525747 45.6147485,40.8790886 44.9816981,40.4009334 C44.3476855,39.9222973 44.2173233,39.0256361 44.6921111,38.3892184 C44.7758123,38.2776168 46.7706909,35.6511309 49.7743133,35.6001405 C51.5594578,35.5693539 53.2801428,36.442444 54.8252477,38.1977639 L56.6690793,36.9768809 C57.3338785,36.5372091 58.2295776,36.7190428 58.6697304,37.3838419 C59.1094022,38.0481601 58.9270876,38.9438591 58.2627694,39.384012 L55.8109015,41.0017541 C55.4611844,41.1985 55.0797186,41.2932652 54.7025822,41.2932652" id="Fill-38" fill="#000000"></path>
                <path d="M56.7580239,34.7167561 C56.5232757,34.7167561 56.2861223,34.6479672 56.0778314,34.505579 C50.6718884,30.7914585 46.6162285,34.2631341 46.4459399,34.4122569 C45.9495052,34.8495235 45.1909029,34.8052677 44.7507501,34.3112382 C44.3110783,33.8172088 44.3505237,33.0629359 44.842148,32.6203778 C46.749477,30.9030601 51.8369706,28.6734333 57.4401406,32.5227264 C57.9875656,32.8993818 58.1265866,33.6474011 57.7504122,34.1953073 C57.5171072,34.5344414 57.1409328,34.7167561 56.7580239,34.7167561" id="Fill-40" fill="#000000"></path>
                <path d="M61.1556079,31.3927602 C62.993186,22.8302237 52.9442316,13.8732333 44.1459849,13.8732333 L39.7444563,13.8732333 C30.917347,13.8732333 20.9405489,23.5710274 22.604952,31.3927602 L23.9711095,30.7866481 C30.4218744,24.821735 50.6977684,23.9510501 59.8279337,30.7866481 L61.1556079,31.3927602 Z" id="Fill-42" fill="#181D8B"></path>
                <path d="M39.7445044,14.1137059 C34.9975881,14.1137059 29.6051143,16.9855229 26.0069248,21.4298642 C23.4372017,24.6042562 22.2735626,28.0913251 22.7839475,31.0502107 L23.8374282,30.5826384 C26.9690075,27.7132266 33.4977011,25.8607363 40.891307,25.7462484 C48.6240471,25.624545 55.7333576,27.4322985 59.9516095,30.5787901 L60.9791139,31.0473244 C61.561655,27.8421457 60.4898948,24.3618114 57.9432617,21.2100283 C54.5129557,16.9658002 48.9684728,14.1137059 44.146033,14.1137059 L39.7445044,14.1137059 Z M61.155656,31.6332328 C61.1215021,31.6332328 61.0873482,31.6260172 61.0555994,31.6115859 L59.7279252,31.0054738 C59.7125319,30.9987392 59.6976196,30.9895994 59.6836694,30.9794976 C50.5722647,24.1583309 30.4113396,25.159378 24.1347117,30.9631422 C24.114989,30.9809407 24.0928611,30.995853 24.0688091,31.0064359 L22.7026515,31.612548 C22.6357868,31.6418915 22.5602633,31.6399674 22.4958038,31.6067755 C22.4313442,31.5740647 22.3846832,31.5139345 22.3697709,31.4427404 C21.696794,28.2798934 22.8864094,24.520074 25.6331556,21.1268081 C29.3188946,16.5742325 34.8580861,13.6326645 39.7445044,13.6326645 L44.146033,13.6326645 C49.1834983,13.6326645 54.7462607,16.4886072 58.3175119,20.9079343 C61.0358767,24.2708945 62.1268786,28.0129154 61.3908853,31.4427404 C61.3754919,31.5144156 61.3283499,31.5750268 61.2634093,31.6077376 C61.2297364,31.6245741 61.1926962,31.6332328 61.155656,31.6332328 L61.155656,31.6332328 Z" id="Fill-44" fill="#181D8B"></path>
            </g>
        </g>
    </g>
</svg>