<?xml version="1.0" encoding="UTF-8"?>
<svg width="92px" height="92px" viewBox="0 0 92 92" version="1.1" xmlns="http://www.w3.org/2000/svg" xmlns:xlink="http://www.w3.org/1999/xlink">
    <title>GTX/Avatar/1 Copy 3</title>
    <defs>
        <circle id="path-1" cx="46" cy="46" r="46"></circle>
        <rect id="path-3" x="0" y="0" width="92" height="108"></rect>
    </defs>
    <g id="Design" stroke="none" stroke-width="1" fill="none" fill-rule="evenodd">
        <g id="rta-gitex-UI-05.00" transform="translate(-695.000000, -573.000000)">
            <g id="Group-2" transform="translate(347.000000, 232.000000)">
                <g id="Avatar" transform="translate(0.000000, 288.000000)">
                    <g id="GTX/Avatar/1-Copy-3" transform="translate(348.000000, 53.000000)">
                        <mask id="mask-2" fill="white">
                            <use xlink:href="#path-1"></use>
                        </mask>
                        <use id="GTX/Avatar/1" fill="#FBFBFB" xlink:href="#path-1"></use>
                        <g id="Group" mask="url(#mask-2)">
                            <g id="GTX/Avatar/Character/1">
                                <rect id="Rectangle" fill="#DB3B34" x="0" y="0" width="92" height="108"></rect>
                                <mask id="mask-4" fill="white">
                                    <use xlink:href="#path-3"></use>
                                </mask>
                                <use id="Rectangle" fill="#DB3B34" xlink:href="#path-3"></use>
                                <g id="Group-57" mask="url(#mask-4)">
                                    <g transform="translate(2.000000, 18.000000)">
                                        <path d="M1.47512032,90.3728166 C1.36264338,70.9222938 17.0518796,56.3688186 36.5220693,56.2557342 L51.0607943,56.1672333 C70.530984,56.0541489 86.4070554,70.3962053 86.5250565,89.866395" id="Fill-1" fill="#EAA8C6"></path>
                                        <path d="M1.47562948,91.8476343 C0.664863246,91.8476343 0.00553182141,91.1927279 0,90.38147 C-0.114436014,70.5381017 15.9238869,54.900491 36.5136125,54.7805232 L51.0518459,54.692514 C51.131005,54.6920223 51.2111474,54.6920223 51.2898149,54.6920223 C71.7753061,54.6920223 87.8800047,70.0951057 88,89.8573483 C88.0048893,90.6720479 87.3485079,91.3367877 86.5342999,91.3417044 L86.5249582,91.3417044 C85.7146836,91.3417044 85.0548605,90.6872897 85.0499438,89.8755401 C84.99586,80.9512115 81.4420587,72.7383315 75.042463,66.7497731 C68.7603768,60.8718408 60.3326363,57.642051 51.2907982,57.642051 C51.2165558,57.642051 51.1437884,57.642051 51.069546,57.6425427 L36.5313127,57.7305519 C17.5950782,57.8406863 2.84493449,72.174876 2.95064385,90.3637699 C2.95556057,91.1789611 2.2986875,91.8427176 1.48447957,91.8476343 L1.47562948,91.8476343 Z" id="Fill-3" fill="#1D1D1B"></path>
                                        <path d="M42.6679625,78.9365385 C41.1314892,78.9267051 39.6304163,78.4728923 38.3461704,77.6286924 C35.2289734,75.6079228 33.3606218,71.5417998 33.5966241,67.2691748 L34.2554639,55.1543901 C34.3783817,52.8877847 36.0254811,51.1128507 38.0069171,51.107934 L47.638761,51.0784337 C49.6546139,51.0784337 51.272213,52.814034 51.409881,55.1101397 L52.1178879,66.9889221 C52.3833905,71.4139652 50.4265381,75.5735058 47.1323394,77.550025 L46.7291688,77.7958607 C45.5034318,78.5368096 44.1002015,78.9311301 42.6679625,78.9365385" id="Fill-5" fill="#FFFFFF"></path>
                                        <path d="M47.6436777,49.6280029 L47.6436777,49.6280029 L38.0118338,49.6280029 C35.2486402,49.6280029 32.9574512,52.0273597 32.7902829,55.0757227 L32.1314432,67.1905074 C31.8708573,71.9843041 33.9997947,76.5666821 37.5398292,78.8677045 C40.5360751,80.8565156 44.4129045,80.9292829 47.4814261,79.0545397 L47.8845967,78.8136207 C51.6458833,76.5568487 53.8829885,71.8761364 53.5879856,66.8955045 L52.875062,55.0216388 C52.6931435,51.9831092 50.4167047,49.6132528 47.6436777,49.6132528 L47.6436777,49.6280029 Z M47.6485944,52.5534481 C48.8482727,52.5534481 49.8463658,53.708876 49.9348667,55.1986406 L50.6477903,67.0725063 C50.8788759,70.9419606 49.1727759,74.5950796 46.3702486,76.2815127 L45.967078,76.5224317 C44.9743933,77.1316126 43.8327322,77.4566074 42.6679625,77.4615242 C41.4156753,77.4551324 40.1923967,77.0844121 39.1475949,76.3945971 C36.4630687,74.6540801 34.8602198,71.1042122 35.0667218,67.352759 L35.7255615,55.2379743 C35.8091457,53.7629599 36.8072387,52.5829484 38.0069171,52.5780317 L47.6436777,52.5780317 L47.6485944,52.5534481 Z" id="Fill-7" fill="#1D1D1B"></path>
                                        <path d="M71.0964062,63.8078078 C73.0075331,60.6817607 73.6181891,56.9307991 72.7975894,53.3597893 C72.099416,50.0164234 71.5536606,46.6337238 71.0669059,43.2510241 C70.1278134,36.6626266 69.2772218,30.0594789 68.377463,23.4710814 C66.4501109,7.90476307 52.9635628,-1.70741392 42.5597948,2.47179346 L42.4122934,2.47179346 C30.6908458,-2.01225023 19.0923161,9.4338613 17.2387147,23.4710814 C16.1570375,29.9808115 15.4686975,36.5495422 14.5591053,43.0838558 C14.1067676,46.3633045 13.6150961,49.6427531 12.9857566,52.917285 C12.1105814,57.4554125 11.4861587,60.4251082 14.3624367,64.4813977 C17.0912133,68.3262685 21.0000014,71.3303811 24.1614489,74.8064983 C26.5657223,77.4566074 28.8667447,80.2640515 31.4037694,82.786326 C32.149635,83.530225 33.3576718,83.5287499 34.1015707,82.7828843 C34.4599992,82.4234725 34.6601095,81.9367178 34.6586345,81.4293128 C34.7127183,70.160203 34.7618855,42.9904383 34.8159693,39.7749069 L42.8597144,33.0291745 L50.8837926,39.7749069 C50.9378764,42.9904383 50.9919603,70.160203 51.0411274,81.4293128 C51.0357191,82.4854231 51.8877857,83.3463398 52.9443876,83.3512873 C53.4640844,83.3542066 53.9631309,83.1447545 54.3254928,82.7715759 L61.6661476,74.6491634 C64.9701798,70.9812943 68.8003005,67.731346 71.0964062,63.8078078" id="Fill-9" fill="#1D1D1B"></path>
                                        <path d="M42.8595669,31.5540127 C43.1973452,31.5540127 43.5341401,31.6690638 43.8089845,31.9001494 L51.8330627,38.6463734 C52.1595325,38.9207261 52.351776,39.323405 52.3586594,39.7501759 C52.3930764,41.7714372 52.4265101,53.1551065 52.4589604,64.1636304 C52.4786273,70.7515363 52.4978025,77.2022658 52.516486,81.4232653 C52.5155026,81.5865002 52.5843366,81.6882762 52.6428455,81.7467851 C52.7013544,81.805294 52.8016554,81.875603 52.9511235,81.8765863 L52.9530902,81.8765863 C53.0651913,81.8765863 53.1743424,81.8328276 53.2554682,81.7556352 L60.5715395,73.6602646 C61.5770076,72.5436787 62.6355762,71.4610182 63.6587445,70.4132663 C66.0477762,67.9681842 68.3050398,65.65782 69.823813,63.062778 C69.8287297,63.0544196 69.8331547,63.0470445 69.8380714,63.0386861 C71.5584299,60.2248504 72.0987768,56.904593 71.3602863,53.690045 C70.7417636,50.7291995 70.1861748,47.4881013 69.6064942,43.461312 C69.0061633,39.2476876 68.4333661,34.9642459 67.8792523,30.8209305 C67.5601576,28.436324 67.2415545,26.0527007 66.916068,23.6710442 C65.9346917,15.7438253 61.7102506,8.8756667 55.6130328,5.28007333 C51.4087502,2.80106584 46.9674819,2.2902192 43.1098277,3.84095097 C42.9347926,3.91076832 42.7479575,3.94715201 42.560139,3.94715201 L42.4121459,3.94715201 C42.2321941,3.94715201 42.0532257,3.91371835 41.8850741,3.84930939 C37.9325272,2.33692798 33.7936369,2.75878209 29.9177908,5.06570457 C24.1416345,8.50543809 19.7392083,15.8057759 18.7012898,23.6641608 C18.6988315,23.680386 18.6963731,23.6971028 18.6939148,23.7133279 C18.0060664,27.8527099 17.4671945,32.0992763 16.9470061,36.2071913 C16.6524949,38.5278806 16.3486419,40.9267457 16.0202054,43.2867687 C15.6430934,46.0194786 15.1224133,49.616547 14.4345649,53.1959152 L14.3981812,53.3827504 C13.5564397,57.7414178 13.0932852,60.1422496 15.5654093,63.6282002 C17.1864501,65.9125058 19.3291543,67.9657258 21.4005661,69.9506035 C22.6931704,71.1886322 24.0295334,72.4694363 25.252812,73.8141578 C26.0566948,74.7006414 26.8487775,75.6028585 27.6408603,76.5065507 C29.185692,78.2687012 30.7836242,80.0903439 32.4435071,81.7399017 C32.6146087,81.9110033 32.8889614,81.91002 33.0576047,81.740885 C33.1382388,81.6602509 33.1839643,81.5491331 33.1834726,81.4350654 C33.2055978,76.8330205 33.2267397,69.6054501 33.2478816,62.4334386 C33.2793485,51.7538428 33.3088488,41.6662195 33.3412991,39.7501759 C33.3481825,39.3229134 33.5409178,38.9192511 33.8683709,38.6448984 L41.9116243,31.8986744 C42.185977,31.6685721 42.5227719,31.5540127 42.8595669,31.5540127 L42.8595669,31.5540127 Z M52.9525986,84.8266151 L52.9373567,84.8266151 C52.0316979,84.82219 51.183073,84.4652366 50.5463584,83.822622 C49.9101356,83.1795157 49.5620322,82.3269574 49.5664572,81.4222819 C49.5477737,77.2140659 49.5285985,70.7613697 49.5089317,64.1724805 C49.4794314,54.068632 49.4479644,43.6491305 49.4174808,40.4694912 L42.8585835,34.9549041 L36.2829695,40.4704746 C36.2534692,43.4962207 36.2254439,53.1147894 36.1979103,62.441797 C36.1767684,69.6162669 36.1556266,76.8453123 36.1335013,81.4365404 C36.136943,82.3166323 35.7770395,83.1918075 35.1462251,83.8245887 C33.8290372,85.1447265 31.6823996,85.1471849 30.3622618,83.8304887 C28.6320699,82.1111136 27.000704,80.2506288 25.4229303,78.451603 C24.6411727,77.5602026 23.8608901,76.6707689 23.0692991,75.7975604 C21.9153461,74.5295397 20.6163501,73.2846276 19.3601296,72.0805242 C17.1884167,69.9997706 14.9434449,67.8482163 13.1596608,65.3352835 C9.9578963,60.8197728 10.6393529,57.2915385 11.5017447,52.8237199 L11.5376367,52.6378681 C12.2082766,49.1479841 12.702898,45.748076 13.0982019,42.882123 C13.4241801,40.5378335 13.7270497,38.1478186 14.0205775,35.8359794 C14.5432243,31.7083975 15.0845546,27.4416726 15.779778,23.2536151 C16.9543811,14.4094289 21.7919366,6.4709016 28.4083594,2.53113821 C32.9381285,-0.166171406 37.7924008,-0.717826781 42.4770465,0.924847558 C47.0353326,-0.726185196 52.3385009,-0.0757038579 57.1116474,2.73960691 C63.9916061,6.7963881 68.7504942,14.4787546 69.8415131,23.2899988 C70.1645413,25.6564135 70.4841277,28.0424951 70.8032225,30.4300517 C71.3563529,34.5664837 71.9286585,38.8440254 72.5270226,43.0424079 C73.0973615,47.0052799 73.6421335,50.1878692 74.241481,53.0582472 C75.1466482,56.9955522 74.4814167,61.0911755 72.3628044,64.565326 C70.6611294,67.4671709 68.1737635,70.0135374 65.7689984,72.4753364 C64.7659887,73.5014547 63.7290536,74.5629734 62.7619358,75.6362922 L55.4198059,83.7606714 C55.4075141,83.7734548 55.395714,83.7862383 55.3834222,83.7995134 C54.7486744,84.4524531 53.8636658,84.8266151 52.9525986,84.8266151 L52.9525986,84.8266151 Z" id="Fill-11" fill="#1D1D1B"></path>
                                        <path d="M23.7926953,48.7380776 C20.1149928,48.7380776 16.9092949,46.5599731 15.2031949,42.9068541 C13.9415659,40.1947944 13.9415659,37.0638305 15.2031949,34.3517708 C16.4363069,31.6111941 19.1650835,29.8510102 22.1701795,29.8578735 C24.6285367,29.8578735 27.1606447,30.919904 29.687836,33.0095077 C30.030531,33.2873021 30.2306413,33.7042395 30.2335969,34.1452688 L30.2335969,45.8470494 C30.2350664,46.3873964 29.9405552,46.8854596 29.4665839,47.1450621 C27.7398337,48.1456135 25.787898,48.6933355 23.7926953,48.7380776" id="Fill-13" fill="#FFFFFF"></path>
                                        <path d="M22.160346,28.373021 L22.160346,28.373021 C18.5775361,28.3646874 15.3246378,30.4641246 13.8560151,33.7322647 C12.4080427,36.8381533 12.4080427,40.4253883 13.8560151,43.5312769 C15.8227009,47.715401 19.5200703,50.213092 23.7877786,50.213092 C26.0337338,50.1732666 28.2329802,49.5645773 30.1795075,48.4430747 C31.1259751,47.9228863 31.7125391,46.9272516 31.7086254,45.8470494 L31.7086254,34.140352 C31.7061474,33.2632102 31.3133019,32.4322854 30.636762,31.8737466 C27.8342346,29.5579741 24.9923736,28.3828793 22.1800129,28.3828793 L22.160346,28.373021 Z M22.160346,31.332908 C24.0680313,31.332908 26.3100531,32.1392492 28.7389101,34.1452688 L28.758577,45.8470494 C27.2471789,46.7286164 25.5371456,47.2124211 23.7877786,47.2532298 C20.4984965,47.2532298 17.9123046,45.2422935 16.5307078,42.2775147 C15.4509973,39.9583004 15.4509973,37.2806576 16.5307078,34.9614434 C17.5184758,32.7385967 19.7280473,31.3107828 22.160346,31.3229959 L22.160346,31.332908 Z" id="Fill-15" fill="#1D1D1B"></path>
                                        <path d="M20.8918337,37.0215468 C20.8918337,37.0215468 24.3335339,33.865016 28.6799096,40.738583" id="Fill-17" fill="#FFFFFF"></path>
                                        <path d="M28.6803029,41.4762869 C28.4359422,41.4762869 28.1969898,41.354844 28.0563718,41.1331002 C26.5115401,38.689493 24.8978744,37.282821 23.3894263,37.0650105 C22.1735228,36.8909588 21.4168404,37.5424235 21.3843901,37.5704488 C21.0805372,37.8369347 20.6163993,37.8118595 20.34598,37.5114482 C20.0760524,37.2105453 20.0952276,36.7513241 20.3936721,36.4779548 C20.4438226,36.4317377 21.6533344,35.3456354 23.5516779,35.5988462 C25.544914,35.8643488 27.4801329,37.4608061 29.3032506,40.3444592 C29.5210611,40.6886292 29.4183017,41.1444086 29.0741317,41.3622191 C28.9517055,41.4394115 28.8150209,41.4762869 28.6803029,41.4762869" id="Fill-19" fill="#000000"></path>
                                        <path d="M62.4085715,48.6299099 C60.4330356,48.5871345 58.4997834,48.0512126 56.7838501,47.0713114 C56.3074204,46.8151505 56.0094675,46.319054 56.0070092,45.7782154 L55.9627578,34.0469345 C55.9622671,33.6083635 56.1564773,33.1919178 56.4937639,32.9111734 C59.0258719,30.7969861 61.5678133,29.720223 64.0360041,29.720223 C67.0253665,29.7177673 69.740868,31.4607426 70.9833218,34.1796858 C72.2577342,36.8863371 72.2705176,40.0177926 71.0177388,42.7347691 C69.3263889,46.4124716 66.1010242,48.6348266 62.4085715,48.6348266 L62.4085715,48.6299099 Z" id="Fill-21" fill="#FFFFFF"></path>
                                        <path d="M64.0360041,28.2501193 C61.2088932,28.2501193 58.352282,29.4399729 55.544838,31.7852458 C54.8727231,32.3477179 54.485286,33.1801177 54.4877327,34.0567679 L54.5172446,45.768382 C54.5206863,46.8490759 55.1151171,47.8412689 56.0660097,48.3545739 C58.0022119,49.4539513 60.1827748,50.0503487 62.4085715,50.0901741 C66.7008634,50.0901741 70.4178996,47.5728163 72.3600018,43.3542751 C73.7956825,40.2424865 73.781424,36.6552515 72.3206681,33.555263 C70.8353286,30.3180981 67.5976721,28.2452113 64.0360041,28.2501193 M64.0360041,31.2149069 C66.456011,31.2031068 68.6562407,32.6171539 69.6508921,34.8237754 C70.7404361,37.1385646 70.7512528,39.8162073 69.6803924,42.1398466 C68.3037123,45.1242924 65.7126037,47.1548955 62.4085715,47.1548955 C60.6803464,47.1091701 58.9909632,46.6347071 57.491857,45.7732987 L57.4377731,34.0469345 C59.8961304,32.0163313 62.1234021,31.2001567 64.0360041,31.2001567" id="Fill-23" fill="#1D1D1B"></path>
                                        <path d="M65.3192666,36.8986289 C65.3192666,36.8986289 62.1627358,33.8551826 57.8507771,40.7533331" id="Fill-25" fill="#FFFFFF"></path>
                                        <path d="M57.8502363,41.4906928 C57.7165016,41.4906928 57.581292,41.4548008 57.4598491,41.3781001 C57.1142041,41.162748 57.0094781,40.7074602 57.2253219,40.3623068 C59.0833483,37.3906445 61.0126671,35.7622287 62.9606694,35.522293 C64.701678,35.3064492 65.7863053,36.3237175 65.8310474,36.3674762 C66.1245752,36.6501873 66.1334253,37.1167835 65.8502226,37.4103114 C65.5684948,37.7023642 65.105832,37.711706 64.8132875,37.434895 C64.7754288,37.4009696 64.1446143,36.8473476 63.1057125,36.9909156 C62.0918859,37.129567 60.4649451,37.9619668 58.4756424,41.1440644 C58.3360077,41.367775 58.096072,41.4906928 57.8502363,41.4906928" id="Fill-27" fill="#000000"></path>
                                        <path d="M58.1949471,51.0784337 C58.593201,49.3772505 58.7702027,47.577733 59.0111218,45.7093814 L61.6563142,25.2509321 C62.0762016,22.0712928 60.6882131,18.9231204 58.0572791,17.0891859 C52.5456421,13.2787321 42.0189562,8.73077112 29.0486631,16.2975948 C25.6866137,18.2741141 23.7356614,21.9852503 24.0139474,25.8753548 L24.4810353,32.6555042 L25.2824598,44.3327014 C25.5922128,48.851162 25.7200474,52.7648668 28.8519946,56.3245682 C31.8639739,59.8577193 36.1449573,62.0638491 40.7701107,62.4655447 C41.0700303,62.4655447 41.3748666,62.4999617 41.6747862,62.5097951 C46.6991768,62.5771541 51.5372239,60.6085016 55.0875835,57.052242 C56.6707656,55.3972758 57.7485095,53.3248806 58.1949471,51.0784337" id="Fill-29" fill="#FFFFFF"></path>
                                        <path d="M40.840518,60.9909237 C41.0244032,60.993382 41.2097633,61.0046905 41.3946318,61.0169823 C41.5042745,61.0243573 41.6129339,61.0317324 41.7215933,61.0356658 C41.7958357,61.0366491 41.8705697,61.0371408 41.9443205,61.0371408 C46.4391809,61.0371408 50.8470155,59.212548 54.0438634,56.0102918 C55.4131684,54.5780528 56.3561942,52.7657519 56.7480564,50.7907076 C56.7514981,50.7744825 56.7549398,50.7582573 56.7588731,50.7420321 C57.0622344,49.4450028 57.2328444,48.0614393 57.4132879,46.5977334 C57.4575383,46.2412716 57.5017887,45.8823514 57.5480058,45.5204813 L60.1931983,25.0620319 C60.5432684,22.4143811 59.4011156,19.8242559 57.2136692,18.299091 C51.2300276,14.1631507 41.6114589,10.6757251 29.7916771,17.5714173 C26.8972072,19.2730922 25.2451911,22.4158561 25.4851268,25.7700388 L26.7944478,44.8331246 C27.0756839,49.0187237 27.2974277,52.3247226 29.959337,55.349977 C32.7397391,58.6117255 36.59641,60.6074199 40.840518,60.9909237 M41.9197369,63.9861862 C41.831236,63.9861862 41.7432268,63.9861862 41.654726,63.9847112 C41.485591,63.9793028 41.3425146,63.9704527 41.1989465,63.9606193 C41.0126031,63.9488192 40.8252762,63.9517692 40.6423744,63.9345607 C35.5988086,63.4969731 31.012989,61.1335084 27.729607,57.2812625 C24.4211497,53.5219426 24.1443387,49.3973107 23.8508108,45.0307765 L22.5419814,25.9765408 C22.222395,21.4998722 24.4285248,17.302473 28.3009292,15.0265258 C42.1591809,6.94148035 53.4179656,12.0882972 58.896169,15.8756424 C61.9966492,18.0380135 63.6127733,21.7029325 63.1191351,25.4440606 L60.4744344,45.8985766 C60.4282172,46.2540551 60.3844585,46.6075668 60.3411914,46.9586203 C60.1518979,48.4950936 59.9729295,49.9465077 59.6366262,51.3905468 C59.1316796,53.9069213 57.9275762,56.2167938 56.1536256,58.0718702 C52.3849639,61.8469237 47.2184802,63.9861862 41.9197369,63.9861862" id="Fill-31" fill="#1D1D1B"></path>
                                        <path d="M45.6622417,51.8159409 C43.2038844,53.9399616 40.902862,54.1267968 38.8624254,51.5012712" id="Fill-33" fill="#FFFFFF"></path>
                                        <path d="M42.1489541,54.6688154 C42.002436,54.6688154 41.8569013,54.6614403 41.7118582,54.6476735 C40.3022361,54.5080388 39.0170069,53.7031727 37.8920626,52.2556919 C37.4751253,51.71977 37.5719845,50.9473541 38.1079064,50.5309084 C38.6438283,50.113971 39.4162442,50.211322 39.8326899,50.7467522 C40.5279133,51.6415942 41.2413286,52.1308073 41.9542522,52.2011164 C42.7807519,52.2802755 43.7542614,51.8397378 44.8585555,50.8858952 C45.3728439,50.4419159 46.1482098,50.4984581 46.5921891,51.0122548 C47.0356767,51.5255598 46.9796262,52.3024007 46.4658295,52.7458883 C44.9868818,54.0237424 43.5369427,54.6688154 42.1489541,54.6688154" id="Fill-35" fill="#DB3B34"></path>
                                        <path d="M28.7595112,33.7718443 C28.3656823,33.7718443 27.9787369,33.5830424 27.7412596,33.231989 C27.3602142,32.6705002 27.5067323,31.9059511 28.0692044,31.5253974 C31.3501281,29.3010757 34.3394905,29.3241843 36.269301,29.7347299 C38.3736548,30.1826426 39.7119845,31.1866358 39.7685268,31.2294112 C40.3088737,31.6399568 40.4140914,32.4108977 40.0030541,32.9517363 C39.5939834,33.4910999 38.8264843,33.5973009 38.2856456,33.1901969 C38.113069,33.062854 34.2637731,30.2962187 29.4478512,33.5599339 C29.2369241,33.7030103 28.9969885,33.7718443 28.7595112,33.7718443" id="Fill-37" fill="#1D1D1B"></path>
                                        <path d="M46.636882,33.4616488 C46.2425615,33.4616488 45.8551244,33.2723552 45.6176471,32.9208102 C45.2370934,32.3588297 45.3850865,31.5942806 45.9475586,31.2142185 C49.0386971,29.1231398 53.0079608,28.9092627 56.3065846,30.6542047 C56.9069154,30.9718245 57.1360343,31.7152317 56.8184146,32.3155626 C56.5007948,32.9158934 55.7578792,33.1450123 55.1570567,32.8273926 C52.6632991,31.5082381 49.6621365,31.6704896 47.3242387,33.2507217 C47.1138033,33.3933064 46.8738677,33.4616488 46.636882,33.4616488" id="Fill-39" fill="#1D1D1B"></path>
                                        <polygon id="Fill-41" fill="#1D1D1B" points="59.8567967 30.2708977 59.8567967 38.4867277 62.8264923 28.4271297 64.0556709 22.9744932 60.4959696 13.0574799 43.1989677 8.09651494 25.3955442 14.3259923 22.2193466 20.0490481 22.8929365 29.5973078 25.2677096 38.4867277 25.2677096 29.8529769 49.4186116 19.7835455"></polygon>
                                        <path d="M49.4183658,18.8003501 C49.6745266,18.8003501 49.9267541,18.900651 50.1155559,19.0899446 L60.553741,29.5772967 C60.7371344,29.7616735 60.8398937,30.010951 60.8398937,30.2710452 L60.8398937,31.6826339 L61.8743705,28.1794748 L63.0332401,23.0375747 L59.7405164,13.863477 L43.2287138,9.12769749 L26.073805,15.1305143 L23.2211272,20.2709394 L23.8671835,29.434712 L24.2846126,30.9962606 L24.2846126,29.8526328 C24.2846126,29.4558539 24.5230732,29.0979171 24.8893685,28.9454989 L49.0397788,18.8760675 C49.162205,18.8254253 49.2905312,18.8003501 49.4183658,18.8003501 M59.8575342,39.4702181 C59.8108254,39.4702181 59.7636249,39.4667764 59.7159328,39.4603847 C59.2326198,39.3900757 58.8732079,38.9755967 58.8732079,38.4868752 L58.8732079,30.6771658 L49.1872802,20.9455126 L26.2512984,30.5080308 L26.2512984,38.4868752 C26.2512984,38.9805134 25.8854948,39.3979424 25.3962817,39.4618597 C24.9060853,39.5203686 24.4448975,39.217499 24.3175545,38.7410694 L21.9427814,29.8516494 C21.9270479,29.7911738 21.9162311,29.7292232 21.9122978,29.6667809 L21.2387079,20.1185212 C21.2249411,19.9282444 21.2672248,19.7384592 21.3596591,19.5717826 L24.5358567,13.8487268 C24.6528745,13.6377998 24.843643,13.4775149 25.0707952,13.3978641 L42.8742187,7.16838673 C43.0654789,7.10102774 43.2744393,7.09463601 43.4701245,7.15117823 L60.7671264,12.1116516 C61.0709793,12.1991691 61.3143567,12.4273046 61.4215411,12.7252575 L64.9812424,22.6422708 C65.0441764,22.8182892 65.0559765,23.0090577 65.0151678,23.1909762 L63.7859891,28.6436126 C63.7810724,28.6642628 63.775664,28.684913 63.7692723,28.7055632 L60.7995767,38.7651613 C60.6751838,39.1879987 60.287255,39.4702181 59.8575342,39.4702181" id="Fill-43" fill="#1D1D1B"></path>
                                        <path d="M34.3193812,34.6025232 L34.3193812,34.6025232 C35.2181566,34.6025232 35.9468137,35.3311803 35.9468137,36.2299557 L35.9468137,38.6588127 C35.9468137,39.5575882 35.2181566,40.2862453 34.3193812,40.2862453 L34.3193812,40.2862453 C33.4206057,40.2862453 32.6919486,39.5575882 32.6919486,38.6588127 L32.6919486,36.2299557 C32.6919486,35.3311803 33.4206057,34.6025232 34.3193812,34.6025232" id="Fill-45" fill="#1D1D1B"></path>
                                        <path d="M34.3191845,34.8483098 C33.5575854,34.8483098 32.9375877,35.4683075 32.9375877,36.2303982 L32.9375877,38.6587636 C32.9375877,39.4208543 33.5575854,40.040852 34.3191845,40.040852 C35.0812753,40.040852 35.701273,39.4208543 35.701273,38.6587636 L35.701273,36.2303982 C35.701273,35.4683075 35.0812753,34.8483098 34.3191845,34.8483098 M34.3191845,40.5325235 C33.2861828,40.5325235 32.4459162,39.692257 32.4459162,38.6587636 L32.4459162,36.2303982 C32.4459162,35.1969048 33.2861828,34.3566383 34.3191845,34.3566383 C35.3526779,34.3566383 36.1929444,35.1969048 36.1929444,36.2303982 L36.1929444,38.6587636 C36.1929444,39.692257 35.3526779,40.5325235 34.3191845,40.5325235" id="Fill-47" fill="#1D1D1B"></path>
                                        <path d="M50.9329597,40.2813285 L50.9329597,40.2813285 C50.0341843,40.2813285 49.3055272,39.5526714 49.3055272,38.653896 L49.3055272,36.225039 C49.3055272,35.3262636 50.0341843,34.5976065 50.9329597,34.5976065 L50.9329597,34.5976065 C51.8317351,34.5976065 52.5603922,35.3262636 52.5603922,36.225039 L52.5603922,38.653896 C52.5603922,39.5526714 51.8317351,40.2813285 50.9329597,40.2813285" id="Fill-49" fill="#1D1D1B"></path>
                                        <path d="M50.932763,34.8434914 C50.171164,34.8434914 49.5511663,35.4634891 49.5511663,36.2250882 L49.5511663,38.6539452 C49.5511663,39.4155443 50.171164,40.035542 50.932763,40.035542 C51.6948538,40.035542 52.3148515,39.4155443 52.3148515,38.6539452 L52.3148515,36.2250882 C52.3148515,35.4634891 51.6948538,34.8434914 50.932763,34.8434914 M50.932763,40.5272134 C49.8997613,40.5272134 49.0594948,39.6869469 49.0594948,38.6539452 L49.0594948,36.2250882 C49.0594948,35.1920865 49.8997613,34.3518199 50.932763,34.3518199 C51.9662565,34.3518199 52.806523,35.1920865 52.806523,36.2250882 L52.806523,38.6539452 C52.806523,39.6869469 51.9662565,40.5272134 50.932763,40.5272134" id="Fill-51" fill="#1D1D1B"></path>
                                        <path d="M42.3631262,38.998066 C42.3631262,38.998066 44.398646,42.685602 44.398646,46.5009725 L40.8389447,46.5009725" id="Fill-53" fill="#FFFFFF"></path>
                                        <path d="M44.3984494,47.7302003 L40.8392397,47.7302003 C40.1602414,47.7302003 39.6100611,47.1800199 39.6100611,46.5010216 C39.6100611,45.8220234 40.1602414,45.271843 40.8392397,45.271843 L43.0965034,45.271843 C42.7508583,42.2760888 41.3033776,39.622538 41.2871524,39.5920543 C40.9592075,38.9976235 41.1745596,38.2502829 41.7689904,37.9223381 C42.3629295,37.5939015 43.1107618,37.8092536 43.4391984,38.4041761 C43.5281909,38.565936 45.627628,42.4157235 45.627628,46.5010216 C45.627628,47.1800199 45.0774477,47.7302003 44.3984494,47.7302003" id="Fill-55" fill="#EAA8C6"></path>
                                    </g>
                                </g>
                            </g>
                        </g>
                    </g>
                </g>
            </g>
        </g>
    </g>
</svg>