<?xml version="1.0" encoding="UTF-8"?>
<svg width="92px" height="108px" viewBox="0 0 92 108" version="1.1" xmlns="http://www.w3.org/2000/svg" xmlns:xlink="http://www.w3.org/1999/xlink" style="background: #7fc7cf;">
    <title>GTX/Avatar/Character/5</title>
    <defs>
        <rect id="path-1" x="0" y="0" width="92" height="108"></rect>
    </defs>
    <g id="GTX/Avatar/Character/5" stroke="none" stroke-width="1" fill="none" fill-rule="evenodd">
        <rect fill="#7fc7cf" x="0" y="0" width="92" height="108"></rect>
        <mask id="mask-2" fill="white">
            <use xlink:href="#path-1"></use>
        </mask>
        <use id="Rectangle" fill="#7FC7D0" xlink:href="#path-1"></use>
        <g id="Group-57" mask="url(#mask-2)">
            <g transform="translate(2.000000, 18.000000)">
                <path d="M1.47501686,90.375859 C1.36253991,70.9056682 17.051777,56.371859 36.5219679,56.2538579 L51.0606938,56.165357 C70.5308846,56.0522726 86.4069569,70.4238301 86.5249581,89.8694374" id="Fill-1" fill="#DB3B34"></path>
                <path d="M1.47562436,91.8510702 C0.664858074,91.8510702 0.00552661057,91.1961637 0,90.3849058 C-0.113949561,70.5435029 15.9238827,54.9039246 36.5131178,54.7790401 L51.051352,54.6905392 C51.1305111,54.6900475 51.2101619,54.6900475 51.289321,54.6900475 C71.7748135,54.6900475 87.8800047,70.0955902 88,89.8602923 C88.0048893,90.674992 87.3485078,91.3397318 86.5342999,91.3446485 L86.5249581,91.3446485 C85.7146835,91.3446485 85.0548604,90.6902338 85.0499436,89.8784842 C84.9403009,71.7618649 70.127714,57.6400765 51.2883377,57.6400765 C51.2150786,57.6400765 51.1432946,57.6400765 51.0690522,57.6405681 L36.5313097,57.729069 C27.4063786,57.7841362 18.9348788,61.1201272 12.6759008,67.1224527 C6.3530055,73.1862372 2.89901331,81.4418931 2.95063881,90.3672056 C2.95555553,91.1823969 2.29868242,91.8461534 1.48447444,91.8510702 L1.47562436,91.8510702 Z" id="Fill-3" fill="#1D1D1B"></path>
                <path d="M42.6678615,78.9395803 C41.1313881,78.9297468 39.6303151,78.475934 38.3460691,77.6317341 C35.2288719,75.6109643 33.3605203,71.5448411 33.5965226,67.2722159 L34.2553624,55.1574304 C34.3782802,52.8908249 36.0253797,51.1109741 38.0068158,51.1060574 L47.6386602,51.1060574 C49.6545133,51.1060574 51.2721125,52.836741 51.4097805,55.1328469 L52.1177875,67.0067133 C52.3832901,71.4317567 50.4264376,75.5962141 47.1322386,77.5727335 L46.729068,77.8136525 C45.5018559,78.5491931 44.0986255,78.9381052 42.6678615,78.9395803" id="Fill-5" fill="#FFFFFF"></path>
                <path d="M47.6435769,49.6507098 L47.6435769,49.6507098 L38.0117325,49.6507098 C35.2485388,49.6507098 32.9573496,52.0500667 32.7901813,55.0935132 L32.1313415,67.2082986 C31.8707557,72.0020956 33.9996932,76.5844738 37.5397279,78.8854964 C40.5340072,80.8802076 44.4142786,80.9534667 47.4813254,79.0723316 L47.884496,78.8314125 C51.6457828,76.5746404 53.8828881,71.8988446 53.5878852,66.9132957 L52.8749616,55.0394293 C52.6930431,52.0058162 50.4166041,49.6310429 47.6435769,49.6310429 L47.6435769,49.6507098 Z M47.6484937,52.5564883 C48.8481721,52.5564883 49.8462652,53.7069996 49.9347661,55.1967642 L50.6476897,67.0706306 C50.8787753,70.9450019 49.1726753,74.5932043 46.3701478,76.2845542 L45.9669772,76.5254733 C43.8685233,77.829386 41.2012055,77.7851356 39.1474937,76.4123888 C36.4629673,74.6718718 34.8601183,71.1220036 35.0666203,67.3705502 L35.7254601,55.2557647 C35.8090443,53.7807503 36.8071374,52.6007387 38.0068158,52.6007387 L47.6435769,52.6007387 L47.6484937,52.5564883 Z" id="Fill-7" fill="#000000"></path>
                <path d="M17.2386122,23.4692031 C15.5964294,33.3665502 12.5923167,46.7695149 10.310961,56.5390273 C9.85075646,58.2800361 9.87091499,60.113479 10.3699615,61.8441627 C11.4860558,65.2858631 15.7439309,66.1708717 17.7204503,62.9160065 C18.3197978,61.8023706 18.7269018,60.5953171 18.9250454,59.3464715 C19.4167169,57.1437833 19.864138,55.0935132 20.3312259,52.9989926 C20.3553178,52.8790248 20.4723356,52.8018324 20.5918118,52.8259243 C20.7009628,52.8480495 20.7761886,52.9473671 20.7688135,53.0579932 C20.5819783,56.7750296 20.9064815,60.5805669 22.9567516,63.7813483 C24.0389205,65.5046569 25.8138546,66.6753267 27.8242993,66.9919631 C36.0450466,68.235892 34.555282,56.1260233 34.6339494,51.3666433 C34.69295,47.5021054 34.7553923,43.6390425 34.8207846,39.7779464 L42.8596134,33.0322136 L50.883692,39.7779464 L51.0754439,51.3666433 C51.1541114,56.1506069 49.6446799,68.37356 58.022762,66.9722963 C60.0376318,66.6222262 61.7983074,65.4077976 62.8411426,63.648597 C64.8078285,60.3691482 65.230666,56.9569481 65.0880813,53.4316635 C65.0743145,53.3175957 65.1559319,53.2143447 65.2699997,53.2005779 C65.3840675,53.1868111 65.4873185,53.2684286 65.5010853,53.3824964 L66.7843479,59.3464715 C66.9815082,60.5943337 67.3851705,61.8008956 67.9791096,62.9160065 C69.9457956,66.1708717 74.2184208,65.3055299 75.3541819,61.8441627 C75.8507701,60.113479 75.8709287,58.2805277 75.4131825,56.5390273 C72.7335729,45.078165 70.2899656,35.4315704 68.3822802,23.4692031 C66.454928,7.90780059 52.9683791,-1.70437697 42.5646105,2.46991395 L42.417109,2.46991395 C30.6907441,-2.00921329 19.0922137,9.4319822 17.2386122,23.4692031" id="Fill-9" fill="#181D8B"></path>
                <path d="M42.8593675,31.5573466 C43.1971459,31.5573466 43.5339408,31.6728894 43.8087852,31.9034833 L51.8328638,38.6492161 C52.1598254,38.9240605 52.3515773,39.3267394 52.3589523,39.7535103 L52.5502125,51.3417155 C52.5610293,51.9892469 52.5438208,52.7636295 52.5261206,53.5832459 C52.4484365,57.0726384 52.3201103,62.913204 54.5970409,64.884315 C55.3561817,65.5416797 56.3960669,65.7496568 57.7791388,65.5175878 C59.3628127,65.2427435 60.7483429,64.2869341 61.5723843,62.8959955 C63.1388497,60.2847282 63.7681892,57.3941915 63.6152793,53.5217869 C63.5867624,53.1043578 63.7121386,52.6967622 63.9727245,52.3653756 C64.2510106,52.0123555 64.6502478,51.7886449 65.0971772,51.7355444 C65.5416482,51.6829356 65.9836609,51.8078201 66.3356977,52.0846312 C66.6626592,52.342267 66.8789947,52.7036456 66.9507787,53.1102579 L68.2261745,59.0363743 C68.2320746,59.0629246 68.2369913,59.0889832 68.2409247,59.1160251 C68.411043,60.1913106 68.7542297,61.2238208 69.2616347,62.1855302 C70.0350339,63.4388008 71.0685274,63.5233683 71.6152661,63.4604343 C72.6684264,63.3409582 73.5588435,62.5557588 73.9443139,61.4096726 C74.3597763,59.9425249 74.3745265,58.3883513 73.9865977,56.9138285 C73.5726103,55.1467612 73.1743564,53.4593446 72.7815109,51.7994617 C70.6078312,42.6007799 68.5541194,33.912453 66.9257035,23.7019113 C66.9232451,23.6842111 66.9207868,23.6674943 66.9183284,23.6507774 C65.9394105,15.7456833 61.7159524,8.87949095 55.6202093,5.2834057 C51.4159264,2.80292305 46.9746579,2.29109303 43.1140534,3.83887487 C42.9390183,3.90918389 42.7531665,3.94507591 42.5648563,3.94507591 L42.4173549,3.94507591 C42.2374031,3.94507591 42.0589264,3.91213392 41.8912664,3.84821663 C37.9333109,2.33681848 33.7909786,2.75768927 29.9131656,5.0695286 C24.1389757,8.50926232 19.7380242,15.8076339 18.7015807,23.6625775 C18.6991224,23.6788027 18.696664,23.6945362 18.6942056,23.7107613 C17.3927512,31.5509549 15.0558366,42.7084559 11.7468875,56.8744948 C11.3451919,58.3991681 11.3624004,59.9621917 11.7872046,61.4357312 C12.1461248,62.5400253 13.0326085,63.3306331 14.0867521,63.4535509 C15.0243697,63.5651604 15.8631612,63.1123309 16.4403836,62.1815968 C16.9517219,61.2218541 17.297367,60.190819 17.4684686,59.1150417 C17.4733853,59.0850498 17.4787937,59.0550578 17.4856771,59.0250659 C17.743313,57.8686545 17.9896404,56.7540353 18.2325261,55.6531828 C18.4523033,54.657548 18.6696221,53.6727301 18.8913659,52.6780786 C19.0732844,51.7876616 19.9681265,51.1961808 20.8870605,51.3810493 C21.7165103,51.5496926 22.299141,52.3147334 22.2406321,53.1599167 C22.0228216,57.4915425 22.6265942,60.530564 24.1989596,62.9854797 C25.0618431,64.3597015 26.4640902,65.2845356 28.0536641,65.5347963 C29.3797021,65.7363817 30.388612,65.5175878 31.1285775,64.8666148 C33.3873164,62.8807537 33.2594818,57.0598549 33.1837644,53.5827542 C33.1655725,52.7631378 33.148364,51.9892469 33.1591808,51.3417155 C33.2181814,47.4786527 33.280132,43.6150981 33.3460159,39.7530186 C33.353391,39.3257561 33.5456346,38.9230771 33.8725961,38.6482328 L41.9114249,31.9025 C42.1852859,31.6728894 42.5225726,31.5573466 42.8593675,31.5573466 L42.8593675,31.5573466 Z M56.7510537,68.5580843 C55.1437796,68.5580843 53.7759496,68.0752629 52.6667387,67.1150285 C49.3400894,64.2348169 49.4762824,58.0407395 49.5765834,53.5178535 C49.5947752,52.6933205 49.6105087,51.9808885 49.6001836,51.3908827 L49.4202319,40.4747923 L42.8583842,34.9587299 L36.2842448,40.4757757 C36.2227858,44.112178 36.1642769,47.7500553 36.1092097,51.388916 C36.0988846,51.9813801 36.1151098,52.6933205 36.1328099,53.5178535 C36.2316359,58.0210727 36.3663539,64.1890915 33.07658,67.0820865 C31.6625328,68.3255237 29.8236814,68.7867116 27.603293,68.4499166 C25.1626357,68.0659212 23.0169814,66.6503989 21.7076602,64.5652202 C20.971628,63.4161839 20.4460312,62.205197 20.0753109,60.9892935 C19.8225917,61.8993774 19.4695716,62.7779943 19.0192005,63.6148192 C19.0074004,63.6374361 18.9946169,63.6595613 18.9813418,63.6811948 C17.8047719,65.6188722 15.8479194,66.6267987 13.7455321,66.383913 C11.5315354,66.1262771 9.70055082,64.5607951 8.96697696,62.299598 C8.37992121,60.267028 8.35681265,58.1611991 8.88486782,56.1620628 C12.1653,42.1140251 14.4879561,31.0273247 15.7795771,23.2520318 C16.9536886,14.4117785 21.7892777,6.47570905 28.4032425,2.53496209 C32.9359619,-0.165297715 37.7941679,-0.717936466 42.4822555,0.923262956 C47.0400502,-0.725803209 52.3446939,-0.0738468183 57.118824,2.74244746 C63.9909164,6.79677053 68.746363,14.4658624 69.8427904,23.2623569 C71.4535062,33.3539142 73.4934512,41.9847155 75.6528724,51.120955 C76.0452262,52.7832963 76.4449551,54.4726796 76.8491091,56.2033632 C77.3648725,58.1607074 77.3412722,60.265553 76.7719167,62.2509225 C76.7665083,62.2686227 76.7615916,62.2863228 76.7556915,62.304023 C76.0113009,64.5730869 74.1694995,66.1390606 71.9486194,66.3917797 C69.8442654,66.6297487 67.8879046,65.6173972 66.7167431,63.6787365 C66.7029763,63.6556279 66.6892095,63.633011 66.6769177,63.6089191 C66.2432634,62.7937278 65.9000767,61.9392028 65.651291,61.0556691 C65.2633622,62.2268306 64.7510405,63.3325998 64.1064592,64.4073936 C62.8453218,66.5348561 60.7183509,68.0015122 58.2747437,68.4258247 C57.7457051,68.5138339 57.2378085,68.5580843 56.7510537,68.5580843 L56.7510537,68.5580843 Z" id="Fill-11" fill="#000000"></path>
                <path d="M23.7975098,48.7362008 C20.1148904,48.7362008 16.914109,46.5580962 15.2030923,42.9098937 C13.9419549,40.1958671 13.9419549,37.0639197 15.2030923,34.3498931 C16.4386627,31.6122663 19.1664561,29.8545407 22.1700772,29.8609151 C24.6284347,29.8609151 27.1605428,30.9180262 29.6877343,33.00763 C30.0264959,33.2824743 30.2261145,33.6925284 30.2334951,34.128641 L30.2334951,45.8550059 C30.2349646,46.3953529 29.9404534,46.8934161 29.4664821,47.1530186 C27.7397318,48.1481617 25.7902544,48.6924421 23.7975098,48.7362008" id="Fill-13" fill="#FFFFFF"></path>
                <path d="M22.1602438,28.385918 L22.1602438,28.385918 C18.5803837,28.3736262 15.3279768,30.4671634 13.8559124,33.7303871 C12.4079399,36.8362758 12.4079399,40.423511 13.8559124,43.5293998 C15.8225983,47.7135241 19.5199679,50.2112153 23.7876764,50.2112153 C26.0331401,50.1718816 28.231895,49.5646673 30.1794057,48.4461147 C31.1258734,47.9259262 31.7124374,46.9302915 31.7085237,45.8500892 L31.7085237,34.128641 C31.7060457,33.251499 31.3132002,32.4205742 30.6366602,31.8620354 C27.8341327,29.5462627 24.9922716,28.3760846 22.1799107,28.3760846 L22.1602438,28.385918 Z M22.1602438,31.3358336 C24.0679292,31.3358336 26.3001177,32.161955 28.7584751,34.128641 L28.7584751,45.8550059 C27.247077,46.7365729 25.5370436,47.2203776 23.7876764,47.2611864 C20.4983942,47.2611864 17.9122022,45.25025 16.5306053,42.2854709 C15.4508947,39.9662565 15.4508947,37.2886136 16.5306053,34.9693992 C17.518865,32.7475358 19.7284366,31.3211968 22.1602438,31.3358336 L22.1602438,31.3358336 Z" id="Fill-15" fill="#000000"></path>
                <path d="M20.8917314,37.0196693 C20.8917314,37.0196693 24.3334318,33.8631384 28.6798077,40.7416225" id="Fill-17" fill="#FFFFFF"></path>
                <path d="M28.6802994,41.479228 C28.4359386,41.479228 28.1969863,41.3577852 28.0558766,41.1355497 C26.5110448,38.689484 24.8968873,37.2818285 23.3879475,37.0645098 C22.1769606,36.8855413 21.4168365,37.5404477 21.3843862,37.568473 C21.0805332,37.834959 20.6159037,37.8098837 20.345976,37.5094724 C20.0760484,37.2085695 20.0952236,36.7493483 20.3936681,36.475979 C20.4438186,36.4297619 21.6533305,35.3446429 23.5506908,35.597362 C25.543927,35.8633563 27.4796376,37.4612886 29.3037388,40.3478919 C29.5210576,40.692062 29.4182983,41.1473498 29.0736366,41.3656519 C28.951702,41.4423527 28.8150174,41.479228 28.6802994,41.479228" id="Fill-19" fill="#000000"></path>
                <path d="M62.4084717,48.6280331 C60.4329356,48.5852577 58.4996834,48.0493358 56.7837499,47.0694345 C56.3073202,46.8132737 56.0093673,46.3171771 56.0069089,45.7763385 L55.9774077,34.0647237 C55.976917,33.6261527 56.1711272,33.209707 56.5084138,32.9289625 C59.040522,30.8147752 61.5775469,29.7429209 64.0506544,29.7429209 C67.0390337,29.7380146 69.755027,31.479515 70.9979726,34.197475 C72.272385,36.9041265 72.2851685,40.0355822 71.0323896,42.7525588 C69.3410396,46.4302616 66.1156747,48.6280331 62.4232218,48.6280331 L62.4084717,48.6280331 Z" id="Fill-21" fill="#FFFFFF"></path>
                <path d="M64.0604879,28.2678972 C61.2333768,28.2678972 58.3767655,29.4528451 55.5693213,31.7981181 C54.8967147,32.3605903 54.5097693,33.1929901 54.512216,34.0696404 L54.5417279,45.7812552 C54.5451696,46.8619491 55.1396004,47.8541422 56.0904931,48.3674472 C58.0266954,49.4668247 60.2072584,50.0632222 62.4330553,50.1030476 C66.7253473,50.1030476 70.4423838,47.5856896 72.3844861,43.3720649 C73.8196752,40.2588011 73.8054167,36.6700909 72.3451524,33.5681355 C70.8593212,30.3319538 67.6216645,28.2605418 64.0604879,28.2678972 Z M64.0359043,31.217846 C66.4554197,31.204179 68.6556496,32.6167511 69.6507927,34.8218978 C70.739845,37.1366871 70.7506618,39.81433 69.680293,42.1379695 C68.3036128,45.1224154 65.7125041,47.1530186 62.4084717,47.1530186 C60.6802464,47.1072932 58.9908632,46.6328302 57.4917568,45.7714218 L57.4622565,34.0647237 C59.920614,32.0292037 62.1478858,31.217846 64.0604879,31.217846 L64.0359043,31.217846 Z" id="Fill-23" fill="#000000"></path>
                <path d="M65.3191669,36.8967514 C65.3191669,36.8967514 62.1626359,33.8533049 57.850677,40.7514559" id="Fill-25" fill="#FFFFFF"></path>
                <path d="M57.8502345,41.4888156 C57.7164999,41.4888156 57.5812902,41.4529236 57.4598473,41.3762229 C57.114694,41.1608707 57.0094763,40.7055829 57.22532,40.3604296 C59.0828549,37.3887671 61.0126655,35.7603511 62.9601763,35.5204154 C64.7006933,35.302605 65.7858123,36.32184 65.8305544,36.3655987 C66.1240823,36.6483098 66.1329324,37.1149061 65.8502213,37.408434 C65.5680018,37.7009785 65.1058306,37.7093369 64.8127944,37.4335092 C64.7759191,37.4000755 64.1465796,36.8459618 63.1052193,36.9890382 C62.0913927,37.1276895 60.4649435,37.9600894 58.4756406,41.1421872 C58.3360059,41.3658978 58.0960702,41.4888156 57.8502345,41.4888156" id="Fill-27" fill="#000000"></path>
                <path d="M58.194847,51.0765571 C58.5931009,49.3753738 58.7701027,47.5758561 59.0110217,45.7124212 L61.6562143,25.2490539 C62.0761018,22.0694144 60.6881132,18.9212419 58.057179,17.0873072 C52.5455417,13.2768532 42.0188551,8.72889198 29.0485613,16.3006329 C25.687495,18.2751856 23.7365426,21.9848469 24.0138453,25.8734767 L24.4809332,32.6536265 L25.2823577,44.335741 C25.5921108,48.854202 25.7199454,52.7629903 28.8518927,56.3276086 C31.8663306,59.8563348 36.1463309,62.0600064 40.7700096,62.4636687 C41.0699292,62.4636687 41.3747655,62.5030025 41.6746851,62.5079192 C46.699076,62.5752782 51.5371234,60.6066255 55.0874832,57.0503657 C56.6716488,55.3958911 57.7493927,53.3234958 58.194847,51.0765571" id="Fill-29" fill="#FFFFFF"></path>
                <path d="M40.8414986,60.9890968 C41.0121086,60.9915551 41.1832103,61.0023719 41.354312,61.0146637 C41.4693631,61.0225304 41.5844142,61.0313805 41.6979903,61.0328555 C41.7737077,61.0343306 41.8489335,61.0348222 41.9236675,61.0348222 C46.4406535,61.0348222 50.847505,59.2102293 54.0438614,56.0084646 C55.4141498,54.5767173 56.356684,52.7639245 56.7485462,50.7893718 C56.7510046,50.7731466 56.7549379,50.7564298 56.7588713,50.7402046 C57.0617409,49.445142 57.2323509,48.0664951 57.4123027,46.6067225 C57.4565531,46.2482939 57.5012952,45.8864237 57.548004,45.5230785 L60.1931966,25.0602029 C60.5427751,22.4120603 59.4011139,19.8219349 57.2136674,18.2972616 C51.2305171,14.1608294 41.6109645,10.6748786 29.7921653,17.5745045 C26.8976952,19.2751962 25.245679,22.4159937 25.4851231,25.7682098 L26.7944442,44.8352301 C27.0756803,49.0188628 27.2974242,52.3233868 29.9598253,55.3545415 C32.7412109,58.6094068 36.599357,60.604118 40.8414986,60.9890968 M41.9197342,63.9843595 C41.8312333,63.9843595 41.7432241,63.9843595 41.6547232,63.9828845 C41.4850966,63.9799344 41.3179283,63.9691177 41.1502683,63.9573175 C40.9806416,63.9455174 40.8100316,63.9484675 40.64188,63.932734 C35.6017556,63.4931797 31.0169189,61.1321732 27.7300951,57.2863188 C24.421146,53.5191319 24.1443349,49.3969581 23.850807,45.0323904 L22.5419775,25.9747119 C22.2228827,21.5000097 24.4295044,17.3040852 28.3014173,15.0286296 C42.1572115,6.94014194 53.4174719,12.0864674 58.8961673,15.8738129 C61.996156,18.0356924 63.6122802,21.7006116 63.1191336,25.4422317 L60.4744327,45.9011739 C60.4277239,46.2596024 60.3839652,46.6155725 60.3402064,46.968101 C60.1509129,48.5001494 59.9719445,49.9476302 59.6371162,51.3882277 C59.1326612,53.9055857 57.9285578,56.21595 56.153132,58.0700432 C52.3854534,61.8450968 47.2184778,63.9843595 41.9197342,63.9843595" id="Fill-31" fill="#000000"></path>
                <path d="M45.6621409,51.8288145 C43.53812,52.4483206 40.848677,52.4876543 38.8623242,51.5141447" id="Fill-33" fill="#FFFFFF"></path>
                <path d="M42.5071341,53.4992684 C41.0975119,53.4992684 39.6229891,53.255891 38.3215347,52.6181931 C37.7118621,52.3197485 37.4596346,51.5832246 37.7585709,50.9735519 C38.0575071,50.3633876 38.794031,50.1106685 39.403212,50.4105881 C40.9293603,51.1584204 43.2515247,51.251838 45.31802,50.6485571 C45.9714514,50.4602469 46.6524164,50.8329339 46.8422016,51.4843986 C47.0319868,52.1368467 46.6578248,52.818795 46.0063601,53.0090719 C45.0131837,53.2986664 43.786955,53.4992684 42.5071341,53.4992684" id="Fill-35" fill="#DB3B34"></path>
                <path d="M28.7595077,33.3911337 C28.3656788,33.3911337 27.979225,33.2023319 27.7417477,32.8517701 C27.3602106,32.2902813 27.5067287,31.5257321 28.0687092,31.1451784 C31.3506164,28.9179066 34.3409624,28.9395401 36.2688063,29.3500858 C38.3731602,29.7970152 39.7119817,30.8010083 39.7685239,30.8437838 C40.3083792,31.2543295 40.4140886,32.025762 40.0030512,32.566109 C39.5939805,33.1054726 38.8264813,33.2121653 38.2856427,32.8050613 C38.111591,32.6752601 34.2608199,29.9145247 29.4483394,33.1787317 C29.2374123,33.3222997 28.996985,33.3911337 28.7595077,33.3911337" id="Fill-37" fill="#000000"></path>
                <path d="M46.6363879,33.0814299 C46.2420674,33.0814299 45.8546302,32.8921363 45.6171529,32.5405912 C45.2365992,31.9786107 45.3845923,31.2140616 45.9470645,30.8339995 C49.0386948,28.743904 53.0084504,28.5290436 56.306091,30.2739857 C56.9064219,30.5916055 57.1355408,31.3350128 56.817921,31.9353436 C56.5003013,32.5356745 55.756894,32.7643018 55.1565631,32.4471737 C52.6623136,31.1280191 49.6611509,31.289779 47.3237446,32.8705028 C47.1128176,33.0130875 46.8733736,33.0814299 46.6363879,33.0814299" id="Fill-39" fill="#000000"></path>
                <path d="M22.8928343,29.5954299 L22.8928343,29.5954299 L25.2676076,38.4848503 L25.2676076,29.851099 C25.2676076,27.9207968 26.8281729,26.3538398 28.7584751,26.3454813 L33.3359367,26.3454813 L35.9909627,19.781667 L38.6459887,26.3454813 L46.901153,26.3454813 L49.4086776,19.781667 L52.6291258,26.7535687 L56.351079,26.7535687 C58.2872813,26.7535687 59.8566967,28.3229841 59.8566967,30.2591864 L59.8566967,38.4848503 L62.8067256,28.4252517 L64.0359043,22.9726149 L60.4762027,13.0556011 L43.1988667,8.09463576 L25.3954422,14.3241135 L22.2192444,20.0471696 L22.8928343,29.5954299 Z" id="Fill-41" fill="#181D8B"></path>
                <path d="M53.2581211,25.7702257 L56.3512265,25.7702257 C58.8263007,25.7702257 60.8401871,27.7841121 60.8401871,30.2591864 L60.8401871,31.6378332 L61.8540137,28.1784326 L63.0138668,23.0355489 L59.7211428,13.8614506 L43.2285145,9.12567086 L26.0736047,15.128488 L23.2209267,20.2694051 L23.8674747,29.4326866 L24.2839204,30.9927602 L24.2839204,29.851099 C24.2839204,27.3863499 26.2894484,25.3724635 28.7541976,25.3621384 L32.6728193,25.3621384 L35.0790596,19.4129134 C35.2295111,19.0412097 35.590398,18.798324 35.9911102,18.798324 C36.3918225,18.798324 36.7527093,19.0412097 36.9026691,19.4129134 L39.3089094,25.3621384 L46.2237772,25.3621384 L48.4903827,19.4306136 C48.6314925,19.0613683 48.9800875,18.8125825 49.3758831,18.7988157 C49.7628286,18.7781655 50.1360072,19.0102344 50.3012088,19.3691546 L53.2581211,25.7702257 Z M59.8578275,39.4681933 C59.8111187,39.4681933 59.7639183,39.4652433 59.7172095,39.4583599 C59.2329131,39.3885425 58.8735012,38.9740635 58.8735012,38.4848503 L58.8735012,30.2591864 C58.8735012,28.8682477 57.7421651,27.7369116 56.3512265,27.7369116 L52.6292733,27.7369116 C52.2452779,27.7369116 51.8971745,27.5141845 51.7363979,27.166081 L49.4948676,22.3127918 L47.8192512,26.6965348 C47.6742081,27.0770885 47.3084045,27.3288243 46.9008088,27.3288243 L38.6456446,27.3288243 C38.2449323,27.3288243 37.8840454,27.0859386 37.7340856,26.714235 L35.9911102,22.4042427 L34.2476431,26.714235 C34.0971916,27.0859386 33.7367964,27.3288243 33.3355925,27.3288243 L28.7586226,27.3288243 C27.3775174,27.3347244 26.2506064,28.4660605 26.2506064,29.851099 L26.2506064,38.4848503 C26.2506064,38.9784885 25.8848028,39.3959176 25.3955897,39.4603266 C24.9078516,39.5178521 24.4442054,39.2159658 24.3173541,38.7385528 L21.9430725,29.8491324 C21.9268473,29.7891484 21.9165222,29.7271978 21.9120972,29.6647555 L21.2385073,20.1164953 C21.2252321,19.9262184 21.2675159,19.7369249 21.3594584,19.5702483 L24.5356562,13.8467005 C24.6526741,13.6357734 24.8434426,13.4754885 25.0710865,13.3958377 L42.874511,7.16635999 C43.0662629,7.09850933 43.2742399,7.09260927 43.4704169,7.14964316 L60.7472612,12.1106085 C61.0516059,12.1976343 61.2949833,12.4252782 61.401676,12.7232311 L64.9618692,22.640245 C65.0248032,22.8157717 65.0361116,23.0065403 64.9953029,23.1884587 L63.7661242,28.6415872 C63.7612074,28.6622374 63.7562907,28.6823959 63.7503907,28.7020628 L60.8003618,38.7616614 C60.6764605,39.1854822 60.2880401,39.4681933 59.8578275,39.4681933 L59.8578275,39.4681933 Z" id="Fill-43" fill="#181D8B"></path>
                <path d="M42.7121119,37.8505941 L42.7121119,43.3278145 C43.9575158,44.0702384 44.3651115,45.6819376 43.6226875,46.9273414 C43.4756778,47.1741605 43.2893343,47.3944293 43.0710321,47.5807728 L42.5793606,48.0232772" id="Fill-45" fill="#FFFFFF"></path>
                <path d="M42.5796065,49.2523576 C42.2428115,49.2523576 41.9079832,49.1151812 41.6655892,48.8452536 C41.2112847,48.3407986 41.2525851,47.5629743 41.7570401,47.1096532 L42.2487116,46.6671489 C42.3893296,46.5466894 42.4881556,46.4296716 42.566823,46.2979036 C42.7575915,45.9778255 42.8126588,45.6016968 42.7212079,45.2408099 C42.6302486,44.8789397 42.4030964,44.574595 42.0825266,44.3838265 C41.7103313,44.161591 41.4831791,43.7608787 41.4831791,43.3277161 L41.4831791,37.8509875 C41.4831791,37.1719891 42.0333594,36.6218087 42.7123578,36.6218087 C43.3908644,36.6218087 43.9415365,37.1719891 43.9415365,37.8509875 L43.9415365,42.7126351 C45.286258,43.9177219 45.6373114,45.9488168 44.678552,47.5570743 C44.4617249,47.9199278 44.1893389,48.2424643 43.8682774,48.5163253 L43.4011895,48.9367045 C43.1661705,49.1481232 42.8726427,49.2523576 42.5796065,49.2523576" id="Fill-47" fill="#EAA8C6"></path>
                <path d="M34.3192797,33.8385548 L34.3192797,33.8385548 C35.2180551,33.8385548 35.9467123,34.5672119 35.9467123,35.4659874 L35.9467123,37.8948446 C35.9467123,38.79362 35.2180551,39.5222772 34.3192797,39.5222772 L34.3192797,39.5222772 C33.4205042,39.5222772 32.691847,38.79362 32.691847,37.8948446 L32.691847,35.4659874 C32.691847,34.5672119 33.4205042,33.8385548 34.3192797,33.8385548" id="Fill-49" fill="#181D8C"></path>
                <path d="M34.3186897,37.4181199 C34.1977385,37.4181199 34.0753123,37.3886196 33.9622278,37.3261773 L31.0176073,35.698253 C30.6616371,35.5015844 30.5318359,35.0521967 30.7289961,34.6962265 C30.9261564,34.339273 31.3760358,34.2094718 31.7310226,34.4076154 L34.6761348,36.035048 C35.032105,36.2322083 35.1619063,36.6811043 34.9642543,37.0375662 C34.830028,37.2809435 34.5782922,37.4181199 34.3186897,37.4181199" id="Fill-51" fill="#181D8B"></path>
                <path d="M50.9328592,39.5173605 L50.9328592,39.5173605 C50.0340837,39.5173605 49.3054266,38.7887033 49.3054266,37.8899278 L49.3054266,35.4610707 C49.3054266,34.5622952 50.0340837,33.8336381 50.9328592,33.8336381 L50.9328592,33.8336381 C51.8316347,33.8336381 52.5602918,34.5622952 52.5602918,35.4610707 L52.5602918,37.8899278 C52.5602918,38.7887033 51.8316347,39.5173605 50.9328592,39.5173605" id="Fill-53" fill="#181D8C"></path>
                <path d="M50.9332525,37.4181199 C50.67365,37.4181199 50.4219142,37.2809435 50.2876879,37.0375662 C50.0900359,36.6806127 50.2198372,36.2322083 50.5758074,36.035048 L53.5214112,34.4076154 C53.8759064,34.2114384 54.3257858,34.339273 54.5234377,34.6962265 C54.720598,35.0526884 54.5907967,35.5015844 54.2348266,35.698253 L51.2897144,37.3261773 C51.1766299,37.3881279 51.0542037,37.4181199 50.9332525,37.4181199" id="Fill-55" fill="#181D8B"></path>
            </g>
        </g>
    </g>
</svg>