<?xml version="1.0" encoding="UTF-8"?>
<svg width="572px" height="431px" viewBox="0 0 572 431" version="1.1" xmlns="http://www.w3.org/2000/svg" xmlns:xlink="http://www.w3.org/1999/xlink">
    <title>Illustration</title>
    <defs>
        <polygon id="path-1" points="2.84217094e-14 0 125.691619 0 125.691619 116.4776 2.84217094e-14 116.4776"></polygon>
        <polygon id="path-3" points="0 0 62.0567117 0 62.0567117 81.4479315 0 81.4479315"></polygon>
    </defs>
    <g id="Design" stroke="none" stroke-width="1" fill="none" fill-rule="evenodd">
        <g id="rta-gitex-UI-15.00" transform="translate(-670.000000, -428.000000)">
            <g id="Illustration" transform="translate(670.000000, 428.000000)">
                <g id="Character">
                    <path d="M179.042212,115.4776 C179.042212,115.4776 177.342212,111.8576 171.502212,109.7776 C163.552212,106.9476 164.272212,95.4976 164.272212,95.4976 C157.882212,93.0176 154.056212,86.4486 155.052212,79.6676 C147.676212,76.3026 144.423212,67.5956 147.788212,60.2196 C148.874212,57.8376 150.578212,55.7896 152.722212,54.2876 C147.695212,46.0006 150.339212,35.2076 158.626212,30.1806 C161.920212,28.1826 165.781212,27.3236 169.612212,27.7376 C172.862212,12.4476 186.132212,8.6276 196.082212,12.1476 L196.622212,12.3476 C198.829212,13.2076 200.862212,14.4616 202.622212,16.0476 L203.182212,14.7376 C207.463212,3.8076 219.675212,-1.7194 230.712212,2.2776 C245.512212,7.3976 242.092212,13.4876 260.232212,21.4876 C260.930212,21.7956 261.645212,22.0666 262.372212,22.2976 C264.632212,23.0076 270.802212,25.5576 268.792212,31.4676 C266.782212,37.3776 259.032212,37.0276 259.032212,37.0276 C268.131212,40.6316 272.585212,50.9286 268.982212,60.0276 L268.982212,60.0276 C267.000212,65.1676 262.774212,69.1176 257.512212,70.7476 C259.539212,74.9336 259.731212,79.7746 258.042212,84.1076 C254.819212,92.6376 245.294212,96.9436 236.762212,93.7276 C236.762212,93.7276 238.082212,108.2776 217.022212,107.2076" id="Fill-1" fill="#2B2F74"></path>
                    <g id="Group-5" transform="translate(145.431462, 0.000000)">
                        <mask id="mask-2" fill="white">
                            <use xlink:href="#path-1"></use>
                        </mask>
                        <g id="Clip-4"></g>
                        <path d="M33.6107502,116.4776 C33.2257502,116.4776 32.8757502,116.2546 32.7107502,115.9076 C32.7107502,115.8376 31.0307502,112.6076 25.7107502,110.7176 C18.2707502,108.0676 17.7807502,98.8476 17.8007502,96.1576 C11.5697502,93.4496 7.81375021,87.0146 8.52075021,80.2576 C0.820750212,76.3076 -2.21924979,66.8636 1.73075021,59.1626 C2.75575021,57.1646 4.19775021,55.4096 5.96075021,54.0176 C1.08275021,45.0086 4.43075021,33.7506 13.4397502,28.8726 C16.4827502,27.2246 19.9257502,26.4606 23.3807502,26.6676 C24.9507502,20.2076 28.4307502,15.3276 33.4707502,12.4976 C38.8587502,9.6096 45.2177502,9.1406 50.9707502,11.2076 L51.5307502,11.4176 C53.4287502,12.1466 55.2047502,13.1586 56.8007502,14.4176 L56.8007502,14.3476 C61.3017502,2.9516 74.0437502,-2.8064 85.5707502,1.3476 C90.8377502,2.9966 95.5877502,5.9806 99.3607502,10.0076 C102.56075,13.1076 106.18075,16.6176 115.17075,20.5776 C115.82175,20.8746 116.48975,21.1316 117.17075,21.3476 C119.08075,21.9576 122.51075,23.4176 123.99075,26.3476 C124.82475,28.0526 124.91175,30.0266 124.23075,31.7976 C122.94075,35.5676 119.62075,37.0676 117.00075,37.6576 C120.17875,39.6416 122.67075,42.5526 124.14075,45.9976 C128.29375,55.6706 123.81875,66.8786 114.14575,71.0306 C113.88675,71.1426 113.62475,71.2476 113.36075,71.3476 C116.94175,80.2056 112.91275,90.3116 104.22075,94.2776 C100.45475,96.0016 96.1927502,96.3036 92.2207502,95.1276 C92.0127502,98.1676 90.7497502,101.0386 88.6507502,103.2476 C85.0907502,106.9476 79.3107502,108.6176 71.4507502,108.2476 C70.8987502,108.2486 70.4507502,107.8016 70.4497502,107.2486 C70.4497502,107.2316 70.4507502,107.2146 70.4507502,107.1976 C70.4837502,106.6486 70.9527502,106.2296 71.5007502,106.2576 C78.7507502,106.6176 84.0207502,105.1576 87.1607502,101.8876 C89.1857502,99.7266 90.2647502,96.8476 90.1607502,93.8876 C90.1237502,93.3366 90.5397502,92.8596 91.0907502,92.8216 C91.2367502,92.8116 91.3837502,92.8346 91.5207502,92.8876 C95.3367502,94.3686 99.5877502,94.2456 103.31075,92.5476 C111.26675,88.9226 114.77675,79.5346 111.15175,71.5786 C111.10575,71.4776 111.05875,71.3776 111.01075,71.2776 C110.89075,71.0136 110.89075,70.7116 111.01075,70.4476 C111.12875,70.1776 111.35875,69.9726 111.64075,69.8876 C120.63875,67.0726 125.65075,57.4976 122.83575,48.4996 C122.66475,47.9526 122.46675,47.4146 122.24075,46.8876 C120.50775,42.8306 117.20775,39.6456 113.09075,38.0576 C112.63675,37.8826 112.37475,37.4046 112.47075,36.9276 C112.56775,36.4546 112.98875,36.1176 113.47075,36.1276 C113.47075,36.1276 120.53075,36.2976 122.24075,31.2476 C122.75075,29.9846 122.70375,28.5646 122.11075,27.3376 C120.92175,24.9776 117.77075,23.7576 116.47175,23.3376 C115.70875,23.0986 114.96075,22.8146 114.23175,22.4876 C104.91175,18.3876 101.15175,14.7376 97.8317502,11.4876 C94.2817502,7.6746 89.8017502,4.8486 84.8317502,3.2876 C74.3107502,-0.5134 62.6747502,4.7356 58.5617502,15.1376 L58.0017502,16.4776 C57.8747502,16.7786 57.6097502,16.9986 57.2917502,17.0676 C56.9767502,17.1336 56.6487502,17.0446 56.4117502,16.8276 C54.7367502,15.3186 52.7977502,14.1316 50.6917502,13.3276 L50.1817502,13.1376 C44.9757502,11.2526 39.2137502,11.6666 34.3317502,14.2776 C29.5817502,16.9476 26.3317502,21.6776 25.0217502,27.9776 C24.9157502,28.4826 24.4437502,28.8246 23.9317502,28.7676 C14.8357502,27.8086 6.68475021,34.4046 5.72575021,43.4996 C5.34875021,47.0786 6.14775021,50.6836 8.00175021,53.7676 C8.27675021,54.2186 8.15375021,54.8046 7.72175021,55.1076 C1.53375021,59.4426 0.0307502115,67.9726 4.36575021,74.1606 C5.76475021,76.1586 7.67275021,77.7456 9.89175021,78.7576 C10.3007502,78.9406 10.5377502,79.3746 10.4717502,79.8176 C9.50975021,86.1406 13.0867502,92.2776 19.0617502,94.5576 C19.4707502,94.7146 19.7307502,95.1206 19.7017502,95.5576 C19.7017502,95.6676 19.1317502,106.2876 26.2617502,108.8376 C32.4317502,111.0276 34.2617502,114.8376 34.3817502,115.0476 C34.6157502,115.5476 34.4017502,116.1426 33.9017502,116.3776 C33.8097502,116.4256 33.7127502,116.4596 33.6107502,116.4776" id="Fill-3" fill="#2B2F74" mask="url(#mask-2)"></path>
                    </g>
                    <path d="M119.232112,424.1076 C68.6121122,413.2276 32.9921122,391.9176 14.0321122,343.7876 C-6.77788779,290.9376 -3.74788779,225.3576 31.2221122,179.0376 C68.9821122,129.0376 141.982112,108.9076 190.072112,152.2776 C209.072112,169.4276 217.382112,192.9176 221.222112,218.4776 C222.892112,229.5676 222.742112,243.6576 231.362112,251.7776 C240.872112,260.7776 252.232112,259.7776 263.932112,264.0776 C275.757112,268.3366 286.954112,274.1696 297.222112,281.4176 C319.862112,297.5776 334.822112,314.6976 335.362112,342.9776 C336.072112,379.6276 305.362112,402.6976 276.642112,411.8376 C227.812112,427.3476 171.742112,434.8376 121.062112,424.4876 L119.232112,424.1076 Z" id="Fill-6" fill="#88CDD3"></path>
                    <path d="M127.972112,129.474642 C124.712112,129.474642 121.432112,129.6376 118.102112,129.9576 C85.3221122,133.0876 53.1021122,151.6576 32.0221122,179.6276 C-0.537887786,222.7576 -7.23788779,287.0476 14.9621122,343.4176 C32.2421122,387.2576 63.4821122,411.0976 119.442112,423.1176 L121.262112,423.4976 C166.492112,432.7576 221.562112,428.2776 276.342112,410.8776 C319.822112,397.0576 334.822112,366.7476 334.342112,342.9876 C333.762112,312.8376 315.872112,295.9876 296.622112,282.2176 C286.427112,275.0186 275.306112,269.2296 263.562112,265.0076 C259.821112,263.7156 255.995112,262.6866 252.112112,261.9276 C244.432112,260.2376 237.182112,258.6476 230.652112,252.4976 C223.382112,245.6376 222.132112,234.6876 221.022112,225.0276 C220.772112,222.7876 220.522112,220.6676 220.222112,218.6176 C215.722112,188.7676 205.932112,167.9176 189.382112,153.0076 C172.613112,137.6986 150.677112,129.2936 127.972112,129.474642 M170.462112,430.2176 C153.811112,430.3046 137.194112,428.7136 120.862112,425.4676 C120.242112,425.3376 119.632112,425.2176 119.022112,425.0776 C91.5021122,419.1676 70.8921122,410.7976 54.1721122,398.7276 C35.7721122,385.4476 22.3421122,367.5976 13.1021122,344.1576 C-9.34788779,287.1576 -2.54788779,222.1576 30.4321122,178.4276 C51.8821122,150.0176 84.5821122,131.1576 117.912112,127.9676 C145.542112,125.3376 170.722112,133.4776 190.742112,151.5276 C207.652112,166.7776 217.652112,187.9976 222.212112,218.3376 C222.532112,220.4176 222.772112,222.5576 223.032112,224.8176 C224.152112,234.5876 225.302112,244.6976 232.032112,251.0476 C238.162112,256.8276 245.152112,258.3576 252.552112,259.9776 C256.527112,260.7636 260.443112,261.8226 264.272112,263.1476 C276.185112,267.4236 287.464112,273.2936 297.802112,280.5976 C317.472112,294.5976 335.802112,311.9276 336.352112,342.9576 C336.682112,360.0976 330.432112,375.3876 317.762112,388.4176 C307.422112,399.0576 292.922112,407.7076 276.932112,412.7876 C240.622112,424.3276 204.152112,430.2176 170.462112,430.2176" id="Fill-8" fill="#88CDD3"></path>
                    <path d="M396.272212,408.4776 L395.812212,408.4776 C395.261212,408.4356 394.849212,407.9546 394.892212,407.4036 C394.892212,407.4016 394.892212,407.3996 394.892212,407.3976 C394.935212,406.8486 395.413212,406.4376 395.962212,406.4776 C397.072212,406.5576 398.382212,406.2176 398.772212,405.2676 C399.016212,404.4016 398.779212,403.4716 398.152212,402.8276 C397.432212,401.9976 393.622212,400.1376 391.792212,399.2376 L390.132212,398.4176 C384.392212,395.3376 371.292212,385.6876 362.632212,379.3076 C359.872212,377.3076 357.692212,375.6776 356.432212,374.7876 C351.192212,371.0876 336.552212,352.0476 335.932212,351.2476 C335.568212,350.8316 335.611212,350.2006 336.026212,349.8366 C336.442212,349.4726 337.074212,349.5146 337.437212,349.9306 C337.464212,349.9616 337.489212,349.9936 337.512212,350.0276 C337.672212,350.2176 352.592212,369.6276 357.582212,373.1476 C358.862212,374.0576 361.052212,375.6676 363.812212,377.6976 C371.912212,383.6976 385.462212,393.6376 391.072212,396.6476 C391.412212,396.8276 391.982212,397.1076 392.672212,397.4476 C395.962212,399.0476 398.752212,400.4476 399.672212,401.5176 C401.324212,403.0336 401.435212,405.6016 399.919212,407.2536 C398.996212,408.2596 397.630212,408.7346 396.282212,408.5176 L396.272212,408.4776 Z" id="Fill-10" fill="#2B2F74"></path>
                    <path d="M314.152012,364.5576 C314.152012,364.5576 315.412012,378.0176 314.752012,384.5576 C314.092012,391.0976 310.192012,399.1476 325.912012,400.3176 C341.632012,401.4876 360.672012,406.3176 365.782012,408.3176 C375.912012,412.1976 387.732012,409.7676 389.182012,408.8376" id="Fill-12" fill="#FFFFFF"></path>
                    <path d="M378.302212,411.4776 C373.912212,411.5336 369.549212,410.7946 365.422212,409.2976 C359.932212,407.1976 340.982212,402.4876 325.832212,401.3676 C320.082212,400.9376 316.352212,399.5476 314.442212,397.1176 C312.202212,394.2776 312.822212,390.5376 313.362212,387.2376 C313.522212,386.2376 313.662212,385.3876 313.752212,384.4976 C314.402212,378.1276 313.172212,364.8176 313.152212,364.6776 C313.100212,364.1276 313.504212,363.6396 314.054212,363.5886 L314.062212,363.5876 C314.612212,363.5356 315.099212,363.9396 315.151212,364.4896 C315.151212,364.4926 315.152212,364.4946 315.152212,364.4976 C315.152212,365.0476 316.412212,378.1276 315.742212,384.7076 C315.652212,385.6476 315.492212,386.6276 315.332212,387.5676 C314.812212,390.7376 314.332212,393.7376 316.012212,395.8776 C317.552212,397.8776 320.812212,398.9876 326.012212,399.3676 C341.342212,400.5076 360.582212,405.2976 366.162212,407.4276 C376.342212,411.3276 387.732212,408.6476 388.682212,408.0476 C389.119212,407.7096 389.747212,407.7906 390.084212,408.2276 C390.422212,408.6646 390.341212,409.2926 389.904212,409.6306 C389.856212,409.6676 389.805212,409.6996 389.752212,409.7276 C388.712212,410.3276 384.092212,411.4776 378.302212,411.4776" id="Fill-14" fill="#2B2F74"></path>
                    <path d="M389.542212,409.7076 C389.304212,409.7076 389.073212,409.6226 388.892212,409.4676 C384.682212,405.8176 379.892212,401.7476 379.062212,401.2576 C378.645212,401.1076 378.376212,400.7006 378.402212,400.2576 C378.439212,399.7066 378.916212,399.2896 379.467212,399.3276 C379.469212,399.3276 379.470212,399.3276 379.472212,399.3276 C379.872212,399.3276 380.322212,399.3876 390.202212,407.9676 C390.616212,408.3326 390.656212,408.9646 390.291212,409.3786 C390.101212,409.5936 389.829212,409.7176 389.542212,409.7176 L389.542212,409.7076 Z" id="Fill-16" fill="#2B2F74"></path>
                    <path d="M381.962112,411.2276 C381.763112,411.2276 381.567112,411.1686 381.402112,411.0576 L372.142112,404.8176 C371.683112,404.5086 371.563112,403.8856 371.872112,403.4276 C372.181112,402.9696 372.804112,402.8486 373.262112,403.1576 L382.522112,409.4076 C382.975112,409.7236 383.086112,410.3466 382.770112,410.7996 C382.585112,411.0646 382.285112,411.2236 381.962112,411.2276 Z" id="Fill-18" fill="#2B2F74"></path>
                    <path d="M351.452112,246.2876 C351.869112,244.8556 351.751112,243.3206 351.122112,241.9676 C349.802112,239.0326 348.194112,236.2356 346.322112,233.6176 C343.682112,229.7376 340.752112,226.0676 338.072112,222.2176 C334.132112,216.5276 322.782112,222.3076 316.512112,223.9176 C306.199112,226.5846 295.918112,229.3646 285.672112,232.2576 C280.932112,233.5976 240.272112,244.0076 240.222112,245.8076 C236.972112,222.4676 234.862112,194.8076 238.052112,170.8876 C240.222112,154.6076 235.602112,141.4276 216.192112,137.8876 L201.622112,151.2576 C197.402112,188.3976 199.722112,224.8576 203.192112,261.8876 C204.082112,272.0776 205.302112,282.2676 206.672112,292.4076 C223.472112,287.2946 240.282112,282.2406 257.102112,277.2476 C274.475112,272.0546 291.835112,266.8446 309.182112,261.6176 C316.582112,259.3976 323.932112,257.0376 331.312112,254.7576 C334.662112,253.7576 338.002112,252.6276 341.372112,251.7076 C344.742112,250.7876 348.982112,250.2676 350.982112,247.2776 C351.180112,246.9686 351.338112,246.6366 351.452112,246.2876" id="Fill-20" fill="#DE1A26"></path>
                    <path d="M353.422112,367.3776 L353.422112,366.6976 L353.422112,365.6976 L353.352112,363.1576 L353.002112,352.9976 C352.742112,346.2306 352.432112,339.4546 352.072112,332.6676 C351.332112,319.0876 350.392112,305.4776 348.942112,291.5976 C348.572112,288.1276 348.172112,284.5976 347.712112,281.1076 L347.522112,279.6676 L347.202112,277.4776 L346.522112,273.0676 C346.032112,270.1376 345.522112,267.2176 344.912112,264.3176 C343.815112,258.6666 342.246112,253.1166 340.222112,247.7276 C338.412112,242.8646 335.796112,238.3416 332.482112,234.3476 C330.934112,232.4286 329.115112,230.7446 327.082112,229.3476 C326.082112,228.6276 324.952112,227.8876 323.832112,227.1976 C322.612112,226.6676 321.422112,226.1976 320.242112,225.7776 C315.500112,224.1576 310.478112,223.5216 305.482112,223.9076 C299.953112,224.3446 294.496112,225.4496 289.232112,227.1976 C283.554112,229.0706 277.989112,231.2676 272.562112,233.7776 L268.112112,235.8476 L264.702112,237.4976 L259.492112,240.0676 C256.066112,241.8006 252.686112,243.5676 249.352112,245.3676 C242.683112,248.9576 236.162112,252.6476 229.732112,256.4476 C216.872112,264.0376 204.342112,271.9576 191.912112,280.4476 L187.252112,283.6776 L184.922112,285.3176 C184.842112,285.3426 184.765112,285.3766 184.692112,285.4176 L183.692112,285.9076 L182.852112,286.3276 C182.632112,286.5026 182.352112,286.5856 182.072112,286.5576 C181.419112,286.3966 180.968112,285.7996 180.992112,285.1276 L180.992112,284.1776 C181.014112,283.9906 181.054112,283.8066 181.112112,283.6276 C181.162112,283.4576 181.012112,283.4276 180.672112,283.4276 L180.002112,283.4276 L179.562112,283.4276 L179.022112,283.2376 C177.622112,283.6576 174.902112,279.4276 171.942112,277.4176 C165.637112,272.5236 157.696112,270.2296 149.752112,271.0076 C141.665112,271.7726 134.308112,276.0136 129.592112,282.6276 C127.332112,286.1676 125.433112,288.5276 125.162112,296.1876 C125.102112,297.0276 125.062112,297.8776 125.033112,298.7476 C125.003112,299.6176 125.033112,300.5876 125.033112,301.5176 C125.086112,303.3976 125.196112,305.3146 125.363112,307.2676 C125.543112,309.2076 125.823112,311.1376 126.143112,313.0976 C126.303112,314.0976 126.473112,315.0976 126.663112,316.0376 C126.853112,316.9776 127.103112,317.9476 127.343112,318.8976 C127.793112,320.6276 128.183112,322.4076 128.683112,324.0676 L129.413112,326.5776 L129.783112,327.8376 L130.083112,328.8976 C130.204112,329.2616 130.350112,329.6156 130.523112,329.9576 C132.583112,335.0626 135.536112,339.7586 139.243112,343.8276 C139.643112,344.2976 140.063112,344.6976 140.473112,345.1276 C140.883112,345.5576 141.283112,345.9376 141.783112,346.3776 L143.223112,347.6776 L144.793112,348.9076 C146.983112,350.5846 149.327112,352.0516 151.793112,353.2876 C156.883112,355.7676 162.419112,357.2026 168.073112,357.5076 C170.625112,357.6236 173.183112,357.4996 175.713112,357.1376 L177.443112,356.8376 C177.983112,356.7176 178.523112,356.6276 179.073112,356.4776 C179.622112,356.3276 180.153112,356.2276 180.723112,356.0676 L182.463112,355.5376 C185.082112,354.6996 187.630112,353.6526 190.083112,352.4076 C191.193112,351.7976 192.303112,351.1376 193.433112,350.4076 C198.332112,341.7046 204.770112,333.9626 212.433112,327.5576 C214.633112,324.9876 220.233112,321.0076 220.233112,321.0076 L214.603112,329.1076 C225.503112,320.9876 220.993112,325.8676 241.423112,315.2776 C255.423112,308.0376 269.423112,295.0276 275.223112,291.5876 C278.123112,289.8676 281.023112,288.2006 283.923112,286.5876 L288.243112,284.2176 L289.323112,283.6476 L289.493112,283.5576 L289.583112,283.4976 L289.973112,283.2376 C291.016112,282.5616 292.109112,281.9666 293.243112,281.4576 C293.849112,281.1726 294.498112,280.9866 295.163112,280.9076 C295.490112,280.8566 295.822112,280.9516 296.073112,281.1676 C296.295112,281.3816 296.484112,281.6276 296.633112,281.8976 C297.230112,283.0496 297.699112,284.2636 298.033112,285.5176 L298.303112,286.5176 L298.443112,287.0276 L298.513112,287.3076 L298.693112,288.3076 C299.213112,291.3676 299.703112,294.4676 300.163112,297.6076 C302.003112,310.1676 303.283112,323.1176 304.663112,336.0876 C305.363112,342.5676 305.033112,347.1476 307.713112,361.7476 C309.343112,370.6176 306.633112,373.3276 309.163112,375.6776 C312.443112,378.6776 337.393112,379.6776 349.163112,374.4976 C351.293112,373.5576 353.333112,372.4276 353.313112,370.0476 L353.422112,367.3776 Z" id="Fill-22" fill="#2B2F74"></path>
                    <path d="M367.372012,380.5576 C367.372012,380.5576 369.622012,393.8876 369.452012,400.4776 C369.282012,407.0676 365.982012,415.3676 381.742012,415.3676 C397.502012,415.3676 416.862012,418.8176 422.102012,420.3676 C432.492012,423.4876 444.102012,420.1976 445.482012,419.1576 C454.746764,416.904014 457.573498,414.674014 453.962212,412.4676 C448.545284,409.15798 425.218305,397.128585 422.662785,394.9964 C407.170888,382.070816 396.012417,374.750394 396.012417,373.099741" id="Fill-28" fill="#FFFFFF"></path>
                    <path d="M452.062212,418.2676 C451.510212,418.2676 451.062212,417.8196 451.062212,417.2676 C451.062212,416.7156 451.510212,416.2676 452.062212,416.2676 C453.182212,416.2676 454.452212,415.8376 454.772212,414.8576 C454.949212,413.9736 454.640212,413.0616 453.962212,412.4676 C453.192212,411.6976 449.262212,410.1276 447.372212,409.3676 C446.622212,409.0676 446.012212,408.8276 445.642212,408.6576 C439.692212,406.0176 425.912212,397.3676 416.792212,391.6576 C413.892212,389.8376 411.612212,388.4076 410.292212,387.6576 C404.792212,384.3576 387.742212,365.4176 387.012212,364.6576 C386.623212,364.2656 386.625212,363.6326 387.018212,363.2436 C387.410212,362.8546 388.043212,362.8576 388.432212,363.2496 C388.457212,363.2746 388.480212,363.3006 388.502212,363.3276 C388.682212,363.5176 406.082212,382.8476 411.322212,385.9876 C412.652212,386.7976 414.952212,388.2276 417.852212,390.0576 C426.372212,395.4076 440.632212,404.3576 446.462212,406.9476 L448.112212,407.6176 C451.502212,408.9776 454.392212,410.1776 455.382212,411.1576 C456.574212,412.2506 457.083212,413.9026 456.712212,415.4776 C456.002212,417.5376 453.772212,418.2676 452.062212,418.2676" id="Fill-26" fill="#2B2F74"></path>
                    <path d="M431.622012,422.6876 C428.304012,422.7186 425.000012,422.2666 421.812012,421.3476 C416.172012,419.6576 396.922012,416.3476 381.742012,416.3476 C375.972012,416.3476 372.152012,415.2376 370.062012,412.9576 C367.622012,410.2976 367.962012,406.5176 368.262012,403.1876 C368.342012,402.1876 368.422012,401.3076 368.452012,400.4276 C368.622012,394.0176 366.452012,380.8376 366.382012,380.7076 C366.288012,380.1556 366.659012,379.6316 367.212012,379.5376 C367.764012,379.4436 368.288012,379.8156 368.382012,380.3676 C368.482012,380.9176 370.652012,393.8776 370.482012,400.4776 C370.482012,401.4776 370.362012,402.4176 370.282012,403.3676 C369.992012,406.5676 369.722012,409.5976 371.572012,411.6076 C373.252012,413.4476 376.572012,414.3476 381.772012,414.3476 C397.142012,414.3476 416.682012,417.6976 422.412012,419.4076 C432.852012,422.5376 444.012012,419.0276 444.912012,418.3576 C445.356012,418.0296 445.982012,418.1236 446.310012,418.5676 C446.635012,419.0066 446.547012,419.6266 446.112012,419.9576 C444.982012,420.7976 438.852012,422.6876 431.622012,422.6876" id="Fill-30" fill="#2B2F74"></path>
                    <path d="M445.822212,419.0076 C445.822212,419.0076 435.612212,411.3876 435.092212,411.3876" id="Fill-32" fill="#FFFFFF"></path>
                    <path d="M445.822212,420.0076 C445.609212,420.0056 445.402212,419.9356 445.232212,419.8076 C440.762212,416.4776 435.652212,412.8076 434.812212,412.3476 C434.260212,412.2706 433.875212,411.7596 433.952212,411.2076 C434.029212,410.6556 434.540212,410.2706 435.092212,410.3476 C435.492212,410.3476 435.942212,410.3476 446.422212,418.1576 C446.870212,418.4816 446.970212,419.1066 446.646212,419.5536 C446.455212,419.8176 446.148212,419.9716 445.822212,419.9676 L445.822212,420.0076 Z" id="Fill-34" fill="#2B2F74"></path>
                    <path d="M438.382012,422.087634 C438.206012,422.0856 438.033012,422.0376 437.882012,421.9476 L428.182012,416.4076 C427.702012,416.1316 427.536012,415.5176 427.812012,415.0376 C428.088012,414.5576 428.702012,414.3916 429.182012,414.6676 L438.882012,420.2176 C439.362012,420.4886 439.532012,421.0966 439.262012,421.5776 C439.083012,421.8956 438.746012,422.0906 438.382012,422.087634" id="Fill-36" fill="#2B2F74"></path>
                    <path d="M163.142012,287.6076 C159.412012,288.6676 164.682012,280.1976 161.142012,277.4276 C150.682012,269.3776 134.622012,268.4276 123.942012,277.1876 C106.352012,291.5276 113.772012,318.4176 123.202012,335.1876 C132.202012,351.1876 147.482012,361.1876 166.152012,359.9176 C178.152012,359.0776 189.452012,353.5676 198.152012,345.8276 C209.152012,336.0176 256.642012,292.8276 270.982012,282.8276 C271.706012,282.3266 272.694012,282.4656 273.252012,283.1476 C302.312012,317.9276 319.562012,341.5176 339.252012,365.5076 L356.252012,385.5076 C357.361012,386.8346 358.327012,388.2766 359.132012,389.8076 C360.602012,392.5576 362.672012,393.5376 366.982012,391.9276 C383.792012,385.6176 395.982012,371.7576 397.472012,370.1276 C402.922012,364.1276 394.332012,359.3076 392.152012,356.2476 C372.622012,328.8876 353.642012,301.6876 332.862012,275.2476 C320.862012,260.0276 307.862012,241.9376 291.662012,231.2476 C291.312012,231.0176 290.942012,230.8776 290.582012,230.6876 C289.120012,229.9316 287.614012,229.2636 286.072012,228.6876 C284.466012,228.1716 282.825012,227.7706 281.162012,227.4876 C260.902012,224.4176 242.552012,238.3176 225.962012,248.1876" id="Fill-38" fill="#2B2F74"></path>
                    <path d="M363.332212,393.7176 C361.062212,393.7176 359.402212,392.5976 358.182212,390.2976 C357.412212,388.8296 356.486212,387.4486 355.422212,386.1776 L338.422212,366.1776 C330.312212,356.2876 322.562212,346.4076 314.362212,335.9476 C302.712212,321.0976 289.522212,304.2676 272.422212,283.8076 C272.194212,283.5286 271.792212,283.4686 271.492212,283.6676 C259.122212,292.2776 221.152212,326.4576 204.942212,341.0476 C202.342212,343.3976 200.222212,345.2976 198.762212,346.6076 C189.312212,355.0576 177.762212,360.1476 166.202212,360.9576 C148.022212,362.2376 132.032212,353.0276 122.312212,335.7176 C111.922212,317.1976 105.932212,290.5476 123.312212,276.3976 C133.872212,267.7876 150.402212,267.8876 161.752212,276.6276 C164.092212,278.4276 163.492212,281.8476 163.062212,284.3576 C162.900212,285.1176 162.806212,285.8906 162.782212,286.6676 L162.912212,286.6676 C163.434212,286.4876 164.003212,286.7656 164.183212,287.2876 C164.363212,287.8096 164.086212,288.3786 163.563212,288.5586 C163.530212,288.5696 163.496212,288.5796 163.462212,288.5876 C162.790212,288.8566 162.025212,288.7416 161.462212,288.2876 C160.532212,287.4576 160.802212,285.9476 161.132212,284.0376 C161.492212,281.9276 161.952212,279.2976 160.572212,278.2376 C149.932212,270.0476 134.472212,269.9376 124.572212,277.9776 C108.182212,291.3376 114.062212,316.9176 124.082212,334.7676 C133.402212,351.3776 148.712212,360.1976 166.082212,358.9976 C177.192212,358.2176 188.332212,353.2976 197.452212,345.1476 L203.622212,339.5976 C221.242212,323.7376 257.892212,290.7376 270.372212,282.0576 C271.520212,281.2736 273.075212,281.4846 273.972212,282.5476 C291.092212,303.0376 304.302212,319.8776 315.972212,334.7376 C324.172212,345.1976 331.912212,355.0676 339.972212,364.9276 L356.972212,384.9276 C358.131212,386.3086 359.136212,387.8106 359.972212,389.4076 C361.142212,391.5876 362.592212,392.5576 366.592212,391.0576 C381.072212,385.6276 392.342212,374.3276 396.512212,369.7176 L396.692212,369.5276 C399.972212,365.9276 397.392212,362.9476 393.692212,359.4176 C392.823212,358.6486 392.024212,357.8056 391.302212,356.8976 L382.132212,344.0176 C366.132212,321.4976 349.552212,298.2076 332.042212,275.9576 C330.596212,274.1176 329.132212,272.2406 327.652212,270.3276 C317.142212,256.8076 305.222212,241.4776 291.082212,232.1576 C290.901212,232.0386 290.710212,231.9356 290.512212,231.8476 L290.082212,231.6376 C288.801212,230.9866 287.482212,230.4126 286.132212,229.9176 L285.672212,229.7376 C284.140212,229.2396 282.572212,228.8586 280.982212,228.5976 C263.922212,226.0176 248.442212,235.5976 233.492212,244.8576 C231.052212,246.3576 228.752212,247.7876 226.492212,249.1676 C226.017212,249.4496 225.404212,249.2926 225.122212,248.8176 C224.839212,248.3456 224.991212,247.7326 225.462212,247.4476 C227.772212,246.0776 230.062212,244.6576 232.462212,243.1576 C247.012212,234.1576 263.462212,223.9176 281.302212,226.6276 C283.019212,226.9046 284.711212,227.3156 286.363212,227.8576 L286.873212,228.0576 C288.296212,228.5816 289.688212,229.1856 291.042212,229.8676 L291.383212,230.0376 C291.670212,230.1666 291.948212,230.3166 292.213212,230.4876 C306.623212,239.9876 318.643212,255.4876 329.213212,269.1076 C330.693212,271.0076 332.153212,272.8876 333.592212,274.7176 C351.133212,297.0076 367.713212,320.3176 383.742212,342.8576 L392.912212,355.7376 C393.567212,356.5346 394.282212,357.2806 395.052212,357.9676 C398.052212,360.8076 403.052212,365.5476 398.162212,370.8676 L397.992212,371.0576 C393.722212,375.7776 382.182212,387.3476 367.282212,392.9276 C366.024212,393.4266 364.686212,393.6936 363.332212,393.7176" id="Fill-40" fill="#33AFBE"></path>
                    <path d="M181.432112,104.3076 L181.432112,108.2076 C188.799112,117.0846 199.029112,123.1166 210.362112,125.2676 C215.122112,126.1076 220.632112,111.7976 222.492112,106.9776 C224.352112,102.1576 239.712112,63.6176 239.712112,63.6176 L242.192112,50.8776 L209.632112,38.2876 C201.778112,35.2466 192.945112,39.1476 189.904112,47.0016 L189.902112,47.0076 L187.832112,52.3476 L178.442112,80.4176 C176.252112,88.9776 179.012112,95.8076 181.432112,104.3076" id="Fill-42" fill="#FFFFFF"></path>
                    <path d="M190.502212,63.4076 C193.560212,62.0406 196.724212,60.9236 199.962212,60.0676 C202.162212,59.3976 204.302212,58.5476 206.532212,57.9776 C208.762212,57.4076 211.392212,56.8476 213.632212,57.7376 C216.162212,58.7376 217.122212,61.2476 218.982212,63.0276 C221.308212,65.1286 224.189212,66.5176 227.282212,67.0276 C229.532212,67.3476 231.622212,66.7876 233.812212,66.5076 C235.380212,66.2616 236.979212,66.3026 238.532212,66.6276 L239.722212,63.6276 L242.202212,50.8876 L209.642212,38.2976 C201.788212,35.2566 192.956212,39.1576 189.914212,47.0116 L189.912212,47.0176 L187.842212,52.3576 L182.422212,68.5676 C184.941212,66.5886 187.647212,64.8606 190.502212,63.4076" id="Fill-44" fill="#2B2F74"></path>
                    <path d="M210.972212,56.2676 C211.997212,56.2576 213.015212,56.4406 213.972212,56.8076 C215.639212,57.5856 217.045212,58.8286 218.022212,60.3876 C218.512212,61.0656 219.053212,61.7036 219.642212,62.2976 C221.825212,64.2346 224.512212,65.5146 227.392212,65.9876 C228.927212,66.1316 230.475212,66.0406 231.982212,65.7176 C232.532212,65.6276 233.092212,65.5376 233.662212,65.4676 C235.062212,65.2746 236.482212,65.2746 237.882212,65.4676 L238.722212,63.3576 L241.032212,51.5376 L209.252212,39.2476 C201.910212,36.4146 193.660212,40.0606 190.812212,47.3976 L188.742212,52.7376 L184.332212,65.9376 C186.149212,64.6646 188.058212,63.5286 190.042212,62.5376 C192.818212,61.2756 195.690212,60.2386 198.632212,59.4376 L199.632212,59.1376 C200.502212,58.8776 201.362212,58.5876 202.222212,58.2976 C203.523212,57.8476 204.872212,57.3976 206.222212,57.0376 C207.768212,56.5876 209.363212,56.3286 210.972212,56.2676 Z M182.422212,69.5576 C181.870212,69.5586 181.421212,69.1126 181.419212,68.5606 C181.419212,68.4506 181.437212,68.3416 181.472212,68.2376 L186.892212,52.0276 L188.972212,46.6476 C192.224212,38.3006 201.606212,34.1466 209.972212,37.3476 L242.532212,49.9476 C242.982212,50.1226 243.243212,50.5936 243.152212,51.0676 L240.712212,63.8076 C240.716212,63.8676 240.716212,63.9276 240.712212,63.9876 L239.522212,66.9876 C239.337212,67.4516 238.837212,67.7076 238.352212,67.5876 C236.920212,67.2896 235.446212,67.2556 234.002212,67.4876 C233.452212,67.5576 232.922212,67.6476 232.382212,67.7276 C230.680212,68.0896 228.933212,68.1846 227.202212,68.0076 C222.898212,67.5006 219.013212,65.1836 216.522212,61.6376 C215.755212,60.3776 214.645212,59.3606 213.322212,58.7076 C211.322212,57.9276 208.952212,58.4476 206.842212,58.9876 C205.542212,59.3276 204.232212,59.7676 202.962212,60.1976 C202.082212,60.4976 201.202212,60.7876 200.312212,61.0576 L199.312212,61.3676 C196.472212,62.1396 193.699212,63.1436 191.022212,64.3676 C188.229212,65.7736 185.580212,67.4476 183.112212,69.3676 C182.914212,69.5136 182.668212,69.5816 182.422212,69.5576 L182.422212,69.5576 Z" id="Fill-46" fill="#2B2F74"></path>
                    <path d="M210.931312,74.222 L210.931312,74.222 C212.054312,74.657 212.612312,75.919 212.178312,77.042 L209.728312,83.374 C209.293312,84.497 208.031312,85.055 206.908312,84.621 L206.908312,84.621 C205.785312,84.187 205.227312,82.924 205.661312,81.801 L208.111312,75.469 C208.546312,74.346 209.808312,73.788 210.931312,74.222" id="Fill-48" fill="#2B2F74"></path>
                    <path d="M203.582212,71.3076 C206.096212,68.6546 209.965212,67.7846 213.372212,69.1076 C214.769212,69.6436 216.008212,70.5236 216.972212,71.6676" id="Fill-50" fill="#FFFFFF"></path>
                    <path d="M216.972112,72.6676 C216.675112,72.6676 216.392112,72.5366 216.202112,72.3076 C213.333112,68.9476 208.284112,68.5486 204.923112,71.4176 C204.710112,71.5996 204.505112,71.7936 204.312112,71.9976 C203.931112,72.3976 203.297112,72.4136 202.897112,72.0326 C202.497112,71.6516 202.481112,71.0176 202.862112,70.6176 C206.663112,66.6106 212.992112,66.4436 216.999112,70.2446 C217.257112,70.4886 217.502112,70.7466 217.732112,71.0176 C218.088112,71.4396 218.035112,72.0706 217.613112,72.4266 C217.613112,72.4266 217.612112,72.4276 217.612112,72.4276 C217.434112,72.5806 217.207112,72.6656 216.972112,72.6676" id="Fill-52" fill="#2B2F74"></path>
                    <path d="M180.582212,91.7076 C170.412212,93.0276 164.862212,86.9076 164.372212,79.2276 C164.103212,75.1326 165.659212,71.1276 168.622212,68.2876 C173.152212,63.9376 181.462212,63.5876 187.362212,74.1676 L180.582212,91.7076 Z" id="Fill-54" fill="#FFFFFF"></path>
                    <path d="M175.582012,66.4275 C173.249012,66.4475 171.016012,67.3725 169.352012,69.0075 C166.604012,71.6465 165.162012,75.3655 165.412012,79.1675 C165.527012,82.6315 167.078012,85.8915 169.692012,88.1675 C172.252012,90.2775 175.772012,91.1675 179.902012,90.7475 L186.302012,74.2175 C183.002012,68.5175 179.302012,66.8575 176.852012,66.4875 C176.416012,66.4525 175.978012,66.4495 175.542012,66.4775 L175.582012,66.4275 Z M177.902012,92.8875 C174.460012,92.9915 171.091012,91.8835 168.382012,89.7575 C165.334012,87.1175 163.523012,83.3275 163.382012,79.2975 C163.097012,74.9065 164.766012,70.6125 167.942012,67.5675 C170.363012,65.1915 173.755012,64.0815 177.112012,64.5675 C180.112012,65.0175 184.492012,66.9675 188.252012,73.7075 C188.375012,73.9735 188.375012,74.2815 188.252012,74.5475 L181.472012,92.0875 C181.340012,92.4275 181.033012,92.6695 180.672012,92.7175 C179.753012,92.8355 178.828012,92.8915 177.902012,92.8875 L177.902012,92.8875 Z" id="Fill-56" fill="#2B2F74"></path>
                    <path d="M217.422112,180.1176 C214.172112,201.8376 214.712112,241.4776 214.712112,241.4776 L215.802112,254.4776 C215.802112,254.4776 191.172112,268.5476 172.002112,287.8176 C145.902112,314.0576 162.072112,330.3176 119.532112,339.7076 L112.112112,326.7076 L107.772112,324.5376 C92.5721122,294.1376 105.772112,272.5976 105.602112,267.5376 C105.052112,252.5376 110.482112,244.5376 110.482112,205.4776 C110.482112,166.4176 122.422112,135.6276 122.422112,135.6276 L161.152112,127.2976 C164.412112,122.5976 172.012112,121.1476 175.262112,122.2376 C175.692112,122.2376 184.562112,122.1276 191.912112,124.0476 C198.452112,125.7476 201.832112,131.3276 202.972112,133.6376 C203.289112,134.2826 203.875112,134.7546 204.572112,134.9276 L219.052112,138.5176" id="Fill-58" fill="#DE1A26"></path>
                    <path d="M186.942112,74.0076 C181.042112,63.4276 172.722112,63.7676 168.202112,68.1176 C165.223112,70.9726 163.663112,75.0006 163.942112,79.1176 C164.442112,86.7876 171.552112,94.1176 179.942112,92.4976 C179.942112,92.4976 173.482112,116.5976 170.532112,127.7176 C168.712112,134.5576 175.062112,142.6076 182.112112,143.2576 L182.402112,143.2576 C193.262112,144.0776 195.162112,136.7476 195.162112,136.7476 L199.212112,122.0676" id="Fill-60" fill="#FFFFFF"></path>
                    <path d="M184.052212,144.2976 C183.512212,144.2976 182.952212,144.2976 182.352212,144.2276 L182.052212,144.2276 C177.889212,143.6846 174.165212,141.3646 171.842212,137.8676 C169.600212,134.8886 168.777212,131.0756 169.592212,127.4376 C172.112212,117.9576 177.182212,99.0276 178.592212,93.6676 C175.198212,93.9036 171.838212,92.8616 169.172212,90.7476 C165.545212,87.9426 163.277212,83.7306 162.932212,79.1576 C162.640212,74.7676 164.306212,70.4726 167.482212,67.4276 C169.906212,65.0486 173.302212,63.9386 176.662212,64.4276 C179.662212,64.8776 184.032212,66.8176 187.792212,73.5576 C188.068212,74.0406 187.900212,74.6566 187.417212,74.9326 C186.934212,75.2086 186.318212,75.0406 186.042212,74.5576 C182.682212,68.5576 178.922212,66.8076 176.362212,66.4176 C173.615212,66.0306 170.845212,66.9476 168.872212,68.8976 C166.116212,71.5326 164.670212,75.2536 164.922212,79.0576 C165.259212,83.0506 167.240212,86.7236 170.392212,89.1976 C173.030212,91.2966 176.449212,92.1466 179.762212,91.5276 C180.305212,91.4266 180.827212,91.7846 180.929212,92.3276 C180.956212,92.4736 180.950212,92.6236 180.912212,92.7676 C180.912212,92.7676 174.462212,116.8676 171.502212,127.9876 C170.855212,131.0626 171.586212,134.2676 173.502212,136.7576 C175.502212,139.7556 178.684212,141.7606 182.252212,142.2676 L182.532212,142.2676 C192.352212,142.9976 194.172212,136.7576 194.242212,136.4876 L198.242212,121.7976 C198.388212,121.2646 198.938212,120.9516 199.471212,121.0976 L199.472212,121.0976 C200.005212,121.2436 200.318212,121.7936 200.173212,122.3266 C200.172212,122.3266 200.172212,122.3276 200.172212,122.3276 L196.172212,137.0076 C196.132212,137.0476 194.132212,144.2876 184.052212,144.2976" id="Fill-62" fill="#2B2F74"></path>
                    <path d="M174.712112,74.8976 C174.712112,74.8976 183.382112,72.3176 184.382112,84.0276" id="Fill-64" fill="#FFFFFF"></path>
                    <path d="M184.352012,85.0276076 C183.833012,85.0296 183.399012,84.6346 183.352012,84.1176 C183.042012,80.4576 181.932012,77.9376 180.052012,76.6476 C178.529012,75.7146 176.696012,75.4296 174.962012,75.8576 C174.432012,76.0146 173.874012,75.7126 173.717012,75.1826 C173.560012,74.6526 173.862012,74.0956 174.392012,73.9376 C176.690012,73.3226 179.140012,73.6846 181.162012,74.9376 C183.572012,76.5776 184.982012,79.5976 185.342012,83.9376 C185.388012,84.4866 184.981012,84.9696 184.432012,85.0176 L184.352012,85.0276076 Z" id="Fill-66" fill="#2B2F74"></path>
                    <path d="M196.902112,56.7476 L184.712112,83.8176 C184.712112,83.8176 185.512112,71.6576 177.942112,62.1276" id="Fill-68" fill="#2B2F74"></path>
                    <path d="M184.712112,84.8176 C184.632112,84.8276 184.552112,84.8276 184.472112,84.8176 C184.015112,84.7046 183.698112,84.2886 183.712112,83.8176 C183.712112,83.7076 184.382112,71.9176 177.162112,62.8176 C176.792112,62.3896 176.839112,61.7426 177.267112,61.3726 C177.695112,61.0026 178.342112,61.0496 178.712112,61.4776 C182.657112,66.6836 185.034112,72.9076 185.562112,79.4176 L195.972112,56.3076 C196.168112,55.7916 196.745112,55.5316 197.261112,55.7266 C197.778112,55.9226 198.038112,56.4996 197.842112,57.0166 C197.828112,57.0546 197.811112,57.0916 197.792112,57.1276 L185.612112,84.1976 C185.462112,84.5646 185.108112,84.8076 184.712112,84.8176" id="Fill-70" fill="#2B2F74"></path>
                    <path d="M182.152112,105.9976 C185.392112,114.2076 193.392112,120.4576 201.562112,123.3576 C206.872112,125.2476 211.822112,126.6576 215.432112,121.6076 C218.572112,117.2276 220.522112,111.9676 222.432112,106.9776 C224.302112,102.1576 237.102112,70.3976 237.102112,70.3976" id="Fill-72" fill="#FFFFFF"></path>
                    <path d="M208.902112,126.0776 C206.264112,125.9196 203.671112,125.3176 201.232112,124.2976 C191.952112,120.9976 184.282112,114.1276 181.232112,106.3676 C181.027112,105.8546 181.277112,105.2726 181.790112,105.0686 C181.791112,105.0676 181.792112,105.0676 181.792112,105.0676 C182.305112,104.8626 182.887112,105.1126 183.091112,105.6256 C183.092112,105.6266 183.092112,105.6266 183.092112,105.6276 C185.952112,112.8776 193.162112,119.3076 201.912112,122.4176 C207.382112,124.3576 211.502112,125.4176 214.632112,121.0176 C217.542112,116.9576 219.432112,112.0176 221.262112,107.3276 L221.532112,106.6176 C223.382112,101.8376 236.072112,70.3376 236.202112,70.0276 C236.406112,69.5136 236.988112,69.2626 237.502112,69.4676 C238.016112,69.6716 238.267112,70.2536 238.062112,70.7676 C237.932112,71.0876 225.242112,102.5776 223.402112,107.3376 L223.122112,108.0476 C221.252112,112.8976 219.312112,117.9076 216.262112,122.1876 C214.644112,124.6676 211.862112,126.1376 208.902112,126.0776" id="Fill-74" fill="#2B2F74"></path>
                    <path d="M225.832212,78.6276 L224.142212,86.0976 C223.932212,90.6376 224.892212,95.5776 228.142212,98.7376 L229.142212,99.7376 C229.813212,100.7106 229.568212,102.0436 228.595212,102.7146 C228.374212,102.8676 228.125212,102.9766 227.862212,103.0376 L220.792212,103.8976" id="Fill-76" fill="#FFFFFF"></path>
                    <path d="M220.812212,104.887631 C220.303212,104.8916 219.873212,104.5126 219.812212,104.0076 C219.747212,103.4616 220.136212,102.9656 220.682212,102.8976 L227.682212,102.0476 C228.031212,101.9516 228.312212,101.6956 228.442212,101.3576 C228.576212,101.0306 228.546212,100.6596 228.362212,100.3576 L227.422212,99.4476 C223.322212,95.4476 222.962212,89.3376 223.112212,86.0376 C223.107212,85.9816 223.107212,85.9246 223.112212,85.8676 L224.812212,78.3976 C224.936212,77.8596 225.473212,77.5236 226.011212,77.6476 C226.011212,77.6476 226.011212,77.6476 226.012212,77.6476 C226.550212,77.7716 226.886212,78.3086 226.762212,78.8466 C226.762212,78.8466 226.762212,78.8476 226.762212,78.8476 L225.082212,86.2176 C224.962212,89.2176 225.292212,94.6076 228.802212,98.0076 L229.802212,99.0076 C229.851212,99.0526 229.894212,99.1036 229.932212,99.1576 C230.920212,100.5826 230.566212,102.5396 229.141212,103.5276 C228.812212,103.7556 228.442212,103.9186 228.052212,104.0076 L227.952212,104.0076 L220.882212,104.8776 L220.812212,104.887631 Z" id="Fill-78" fill="#DE1A26"></path>
                    <path d="M211.712112,56.2376 C207.712112,61.2376 199.862112,64.3976 192.912112,61.7076 C189.106112,60.2306 185.997112,57.3746 184.202112,53.7076" id="Fill-80" fill="#2B2F74"></path>
                    <path d="M198.252212,63.6876 C196.314212,63.7056 194.388212,63.3666 192.572212,62.6876 C188.541212,61.1256 185.241212,58.1106 183.322212,54.2376 C183.061212,53.7506 183.245212,53.1446 183.732212,52.8836 C184.219212,52.6236 184.825212,52.8066 185.085212,53.2936 C185.095212,53.3116 185.104212,53.3296 185.112212,53.3476 C186.812212,56.7706 189.730212,59.4346 193.292212,60.8176 C200.052212,63.4276 207.432212,60.1076 210.942212,55.6576 C211.284212,55.2236 211.913212,55.1506 212.347212,55.4926 C212.781212,55.8346 212.855212,56.4636 212.512212,56.8976 C208.982212,61.1396 203.770212,63.6206 198.252212,63.6876" id="Fill-82" fill="#2B2F74"></path>
                    <path d="M235.420012,67.9405 C235.933012,62.8855 240.029012,59.1615 244.567012,59.6225 C249.106012,60.0835 252.369012,64.5545 251.855012,69.6095 C251.342012,74.6645 247.247012,78.3895 242.708012,77.9285 C238.169012,77.4675 234.907012,72.9955 235.420012,67.9405" id="Fill-84" fill="#2B2F74"></path>
                    <path d="M243.772312,60.5775 C242.042312,60.5955 240.382312,61.2625 239.122312,62.4475 C237.552312,63.9065 236.576312,65.8935 236.382312,68.0275 C236.150312,70.1515 236.705312,72.2865 237.942312,74.0275 C240.054312,77.0655 244.230312,77.8165 247.268312,75.7035 C247.560312,75.5005 247.836312,75.2745 248.092312,75.0275 C249.668312,73.5695 250.645312,71.5765 250.832312,69.4375 C251.292312,64.9475 248.422312,60.9575 244.442312,60.5475 L243.772312,60.5775 Z M243.452312,78.9575 C243.161312,78.9555 242.871312,78.9395 242.582312,78.9075 C240.067312,78.6425 237.788312,77.3045 236.332312,75.2375 C233.194312,70.7835 233.812312,64.6995 237.782312,60.9675 C239.624312,59.2345 242.124312,58.3785 244.642312,58.6175 C249.722312,59.1375 253.392312,64.1075 252.822312,69.6975 C252.585312,72.3275 251.380312,74.7755 249.442312,76.5675 C247.815312,78.0865 245.677312,78.9395 243.452312,78.9575 L243.452312,78.9575 Z" id="Fill-86" fill="#2B2F74"></path>
                    <path d="M241.712112,77.4776 C236.152112,75.6376 233.832112,70.4776 235.302112,64.9676" id="Fill-88" fill="#2B2F74"></path>
                    <path d="M241.712112,78.4776 C241.609112,78.4916 241.505112,78.4916 241.402112,78.4776 C235.502112,76.4776 232.662112,71.0176 234.342112,64.7576 C234.504112,64.2296 235.064112,63.9336 235.592112,64.0956 C236.094112,64.2506 236.390112,64.7666 236.272112,65.2776 C234.882112,70.4376 237.202112,74.9776 242.032112,76.5776 C242.552112,76.7536 242.833112,77.3156 242.662112,77.8376 C242.511112,78.2286 242.131112,78.4846 241.712112,78.4776" id="Fill-90" fill="#2B2F74"></path>
                    <path d="M239.532212,65.4076 C228.942212,74.6676 210.252212,64.2476 210.942212,50.6176" id="Fill-92" fill="#2B2F74"></path>
                    <path d="M229.872012,69.9176 C226.894012,69.8886 223.961012,69.1876 221.292012,67.8676 C214.042012,64.3476 209.592012,57.5576 209.942012,50.5676 C209.969012,50.0156 210.440012,49.5896 210.992012,49.6176 C211.544012,49.6456 211.969012,50.1156 211.942012,50.6676 C211.622012,56.8576 215.642012,62.8976 222.162012,66.0676 C228.162012,68.9676 234.562012,68.4276 238.872012,64.6476 C239.289012,64.2836 239.922012,64.3256 240.287012,64.7426 C240.651012,65.1596 240.609012,65.7936 240.192012,66.1576 C237.326012,68.6286 233.655012,69.9656 229.872012,69.9176" id="Fill-94" fill="#2B2F74"></path>
                    <path d="M363.312012,226.9276 L220.012012,226.9276 C219.327012,226.9276 218.772012,226.3726 218.772012,225.6876 L218.772012,224.8576 C218.772012,221.1956 221.740012,218.2276 225.402012,218.2276 L363.312012,218.2276 C363.997012,218.2276 364.552012,218.7826 364.552012,219.4676 L364.552012,225.6876 C364.552012,226.3726 363.997012,226.9276 363.312012,226.9276" id="Fill-96" fill="#FFFFFF"></path>
                    <path d="M225.412312,219.2376 C222.305312,219.2436 219.788312,221.7606 219.782312,224.8676 L219.782312,225.6976 C219.782312,225.8246 219.885312,225.9276 220.012312,225.9276 L363.312312,225.9276 C363.439312,225.9326 363.547312,225.8346 363.552312,225.7076 C363.552312,225.7046 363.552312,225.7006 363.552312,225.6976 L363.552312,219.4776 C363.552312,219.3506 363.449312,219.2476 363.322312,219.2476 C363.319312,219.2476 363.316312,219.2476 363.312312,219.2476 L225.412312,219.2376 Z M363.312312,227.9276 L220.012312,227.9276 C218.780312,227.9276 217.782312,226.9296 217.782312,225.6976 L217.782312,224.8676 C217.787312,220.6556 221.200312,217.2436 225.412312,217.2376 L363.312312,217.2376 C364.545312,217.2376 365.546312,218.2346 365.552312,219.4676 L365.552312,225.6976 C365.546312,226.9306 364.545312,227.9276 363.312312,227.9276 L363.312312,227.9276 Z" id="Fill-98" fill="#D5D4D3"></path>
                    <path d="M268.312212,195.3676 L271.152212,201.7476 L266.042212,214.6676 C266.042212,214.6676 255.802212,211.0476 248.042212,215.9376 C239.242212,221.4776 233.282212,234.1076 218.522212,231.6876 L211.972212,217.4776 C211.972212,217.4776 232.692212,195.0576 237.092212,193.3576 C247.402212,189.3876 268.312212,195.3676 268.312212,195.3676" id="Fill-100" fill="#FFFFFF"></path>
                    <path d="M219.192312,230.7876 C228.782312,232.1276 234.482312,226.6776 239.982312,221.3976 C242.262312,219.0486 244.775312,216.9376 247.482312,215.0976 C254.292312,210.8176 262.682312,212.6476 265.482312,213.4376 L270.092312,201.7676 L267.622312,196.2076 C264.552312,195.3776 246.542312,190.8076 237.482312,194.3076 C234.482312,195.4776 221.482312,208.7476 213.192312,217.6876 L219.192312,230.7876 Z M222.072312,232.9876 C220.822312,232.9836 219.575312,232.8796 218.342312,232.6776 C218.013312,232.6246 217.731312,232.4106 217.592312,232.1076 L211.072312,217.9176 C210.900312,217.5506 210.967312,217.1156 211.242312,216.8176 C213.382312,214.5076 232.242312,194.1776 236.732312,192.4476 C247.232312,188.3776 267.732312,194.1576 268.582312,194.4476 C268.866312,194.5276 269.100312,194.7286 269.222312,194.9976 L272.062312,201.3876 C272.165312,201.6336 272.165312,201.9116 272.062312,202.1576 L266.952312,215.0676 C266.756312,215.5686 266.199312,215.8246 265.692312,215.6476 C265.592312,215.6476 255.802312,212.2476 248.532312,216.8276 C245.944312,218.6016 243.539312,220.6286 241.352312,222.8776 C236.362312,227.6376 230.772312,232.9876 222.072312,232.9876 L222.072312,232.9876 Z" id="Fill-102" fill="#2B2F74"></path>
                    <path d="M266.972112,195.0076 C243.342112,190.5176 237.192112,192.4576 237.192112,192.4576 L212.852112,216.0976" id="Fill-104" fill="#FFFFFF"></path>
                    <path d="M212.852012,217.097633 C212.580012,217.0966 212.320012,216.9846 212.132012,216.7876 C211.744012,216.3976 211.744012,215.7676 212.132012,215.3776 L236.482012,191.7376 C236.589012,191.6276 236.724012,191.5486 236.872012,191.5076 C237.132012,191.4176 243.532012,189.5076 267.142012,194.0276 C267.694012,194.1296 268.059012,194.6606 267.957012,195.2126 C267.855012,195.7646 267.324012,196.1296 266.772012,196.0276 C246.132012,192.1076 238.932012,193.1576 237.672012,193.4076 L213.522012,216.8476 C213.337012,217.0106 213.099012,217.0996 212.852012,217.097633" id="Fill-106" fill="#2B2F74"></path>
                    <path d="M241.212112,200.7276 C241.212112,200.7276 250.432112,197.4176 269.812112,201.2076" id="Fill-108" fill="#FFFFFF"></path>
                    <path d="M269.812212,202.207602 L269.622212,202.207602 C250.732212,198.5176 241.622212,201.6576 241.552212,201.6876 C241.028212,201.8606 240.462212,201.5756 240.289212,201.0506 C240.123212,200.5476 240.379212,200.0016 240.872212,199.8076 C241.262212,199.6676 250.572212,196.4476 270.002212,200.2376 C270.544212,200.3426 270.899212,200.8676 270.794212,201.4096 C270.793212,201.4126 270.792212,201.4146 270.792212,201.4176 C270.693212,201.8796 270.284212,202.2086 269.812212,202.207602" id="Fill-110" fill="#2B2F74"></path>
                    <path d="M244.522212,208.2976 C244.522212,208.2976 251.852212,203.8076 266.972212,206.6376" id="Fill-112" fill="#FFFFFF"></path>
                    <path d="M244.522212,209.2976 C244.175212,209.2966 243.853212,209.1146 243.672212,208.8176 C243.381212,208.3476 243.527212,207.7316 243.996212,207.4406 C243.998212,207.4396 244.000212,207.4386 244.002212,207.4376 C244.312212,207.2476 251.832212,202.7776 267.162212,205.6576 C267.703212,205.7636 268.056212,206.2866 267.952212,206.8276 C267.846212,207.3636 267.330212,207.7156 266.792212,207.6176 C252.212212,204.8876 245.112212,209.1076 245.042212,209.1476 C244.886212,209.2446 244.706212,209.2966 244.522212,209.2976" id="Fill-114" fill="#2B2F74"></path>
                    <path d="M221.832212,232.687602 C221.306212,232.6886 220.869212,232.2826 220.832212,231.7576 C220.798212,231.2086 221.213212,230.7346 221.762212,230.6976 C233.882212,229.8576 238.312212,224.1876 241.552212,220.0476 C242.553212,218.6036 243.759212,217.3136 245.132212,216.2176 C253.912212,210.1176 264.632212,212.6476 265.082212,212.7576 C265.626212,212.8536 265.988212,213.3726 265.892212,213.9166 C265.796212,214.4606 265.277212,214.8236 264.733212,214.7266 C264.692212,214.7196 264.652212,214.7096 264.612212,214.6976 C264.512212,214.6976 254.292212,212.2876 246.272212,217.8576 C245.073212,218.8506 244.014212,220.0016 243.122212,221.2776 C239.662212,225.7176 234.912212,231.7876 221.902212,232.687602 L221.832212,232.687602 Z" id="Fill-116" fill="#2B2F74"></path>
                    <path d="M127.152112,134.6276 C98.1521122,138.8676 101.312112,149.4776 97.4521122,171.7976 C90.5821122,211.6076 86.8021122,289.7976 99.4521122,296.7976 C112.102112,303.7976 127.792112,297.1876 136.912112,292.6376 C154.822112,283.0376 219.912112,248.5776 219.972112,239.7976 C219.972112,239.6376 226.842112,235.9976 226.662112,233.4576 C226.322112,228.6376 216.802112,210.9576 211.872112,210.7876 C208.022112,210.6576 129.332112,255.4976 126.782112,256.7876 C123.862112,258.2776 131.122112,205.0276 136.552112,181.1476" id="Fill-118" fill="#DE1A26"></path>
                    <path d="M394.292212,129.0876 L302.482212,129.0876 C299.256212,129.0876 296.382212,131.1246 295.312212,134.1676 L265.712212,218.1176 L364.512212,218.1176 L400.212212,138.2676 C401.681212,134.9806 400.207212,131.1236 396.919212,129.6546 C396.093212,129.2856 395.198212,129.0926 394.292212,129.0876" id="Fill-120" fill="#D5D4D3"></path>
                    <path d="M267.152312,217.1176 L363.892312,217.1176 L399.332312,137.8576 C400.575312,135.0736 399.325312,131.8096 396.542312,130.5666 C395.846312,130.2566 395.094312,130.0936 394.332312,130.0876 L302.522312,130.0876 C299.722312,130.0916 297.227312,131.8576 296.292312,134.4976 L267.152312,217.1176 Z M364.542312,219.117619 L265.712312,219.117619 C265.386312,219.1196 265.080312,218.9626 264.892312,218.6976 C264.703312,218.4336 264.655312,218.0946 264.762312,217.7876 L294.332312,133.8376 C295.548312,130.3946 298.801312,128.0906 302.452312,128.0876 L394.262312,128.0876 C398.415312,128.0906 401.780312,131.4596 401.777314,135.6126 C401.777314,136.6686 401.554312,137.7136 401.122312,138.6776 L365.422312,218.5276 C365.266312,218.8766 364.924312,219.1056 364.542312,219.117619 L364.542312,219.117619 Z" id="Fill-122" fill="#D5D4D3"></path>
                    <path d="M335.042212,160.5776 C343.011212,160.5776 349.472212,167.0386 349.472212,175.0076 C349.472212,182.9766 343.011212,189.4376 335.042212,189.4376 C327.073212,189.4376 320.612212,182.9766 320.612212,175.0076 C320.612212,167.0386 327.073212,160.5776 335.042212,160.5776" id="Fill-124" fill="#D5D4D3"></path>
                    <path d="M335.042212,161.6276 C327.625212,161.6276 321.612212,167.6406 321.612212,175.0576 C321.612212,182.4746 327.625212,188.4876 335.042212,188.4876 C342.459212,188.4876 348.472248,182.4746 348.472248,175.0576 L348.472248,175.0576 C348.489212,167.6296 342.480212,161.5946 335.052212,161.5776 L335.042212,161.5776 L335.042212,161.6276 Z M335.042212,190.4776 C326.520212,190.4776 319.612212,183.5696 319.612212,175.0476 C319.612212,166.5256 326.520212,159.6176 335.042212,159.6176 C343.564212,159.6176 350.472212,166.5256 350.472212,175.0476 L350.472212,175.0576 C350.461212,183.5736 343.558212,190.4716 335.042212,190.4776 L335.042212,190.4776 Z" id="Fill-126" fill="#FFFFFF"></path>
                    <path d="M335.042212,169.0976 C339.438212,169.0976 343.002212,172.6616 343.002212,177.0576 C343.002212,181.4536 339.438212,185.0176 335.042212,185.0176 C330.646212,185.0176 327.082212,181.4536 327.082212,177.0576 C327.082212,172.6616 330.646212,169.0976 335.042212,169.0976" id="Fill-128" fill="#D5D4D3"></path>
                    <path d="M335.042212,170.0976 C331.176212,170.0976 328.042212,173.2316 328.042212,177.0976 C328.042212,180.9636 331.176212,184.0976 335.042212,184.0976 C338.908212,184.0976 342.042212,180.9636 342.042212,177.0976 C342.042212,173.2316 338.908212,170.0976 335.042212,170.0976 M335.042212,186.0176 C330.072212,186.0176 326.042212,181.9886 326.042212,177.0176 C326.042212,172.0466 330.072212,168.0176 335.042212,168.0176 C340.012212,168.0176 344.042212,172.0466 344.042212,177.0176 C344.042212,181.9886 340.012212,186.0176 335.042212,186.0176" id="Fill-130" fill="#FFFFFF"></path>
                    <path d="M334.932112,172.7276 C334.818112,171.0666 335.635112,169.4806 337.052112,168.6076" id="Fill-132" fill="#D5D4D3"></path>
                    <path d="M334.932112,173.727602 C334.402112,173.7286 333.964112,173.3166 333.932112,172.7876 C333.793112,170.7416 334.807112,168.7896 336.562112,167.7276 C337.045112,167.4516 337.661112,167.6196 337.937112,168.1026 C338.213112,168.5856 338.045112,169.2016 337.562112,169.4776 C336.487112,170.1706 335.874112,171.3926 335.962112,172.6676 C335.996112,173.2186 335.577112,173.6936 335.025112,173.727602 C335.024112,173.727602 335.023112,173.727602 335.022112,173.727602 L334.932112,173.727602 Z" id="Fill-134" fill="#FFFFFF"></path>
                    <path d="M335.152012,168.9976 L335.152012,168.9976 C335.409012,166.5316 337.616012,164.7396 340.083012,164.9966 C340.086012,164.9966 340.089012,164.9976 340.092012,164.9976 C340.820012,165.0766 341.348012,165.7286 341.272012,166.4576 C341.021012,168.9196 338.823012,170.7116 336.361012,170.4606 C336.351012,170.4596 336.342012,170.4586 336.332012,170.4576 C336.092012,170.4346 335.863012,170.3446 335.672012,170.1976 C335.300012,169.9166 335.103012,169.4616 335.152012,168.9976" id="Fill-136" fill="#D5D4D3"></path>
                    <path d="M336.152312,169.0976 C336.135312,169.2146 336.185312,169.3306 336.282312,169.3976 C336.330312,169.4296 336.385312,169.4496 336.442312,169.4576 C338.353312,169.6566 340.067312,168.2766 340.282312,166.3676 C340.300312,166.1866 340.172312,166.0236 339.992312,165.9976 C338.077312,165.7986 336.361312,167.1836 336.152312,169.0976 Z M336.822312,171.4776 L336.222312,171.4776 C335.805312,171.4286 335.408312,171.2706 335.072312,171.0176 C334.419312,170.5236 334.073312,169.7216 334.162312,168.9076 C334.487312,165.9146 337.166312,163.7446 340.162312,164.0476 C341.440312,164.1836 342.366312,165.3296 342.232312,166.6076 C341.914312,169.3626 339.595312,171.4506 336.822312,171.4776 L336.822312,171.4776 Z" id="Fill-138" fill="#FFFFFF"></path>
                    <path d="M182.712112,153.2076 L182.442112,153.2076 C179.202112,153.2076 162.942112,151.9376 160.902112,131.9276 C160.844112,131.3786 161.242112,130.8856 161.791112,130.8276 C161.791112,130.8276 161.792112,130.8276 161.792112,130.8276 C162.341112,130.7696 162.833112,131.1686 162.891112,131.7176 C162.891112,131.7206 162.892112,131.7246 162.892112,131.7276 C164.342112,145.9176 173.952112,151.0976 182.472112,151.2076 C188.652112,151.3076 196.382112,148.3876 199.862112,141.7376 C200.130112,141.2546 200.739112,141.0806 201.222112,141.3486 C201.689112,141.6086 201.869112,142.1886 201.632112,142.6676 C197.782112,149.9676 189.402112,153.2076 182.712112,153.2076" id="Fill-140" fill="#2B2F74"></path>
                    <path d="M118.082212,271.4176 C117.530212,271.4176 117.082212,270.9696 117.082212,270.4176 C116.702212,260.6476 126.632212,255.7476 127.082212,255.5376 C127.582212,255.2976 128.182212,255.5076 128.422212,256.0076 C128.662212,256.5076 128.452212,257.1076 127.952212,257.3476 C127.852212,257.3476 118.772212,261.8876 119.102212,270.3476 C119.102212,270.8996 118.654212,271.3476 118.102212,271.3476 L118.082212,271.4176 Z" id="Fill-142" fill="#2B2F74"></path>
                    <path d="M370.712112,227.547602 C370.186112,227.5486 369.749112,227.1426 369.712112,226.6176 L368.922112,214.6976 L361.802112,202.0376 C361.532112,201.5566 361.702112,200.9486 362.182112,200.6776 C362.661112,200.4036 363.272112,200.5686 363.546112,201.0486 C363.548112,201.0516 363.550112,201.0546 363.552112,201.0576 L370.772112,213.9076 C370.849112,214.0386 370.894112,214.1856 370.902112,214.3376 L371.712112,226.4776 C371.746112,227.0266 371.331112,227.5006 370.782112,227.5376 L370.712112,227.547602 Z" id="Fill-144" fill="#FFFFFF"></path>
                    <path d="M367.472112,229.0576 C367.048112,229.0556 366.672112,228.7876 366.532112,228.3876 L361.112112,212.7276 L350.212112,211.7276 C349.663112,211.6746 349.260112,211.1866 349.312112,210.6376 C349.365112,210.0886 349.853112,209.6856 350.402112,209.7376 L361.942112,210.8476 C362.333112,210.8846 362.665112,211.1466 362.793112,211.5176 L368.422112,227.7776 C368.607112,228.2986 368.334112,228.8696 367.813112,229.0536 C367.810112,229.0546 367.806112,229.0566 367.802112,229.0576 C367.693112,229.0716 367.582112,229.0716 367.472112,229.0576" id="Fill-146" fill="#FFFFFF"></path>
                    <path d="M361.352012,234.077736 C360.934012,234.0786 360.559012,233.8196 360.412012,233.4276 L354.172012,216.5976 L346.802012,212.5176 C346.319012,212.2416 346.151012,211.6256 346.427012,211.1426 C346.703012,210.6596 347.319012,210.4916 347.802012,210.7676 L355.492012,215.0276 C355.700012,215.1476 355.862012,215.3346 355.952012,215.5576 L362.322012,232.7276 C362.516012,233.2446 362.255012,233.8216 361.738012,234.0156 C361.736012,234.0166 361.734012,234.0166 361.732012,234.0176 C361.610012,234.0596 361.481012,234.0796 361.352012,234.077736" id="Fill-148" fill="#FFFFFF"></path>
                    <path d="M354.242112,230.1576 C353.777112,230.1736 353.363112,229.8666 353.242112,229.4176 L351.242112,222.0076 L346.172112,215.3076 C345.838112,214.8656 345.925112,214.2366 346.367112,213.9026 C346.809112,213.5686 347.438112,213.6556 347.772112,214.0976 L352.962112,220.9576 C353.034112,221.0626 353.092112,221.1766 353.132112,221.2976 L355.132112,228.8976 C355.272112,229.4276 354.960112,229.9716 354.432112,230.1176 C354.370112,230.1386 354.307112,230.1516 354.242112,230.1576" id="Fill-150" fill="#FFFFFF"></path>
                    <path d="M363.132012,201.2676 C365.632012,203.0276 372.002012,208.9976 372.862012,211.3676 C374.722012,216.4576 374.342012,226.4676 373.792012,229.3676 C373.102012,232.9276 354.952012,240.3676 342.472012,241.0476 L337.892012,231.2476 C337.892012,231.2476 339.412012,224.7376 350.072012,226.1276" id="Fill-152" fill="#FFFFFF"></path>
                    <path d="M342.472112,242.0176 C342.081112,242.0186 341.726112,241.7916 341.562112,241.4376 L336.982112,231.6476 C336.884112,231.4416 336.859112,231.2096 336.912112,230.9876 C336.912112,230.9176 338.772112,223.6076 350.202112,225.1076 C350.754112,225.1796 351.144112,225.6856 351.072112,226.2376 C351.000112,226.7896 350.494112,227.1796 349.942112,227.1076 C341.572112,226.0176 339.412112,230.0076 338.942112,231.1676 L343.072112,239.9976 C355.692112,239.1276 372.292112,231.7076 372.792112,229.1676 C373.372112,226.1676 373.632112,216.4876 371.902112,211.7276 C371.162112,209.7276 365.022112,203.8476 362.542112,202.1076 C362.089112,201.7906 361.980112,201.1676 362.297112,200.7146 C362.298112,200.7126 362.300112,200.7096 362.302112,200.7076 C362.620112,200.2556 363.243112,200.1476 363.695112,200.4656 C363.701112,200.4696 363.706112,200.4736 363.712112,200.4776 C366.212112,202.2376 372.822112,208.3576 373.802112,211.0576 C375.732112,216.3576 375.352112,226.5576 374.802112,229.5576 C373.952112,233.9576 354.662112,241.4276 342.552112,242.0476 L342.472112,242.0176 Z" id="Fill-154" fill="#2B2F74"></path>
                    <path d="M368.322212,218.7676 C362.762212,210.0676 362.672212,208.4976 352.752212,206.5876" id="Fill-156" fill="#FFFFFF"></path>
                    <path d="M368.322212,219.7676 C367.982212,219.7666 367.666212,219.5936 367.482212,219.3076 L366.052212,217.0376 C361.882212,210.4076 361.132212,209.2176 352.572212,207.5776 C352.029212,207.4766 351.670212,206.9546 351.771212,206.4116 L351.772212,206.4076 C351.873212,205.8646 352.395212,205.5056 352.937212,205.6066 C352.939212,205.6066 352.940212,205.6076 352.942212,205.6076 C362.362212,207.4176 363.502212,209.2276 367.742212,215.9776 L369.172212,218.2276 C369.467212,218.6946 369.329212,219.3116 368.862212,219.6076 C368.862212,219.6076 368.862212,219.6076 368.862212,219.6076 C368.701212,219.7116 368.514212,219.7666 368.322212,219.7676" id="Fill-158" fill="#2B2F74"></path>
                    <path d="M360.812212,222.4776 C357.202212,212.4776 357.712212,211.6476 347.572212,209.7076" id="Fill-160" fill="#FFFFFF"></path>
                    <path d="M360.812212,223.4776 C360.391212,223.4776 360.015212,223.2136 359.872212,222.8176 C359.582212,222.0276 359.322212,221.2976 359.082212,220.6176 C356.332212,212.8276 356.162212,212.3676 347.382212,210.6876 C346.830212,210.5856 346.465212,210.0546 346.567212,209.5026 C346.669212,208.9506 347.200212,208.5856 347.752212,208.6876 C357.342212,210.5176 357.992212,211.4976 360.972212,219.9076 L361.752212,222.0976 C361.940212,222.6166 361.671212,223.1896 361.152212,223.3776 C361.046212,223.4306 360.930212,223.4646 360.812212,223.4776" id="Fill-162" fill="#2B2F74"></path>
                    <path d="M345.622012,213.4776 C353.222012,216.2576 352.842012,216.9276 355.622012,225.4776" id="Fill-164" fill="#FFFFFF"></path>
                    <path d="M355.632012,226.5376 C355.181012,226.5596 354.771012,226.2766 354.632012,225.8476 C354.402012,225.1576 354.192012,224.5076 354.002012,223.9076 C351.882012,217.2276 351.752012,216.8176 345.232012,214.4376 C344.708012,214.2646 344.423012,213.6996 344.595012,213.1746 C344.768012,212.6506 345.334012,212.3656 345.858012,212.5386 C345.876012,212.5446 345.894012,212.5506 345.912012,212.5576 C353.362012,215.2776 353.702012,216.3476 355.912012,223.3076 C356.102012,223.8976 356.302012,224.5376 356.532012,225.2376 C356.703012,225.7626 356.417012,226.3256 355.892012,226.4976 C355.807012,226.5206 355.720012,226.5346 355.632012,226.5376" id="Fill-166" fill="#2B2F74"></path>
                    <path d="M115.902112,328.3676 C115.350112,328.3676 114.902112,327.9196 114.902112,327.3676 C114.902112,326.8156 115.350112,326.3676 115.902112,326.3676 C125.161112,326.1286 133.712112,321.3586 138.782112,313.6076 C139.934112,311.7386 140.980112,309.8056 141.912112,307.8176 C142.622112,306.3776 143.352112,304.8976 144.162112,303.4676 C146.602112,299.1776 149.352112,296.3976 152.562112,294.9476 C153.067112,294.7216 153.660112,294.9476 153.887112,295.4526 C154.113112,295.9576 153.887112,296.5516 153.382112,296.7776 C150.572112,298.0376 148.122112,300.5476 145.902112,304.4576 C145.112112,305.8376 144.402112,307.2876 143.702112,308.6976 C142.744112,310.7616 141.662112,312.7656 140.462112,314.6976 C135.034112,323.0106 125.867112,328.1256 115.942112,328.3776 L115.902112,328.3676 Z" id="Fill-168" fill="#2B2F74"></path>
                    <path d="M216.562212,236.7776 C216.280212,236.7766 216.011212,236.6566 215.822212,236.4476 C212.652212,232.9576 208.352212,224.3776 206.772212,219.3176 C206.609212,218.7906 206.905212,218.2306 207.432212,218.0676 C207.956212,217.9046 208.514212,218.1946 208.682212,218.7176 C210.172212,223.4776 214.352212,231.8476 217.302212,235.0976 C217.678212,235.5026 217.654212,236.1356 217.249212,236.5106 L217.242212,236.5176 C217.053212,236.6826 216.812212,236.7746 216.562212,236.7776" id="Fill-170" fill="#2B2F74"></path>
                    <path d="M108.322212,263.9976 C108.138212,263.9966 107.958212,263.9446 107.802212,263.8476 C107.333212,263.5566 107.189212,262.9396 107.480212,262.4706 C107.481212,262.4696 107.481212,262.4686 107.482212,262.4676 C111.602212,255.8076 117.482212,253.4676 125.542212,255.3276 C126.081212,255.4516 126.416212,255.9886 126.292212,256.5276 C126.168212,257.0656 125.631212,257.4016 125.092212,257.2776 C117.902212,255.6176 112.842212,257.5976 109.172212,263.5176 C108.991212,263.8146 108.669212,263.9966 108.322212,263.9976" id="Fill-172" fill="#2B2F74"></path>
                    <path d="M278.452112,290.2276 C278.150112,290.2286 277.863112,290.0926 277.672112,289.8576 C276.932112,288.9276 276.212112,288.0476 275.522112,287.1976 C269.632112,279.9476 265.372112,274.7076 266.242112,266.1976 C266.297112,265.6456 266.790112,265.2426 267.342112,265.2976 C267.894112,265.3526 268.297112,265.8456 268.242112,266.3976 C267.452112,274.1276 271.242112,278.8376 277.082112,285.9776 C277.772112,286.8276 278.502112,287.7176 279.242112,288.6476 C279.582112,289.0786 279.511112,289.7046 279.082112,290.0476 C278.898112,290.1766 278.676112,290.2406 278.452112,290.2276" id="Fill-174" fill="#33AFBE"></path>
                    <path d="M263.532212,281.3476 C263.426212,281.3656 263.318212,281.3656 263.212212,281.3476 C257.212212,279.2876 253.212212,272.4076 253.662212,267.8676 C253.720212,267.3156 254.215212,266.9146 254.767212,266.9726 C255.319212,267.0306 255.720212,267.5256 255.662212,268.0776 C255.302212,271.3676 258.402212,277.5776 263.872212,279.4576 C264.391212,279.6456 264.659212,280.2196 264.471212,280.7386 C264.329212,281.1306 263.959212,281.3926 263.542212,281.3976 L263.532212,281.3476 Z" id="Fill-176" fill="#33AFBE"></path>
                    <path d="M393.592012,359.1876 L393.442012,359.1876 C385.442012,357.9376 373.742012,354.8476 367.082012,350.2776 C366.622012,349.9716 366.497012,349.3516 366.802012,348.8916 C367.108012,348.4316 367.729012,348.3066 368.189012,348.6116 C368.196012,348.6166 368.204012,348.6226 368.212012,348.6276 C374.212012,352.7276 385.342012,355.8976 393.742012,357.2076 C394.294012,357.2486 394.708012,357.7306 394.667012,358.2826 C394.625012,358.8346 394.144012,359.2486 393.592012,359.2076 L393.592012,359.1876 Z" id="Fill-178" fill="#33AFBE"></path>
                    <path d="M311.052212,368.3176 C310.047212,368.3766 309.041212,368.2056 308.112212,367.8176 C307.623212,367.5576 307.437212,366.9516 307.697212,366.4626 C307.957212,365.9736 308.563212,365.7876 309.052212,366.0476 C310.682212,366.9176 318.962212,365.6376 324.542212,363.2876 C325.066212,363.1126 325.632212,363.3946 325.808212,363.9186 C325.965212,364.3886 325.754212,364.9036 325.312212,365.1276 C320.769212,366.9746 315.949212,368.0526 311.052212,368.3176" id="Fill-180" fill="#33AFBE"></path>
                    <path d="M145.952112,361.7976 C145.952112,361.7976 125.322112,305.1576 77.9521122,316.9176" id="Fill-182" fill="#88CDD3"></path>
                    <path d="M145.952112,362.7976 C145.531112,362.7976 145.155112,362.5336 145.012112,362.1376 C141.138112,352.4606 135.702112,343.4846 128.922112,335.5676 C114.482112,319.0576 97.4021122,313.1076 78.1521122,317.8876 C77.6211122,318.0406 77.0671122,317.7346 76.9141122,317.2046 C76.7601122,316.6736 77.0661122,316.1196 77.5971122,315.9666 C77.6211122,315.9586 77.6471122,315.9526 77.6721122,315.9476 C97.4421122,311.0476 115.672112,317.3876 130.462112,334.2876 C137.388112,342.3916 142.939112,351.5766 146.892112,361.4776 C147.079112,361.9966 146.811112,362.5696 146.292112,362.7576 C146.182112,362.7906 146.067112,362.8036 145.952112,362.7976" id="Fill-184" fill="#33AFBE"></path>
                    <path d="M201.712112,363.2476 C201.712112,363.2476 161.902112,344.4276 117.032112,363.9676" id="Fill-186" fill="#88CDD3"></path>
                    <path d="M117.002212,364.967603 C116.603212,364.9686 116.242212,364.7336 116.082212,364.3676 C115.860212,363.8616 116.090212,363.2716 116.596212,363.0506 L116.602212,363.0476 C161.372212,343.5476 201.712212,362.1476 202.112212,362.3376 C202.612212,362.5746 202.825212,363.1726 202.587212,363.6726 C202.350212,364.1726 201.752212,364.3846 201.252212,364.1476 C200.862212,363.9576 161.312212,345.7576 117.392212,364.8876 C117.268212,364.9376 117.136212,364.9646 117.002212,364.967603" id="Fill-188" fill="#33AFBE"></path>
                    <path d="M261.472112,336.0276 C261.472112,336.0276 223.812112,329.8776 184.622112,356.0276" id="Fill-190" fill="#88CDD3"></path>
                    <path d="M184.622012,357.0076 C184.070012,357.0036 183.625012,356.5526 183.62997,355.9996 C183.632012,355.6696 183.798012,355.3616 184.072012,355.1776 C223.132012,329.1276 261.252012,334.9876 261.632012,335.0376 C262.184012,335.1286 262.558012,335.6506 262.467012,336.2026 C262.376012,336.7546 261.854012,337.1286 261.302012,337.0376 C260.932012,336.9776 223.562012,331.2676 185.182012,356.8576 C185.014012,356.9616 184.819012,357.0136 184.622012,357.0076" id="Fill-192" fill="#33AFBE"></path>
                    <path d="M126.652112,257.8776 C126.383112,257.8756 126.123112,257.7836 125.912112,257.6176 C125.292112,257.1276 123.822112,255.9876 127.732112,226.9176 C130.032112,209.8476 133.102112,191.8176 135.562112,180.9876 C135.684112,180.4356 136.230112,180.0856 136.782112,180.2076 C137.334112,180.3286 137.684112,180.8756 137.562112,181.4276 C132.182112,205.1276 126.412112,248.7576 127.192112,255.4976 C128.572112,254.7376 131.472112,253.0976 135.192112,251.0276 C187.192112,221.7876 209.422112,209.8276 211.952112,209.8276 C217.812112,210.0276 227.372112,228.7276 227.712112,233.4276 C227.740112,233.9796 227.315112,234.4486 226.763112,234.4766 C226.746112,234.4776 226.729112,234.4776 226.712112,234.4776 C226.163112,234.5116 225.689112,234.0966 225.652112,233.5476 C225.492112,231.3576 223.062112,225.8076 220.112112,220.9176 C216.112112,214.2676 213.112112,211.8576 211.812112,211.8076 C208.132112,212.1976 153.902112,242.7176 136.082112,252.7476 C130.872112,255.6876 127.722112,257.4576 127.212112,257.7476 C127.037112,257.8326 126.846112,257.8766 126.652112,257.8776" id="Fill-194" fill="#2B2F74"></path>
                    <path d="M219.962112,240.8376 L219.962112,240.8376 C219.410112,240.8376 218.962112,240.3896 218.962112,239.8376 C218.962112,239.2576 219.272112,239.0676 220.102112,238.5476 C225.022112,235.4776 225.692112,234.1176 225.662112,233.5476 C225.628112,233.0026 226.037112,232.5306 226.582112,232.4876 C227.131112,232.4476 227.609112,232.8586 227.652112,233.4076 C227.822112,235.7376 224.462112,238.1576 221.162112,240.2176 L220.652112,240.5376 C220.470112,240.7236 220.222112,240.8316 219.962112,240.8376" id="Fill-196" fill="#2B2F74"></path>
                    <path d="M112.002212,300.9476 C107.462212,301.0046 102.984212,299.8886 99.0022122,297.7076 C89.8322122,292.5976 89.6922122,256.2876 90.4222122,235.0976 C90.4412122,234.5456 90.9052122,234.1136 91.4572122,234.131997 C92.0092122,234.1516 92.4412122,234.6156 92.4222122,235.1676 C91.2222122,269.9276 94.0422122,292.6576 99.9722122,295.9576 C111.902212,302.6076 126.532212,296.7576 136.492212,291.7776 C136.986212,291.5296 137.588212,291.7286 137.837212,292.2226 C138.085212,292.7166 137.886212,293.3196 137.392212,293.5676 C130.362212,297.0576 121.162212,300.9476 112.002212,300.9476" id="Fill-198" fill="#2B2F74"></path>
                    <path d="M208.922112,109.6576 C207.660112,109.6826 206.418112,109.3346 205.352112,108.6576 C203.725112,107.4826 202.692112,105.6566 202.522112,103.6576 C202.439112,103.1116 202.815112,102.6016 203.361112,102.5196 C203.365112,102.5186 203.368112,102.5176 203.372112,102.5176 C203.919112,102.4406 204.424112,102.8206 204.502112,103.3676 C204.618112,104.8026 205.347112,106.1186 206.502112,106.9776 C207.537112,107.6386 208.797112,107.8516 209.992112,107.5676 C210.527112,107.4356 211.069112,107.7626 211.202112,108.2976 C211.334112,108.8336 211.007112,109.3746 210.472112,109.5076 C209.963112,109.6216 209.443112,109.6716 208.922112,109.6576" id="Fill-200" fill="#DE1A26"></path>
                    <path d="M192.152112,123.9376 C191.894112,123.9366 191.647112,123.8366 191.462112,123.6576 C191.074112,123.2676 191.074112,122.6376 191.462112,122.2476 L197.462112,116.0776 C197.852112,115.6896 198.482112,115.6896 198.872112,116.0776 C199.264112,116.4666 199.267112,117.0996 198.878112,117.4916 C198.876112,117.4936 198.874112,117.4956 198.872112,117.4976 L192.872112,123.6676 C192.678112,123.8496 192.418112,123.9476 192.152112,123.9376" id="Fill-202" fill="#2B2F74"></path>
                    <path d="M198.532212,126.4076 C198.274212,126.4066 198.027212,126.3066 197.842212,126.1276 C197.454212,125.7376 197.454212,125.1076 197.842212,124.7176 L203.842212,118.5476 C204.232212,118.1596 204.862212,118.1596 205.252212,118.5476 C205.644212,118.9366 205.647212,119.5696 205.258212,119.9616 C205.256212,119.9636 205.254212,119.9656 205.252212,119.9676 L199.302212,126.1276 C199.097212,126.3266 198.817212,126.4286 198.532212,126.4076" id="Fill-204" fill="#2B2F74"></path>
                    <path d="M204.912112,128.8776 C204.654112,128.8766 204.407112,128.7766 204.222112,128.5976 C203.834112,128.2076 203.834112,127.5776 204.222112,127.1876 L210.172112,121.0176 C210.583112,120.6486 211.215112,120.6826 211.584112,121.0926 C211.915112,121.4606 211.927112,122.0156 211.612112,122.3976 L205.662112,128.5676 C205.467112,128.7726 205.194112,128.8846 204.912112,128.8776" id="Fill-206" fill="#2B2F74"></path>
                    <path d="M241.402112,62.0676 C241.915112,61.2136 242.321112,60.3006 242.612112,59.3476 C243.118112,57.8846 243.295112,56.3276 243.132112,54.7876 C242.770112,53.0686 241.810112,51.5346 240.422112,50.4576 C235.731112,46.1946 230.438112,42.6466 224.712112,39.9276 C218.892112,37.1386 212.553112,35.5986 206.102112,35.4076 C199.952112,35.3176 193.172112,36.5976 189.012112,41.5376 C185.892112,45.2376 184.602112,49.7576 183.072112,54.2076 C182.824112,54.5046 182.631112,54.8436 182.502112,55.2076 L181.102112,59.2076 C180.876112,59.8246 180.912112,60.5076 181.202112,61.0976 L180.932112,62.3076 C180.112112,66.0176 185.802112,67.5976 186.622112,63.8776 C187.542112,59.6206 189.032112,55.5066 191.052112,51.6476 C191.490112,50.8626 191.527112,49.9146 191.152112,49.0976 C191.272112,48.8576 191.372112,48.6076 191.502112,48.3676 C192.354112,46.5256 193.653112,44.9276 195.282112,43.7176 C197.366112,42.3916 199.748112,41.6076 202.212112,41.4376 C212.662112,40.4376 222.722112,44.5076 231.112112,50.4376 C232.252112,51.2476 233.362112,52.0976 234.432112,52.9876 C235.292112,53.6976 236.812112,54.6176 237.372112,55.6276 C237.367112,55.6876 237.367112,55.7476 237.372112,55.8076 C237.361112,56.0806 237.320112,56.3526 237.252112,56.6176 C237.144112,57.1866 236.987112,57.7456 236.782112,58.2876 C236.422112,59.1476 236.222112,59.4476 235.562112,59.5576 C233.352112,59.9176 232.902112,62.7776 234.122112,64.3076 C234.083112,65.6176 234.934112,66.7896 236.192112,67.1576 C237.395112,67.5586 238.673112,67.6856 239.932112,67.5276 C241.578112,67.5006 242.905112,66.1736 242.932112,64.5276 C242.830112,63.5146 242.265112,62.6066 241.402112,62.0676" id="Fill-208" fill="#2B2F74"></path>
                    <path d="M213.422112,210.9776 C212.957112,210.9936 212.543112,210.6866 212.422112,210.2376 C212.332112,209.9076 210.262112,201.9476 213.722112,184.8176 C213.833112,184.2806 214.354112,183.9336 214.892112,184.0376 C215.434112,184.1426 215.789112,184.6676 215.684112,185.2096 C215.683112,185.2126 215.682112,185.2146 215.682112,185.2176 C212.332112,201.8076 214.332112,209.6376 214.352112,209.7176 C214.492112,210.2506 214.174112,210.7956 213.642112,210.9376 C213.571112,210.9616 213.497112,210.9756 213.422112,210.9776" id="Fill-210" fill="#2B2F74"></path>
                    <path d="M258.812212,40.0976609 C256.580212,40.1016 254.359212,39.7956 252.212212,39.1876 C250.568212,38.6846 248.952212,38.0936 247.372212,37.4176 C245.689212,36.6956 243.962212,36.0806 242.202212,35.5776 C240.412212,35.1176 235.942212,34.3276 232.982212,36.9376 C232.487212,37.1826 231.887212,36.9806 231.642212,36.4856 C231.481212,36.1616 231.508212,35.7766 231.712212,35.4776 C234.302212,33.1976 238.322212,32.5376 242.712212,33.6876 C244.563212,34.2046 246.377212,34.8456 248.142212,35.6076 C249.658212,36.2536 251.207212,36.8216 252.782212,37.3076 C258.479212,38.8686 264.557212,38.2036 269.782212,35.4476 C270.264212,35.1796 270.873212,35.3526 271.142212,35.8356 C271.410212,36.3186 271.236212,36.9276 270.754212,37.1956 C270.740212,37.2036 270.726212,37.2106 270.712212,37.2176 C267.034212,39.1186 262.952212,40.1066 258.812212,40.0976609" id="Fill-212" fill="#FFFFFF"></path>
                </g>
                <g id="Plant" transform="translate(401.000000, 46.000000)">
                    <g id="Group-3" transform="translate(34.458438, 0.000000)">
                        <mask id="mask-4" fill="white">
                            <use xlink:href="#path-3"></use>
                        </mask>
                        <g id="Clip-2"></g>
                        <path d="M30.9971357,3.0075 C27.5911357,3.0155 24.2201357,3.6955 21.0771357,5.0075 C11.0771357,9.1075 5.0071357,16.0075 3.4071357,24.8975 C1.3371357,36.4375 7.1671357,50.8975 17.9071357,60.7775 C18.7371357,61.5375 19.6871357,62.4575 20.7371357,63.4775 C28.1371357,70.6475 40.5171357,82.6375 48.1071357,76.9075 C49.2741357,75.9815 50.2491357,74.8365 50.9771357,73.5375 C57.9771357,61.7375 59.6171357,43.5375 58.8971357,31.5375 C58.2851357,21.5475 52.9671357,12.4405 44.5671357,6.9975 C40.5141357,4.4075 35.8071357,3.0245 30.9971357,3.0075 M43.5871357,81.4479315 C34.9571357,81.4479315 25.0871357,71.8875 18.6571357,65.6575 C17.6571357,64.6575 16.6571357,63.7475 15.8771357,62.9975 C4.4071357,52.4175 -1.7928643,36.8975 0.457135702,24.3875 C1.6971357,17.4375 6.0871357,7.9475 19.9371357,2.2475 C28.5141357,-1.4065 38.3441357,-0.5675 46.1771357,4.4875 C55.3931357,10.4475 61.2291357,20.4325 61.8971357,31.3875 C62.6471357,43.8075 60.8971357,62.7075 53.5671357,75.0875 C52.6401357,76.7265 51.4001357,78.1675 49.9171357,79.3275 C48.1031357,80.7225 45.8751357,81.4685 43.5871357,81.4479315" id="Fill-1" fill="#88CDD3" mask="url(#mask-4)"></path>
                    </g>
                    <path d="M121.035673,31.1675 C112.336673,31.1565 104.243673,35.6225 99.6156733,42.9875 C95.8256733,48.9175 94.5556733,56.2975 93.8256733,62.7275 C93.2856733,67.3975 91.6856733,86.3575 93.6656733,93.8375 C93.7986733,94.2835 94.1196733,94.6495 94.5456733,94.8375 C98.7856733,97.0675 112.745673,92.0875 117.335673,90.4475 L118.675673,89.9775 C129.935673,86.0575 137.605673,80.6475 142.125673,73.4575 C148.125673,63.8875 148.905673,53.4575 144.195673,44.9575 C139.750673,36.7085 131.251673,31.4475 121.885673,31.1475 L121.035673,31.1675 Z M97.6756733,98.4175 C96.1166733,98.4845 94.5636733,98.1795 93.1456733,97.5275 C91.9736733,96.9355 91.1086733,95.8745 90.7656733,94.6075 C88.3456733,85.4575 90.8156733,62.6075 90.8456733,62.3875 C91.6156733,55.6175 92.9656733,47.8175 97.0956733,41.3875 C102.451673,32.8775 111.926673,27.8545 121.975673,28.1975 C132.403673,28.5265 141.868673,34.3775 146.825673,43.5575 C151.995673,52.9375 151.195673,64.7375 144.665673,75.1075 C139.765673,82.8975 131.585673,88.7075 119.665673,92.8575 L118.345673,93.3275 C110.985673,95.9375 103.135673,98.4175 97.6756733,98.4175 L97.6756733,98.4175 Z" id="Fill-4" fill="#88CDD3"></path>
                    <path d="M35.3656733,74.0875 C30.4686733,74.0925 25.6516733,75.3385 21.3656733,77.7075 C13.2556733,82.1875 8.56567327,89.7075 8.50567327,98.4075 C8.34567327,119.0875 31.8456733,123.1475 49.0056733,126.1075 L52.6756733,126.7475 C60.3056733,128.1175 66.1756733,127.7475 69.6756733,125.5475 C71.7756733,124.2475 72.5956733,121.7775 72.1856733,117.9775 C70.7056733,104.1675 62.9956733,86.4075 49.0856733,77.8375 C44.9476733,75.3405 40.1976733,74.0425 35.3656733,74.0875 M60.6356733,130.5275 C57.7876733,130.4975 54.9466733,130.2235 52.1456733,129.7075 L48.4956733,129.0675 C30.2756733,125.9175 5.32567327,121.6175 5.49567327,98.3875 C5.56567327,88.5975 10.8256733,80.1075 19.9056733,75.0775 C29.6356733,69.6975 41.6956733,69.7775 50.6356733,75.2875 C65.4056733,84.3775 73.6356733,103.1275 75.1456733,117.6575 C75.6756733,122.6575 74.3556733,126.1575 71.2256733,128.1075 C68.2756733,129.9175 64.4656733,130.5275 60.6356733,130.5275" id="Fill-6" fill="#88CDD3"></path>
                    <path d="M31.0756733,131.8275 C28.8206733,131.8045 26.5696733,132.0355 24.3656733,132.5175 C16.2656733,134.3675 8.96567327,140.6675 5.36567327,148.9475 C2.08567327,156.3875 2.28567327,164.3075 5.90567327,170.6675 C10.8866733,179.2035 20.2996733,184.1525 30.1556733,183.4175 C39.0456733,182.9075 47.4956733,177.4175 54.2856733,173.0175 C62.9856733,167.3875 69.0256733,161.8575 73.2856733,155.6275 C73.7466733,155.0655 73.8516733,154.2915 73.5556733,153.6275 C73.1176733,152.7475 72.5006733,151.9675 71.7456733,151.3375 C54.6056733,134.8975 39.7656733,131.8275 31.0756733,131.8275 M28.4856733,186.4575 C18.1106733,186.6035 8.46667327,181.1355 3.26567327,172.1575 C-0.83432673,164.9575 -1.08432673,156.0575 2.57567327,147.7375 C6.57567327,138.6075 14.6856733,131.6475 23.6956733,129.5875 C29.3256733,128.2975 49.5856733,125.9175 73.7956733,149.1975 C74.8676733,150.1145 75.7276733,151.2545 76.3156733,152.5375 C76.9726733,154.1255 76.7526733,155.9415 75.7356733,157.3275 C71.2256733,163.8875 64.9156733,169.6775 55.8756733,175.5375 C48.7956733,180.1375 39.9756733,185.8575 30.2956733,186.4075 C29.6856733,186.4475 29.0856733,186.4575 28.4856733,186.4575" id="Fill-8" fill="#88CDD3"></path>
                    <path d="M104.715573,147.1775 L104.995573,147.2475 C117.275573,150.0475 140.145573,149.5475 152.535573,139.6575 C157.726573,135.7405 160.732573,129.5795 160.625573,123.0775 C160.625573,113.3275 153.815573,103.8475 144.795573,101.0775 C137.538573,98.6585 129.565573,99.8155 123.295573,104.1975 C111.355573,112.1375 103.655573,129.6475 102.475573,142.0975 C102.105573,145.9275 103.335573,146.8275 104.715573,147.2175 L104.715573,147.1775 Z M119.495573,151.6975 C114.402573,151.7385 109.319573,151.2295 104.335573,150.1775 L103.895573,150.0675 C100.535573,149.0675 99.0555733,146.3075 99.4855733,141.7775 C100.765573,128.3075 108.785573,110.2075 121.635573,101.6575 C128.639573,96.7785 137.534573,95.4885 145.635573,98.1775 C156.025573,101.4075 163.575573,111.8875 163.575573,123.0775 C163.702573,130.4985 160.276573,137.5325 154.355573,142.0075 C145.475573,149.1275 131.545573,151.6975 119.495573,151.6975 L119.495573,151.6975 Z" id="Fill-10" fill="#88CDD3"></path>
                    <path d="M103.945573,194.3975 C106.485573,198.4775 112.735573,199.7675 117.755573,200.7975 L119.525573,201.1775 C140.805573,205.8075 155.525573,202.9675 163.285573,192.7475 C167.744573,186.5585 168.995573,178.6175 166.655573,171.3575 C164.515573,164.5075 159.655573,159.3575 153.385573,157.3575 C152.955573,157.2175 152.525573,157.0875 152.075573,156.9775 C134.395573,152.4575 119.835573,164.8175 110.735573,175.9775 C108.045573,179.2875 104.335573,184.2675 103.265573,189.3475 C102.800573,191.0605 103.045573,192.8885 103.945573,194.4175 L103.945573,194.3975 Z M137.455573,206.3275 C131.207573,206.2475 124.986573,205.5035 118.895573,204.1075 L117.145573,203.7375 C111.565573,202.5875 104.615573,201.1475 101.395573,195.9775 C100.088573,193.7885 99.7035733,191.1705 100.325573,188.6975 C101.525573,183.0575 105.275573,177.9075 108.415573,174.0575 C122.245573,157.0575 137.605573,150.1475 152.825573,154.0575 C153.325573,154.1875 153.825573,154.3375 154.325573,154.4975 C161.555573,156.8675 167.095573,162.6875 169.525573,170.4975 C172.139573,178.6835 170.710573,187.6245 165.675573,194.5875 C159.725573,202.3975 150.275573,206.3275 137.455573,206.3275 L137.455573,206.3275 Z" id="Fill-12" fill="#88CDD3"></path>
                    <path d="M87.0456733,262.097501 L86.9756733,262.097501 C86.1476733,262.0595 85.5076733,261.3585 85.5456733,260.5305 C85.5456733,260.5295 85.5456733,260.5285 85.5456733,260.5275 C85.5956733,259.5275 90.3756733,155.4475 79.8756733,78.7375 C76.9256733,57.1475 71.3856733,40.0375 64.2856733,30.5675 C63.7936733,29.9015 63.9346733,28.9615 64.6016733,28.4695 C65.2606733,27.9835 66.1886733,28.1155 66.6856733,28.7675 C76.6856733,42.0875 81.0956733,65.5375 82.8456733,78.3275 C93.3856733,155.3275 88.5956733,259.6275 88.5456733,260.6675 C88.5076733,261.4685 87.8476733,262.097501 87.0456733,262.097501" id="Fill-14" fill="#33AFBE"></path>
                    <path d="M85.5756733,120.4775 C85.4696733,120.4915 85.3616733,120.4915 85.2556733,120.4775 C84.4506733,120.3035 83.9396733,119.5105 84.1136733,118.7065 C84.1146733,118.7035 84.1146733,118.7005 84.1156733,118.6975 C91.7756733,84.2075 119.055673,57.6975 119.335673,57.4275 C119.913673,56.8425 120.857673,56.8365 121.442673,57.4145 C121.447673,57.4185 121.451673,57.4235 121.455673,57.4275 C122.034673,58.0155 122.034673,58.9595 121.455673,59.5475 C121.185673,59.8075 94.5456733,85.7175 87.0856733,119.3075 C86.9206733,120.0045 86.2916733,120.4925 85.5756733,120.4775" id="Fill-16" fill="#33AFBE"></path>
                    <path d="M44.2755733,237.7775 C41.6355733,246.5775 33.1655733,282.8975 61.9455733,312.9175 C62.4685733,313.4595 63.1915733,313.7635 63.9455733,313.7575 L109.745573,314.07798 C110.494573,314.0915 111.216573,313.7985 111.745573,313.2675 C140.945573,283.6475 132.985573,247.2675 130.475573,238.3775 C130.134573,237.2005 129.061573,236.3865 127.835573,236.3775 L46.9655733,235.807236 C45.7295733,235.7905 44.6325733,236.5945 44.2755733,237.7775" id="Fill-18" fill="#DE1A26"></path>
                    <path d="M87.4855733,164.0075 C86.6945733,164.0035 86.0425733,163.3865 85.9955733,162.5975 C83.6755733,123.6875 37.3755733,97.4875 36.9055733,97.2275 C36.1905733,96.8085 35.9505733,95.8895 36.3695733,95.1755 C36.7755733,94.4815 37.6555733,94.2315 38.3655733,94.6075 C47.1665733,99.7935 55.3345733,105.9855 62.7055733,113.0575 C78.8955733,128.5375 87.9855733,145.6075 88.9855733,162.4275 C89.0305733,163.2525 88.4005733,163.9595 87.5755733,164.0075 L87.4855733,164.0075 Z" id="Fill-20" fill="#33AFBE"></path>
                    <path d="M86.8556733,158.4175 C86.6556733,158.4215 86.4576733,158.3805 86.2756733,158.2975 C65.2756733,149.3675 27.9756733,158.1175 27.6056733,158.2075 C26.8066733,158.4055 25.9986733,157.9185 25.8006733,157.1195 C25.7986733,157.1125 25.7976733,157.1045 25.7956733,157.0975 C25.6126733,156.2925 26.1056733,155.4895 26.9056733,155.2875 C28.4756733,154.9175 65.5756733,146.2275 87.4456733,155.5375 C88.2076733,155.8625 88.5626733,156.7435 88.2376733,157.5055 C88.0016733,158.0595 87.4576733,158.4185 86.8556733,158.4175" id="Fill-22" fill="#33AFBE"></path>
                    <path d="M88.0756733,183.6175 L87.9856733,183.6175 C87.1696733,183.5755 86.5416733,182.8795 86.5846733,182.0625 C86.5846733,182.0545 86.5856733,182.0455 86.5856733,182.0375 C87.4956733,166.6375 95.9056733,150.9375 110.885673,136.6175 C117.714673,130.0705 125.270673,124.3265 133.405673,119.4975 C134.120673,119.0785 135.039673,119.3185 135.458673,120.0335 C135.876673,120.7485 135.636673,121.6675 134.921673,122.0865 C134.903673,122.0965 134.884673,122.1075 134.865673,122.1175 C134.435673,122.3575 91.6856733,146.7575 89.5756733,182.2175 C89.5186733,183.0045 88.8646733,183.6145 88.0756733,183.6175" id="Fill-24" fill="#33AFBE"></path>
                    <path d="M88.3556733,204.557559 C87.5276733,204.5585 86.8556733,203.8865 86.8546733,203.0585 C86.8546733,202.7165 86.9716733,202.3845 87.1856733,202.1175 C93.7356733,193.9475 105.755673,187.1175 122.915673,181.8075 C130.681673,179.4115 138.608673,177.5705 146.635673,176.2975 C147.463673,176.1785 148.231673,176.7545 148.350673,177.5825 C148.469673,178.4105 147.893673,179.1785 147.065673,179.2975 C146.635673,179.3575 104.315673,185.5775 89.5256733,204.0175 C89.2356733,204.3635 88.8066733,204.5615 88.3556733,204.557559" id="Fill-26" fill="#33AFBE"></path>
                </g>
            </g>
        </g>
    </g>
</svg>