<?xml version="1.0" encoding="UTF-8"?>
<svg width="48px" height="48px" viewBox="0 0 48 48" version="1.1" xmlns="http://www.w3.org/2000/svg" xmlns:xlink="http://www.w3.org/1999/xlink" style="background: #FFFFFF;">
    <title>Components / Icon / 48 / Check Cirle@3x</title>
    <g id="Symbols" stroke="none" stroke-width="1" fill="none" fill-rule="evenodd">
        <g id="Components-/-Icon-/-48-/-Check-Cirle">
            <rect fill="#FFFFFF" x="0" y="0" width="48" height="48"></rect>
            <path d="M23.8888889,4 C34.8333333,4 43.7780352,12.9444444 43.7780352,23.8888889 C43.8333333,34.8333333 34.8888889,43.7777778 23.8888889,43.7777778 C12.8888889,43.7777778 4,34.8333333 4,23.8888889 C4,12.8888889 12.9444444,4 23.8888889,4 Z M23.8888889,7.11111111 C14.6666667,7.11111111 7.11111111,14.6111111 7.11111111,23.8888889 C7.11111111,33.1666667 14.6111111,40.6666667 23.8888889,40.6666667 C33.1111111,40.6666667 40.6666667,33.1666667 40.6666667,23.8888889 C40.6666667,14.6111111 33.1666667,7.11111111 23.8888889,7.11111111 Z M32.0555556,16.1666667 L34.4444444,18.5555556 L21.1666667,31.8333333 L13.7222222,24.3888889 L16.0555556,22 L21.1666667,27.0555556 L32.0555556,16.1666667 Z" id="icon" fill="#00b353"></path>
        </g>
    </g>
</svg>