<?xml version="1.0" encoding="UTF-8"?>
<svg width="70px" height="70px" viewBox="0 0 70 70" version="1.1" xmlns="http://www.w3.org/2000/svg" xmlns:xlink="http://www.w3.org/1999/xlink">
    <title>GTX/Icon/Back</title>
    <g id="Symbols" stroke="none" stroke-width="1" fill="none" fill-rule="evenodd">
        <g id="GTX/Card/Continue" transform="translate(-127.000000, -171.000000)" fill="#171C8F">
            <g id="Group-3" transform="translate(104.000000, 166.000000)">
                <g id="Group" transform="translate(18.000000, 0.000000)">
                    <g id="GTX/Icon/Back" transform="translate(40.000000, 40.000000) scale(-1, 1) translate(-40.000000, -40.000000) ">
                        <g id="arrow-left-circle" transform="translate(8.000000, 8.000000)">
                            <path d="M32,-2.5 C51.0538239,-2.5 66.5,12.9461761 66.5,32 C66.5,51.0538239 51.0538239,66.5 32,66.5 C12.9461761,66.5 -2.5,51.0538239 -2.5,32 C-2.5,12.9461761 12.9461761,-2.5 32,-2.5 Z M32,2.5 C15.7075999,2.5 2.5,15.7075999 2.5,32 C2.5,48.2924001 15.7075999,61.5 32,61.5 C48.2924001,61.5 61.5,48.2924001 61.5,32 C61.5,15.7075999 48.2924001,2.5 32,2.5 Z M16.7,32 L16.7007328,31.939286 C16.7014022,31.9115571 16.7025303,31.8838373 16.704117,31.8561388 L16.7,32 C16.7,31.9159246 16.7041502,31.8328186 16.712257,31.7508756 C16.7144044,31.7303578 16.716789,31.7090963 16.7194459,31.6878624 C16.7241091,31.6493437 16.7296347,31.6120456 16.7359743,31.5750255 C16.7396034,31.5550535 16.7432932,31.5350139 16.7472289,31.5150131 C16.7640863,31.4280279 16.7858652,31.3420482 16.8119624,31.257969 C16.8368997,31.1779474 16.8660457,31.098293 16.8993691,31.019993 C16.9163579,30.9802042 16.9344096,30.9407769 16.95344,30.901916 L16.9636039,30.8811061 C16.9718877,30.8645546 16.9803668,30.848076 16.9890412,30.8316735 C17.0014358,30.8086102 17.0141938,30.7854124 17.0273055,30.7624426 L17.0474943,30.7273129 C17.0629418,30.7012288 17.0789044,30.6753652 17.095382,30.6497367 C17.1038923,30.6369043 17.112424,30.6239001 17.1210729,30.6109811 C17.140753,30.5812035 17.1613987,30.5517631 17.1827528,30.5226802 C17.1955976,30.5054828 17.2084068,30.4884824 17.221426,30.4716526 C17.230657,30.4594838 17.2402581,30.447319 17.2499884,30.4352237 L17.2642495,30.4178344 C17.3083325,30.3639637 17.3546198,30.3119669 17.4029738,30.2619817 L17.432233,30.232233 L30.232233,17.432233 C31.2085438,16.4559223 32.7914562,16.4559223 33.767767,17.432233 C34.6789903,18.3434564 34.7397385,19.7830972 33.9500116,20.7647763 L33.767767,20.967767 L25.233,29.5 L44.8,29.5 C46.1807119,29.5 47.3,30.6192881 47.3,32 C47.3,33.2944174 46.3162507,34.3590678 45.0556105,34.4870928 L44.8,34.5 L25.233,34.5 L33.767767,43.032233 C34.6789903,43.9434564 34.7397385,45.3830972 33.9500116,46.3647763 L33.767767,46.567767 C32.8565436,47.4789903 31.4169028,47.5397385 30.4352237,46.7500116 L30.232233,46.567767 L17.432233,33.767767 L17.415873,33.751255 C17.3918356,33.7267693 17.3682984,33.7017909 17.3452778,33.6763365 L17.432233,33.767767 C17.3796092,33.7151431 17.3298218,33.6607569 17.2828709,33.6047984 C17.2208976,33.530703 17.1630117,33.4529429 17.1097123,33.3718979 C17.0941906,33.3487022 17.0791901,33.3250358 17.064626,33.301178 C17.0188003,33.2257095 16.9767193,33.1478395 16.9387806,33.0676272 C16.924026,33.0365911 16.9100396,33.0052939 16.8967286,32.9737791 C16.8869959,32.9507455 16.8776463,32.9276987 16.8686335,32.9044838 C16.8613913,32.8856654 16.854314,32.8667109 16.8474746,32.84769 C16.8347586,32.8126691 16.8229074,32.7773153 16.8118346,32.7416191 C16.8070889,32.7257549 16.8022156,32.7094348 16.7975124,32.6930762 C16.7708593,32.6011186 16.7496169,32.5074655 16.7337852,32.4119849 C16.7309606,32.3937907 16.7281635,32.3757345 16.7255646,32.3576553 C16.7207912,32.3255831 16.7167588,32.2929144 16.7133628,32.2600568 C16.7111551,32.2376282 16.709188,32.2159 16.7075042,32.1941541 C16.7050643,32.1634739 16.7032326,32.1320864 16.7019851,32.1005487 C16.7012376,32.0812241 16.7006887,32.0619396 16.7003616,32.0426521 L16.7,32 L16.7,32 Z" id="Combined-Shape"></path>
                        </g>
                    </g>
                </g>
            </g>
        </g>
    </g>
</svg>