<?xml version="1.0" encoding="UTF-8"?>
<svg width="40px" height="40px" viewBox="0 0 40 40" version="1.1" xmlns="http://www.w3.org/2000/svg" xmlns:xlink="http://www.w3.org/1999/xlink">
    <title>GTX/Icon/Back</title>
    <g id="Symbols" stroke="none" stroke-width="1" fill="none" fill-rule="evenodd">
        <g id="arrow-left-circle" fill="#53565A" transform="translate(4.000000, 4.000000)">
            <path d="M16,-1.25 C25.5269119,-1.25 33.25,6.47308807 33.25,16 C33.25,25.5269119 25.5269119,33.25 16,33.25 C6.47308807,33.25 -1.25,25.5269119 -1.25,16 C-1.25,6.47308807 6.47308807,-1.25 16,-1.25 Z M16,1.25 C7.85379994,1.25 1.25,7.85379994 1.25,16 C1.25,24.1462001 7.85379994,30.75 16,30.75 C24.1462001,30.75 30.75,24.1462001 30.75,16 C30.75,7.85379994 24.1462001,1.25 16,1.25 Z M16.8838835,8.71611652 C17.3394952,9.1717282 17.3698693,9.89154862 16.9750058,10.3823881 L16.8838835,10.4838835 L12.616,14.75 L22.4,14.75 C23.0903559,14.75 23.65,15.3096441 23.65,16 C23.65,16.6472087 23.1581253,17.1795339 22.5278052,17.2435464 L22.4,17.25 L12.616,17.25 L16.8838835,21.5161165 C17.3394952,21.9717282 17.3698693,22.6915486 16.9750058,23.1823881 L16.8838835,23.2838835 C16.4282718,23.7394952 15.7084514,23.7698693 15.2176119,23.3750058 L15.1161165,23.2838835 L8.71611652,16.8838835 L8.63543923,16.7951161 C8.63412613,16.793525 8.63281688,16.7919305 8.63151151,16.7903328 L8.71611652,16.8838835 C8.66834597,16.8361129 8.62525021,16.7854378 8.58682924,16.7324266 C8.57689067,16.7185423 8.56711592,16.7044468 8.55762765,16.6901448 C8.54491526,16.6711848 8.53286732,16.6518924 8.52139527,16.6323553 C8.51152944,16.6153681 8.50180909,16.5978887 8.49250202,16.5801584 C8.48087781,16.558142 8.47016162,16.5361135 8.46013067,16.5138515 C8.4539978,16.5002057 8.44793847,16.4861081 8.44213379,16.4718795 C8.43168941,16.4461899 8.42220962,16.4204672 8.41360324,16.3945183 C8.4090966,16.3811908 8.40470505,16.3671763 8.40055599,16.3530581 C8.39328903,16.3279224 8.38687673,16.3032341 8.38123014,16.2784068 C8.37731105,16.261729 8.3736768,16.2440463 8.37042019,16.2262318 C8.36621539,16.2026075 8.36268357,16.1796467 8.35979211,16.1566207 C8.3574093,16.1382269 8.35545526,16.1191361 8.35393565,16.099923 C8.3518981,16.0738488 8.35063607,16.047761 8.35018654,16.0216618 C8.35005977,16.0142552 8.35,16.0071346 8.35,16 L8.35016959,15.9793456 C8.3506092,15.9525771 8.35190349,15.9258201 8.35405247,15.8991189 L8.35,16 C8.35,15.9467619 8.35332822,15.8943011 8.35978793,15.8428144 C8.36268357,15.8203533 8.36621539,15.7973925 8.37038757,15.7745255 C8.3736768,15.7559537 8.37731105,15.738271 8.38131432,15.7207289 C8.38687673,15.6967659 8.39328903,15.6720776 8.40046703,15.647566 C8.40470505,15.6328237 8.4090966,15.6188092 8.41372583,15.6049033 C8.42220962,15.5795328 8.43168941,15.5538101 8.44204262,15.5283595 C8.44793847,15.5138919 8.4539978,15.4997943 8.46030612,15.4858333 C8.47016162,15.4638865 8.48087781,15.441858 8.49227923,15.4200949 C8.50454007,15.3969086 8.51726955,15.3743956 8.53066274,15.35233 C8.5390587,15.338271 8.54813925,15.323957 8.5575391,15.3097923 C8.56711592,15.2955532 8.57689067,15.2814577 8.58694371,15.2675769 C8.59907592,15.250676 8.61179757,15.2340161 8.62499419,15.2176119 L8.63151151,15.2096672 C8.65814107,15.1770739 8.68638333,15.1458497 8.71611652,15.1161165 L15.1161165,8.71611652 C15.6042719,8.22796116 16.3957281,8.22796116 16.8838835,8.71611652 Z" id="Combined-Shape"></path>
        </g>
    </g>
</svg>