<?xml version="1.0" encoding="UTF-8"?>
<svg width="32px" height="28px" viewBox="0 0 32 28" version="1.1" xmlns="http://www.w3.org/2000/svg" xmlns:xlink="http://www.w3.org/1999/xlink">
    <title>GTX/Icon/Camera</title>
    <g id="Design" stroke="none" stroke-width="1" fill="none" fill-rule="evenodd">
        <g id="rta-gitex-UI-05.00" transform="translate(-580.000000, -378.000000)" fill="#171C8F">
            <g id="Group-2" transform="translate(347.000000, 232.000000)">
                <g id="Camera" transform="translate(0.000000, 80.000000)">
                    <g id="GTX/Icon/Camera" transform="translate(229.000000, 60.000000)">
                        <path d="M24.0591966,6.5 C24.4324281,6.5 24.7809654,6.6865315 24.9879969,6.99707885 L24.9879969,6.99707885 L27.3622326,10.5587907 L32.1775899,10.5591966 C34.234519,10.5591966 35.9119756,12.1839115 35.9966467,14.2200281 L35.9966467,14.2200281 L36,14.3816068 L36,29.2653277 C36,31.3763865 34.2886487,33.0877378 32.1775899,33.0877378 L32.1775899,33.0877378 L7.82241015,33.0877378 C5.71135132,33.0877378 4,31.3763865 4,29.2653277 L4,29.2653277 L4,14.3816068 C4,12.2705479 5.71135132,10.5591966 7.82241015,10.5591966 L7.82241015,10.5591966 L12.6370233,10.5587907 L15.0120031,6.99707885 C15.1983315,6.71758624 15.4992795,6.53854646 15.8296916,6.50553343 L15.8296916,6.50553343 L15.9408034,6.5 Z M23.4612093,8.73255814 L16.5380465,8.73255814 L14.1634726,12.2946759 C13.9771442,12.5741685 13.6761962,12.7532083 13.3457841,12.7862213 L13.3457841,12.7862213 L13.2346723,12.7917548 L7.82241015,12.7917548 C6.94435913,12.7917548 6.23255814,13.5035557 6.23255814,14.3816068 L6.23255814,14.3816068 L6.23255814,29.2653277 C6.23255814,30.1433787 6.94435913,30.8551797 7.82241015,30.8551797 L7.82241015,30.8551797 L32.1775899,30.8551797 C33.0556409,30.8551797 33.7674419,30.1433787 33.7674419,29.2653277 L33.7674419,29.2653277 L33.7674419,14.3816068 C33.7674419,13.5035557 33.0556409,12.7917548 32.1775899,12.7917548 L32.1775899,12.7917548 L26.7653277,12.7917548 C26.3920962,12.7917548 26.0435589,12.6052233 25.8365274,12.2946759 L25.8365274,12.2946759 L23.4612093,8.73255814 Z M20,14.6183932 C23.6056138,14.6183932 26.5285412,17.5413207 26.5285412,21.1469345 C26.5285412,24.7525482 23.6056138,27.6754757 20,27.6754757 C16.3943862,27.6754757 13.4714588,24.7525482 13.4714588,21.1469345 C13.4714588,17.5413207 16.3943862,14.6183932 20,14.6183932 Z M20,16.8509514 C17.6273941,16.8509514 15.7040169,18.7743285 15.7040169,21.1469345 C15.7040169,23.5195404 17.6273941,25.4429175 20,25.4429175 C22.3726059,25.4429175 24.2959831,23.5195404 24.2959831,21.1469345 C24.2959831,18.7743285 22.3726059,16.8509514 20,16.8509514 Z" id="Icon"></path>
                    </g>
                </g>
            </g>
        </g>
    </g>
</svg>