<?xml version="1.0" encoding="UTF-8"?>
<svg width="110px" height="47px" viewBox="0 0 110 47" version="1.1" xmlns="http://www.w3.org/2000/svg" xmlns:xlink="http://www.w3.org/1999/xlink">
    <title>Components / Logo / Govenment / Government of Dubai Red@3x</title>
    <g id="Symbols" stroke="none" stroke-width="1" fill="none" fill-rule="evenodd">
        <g id="Components-/-Logo-/-Govenment-/-Government-of-Dubai-Red" fill="#EE0000">
            <path d="M10.7769329,39.9392714 C11.2767368,39.9392714 11.7418782,40.0088031 12.1724417,40.1456168 C12.6035062,40.2837638 12.9779085,40.4886511 13.2971548,40.7650693 C13.6156093,41.0394882 13.8672396,41.3880208 14.0517547,41.8099602 C14.2354367,42.232023 14.3276319,42.724536 14.3276319,43.286956 C14.3276319,43.7552649 14.2394779,44.19295 14.0610032,44.5988932 C13.8827786,45.0052102 13.6359387,45.3604912 13.3204842,45.663699 C13.0045295,45.9664057 12.6289166,46.2022888 12.1911045,46.3713898 C11.754333,46.5409073 11.2732766,46.6243534 10.748228,46.6243534 C10.2550483,46.6243534 9.79161415,46.5638204 9.35713534,46.4422128 C8.92319621,46.3202302 8.5454183,46.122467 8.22329722,45.8515464 C7.9014682,45.5787937 7.64746299,45.2320939 7.46011545,44.8105708 C7.27264235,44.3880882 7.17915588,43.8839952 7.17915588,43.2964539 C7.17915588,42.8338945 7.26456031,42.399331 7.43653564,41.9925977 C7.60780198,41.5861607 7.85010125,41.2300861 8.16205672,40.9241306 C8.47580335,40.6177993 8.85258375,40.3769589 9.29589484,40.2021085 C9.7400807,40.0276334 10.2331369,39.9392714 10.7769329,39.9392714 Z M70.2984694,39.9392714 C70.7977301,39.9392714 71.2639544,40.0088031 71.6942287,40.1456168 C72.1255435,40.2837638 72.5002386,40.4886511 72.8190687,40.7650693 C73.1364816,41.0394882 73.3885292,41.3880208 73.5736686,41.8099602 C73.7578921,42.232023 73.8487542,42.724536 73.8487542,43.286956 C73.8487542,43.7552649 73.7610169,44.19295 73.5818759,44.5988932 C73.4037765,45.0052102 73.1579789,45.3604912 72.8428982,45.663699 C72.5269435,45.9664057 72.1502901,46.2022888 71.7140195,46.3713898 C71.2754173,46.5409073 70.7944843,46.6243534 70.2701024,46.6243534 C69.7767993,46.6243534 69.3133228,46.5638204 68.8793025,46.4422128 C68.4439489,46.3202302 68.0660017,46.122467 67.7444238,45.8515464 C67.4229698,45.5787937 67.1695067,45.2320939 66.9816583,44.8105708 C66.7941852,44.3880882 66.7005735,43.8839952 66.7005735,43.2964539 C66.7005735,42.8338945 66.7859779,42.399331 66.9577032,41.9925977 C67.1308012,41.5861607 67.3715178,41.2300861 67.6842634,40.9241306 C67.9965935,40.6177993 68.3750408,40.3769589 68.818225,40.2021085 C69.261536,40.0276334 69.7542995,39.9392714 70.2984694,39.9392714 Z M95.3292375,40.0619622 C95.3150312,40.1993185 95.3012415,40.3840421 95.2888682,40.6146339 C95.274162,40.8456008 95.2603723,41.1137712 95.2465409,41.4166016 C95.2328762,41.7193082 95.2208779,42.0548015 95.2107543,42.4203751 C95.200714,42.7863225 95.1947566,43.170767 95.1947566,43.5780434 C95.1947566,44.665639 94.9618318,45.4451097 94.4943567,45.9165015 C94.0277586,46.3892265 93.3415207,46.6247319 92.4376114,46.6247319 C92.038042,46.6247319 91.6660982,46.5830712 91.3201892,46.4974167 C90.9745683,46.4133908 90.6736937,46.2734522 90.4178994,46.0762294 C90.1626025,45.8797575 89.9604228,45.6267949 89.8154026,45.3173368 C89.6689234,45.0073396 89.5957674,44.6309755 89.5957674,44.18704 C89.5958924,43.9381173 89.5981004,43.7129006 89.60135,43.5165515 C89.605891,43.3204961 89.6077241,43.1365232 89.6077241,42.9679231 C89.6077241,42.7993223 89.6095571,42.6369704 89.6142231,42.481283 C89.6178893,42.3251804 89.6209722,42.1624535 89.6209722,41.9929357 C89.6210972,41.4868814 89.617306,41.0783598 89.6100154,40.7653603 C89.6054744,40.4521135 89.5956842,40.2181887 89.582936,40.0619622 C89.7077929,40.0742105 89.8368163,40.0861671 89.967257,40.0956658 C90.0976965,40.1054144 90.225928,40.109997 90.350287,40.109997 C90.475769,40.109997 90.6030008,40.105581 90.7338143,40.0956658 C90.8647957,40.0861671 90.9932773,40.0741688 91.1173417,40.0619622 C91.0548508,40.6678771 91.0185227,41.2322512 91.0052326,41.753388 C90.9928594,42.2749375 90.9863603,42.8042788 90.9863603,43.3419515 C90.9864853,43.9107453 91.0277712,44.3682219 91.1085927,44.7193795 C91.1879979,45.0692045 91.3092306,45.3384158 91.4672492,45.5294317 C91.6262266,45.7200292 91.8199486,45.8465944 92.0514149,45.9097104 C92.2815902,45.9717015 92.5498008,46.0026554 92.8548005,46.0026554 C93.2276649,46.0026554 93.5202063,45.9097104 93.7320084,45.7218207 C93.9442282,45.5339727 94.1044954,45.2835924 94.2128144,44.9723036 C94.3221736,44.6597234 94.3887057,44.3014411 94.4135772,43.8986231 C94.4388236,43.4962213 94.4502803,43.0759504 94.4502803,42.6382617 C94.4502803,42.2077405 94.4442811,41.7779671 94.4319079,41.3505711 C94.4204512,40.9226318 94.4020788,40.4926115 94.3772073,40.0619622 C94.4658614,40.0742115 94.5503491,40.0861681 94.6326291,40.0956668 C94.7138674,40.1054154 94.7901482,40.1099981 94.8590133,40.1099981 C94.9398767,40.1099981 95.0178238,40.105582 95.0945211,40.0956668 C95.1690104,40.0861682 95.2474993,40.0741699 95.3292375,40.0619622 Z M3.87806857,39.938928 C4.35195759,39.938928 4.763234,39.9878795 5.10964035,40.085532 C5.45621565,40.1833098 5.79833319,40.323248 6.1354099,40.50593 C6.08608347,40.6677401 6.03738242,40.8269671 5.99130566,40.983445 C5.94393757,41.1396725 5.9053598,41.2987747 5.87373921,41.4616267 L5.74225803,41.4616267 C5.54320312,41.1813335 5.29219926,40.9538653 4.9919896,40.782059 C4.69303709,40.6100393 4.32783779,40.5243848 3.89706614,40.5243848 C3.61010739,40.5243848 3.32398318,40.5858345 3.04069031,40.7078167 C2.75610611,40.8292991 2.50247443,41.0123148 2.28130036,41.2566955 C2.05933229,41.4999108 1.88043998,41.8039906 1.74246015,42.1703578 C1.60564643,42.5353881 1.5372812,42.9655355 1.5372812,43.4589656 C1.5372812,43.8339111 1.58794058,44.1820281 1.69130095,44.5008583 C1.79478617,44.8198126 1.94193162,45.0955634 2.13498593,45.3301552 C2.32895804,45.5646215 2.56671699,45.7467614 2.8463415,45.878244 C3.1268845,46.0096003 3.44858795,46.0747158 3.80949491,46.0747158 C3.89177488,46.0747158 3.98355345,46.0706747 4.08666337,46.0613011 C4.19002338,46.0523024 4.28909282,46.0415122 4.38557888,46.0284725 C4.48335663,46.0163492 4.57176065,45.9983934 4.65270732,45.9763965 C4.73357074,45.9553162 4.79306206,45.9316111 4.83026526,45.9061149 C4.84122202,45.8311258 4.84772109,45.7373893 4.8510956,45.6238636 C4.85301199,45.5494855 4.85405813,45.4688488 4.85454263,45.3824347 L4.85488671,45.2485407 C4.85488671,44.7421126 4.84601298,44.367668 4.82847383,44.1268258 C4.81126797,43.8854437 4.79981128,43.7208827 4.79397876,43.6330218 C4.85701147,43.6455201 4.93979126,43.6567268 5.04265145,43.6666004 C5.14497021,43.6750575 5.29365708,43.6800151 5.48763095,43.6800151 C5.71205717,43.6800151 5.88028336,43.6751825 5.98926902,43.6666004 C6.09966981,43.6566851 6.1857409,43.6455201 6.24719021,43.6330218 C6.23469199,43.6836812 6.22415183,43.7649196 6.21452824,43.8774036 C6.20502961,43.9895127 6.19761398,44.1197022 6.19161487,44.2662642 C6.18457422,44.413368 6.18040812,44.5694706 6.17649204,44.7354478 C6.17390908,44.9012991 6.17257592,45.0588599 6.17257592,45.2085467 L6.17257592,45.5181273 C6.17257592,45.6741051 6.1738674,45.8199175 6.17636703,45.9539818 C6.17949158,46.0885874 6.18574069,46.184532 6.19653082,46.2397324 C5.78525794,46.3593821 5.36827441,46.4522019 4.9473756,46.5209421 C4.52593712,46.5895574 4.10908056,46.6240524 3.69780415,46.6240524 C3.16088278,46.6240524 2.66578428,46.5536043 2.21364089,46.4127494 C1.76083085,46.2723946 1.37092971,46.0669656 1.04310151,45.7943374 C0.715148439,45.5234179 0.459725962,45.1946729 0.275627045,44.8102285 C0.0919450513,44.4249904 6.31088724e-30,43.9926385 6.31088724e-30,43.5113317 C6.31088724e-30,42.9170004 0.0977777486,42.3971581 0.29462458,41.9500975 C0.491596277,41.5029099 0.762933453,41.1310896 1.1093398,40.8346329 C1.45537367,40.5376754 1.86627125,40.3143744 2.34170521,40.1640209 C2.81597165,40.0142924 3.32906277,39.938928 3.87806857,39.938928 Z M78.4778612,40.0624278 C78.4521983,40.1625385 78.4397,40.2935195 78.4397,40.4571613 C78.4397,40.5567722 78.4429496,40.6352607 78.4489487,40.6908361 C78.4553228,40.7482445 78.4649464,40.8096942 78.4778612,40.8796005 C78.2959707,40.8666024 78.0975825,40.8544791 77.8826129,40.8423557 C77.6667689,40.8293576 77.4572979,40.8173593 77.2543281,40.8041945 C77.0517322,40.7926128 76.8689666,40.7826976 76.7063664,40.7760735 C76.5442646,40.7701994 76.4280315,40.7670748 76.359166,40.7670748 C76.3353361,41.1101091 76.3197135,41.450184 76.3164638,41.7869715 C76.3137142,42.1242983 76.3113812,42.4637068 76.3113812,42.8074078 C76.7192821,42.8006587 77.08627,42.792035 77.4142217,42.7795368 C77.741633,42.7674135 78.0834158,42.7522074 78.4397408,42.7337101 C78.4213684,42.8400697 78.4094118,42.9211832 78.4015796,42.9773004 C78.3961221,43.0334171 78.3937891,43.0917423 78.3937891,43.1548583 C78.393914,43.2051011 78.3975802,43.2562603 78.4081203,43.3100445 C78.4163275,43.3624954 78.4273676,43.4384012 78.4397408,43.5388033 C77.7274682,43.4823116 77.0178198,43.4531488 76.3113777,43.4531488 L76.3115027,43.9313305 C76.3115027,44.4511728 76.3182517,44.9126881 76.3307499,45.3158836 C76.3422066,45.7199926 76.360579,46.1160206 76.3839923,46.5034632 C76.2778825,46.4869239 76.1634405,46.4788418 76.0377087,46.4788418 L75.1948283,46.4788418 L75.1948283,46.4788418 C75.0681382,46.4788418 74.9537378,46.4869239 74.8472113,46.5034632 C74.8715412,46.1160171 74.8899136,45.7203665 74.9019119,45.3176754 C74.9138685,44.9144835 74.9193678,44.453716 74.9193678,43.9339971 L74.9193678,42.6588036 C74.9193678,42.1394621 74.9137852,41.6792765 74.9019119,41.2769594 C74.8900016,40.8733512 74.8716292,40.4679513 74.8472576,40.0624278 C75.1288422,40.068302 75.4085101,40.0781756 75.683595,40.0912154 C75.9592221,40.1046301 76.237017,40.1104626 76.5190153,40.1104626 C76.9815747,40.1104626 77.3916836,40.1060466 77.7503402,40.0961314 C78.1104535,40.0866327 78.3528371,40.0746344 78.4778612,40.0624278 Z M50.8853619,40.0624278 C50.8601155,40.1625385 50.8472007,40.2935195 50.8472007,40.4571613 C50.8472007,40.5567722 50.8508668,40.6352607 50.8568243,40.6908361 C50.86374,40.7482445 50.8724471,40.8096942 50.8853202,40.8796005 C50.7038463,40.8666024 50.5054154,40.8544791 50.289571,40.8423557 C50.0751435,40.8293576 49.8651731,40.8173593 49.6627042,40.8041945 C49.4586917,40.7926128 49.2767995,40.7826976 49.114365,40.7760735 C48.9512217,40.7701994 48.8360301,40.7670748 48.7670398,40.7670748 C48.7410019,41.1101091 48.7272124,41.450184 48.7234212,41.7869715 C48.7202967,42.1242983 48.7188802,42.4637068 48.7188802,42.8074078 C49.1244072,42.8006587 49.4908943,42.792035 49.8193892,42.7795368 C50.1473422,42.7674135 50.4907913,42.7522074 50.845783,42.7337101 C50.8270357,42.8400697 50.8145375,42.9211832 50.8081633,42.9773004 C50.8012476,43.0334171 50.7989146,43.0917423 50.7989146,43.1548583 C50.7990396,43.2051011 50.8030806,43.2562603 50.8123293,43.3100445 C50.8223696,43.3624954 50.8329097,43.4384012 50.8457829,43.5388033 C50.1330093,43.4823116 49.4243627,43.4531488 48.7188801,43.4531488 C48.7188801,43.6532449 48.7174636,43.8515083 48.712506,44.0518962 C48.7088398,44.2514925 48.7065068,44.4511728 48.7065068,44.6511444 C48.7065068,45.0565444 48.714714,45.4459482 48.7312533,45.8199766 C49.0867847,45.8199766 49.4422349,45.8109779 49.7986834,45.7935637 C50.154631,45.7765245 50.5138308,45.7477371 50.8766531,45.7066179 C50.8641549,45.7752332 50.8545313,45.8379742 50.8476156,45.894091 C50.8412415,45.9500829 50.8384919,46.0281968 50.8384919,46.1281823 C50.8384919,46.2286679 50.8412415,46.3062817 50.8476156,46.3631903 C50.8545313,46.4187657 50.8641549,46.4664255 50.8766531,46.5035451 C50.7080523,46.4954629 50.5004166,46.4892138 50.2532853,46.4847978 C50.0482453,46.4814302 49.7779943,46.479596 49.4445334,46.4790781 L47.7548091,46.4789236 C47.6134127,46.4789236 47.5082196,46.4807567 47.4370213,46.4847978 C47.3649065,46.4892138 47.3043736,46.4954629 47.2551308,46.5035451 C47.2790857,46.1160989 47.297458,45.7204483 47.3098314,45.3177573 C47.321788,44.9145654 47.3282037,44.4537978 47.3282037,43.934079 L47.3282037,42.6588854 C47.3282037,42.139544 47.3218296,41.6793584 47.3098314,41.2770413 C47.2974983,40.8733512 47.2791676,40.4679513 47.255171,40.0624278 C47.5362557,40.068302 47.8155064,40.0781756 48.0902174,40.0912154 C48.3671361,40.1046301 48.64547,40.1104626 48.9269322,40.1104626 C49.3889907,40.1104626 49.7996005,40.1060466 50.1582571,40.0961314 C50.5179542,40.0866327 50.76038,40.0746344 50.8853619,40.0624278 Z M24.8579763,40.0624278 C24.8333549,40.1625385 24.8210232,40.2935195 24.8210232,40.4571613 C24.8211482,40.5567722 24.8234812,40.6352607 24.8302719,40.6908361 C24.8358544,40.7482445 24.8451031,40.8096942 24.8580179,40.8796005 C24.6764188,40.8666024 24.4784058,40.8544791 24.2623957,40.8423557 C24.0480931,40.8293576 23.8379978,40.8173593 23.6344848,40.8041945 C23.4323054,40.7926128 23.2492467,40.7826976 23.0873132,40.7760735 C22.9245864,40.7701994 22.808853,40.7670748 22.740613,40.7670748 C22.7144501,41.1101091 22.6993273,41.450184 22.6962025,41.7869715 C22.6933279,42.1242983 22.6911199,42.4637068 22.6911199,42.8074078 C23.097437,42.8006587 23.4644673,42.792035 23.7921297,42.7795368 C24.1200828,42.7674135 24.4618247,42.7522074 24.8185236,42.7337101 C24.7992764,42.8400697 24.7874031,42.9211832 24.7802376,42.9773004 C24.7739885,43.0334171 24.7708639,43.0917423 24.7708639,43.1548583 C24.7708639,43.2051011 24.7759465,43.2562603 24.7851952,43.3100445 C24.7952354,43.3624954 24.805359,43.4384012 24.8185237,43.5388033 C24.1061241,43.4823116 23.397227,43.4531488 22.6910777,43.4531488 C22.6910777,43.6532449 22.6893696,43.8515083 22.6854952,44.0518962 C22.6812041,44.2514925 22.6793711,44.4511728 22.6793711,44.6511444 C22.6793711,45.0565444 22.6874532,45.4459482 22.7035759,45.8199766 C23.0596505,45.8199766 23.4151819,45.8109779 23.7710061,45.7935637 C24.1278708,45.7765245 24.487321,45.7477371 24.8491027,45.7066179 C24.8369794,45.7752332 24.8271059,45.8379742 24.8209817,45.894091 C24.8143577,45.9500829 24.811983,46.0281968 24.811983,46.1281823 C24.811983,46.2286679 24.814316,46.3062817 24.8209817,46.3631903 C24.8271059,46.4187657 24.8369794,46.4664255 24.8491027,46.5035451 C24.6811686,46.4954629 24.4725735,46.4892138 24.225608,46.4847978 C24.0207763,46.4814302 23.7510233,46.479596 23.4175062,46.4790781 L21.7271317,46.4789236 C21.5870267,46.4789236 21.480417,46.4807567 21.409594,46.4847978 C21.3376045,46.4892138 21.2774462,46.4954629 21.2270785,46.5035451 C21.2519499,46.1160989 21.2703221,45.7204483 21.2824037,45.3177573 C21.2947769,44.9145654 21.301276,44.4537978 21.301276,43.934079 L21.301276,42.6588854 C21.301276,42.139544 21.2947769,41.6793584 21.2824037,41.2770413 C21.2703243,40.8733512 21.2519936,40.4679513 21.2271223,40.0624278 C21.5092487,40.068302 21.7881243,40.0781756 22.0635867,40.0912154 C22.3398387,40.1046301 22.6184654,40.1104626 22.8996736,40.1104626 C23.3613159,40.1104626 23.7725888,40.1060466 24.1316651,40.0961314 C24.4904875,40.0866327 24.7324972,40.0746344 24.8579763,40.0624278 Z M99.2588022,40.0624667 C99.5395121,40.0624667 99.7966019,40.0903377 100.028107,40.1464546 C100.260116,40.2029463 100.459838,40.2873095 100.629313,40.4042093 C100.797914,40.5190262 100.927312,40.6688796 101.018717,40.8532275 C101.109204,41.0372012 101.154239,41.2582536 101.154239,41.5139244 C101.154239,41.7700128 101.100456,41.9897746 100.993471,42.1741204 C100.886986,42.3584691 100.756005,42.5114472 100.602237,42.632888 C100.448342,42.7544957 100.282116,42.8500653 100.102059,42.9181389 C99.9229178,42.9876706 99.7617324,43.034414 99.6160465,43.0589938 L99.6161715,43.0756581 C99.7593593,43.0819072 99.9283767,43.1145692 100.121682,43.1738108 C100.314613,43.2339687 100.499252,43.3263723 100.673313,43.4509792 C100.848412,43.5757113 100.996725,43.7380632 101.117915,43.9341167 C101.240147,44.13188 101.300722,44.3718054 101.300722,44.6530136 C101.300847,44.9912568 101.240189,45.2800074 101.117915,45.5168073 C100.996724,45.7545232 100.834997,45.9487888 100.631525,46.0999324 C100.429096,46.2497861 100.196711,46.3541877 99.9348746,46.4138043 C99.6726621,46.4735457 99.401992,46.5034996 99.1196162,46.5034996 C98.869777,46.5034996 98.6377697,46.4994585 98.4233397,46.4910014 C98.2078707,46.4829192 97.9814854,46.4788781 97.7445197,46.4788781 L97.2250513,46.4788781 L97.2250513,46.4788781 C97.0477434,46.4788781 96.9053055,46.4869603 96.7988192,46.5034996 C96.8287733,46.1160534 96.8489372,45.7204028 96.8631433,45.3177118 C96.8746083,44.9951583 96.8809807,44.6357563 96.8830711,44.2388016 L96.8838487,42.6588399 C96.8838487,42.1394985 96.8773496,41.6793129 96.8631433,41.2769958 C96.8489383,40.8733901 96.8286495,40.4679901 96.7988192,40.0624667 C96.9054302,40.074715 97.0206637,40.0866716 97.1465623,40.0961702 C97.2714193,40.1059188 97.4129408,40.1105015 97.5690449,40.1105015 C97.8386727,40.1105015 98.1188408,40.1029609 98.4146308,40.0866716 C98.7085887,40.0701323 98.9896749,40.0624667 99.2588022,40.0624667 Z M110,40.0624278 C109.97567,40.4679548 109.957298,40.8733936 109.944924,41.2770863 C109.932968,41.6793612 109.927885,42.139589 109.927885,42.6589305 L109.927885,43.9339971 C109.927885,44.4538394 109.932968,44.9145646 109.944924,45.3177989 C109.957298,45.7204899 109.975628,46.116144 110,46.5035866 C109.893515,46.4870473 109.778157,46.4789652 109.6533,46.4789652 L108.810462,46.4789652 L108.810462,46.4789652 C108.685605,46.4789652 108.568455,46.4870474 108.463762,46.5035866 C108.488091,46.1161405 108.506464,45.7204899 108.51792,45.3177989 C108.529877,44.9146069 108.536668,44.4538394 108.536668,43.9341205 L108.536793,42.658927 C108.536793,42.1395855 108.529877,41.6794 108.51792,41.2770828 C108.506464,40.8733512 108.488091,40.4679513 108.463762,40.0624278 C108.568413,40.0746761 108.68548,40.0866327 108.810462,40.0961314 C108.934902,40.10588 109.075507,40.1104626 109.231611,40.1104626 C109.388213,40.1104626 109.528318,40.1060466 109.6533,40.0961314 C109.778157,40.0866327 109.893516,40.0746344 110,40.0624278 Z M104.934893,40.0121325 C105.134739,40.5439746 105.349167,41.1131423 105.576468,41.7186797 C105.80431,42.3250918 106.033945,42.9211338 106.265037,43.5060472 C106.496921,44.0904633 106.721474,44.6452186 106.940066,45.1708915 C107.158284,45.6956896 107.358506,46.1401683 107.539063,46.5024932 C107.390206,46.4859539 107.247268,46.4778717 107.112786,46.4778717 L106.315897,46.4778717 L106.315897,46.4778717 C106.182333,46.4778717 106.049144,46.4859539 105.917788,46.5024932 C105.817677,46.1948706 105.715609,45.8809561 105.609499,45.5607115 C105.503014,45.2409657 105.390905,44.92018 105.271547,44.5991418 C105.071326,44.5905597 104.873311,44.5852272 104.672677,44.5811861 C104.473372,44.57702 104.27261,44.5753119 104.073806,44.5753119 C103.910662,44.5753119 103.748977,44.577145 103.584541,44.5811861 C103.424273,44.5851022 103.260379,44.5905597 103.098695,44.5991418 C102.973838,44.920179 102.858104,45.2409678 102.751995,45.5607115 C102.646801,45.8808323 102.548524,46.1948692 102.461661,46.5024932 C102.386797,46.4859539 102.312849,46.4778717 102.240735,46.4778717 L101.796673,46.4778717 L101.796673,46.4778717 C101.721809,46.4778717 101.640071,46.4859539 101.552833,46.5024932 C101.626781,46.3401413 101.727308,46.115047 101.852665,45.8270488 C101.976731,45.5395898 102.114086,45.2139701 102.265105,44.8515217 C102.414834,44.4886994 102.575103,44.1007136 102.747329,43.6836066 C102.918638,43.2682915 103.09053,42.8484332 103.261715,42.4232452 C103.434482,41.997641 103.603083,41.5777828 103.768394,41.1656351 C103.933745,40.7530677 104.085265,40.3686233 104.222495,40.0121325 C104.286027,40.0250056 104.344227,40.0367539 104.401261,40.0461276 C104.457253,40.0569177 104.515577,40.0613754 104.578985,40.0613754 C104.642018,40.0613754 104.701093,40.0569594 104.756293,40.0461276 C104.813202,40.036754 104.873318,40.0250473 104.934893,40.0121325 Z M45.4509218,40.0615249 C45.513538,40.5993245 45.5796951,41.1774903 45.6523097,41.7955248 C45.7233828,42.4149773 45.7938309,43.0191814 45.8633626,43.6098478 C45.9314361,44.2008881 45.9998014,44.7521408 46.0686664,45.2648192 C46.1371565,45.7779139 46.1996478,46.1906047 46.2565145,46.5026872 C46.1316575,46.486102 46.0048422,46.4780199 45.8774033,46.4780199 L45.1128035,46.4780199 L45.1128035,46.4780199 C44.9819474,46.4780199 44.8503413,46.486102 44.719234,46.5026872 C44.6879885,45.8591081 44.6368292,45.1616677 44.5656312,44.4112758 C44.4936417,43.6617587 44.4200688,42.9172397 44.3448296,42.1799693 L44.3260823,42.1798443 C43.9697573,42.9172382 43.6205996,43.6434259 43.2773996,44.3551977 C42.9327823,45.0679712 42.5932463,45.7837853 42.2559227,46.5026872 C42.2243022,46.4945999 42.1942233,46.4883509 42.1667272,46.4839348 C42.1388562,46.4798937 42.1087773,46.4780607 42.0778233,46.4780607 C42.0464528,46.4780607 42.0166238,46.4798937 41.9890444,46.4839348 C41.9607984,46.4883509 41.9305943,46.4945999 41.8998488,46.5026872 C41.5621471,45.8030336 41.2272792,45.1019671 40.8927033,44.4032321 C40.5578346,43.7017494 40.2131355,42.9926442 39.8574348,42.2746221 L39.8386875,42.2744971 C39.7380353,42.9926039 39.6643792,43.7017514 39.6137198,44.4032341 L39.4637378,46.5026872 L39.4637378,46.5026872 C39.3883738,46.4861479 39.3138841,46.4780657 39.238895,46.4780657 L38.8034159,46.4780657 L38.8034159,46.4780657 C38.7310094,46.4780657 38.6578535,46.4861479 38.5832809,46.5026872 C38.7822106,45.427176 38.9600606,44.3584514 39.1174546,43.2963544 C39.2735572,42.2328395 39.4169115,41.1555365 39.5476019,40.0615249 C39.6159671,40.0737731 39.6801247,40.0857297 39.7397828,40.0952284 C39.7990244,40.104977 39.8638483,40.1095596 39.9315469,40.1095596 C39.9887052,40.1095596 40.0479468,40.1051436 40.1100212,40.0952284 C40.1728871,40.0857297 40.2378778,40.0737314 40.306868,40.0615249 C40.4752187,40.4356803 40.6516102,40.8172923 40.8363327,41.2048619 C41.0209311,41.5923081 41.2043648,41.9789606 41.3891268,42.3625303 C41.5733503,42.7481423 41.7578255,43.1254616 41.9417975,43.4927 C42.1261461,43.8623123 42.3027044,44.2121401 42.4707649,44.5426737 C42.8455869,43.8430252 43.2189487,43.1102132 43.5907725,42.3440297 C43.9620532,41.5779732 44.3168368,40.8172888 44.6541604,40.0615249 C44.8107629,40.0938119 44.944619,40.1095596 45.0564353,40.1095596 C45.1629201,40.1095596 45.2948178,40.0938119 45.4509218,40.0615249 Z M37.5294298,40.0616906 C37.4957263,40.6299836 37.4695635,41.1444927 37.4505244,41.6032603 C37.430069,42.0625711 37.4139462,42.4967571 37.4004064,42.9021571 C37.3876583,43.3084741 37.3786596,43.7100012 37.3762016,44.1073166 C37.3730631,44.3719444 37.3718504,44.6485538 37.3713906,44.9368336 L37.371119,46.5028202 C37.246262,46.4862678 37.1176552,46.4781857 36.9871754,46.4781857 C36.8490284,46.4781857 36.7277124,46.4862678 36.6213514,46.5028202 C35.3345779,45.0025207 33.9704406,43.4928235 32.5273877,41.9741776 C32.5199721,42.1554018 32.513473,42.336626 32.5100568,42.5169331 C32.5048492,42.6994486 32.5033078,42.8837976 32.5033078,43.0716884 L32.5033078,44.1584903 C32.5033078,44.5334358 32.5048492,44.8518921 32.5082654,45.1147267 C32.511015,45.3779808 32.5163476,45.5999489 32.5233882,45.7807992 C32.5305539,45.9623983 32.536553,46.1104185 32.5439686,46.2256517 C32.5507177,46.34176 32.5578833,46.4334553 32.564424,46.5028202 C32.4893097,46.4862808 32.4145703,46.4781987 32.3399978,46.4781987 L32.1241538,46.4781987 L32.1241538,46.4781987 C31.9804245,46.4781987 31.8370698,46.4862809 31.693883,46.5028202 C31.7060063,46.4525773 31.721879,46.2746028 31.7400846,45.9678564 C31.7590819,45.6619001 31.7792875,45.288786 31.8010341,44.8483496 C31.8235726,44.4068727 31.8419032,43.9292307 31.8584426,43.4125982 C31.8730239,42.897172 31.881481,42.4024509 31.881481,41.928061 C31.881606,41.4955822 31.8745653,41.1341743 31.8614422,40.8394249 C31.8486236,40.5457851 31.8388333,40.2865719 31.8325842,40.0616906 C32.0070593,40.0940165 32.1481639,40.1097642 32.2537334,40.1097642 C32.3613847,40.1097642 32.5013645,40.0940164 32.6764629,40.0616906 C33.3584081,40.8174969 34.0325192,41.5616384 34.6985881,42.2926586 C35.3642443,43.0241795 36.0480201,43.7678237 36.7488362,44.5250056 L36.7488362,42.7990867 C36.7488362,42.4931304 36.7470031,42.1908403 36.7440035,41.8940098 C36.7414206,41.5974272 36.738671,41.323925 36.7352965,41.0745856 C36.7322969,40.8242467 36.7256728,40.6089011 36.7167991,40.4268868 C36.7075505,40.2456626 36.6973852,40.1236803 36.6843871,40.0616906 C36.8600287,40.0939777 37.0002169,40.1097254 37.107367,40.1097254 C37.2129351,40.1097254 37.3544567,40.0939776 37.5294298,40.0616906 Z M57.8307455,40.0616906 C57.7985835,40.6299836 57.7719205,41.1444927 57.7526316,41.6032603 C57.7319263,42.0625711 57.7159286,42.4967571 57.7034304,42.9021571 C57.6892241,43.3084741 57.6814336,43.7100012 57.6777674,44.1073166 C57.6749901,44.3719444 57.6740643,44.6485538 57.6737557,44.9368336 L57.6736014,46.5028202 C57.5478277,46.4862678 57.4201376,46.4781857 57.2891569,46.4781857 C57.1514268,46.4781857 57.0301941,46.4862678 56.9235834,46.5028202 C55.6377269,45.0025207 54.2721293,43.4928235 52.8300429,41.9741776 C52.8222524,42.1554018 52.8162532,42.336626 52.8107957,42.5169331 C52.8080461,42.6994486 52.8062547,42.8837976 52.8062547,43.0716884 L52.8068093,44.5813656 C52.8074212,44.7793014 52.808621,44.9570259 52.8107957,45.1147267 C52.8140452,45.3779808 52.8191278,45.5999489 52.8264184,45.7807992 C52.8324176,45.9623983 52.8402081,46.1104185 52.8465822,46.2256517 C52.8534979,46.34176 52.8603719,46.4334553 52.8663711,46.5028202 C52.7915068,46.4862808 52.7179339,46.4781987 52.6417784,46.4781987 L52.4268507,46.4781987 L52.4268507,46.4781987 C52.2834964,46.4781987 52.1397667,46.4862809 51.996453,46.5028202 C52.0084096,46.4525773 52.0245739,46.2746028 52.0424049,45.9678564 C52.0612771,45.6619001 52.0823576,45.288786 52.104396,44.8483496 C52.1251013,44.4068727 52.1443487,43.9292307 52.1599713,43.4125982 C52.1755941,42.897172 52.1839262,42.4024509 52.1839262,41.928061 C52.1839262,41.4955822 52.1770105,41.1341743 52.1641374,40.8394249 C52.1508137,40.5457851 52.1411901,40.2865719 52.135191,40.0616906 C52.3101659,40.0940165 52.4511457,40.1097642 52.5572538,40.1097642 C52.6642801,40.1097642 52.8038433,40.0940164 52.9793166,40.0616906 C53.6604681,40.8174969 54.3351224,41.5616384 55.0015688,42.2926586 C55.6669746,43.0241795 56.3499603,43.7678237 57.0512737,44.5250056 L57.0512737,42.7990867 C57.0512737,42.4931304 57.0494406,42.1908403 57.0458162,41.8940098 C57.0430665,41.5974272 57.039817,41.323925 57.0365675,41.0745856 C57.0338179,40.8242467 57.0287769,40.6089011 57.0191116,40.4268868 C57.009488,40.2456626 56.9993228,40.1236803 56.9874912,40.0616906 C57.1624661,40.0939777 57.3034459,40.1097254 57.4104711,40.1097254 C57.5156642,40.1097254 57.6552278,40.0939776 57.8307455,40.0616906 Z M63.5747811,40.0621803 C63.5628245,40.1307956 63.5513677,40.1995354 63.5417025,40.2681507 C63.5329954,40.3367661 63.5284127,40.4062978 63.5284127,40.4748711 C63.5284127,40.5429446 63.5329537,40.6107684 63.5417025,40.6803001 C63.5513261,40.7502068 63.5627828,40.8188221 63.5747811,40.8874371 C63.4497989,40.8690647 63.3102356,40.8525671 63.1527183,40.8373191 C62.9966156,40.8228629 62.8427211,40.8094481 62.6902858,40.8008662 C62.5354745,40.7924091 62.3916204,40.7847018 62.2538917,40.7793693 C62.1161616,40.7726202 62.0008029,40.7690791 61.9066914,40.7690791 C61.9012338,40.8004496 61.8957346,40.8444431 61.8934016,40.9004354 C61.8897355,40.9565522 61.8879441,41.0229594 61.8879441,41.0974071 L61.8879441,43.9360817 C61.8879441,44.454506 61.8938182,44.9151078 61.9063164,45.3175096 C61.9177731,45.7216186 61.9365204,46.1162287 61.9613919,46.5032974 C61.8552821,46.4867581 61.7404651,46.4786759 61.6151084,46.4786759 L60.7713566,46.4786759 L60.7713566,46.4786759 C60.6464997,46.4786759 60.530766,46.4867581 60.4241563,46.5032974 C60.4486111,46.1162287 60.4669834,45.7216186 60.4797316,45.3175096 C60.4913133,44.9151078 60.498104,44.4544672 60.498104,43.9360817 L60.498229,41.5938354 C60.498229,41.4118197 60.4962709,41.2471352 60.4931464,41.0974071 C60.4901767,40.9471785 60.4828861,40.8386108 60.4700129,40.7690791 C60.3764013,40.7690791 60.2606679,40.7727452 60.1228126,40.7793693 C59.9850825,40.7847018 59.8386034,40.7923674 59.6832933,40.8008662 C59.5262743,40.8094483 59.3673386,40.822988 59.2047377,40.8373191 C59.0431777,40.8525669 58.8924077,40.8691062 58.7551763,40.8874371 C58.7679245,40.8188218 58.7784646,40.7502068 58.7877133,40.6803001 C58.797337,40.6107684 58.8019196,40.5430699 58.8019196,40.4748711 C58.8020446,40.4062558 58.7973786,40.3367241 58.7877133,40.2681507 C58.7785896,40.1995354 58.7679245,40.1307956 58.7551763,40.0621803 C58.967771,40.0680544 59.159825,40.07572 59.3324285,40.0810525 C59.5032374,40.0885931 59.6782123,40.0927592 59.8560627,40.0963003 C60.0337871,40.0994249 60.2276361,40.1026744 60.4374806,40.105799 C60.5424238,40.1075487 60.6578035,40.1086527 60.7835825,40.1093193 L61.6022304,40.1093193 C61.7284311,40.1086527 61.8440703,40.1075487 61.9490119,40.105799 C62.157982,40.1025494 62.3509128,40.0995499 62.5262641,40.0963003 C62.7012391,40.0926342 62.871673,40.0887597 63.0369814,40.0810525 C63.2019159,40.07572 63.3809321,40.0680544 63.5747811,40.0621803 Z M28.1452615,40.0616201 C28.3828526,40.0616201 28.5863222,40.0674942 28.7542979,40.0801174 C28.9236903,40.0926156 29.0683363,40.1119045 29.1906921,40.1361093 C29.3125494,40.1617723 29.4194508,40.1944342 29.5096464,40.2348035 C29.5997583,40.2760891 29.6860378,40.3235825 29.7672762,40.3796992 C29.9549994,40.5178463 30.1036863,40.6882382 30.2129223,40.8914606 C30.3231983,41.0945563 30.3768156,41.3368563 30.3768156,41.6175249 C30.3768156,42.0737105 30.2523752,42.446074 30.0025368,42.7329894 C29.7517809,43.0209898 29.3925832,43.2251285 28.92365,43.3425267 C29.2225655,43.8748662 29.5445205,44.4032904 29.8880944,44.9325505 C30.2324617,45.4604738 30.5754963,45.9843584 30.9185306,46.5027827 C30.7753427,46.4862434 30.6348628,46.4781613 30.4967147,46.4781613 L29.6497108,46.4781613 L29.6497108,46.4781613 C29.5084393,46.4781613 29.3672095,46.4862435 29.2225652,46.5027827 L27.5455977,43.5514965 L27.4612349,43.5514965 L27.4611879,43.9355667 C27.4611879,44.4539911 27.467437,44.9145928 27.4798102,45.3169946 C27.4923084,45.7211036 27.5096393,46.1157137 27.5347605,46.5027827 C27.427609,46.4862431 27.3129173,46.478161 27.1880603,46.478161 L26.3439347,46.478161 L26.3439347,46.478161 C26.2190778,46.478161 26.1042608,46.4862431 25.997776,46.5027827 C26.0219808,46.1153363 26.0403534,45.7196857 26.0519348,45.3169946 C26.064558,44.9138027 26.071182,44.4530352 26.071182,43.9333163 L26.071182,42.6581228 C26.071182,42.1387813 26.064558,41.6785957 26.0519348,41.2762786 C26.0403531,40.8725435 26.0219807,40.4671435 25.997776,40.0616201 C26.1042608,40.0738683 26.2190778,40.0858249 26.3444762,40.0953236 C26.4690834,40.1050722 26.610563,40.1096549 26.766666,40.1096549 C26.9351419,40.1096549 27.1276964,40.1021143 27.3436677,40.0858249 C27.5592617,40.0692856 27.8262656,40.0616201 28.1452615,40.0616201 Z M20.4349887,40.061472 C20.2783862,40.4292571 20.0906214,40.873316 19.8724452,41.3922835 C19.6538517,41.911625 19.4263017,42.4615479 19.1885424,43.0422956 C18.9517428,43.6245036 18.716611,44.2152935 18.4861849,44.814958 C18.254968,45.4140793 18.0492476,45.9779596 17.8676495,46.5025919 C17.7429174,46.4860526 17.6056871,46.4779705 17.4550821,46.4779705 C17.3058951,46.4779705 17.1674983,46.4860527 17.0433083,46.5025919 C16.9491968,46.2523778 16.8350049,45.94917 16.7015658,45.5930989 C16.5665435,45.2370243 16.4232308,44.8584528 16.2707518,44.4587599 C16.1166072,44.0583158 15.9558387,43.649251 15.7878612,43.2297701 C15.6192604,42.8113298 15.4569085,42.4068469 15.3003075,42.0161522 C15.1442049,41.6254574 14.9973508,41.2609279 14.8598711,40.9239747 C14.7228909,40.5862729 14.6041576,40.297898 14.5044632,40.061472 C14.6480676,40.0737202 14.789714,40.0856768 14.9308187,40.0951755 C15.0712986,40.1049241 15.2092788,40.1095067 15.3474248,40.1095067 C15.484405,40.1095067 15.6221355,40.1050907 15.7598652,40.0951755 C15.8973456,40.0856768 16.0340341,40.0736785 16.1720552,40.061472 C16.2782899,40.410922 16.3983145,40.7801184 16.5324189,41.1681042 C16.6674412,41.555173 16.8057963,41.9502839 16.9490251,42.3531019 C17.0928796,42.75671 17.2416913,43.1611929 17.3940046,43.5671361 C17.5473577,43.9743702 17.6953779,44.3740631 17.8394003,44.7678795 C18.1638539,43.9743667 18.4803092,43.1760674 18.7853476,42.3727629 C19.0914316,41.5689258 19.3670576,40.7997865 19.6107745,40.061472 C19.7671272,40.0937625 19.9036908,40.1095102 20.0222978,40.1095102 C20.1411559,40.1095102 20.2783862,40.0937625 20.4349887,40.061472 Z M84.6874292,40.0613556 C85.2256451,40.0613556 85.7143663,40.1093903 86.1551765,40.2067931 C86.5948228,40.3031543 86.9755178,40.4669224 87.2938047,40.6982656 C87.6134256,40.9297322 87.8600165,41.2414373 88.0345742,41.6317158 C88.2100905,42.0227845 88.2972865,42.5147966 88.2972865,43.1082108 C88.2972865,43.6266352 88.2109657,44.0958188 88.0387402,44.51476 C87.8674316,44.9335742 87.6335907,45.2910667 87.3359665,45.588063 C87.0388842,45.8858121 86.6962252,46.1114044 86.3053646,46.2671335 C85.9145464,46.423611 85.49648,46.5025165 85.0529608,46.5025165 C84.5845285,46.5025165 84.1839608,46.4984754 83.8523408,46.4900182 C83.5216382,46.4819361 83.2342216,46.477895 82.9916723,46.477895 L82.5686924,46.477895 L82.5686924,46.477895 C82.4438354,46.477895 82.3279769,46.4859771 82.2214921,46.5025165 C82.2458219,46.1150703 82.2636528,45.7194197 82.2765676,45.3167286 C82.2890658,44.9135367 82.29494,44.4527692 82.29494,43.9330503 L82.2950649,42.6578568 C82.2950649,42.1385153 82.2889408,41.6783297 82.2765676,41.2760126 C82.2638614,40.872279 82.2459057,40.466879 82.2214921,40.0613556 C82.3281437,40.0736038 82.4437522,40.0855604 82.5687344,40.0950591 C82.6946329,40.1048077 82.8351129,40.1093903 82.9917143,40.1093903 C83.1970181,40.1093903 83.4270678,40.1018497 83.6843224,40.0855604 C83.9401607,40.0690211 84.2753627,40.0613556 84.6874292,40.0613556 Z M70.2701172,40.4756104 C69.9523294,40.4756104 69.6661635,40.5531825 69.4125738,40.7052443 C69.1605266,40.8585974 68.946473,41.0671495 68.7719154,41.3305309 C68.5960241,41.5923268 68.4632512,41.8997409 68.3732631,42.2539813 C68.2833177,42.6074316 68.2373658,42.9842113 68.2373658,43.3837772 C68.2373658,43.8839549 68.2901084,44.3064375 68.397093,44.6503889 C68.5037027,44.9948813 68.6469321,45.2711323 68.8269899,45.480229 C69.009922,45.6891991 69.2178081,45.8412594 69.4561917,45.934457 C69.6923662,46.0286934 69.942204,46.074937 70.2043756,46.074937 C70.4863767,46.074937 70.7541715,46.0166121 71.0103855,45.8973791 C71.2653074,45.7779795 71.4898582,45.597672 71.6800804,45.3537065 C71.870678,45.1091999 72.0236561,44.8002845 72.1384741,44.4247994 C72.2551242,44.0498538 72.3114911,43.606832 72.3114911,43.0936139 C72.3114911,42.6863797 72.2629145,42.3226404 72.162679,42.0001454 C72.062193,41.6776465 71.9239211,41.4045196 71.7447815,41.1794268 C71.5679735,40.954209 71.3521291,40.7815681 71.0999574,40.6586674 C70.8464936,40.5366848 70.5695756,40.4756104 70.2701172,40.4756104 Z M10.7481575,40.4756104 C10.4303696,40.4756104 10.1444507,40.5531825 9.89086453,40.7052443 C9.6388173,40.8585974 9.42438984,41.0671495 9.24966641,41.3305309 C9.07481635,41.5923268 8.94229392,41.8997409 8.85259785,42.2539813 C8.76198576,42.6074316 8.715909,42.9842113 8.715909,43.3837772 C8.715909,43.8839549 8.76823467,44.3064375 8.87592759,44.6503889 C8.98178737,44.9948813 9.12510009,45.2711323 9.3060749,45.480229 C9.48717387,45.6891991 9.6966427,45.8412594 9.93319215,45.934457 C10.1707832,46.0286934 10.4206224,46.074937 10.6833336,46.074937 C10.9641683,46.074937 11.2330061,46.0166121 11.488303,45.8973791 C11.7441413,45.7779795 11.9679026,45.597672 12.1584988,45.3537065 C12.3487214,45.1091999 12.5014078,44.8002845 12.6168925,44.4247994 C12.7331676,44.0498538 12.790701,43.606832 12.790701,43.0936139 C12.790701,42.6863797 12.7404581,42.3226404 12.6408473,42.0001454 C12.5408565,41.6776465 12.4023349,41.4045196 12.2242362,41.1794268 C12.0453453,40.954209 11.8309171,40.7815681 11.5770805,40.6586674 C11.3238668,40.5366848 11.0491572,40.4756104 10.7481575,40.4756104 Z M98.6777586,43.4169035 C98.5892297,43.4169035 98.514782,43.4196532 98.4527909,43.4223611 C98.3912164,43.4273187 98.3319748,43.4295267 98.2754831,43.4295267 C98.2754831,43.5608831 98.2740666,43.6959053 98.2694839,43.837678 C98.2658178,43.9776162 98.2625682,44.1444258 98.2625682,44.338272 L98.2646513,44.5658644 L98.2646513,44.5658644 L98.2694839,44.7979567 C98.2741916,44.9539344 98.2754831,45.1061207 98.2754831,45.2576414 C98.2754831,45.40787 98.2778161,45.5447253 98.2809406,45.6698313 C98.2856483,45.7945634 98.2874397,45.8976737 98.2874397,45.979287 C98.3742606,45.9864527 98.4549989,45.9927018 98.5294465,45.9967429 C98.6052275,46.0012839 98.694798,46.003117 98.7994493,46.003117 C98.9368045,46.003117 99.0663277,45.975246 99.1917278,45.9187541 C99.3152935,45.8622624 99.4241112,45.778816 99.517348,45.6698314 C99.609668,45.559972 99.6854073,45.4262411 99.7404825,45.270262 C99.7965993,45.113243 99.8245956,44.9311024 99.8245956,44.7238417 C99.8245956,44.2852395 99.7277346,43.9577852 99.5311375,43.7407733 C99.3350809,43.5250963 99.0502068,43.4169035 98.6777586,43.4169035 Z M84.6726862,40.5991937 C84.4475933,40.5991937 84.2652016,40.6041513 84.1241812,40.6140249 C83.9837013,40.6233985 83.8418051,40.6341887 83.6971591,40.6463119 C83.6971591,40.6898057 83.6957426,40.7875834 83.6915765,40.9373951 C83.6870355,41.0876238 83.686119,41.2571409 83.686119,41.4446133 L83.6848275,42.0070333 L83.6848659,45.1892862 C83.6848659,45.3714268 83.687074,45.5369031 83.691615,45.6871325 C83.695781,45.8369862 83.6971975,45.9342221 83.6971975,45.9782157 C83.7918505,45.9840898 83.903793,45.9890058 84.0360657,45.9939634 C84.1665053,46.0002125 84.3291069,46.0020456 84.5238698,46.0020456 C85.2302696,46.0020456 85.7886474,45.7621216 86.201631,45.2799001 C86.6139479,44.798177 86.8202933,44.0697812 86.8202933,43.0942964 C86.8202933,42.7068503 86.769634,42.3601512 86.6668154,42.0541956 C86.5630385,41.746948 86.4178926,41.4863189 86.2305447,41.270598 C86.0422801,41.0548788 85.8171872,40.8890282 85.554476,40.7736688 C85.2912219,40.6575605 84.9973892,40.5991937 84.6726862,40.5991937 Z M104.222447,41.8227201 C104.060306,42.1972917 103.906454,42.5663643 103.763641,42.9319378 C103.619536,43.2969682 103.479431,43.6697056 103.342075,44.0501537 L105.057455,44.0501537 C104.918808,43.6697515 104.782744,43.2970105 104.648679,42.9319378 C104.515115,42.5663643 104.37176,42.1972917 104.222447,41.8227201 Z M27.4856442,40.5976276 C27.4689799,41.4467125 27.4611894,42.2965911 27.4611894,43.1460958 C27.4985591,43.15197 27.5347623,43.156511 27.5688407,43.1605521 C27.6027108,43.1636766 27.6358726,43.1649681 27.6669934,43.1649681 C28.0775996,43.1649681 28.3926802,43.0541924 28.6104822,42.8330991 C28.8280345,42.6110058 28.9381852,42.2750952 28.9381852,41.8257031 C28.9381852,41.5507424 28.9091477,41.3318991 28.8532806,41.1690485 C28.7961204,41.0076109 28.7111325,40.8837951 28.595899,40.7999734 C28.4801657,40.7152356 28.329937,40.66091 28.1455898,40.6357888 C27.9614912,40.6102924 27.7414808,40.5976276 27.4856442,40.5976276 Z M98.7594961,40.5984311 C98.621766,40.5984311 98.5267377,40.6002641 98.4733288,40.6033887 C98.4200864,40.6074298 98.3617615,40.6147204 98.2997704,40.626677 C98.2873972,40.8577687 98.2786901,41.0922346 98.2717744,41.3282832 C98.2657753,41.5645826 98.2625258,41.7650547 98.2625258,41.9264874 C98.2625258,42.0946716 98.2657753,42.255232 98.2694414,42.4077943 C98.2741491,42.5615639 98.2754406,42.7181663 98.2754406,42.8796022 L98.6971295,42.8796022 C98.8279857,42.8796022 98.9569674,42.8557722 99.0846991,42.8051129 C99.2133472,42.7553699 99.3276227,42.681839 99.4254005,42.5857275 C99.5269693,42.4893663 99.6082077,42.3655926 99.670282,42.2157378 C99.732773,42.0669257 99.7643935,41.8919508 99.7643935,41.6927703 C99.7643935,41.5434584 99.7469377,41.4016871 99.7115261,41.2671661 C99.678115,41.1344375 99.61979,41.0179123 99.5389266,40.9214262 C99.4571884,40.8249401 99.3537864,40.7473677 99.2284293,40.6873349 C99.1039889,40.62901 98.9477194,40.5984311 98.7594961,40.5984311 Z M97.1206302,1.70420583 C97.1920351,1.66826112 101.806528,0.662701774 101.721188,2.38191048 C101.653357,3.74356744 101.136513,4.6425247 100.615235,5.49907161 L100.375948,5.89291998 L100.375948,5.89291998 L100.259105,6.09045514 C99.2846191,7.76624288 98.1435137,9.78740926 97.5490935,11.1905068 C97.5490935,11.2256482 97.1445296,12.022276 97.1445296,12.022276 C97.1445296,12.022276 97.1426907,12.0188535 97.1398982,12.0112871 L97.1295454,11.9754351 C97.1009386,11.85112 97.0684948,11.4531419 97.4057219,10.4772102 C97.6785098,9.6901711 98.951891,7.12458325 99.0941585,6.91062955 C99.23693,6.6966274 100.223817,4.98464588 100.330041,4.84237844 C100.437369,4.69960692 100.711866,3.27392033 98.6182109,3.55850579 C95.6469175,3.96277647 89.7745879,5.6267654 83.7477603,8.1945107 L83.7477603,8.1945107 L81.7858812,9.22863625 C81.7858812,9.22863625 84.4432786,11.7132211 85.2349192,12.4958067 L85.3782889,12.6399965 L85.3782889,12.6399965 L85.4234927,12.6878886 C85.7799221,13.0807005 89.5957569,17.0387032 91.4149155,20.1060915 C91.6284161,20.4269205 93.0199188,22.8160005 95.194695,23.7073588 C95.2307889,23.7073588 95.4814893,23.7779404 95.4814893,23.7779404 C95.4814893,23.7779404 94.9551875,21.8215315 94.9280292,21.3899612 C94.9015201,20.9580934 94.9551843,17.6803157 97.8959691,16.9376538 C97.9370695,16.9244524 99.5153853,16.5060835 102.536989,18.0709259 C105.55873,19.6359213 108.351421,20.2566972 109.22852,20.3647782 C109.818906,20.4373729 109.960572,20.4303448 109.990993,20.418096 L109.990993,20.418096 L108.96048,22.5781151 C108.96048,22.5781151 107.700957,22.3884582 106.773506,22.5549226 C104.698684,22.9275116 99.4034585,25.6457061 97.3824451,25.9781325 C97.369095,25.9650802 96.835715,26.0975085 96.8355644,26.0976591 C96.8355644,26.0976591 96.8029341,26.9613042 96.6413393,27.3395134 C96.4791422,27.7168187 96.4116731,27.7307744 96.4116731,27.7307744 L96.4116731,27.7307744 L96.2367753,27.7842881 L96.0885337,26.2328001 C96.0885337,26.2328001 96.0610509,26.2354536 96.0095278,26.2365488 L95.9146433,26.2364964 C95.3730478,26.2255046 93.658304,26.0219105 92.0822477,24.0206724 C90.1801574,21.6058823 89.046235,19.6770875 89.046235,19.6770875 L89.046,19.6773143 L89.0201811,19.9197558 L89.0201811,19.9197558 L89.032386,19.9438728 C89.1065123,20.0962431 89.4875455,20.967087 89.3168144,22.4559767 C89.1274555,24.1017446 88.1292746,24.8707625 88.1292746,24.8707625 L88.1292746,24.8707625 L86.5098627,25.5858144 C86.5098627,25.5858144 86.2946029,27.5599429 85.8762336,28.1940225 C85.8642468,28.2121628 85.8522203,28.230425 85.8401125,28.2488286 L85.7661569,28.3611005 C85.2495775,29.1419897 84.4564393,30.225311 80.5195494,32.9407475 C76.4131732,35.7733157 71.2050379,35.8780854 71.2773766,29.4121177 C71.2773766,29.0553907 71.5275742,26.492682 72.5137097,24.6346206 C72.6560277,24.3853763 72.7102942,24.2714719 72.7102942,24.2714719 L72.7102942,24.2714719 L73.122087,23.876948 C73.122087,23.876948 72.2316345,26.5941888 72.1009631,27.7638561 C71.9581958,29.0538364 71.7031104,32.7612803 76.1281308,32.4451691 C76.8974335,32.38524 81.3254122,31.2924477 85.53581,26.7077438 C85.53581,26.6715016 85.3560426,26.1332528 85.2485638,25.9900311 C85.1417115,25.8473106 81.9412849,26.9422791 80.7172011,25.2917933 C80.7172011,25.2566519 79.7648002,24.4567089 80.6800026,22.6379031 C80.751535,22.3530146 83.1412187,17.7521681 86.1728662,23.2445217 L86.1728662,23.2445217 L86.3510771,23.553103 C86.3510771,23.553103 88.3543685,22.9315719 88.6565242,22.5781117 C88.7992936,22.4120019 88.6328297,22.1503064 88.5619467,21.8891141 C88.5608613,21.8851319 88.5545135,21.8728394 88.5431501,21.8526897 L88.4942599,21.7691219 C87.9867126,20.9192546 84.7323201,15.8045694 82.1422647,12.6878716 C82.1068215,12.6878716 80.1101071,10.2630466 80.1101071,10.2630466 L80.1101071,10.2630466 L80.6087979,8.65789443 L81.321491,7.33873161 C81.321491,7.33873161 82.3695448,6.78715536 84.2191327,5.98528472 L84.6600769,5.79593168 C87.4655907,4.60254686 91.8559268,2.94921271 97.1206302,1.70420583 Z M24.076235,30.7546316 L26.3328845,32.3511259 L25.2264487,34.5971497 L22.9804674,32.9209624 L24.076235,30.7546316 Z M27.6823519,30.2844219 L29.9376413,31.8796411 L28.8325656,34.1269825 L26.5852242,32.4507952 L27.6823519,30.2844219 Z M37.5022178,5.78836401 C37.5022178,5.78836401 38.0798349,6.31770078 38.6773564,6.8699226 L38.9751939,7.14559591 C39.4657475,7.6004143 39.9055736,8.012508 39.9719217,8.08879151 C40.1901424,8.33949238 40.1608254,8.53698045 40.1608254,8.53698045 L40.1608254,8.53698045 L38.9641517,8.48974186 L39.0108556,8.68250085 L39.1328925,8.95579116 C39.1328925,8.95579116 40.7745934,11.5120892 40.8814198,11.7619863 C40.9885471,12.0117334 41.4160528,12.4751341 41.3449692,14.222756 C41.3824696,16.434531 39.3836941,17.6464152 39.3120083,17.5748798 C39.5263122,17.6465652 41.5945676,18.2169916 42.0226739,18.3242698 C42.4504274,18.4309479 43.1039866,19.0608113 43.0208547,19.8214943 C43.0922384,20.4279641 41.9156941,22.6389838 41.7727738,22.8170442 C41.4559642,23.1850244 41.0454861,23.540524 40.5647273,23.8815413 C40.5099994,24.0175108 40.4655024,24.1280048 40.4655024,24.124595 C39.4845892,26.6743999 39.5797703,27.5379952 40.076149,28.3757361 C40.6557612,29.3549411 42.9681358,28.2974239 43.048607,28.2616812 C45.5040001,27.1759402 51.2756127,23.4800941 51.6696848,23.2154382 C52.9165586,22.3766433 54.3980698,21.1765548 54.3980698,21.1767054 C54.3980698,21.1767054 53.9923498,20.3524665 52.6502949,19.9786249 C49.0752306,18.5344143 47.3397051,16.7632967 46.9090868,16.3414639 C46.4679279,15.9098936 45.4109085,14.406544 45.2769241,14.2104615 C45.1431377,14.0141784 44.5902829,13.9785864 44.5901323,13.9785864 C44.5901323,13.9785864 45.0008197,11.4911604 45.0185404,11.4822247 C45.5619571,11.6608857 47.7900459,13.0200595 47.9516407,13.1052494 C48.2410957,13.2889809 48.3130829,13.545605 48.3130829,13.545605 L48.3130829,13.545605 L47.9516407,13.5594101 L47.1315173,13.5683457 L47.1764,13.7110387 L47.1764,13.7110387 L47.3064582,13.8409539 C47.4272493,13.9611772 47.5894041,14.1214259 47.5952712,14.1214259 C48.709876,15.4500244 51.554073,16.8766176 52.6237905,17.3932277 C53.6935123,17.9104414 54.0277934,18.1490442 54.5469154,18.6505955 C55.2734034,19.3519824 55.1858183,20.8687335 55.1471437,21.2840306 L55.1378716,21.3736592 C55.1068723,21.656715 55.047518,22.3132926 54.705745,22.9058933 C54.7354772,23.00842 54.6798502,23.3831317 54.6724945,24.1465992 C54.6637092,25.0735962 54.9071786,27.3476676 55.3710809,28.2302405 C55.8347791,29.1128135 56.2869336,29.7532187 56.8397392,29.77109 C56.8848662,29.7724952 56.9309971,29.7745969 56.9784846,29.7745948 L57.0507776,29.7726638 C57.5768013,29.7425004 58.2799871,29.3074206 59.5985478,24.9887051 C59.6162673,24.9524586 60.5936174,22.1269842 61.8338651,21.0693162 C63.0557388,20.0266077 63.9019649,19.9387571 64.1244022,20.0711354 C64.138943,20.0797306 64.1529478,20.0868298 64.166819,20.0935366 L64.2084346,20.113583 C64.3414978,20.1803238 64.4988314,20.3112369 65.0254979,21.452446 C65.0962312,21.550785 66.0238317,24.0828892 68.8672254,24.0471466 C68.8766143,24.038561 70.4113391,24.2838921 71.9437008,22.2104684 C72.0954064,22.0055533 73.0932872,20.757773 73.1380156,20.7399017 C73.1824426,20.7223318 73.3909244,20.8685652 73.3909244,20.8685652 C73.3909244,20.8685652 74.7075753,18.6534776 76.1431536,18.9474507 C77.5782826,19.2413728 78.212361,22.8630219 78.1936865,23.1643744 C78.1748577,23.4658773 77.7387184,24.7427242 77.0696503,25.3669134 C76.4017043,25.9906521 73.1381821,24.1719951 72.6749344,23.3245636 C72.6749344,23.3339512 72.5055085,23.1731597 72.4435613,23.2356088 C72.3805125,23.2983601 72.1486362,23.4050343 71.9166102,23.8245079 C71.6853902,24.242728 70.7490043,26.5078645 67.9763907,26.3473744 C65.2037176,26.1867346 63.5893245,22.460014 63.4288344,22.4065003 C63.2683434,22.3536394 61.5466227,22.3686982 60.6833291,24.216372 C59.7951331,26.1166133 59.3750071,28.0113718 59.078976,28.8035835 C58.9483051,29.1538798 58.3473054,31.3129957 56.8940077,31.3043871 C55.4413135,31.2951381 54.385851,28.2485635 54.2962936,26.6181604 C54.2962936,26.4840765 54.0808842,24.7729986 54.3350482,23.476426 C54.3426854,23.4377483 54.3539594,23.3967505 54.3678888,23.3550561 C52.7872544,25.028131 45.7185309,29.3046019 43.6051788,30.2570649 C41.7022853,31.1148361 40.6531009,31.4596623 39.61019,30.4959683 C38.5668273,29.5340297 39.135495,26.7176466 39.5621987,25.6464712 C39.7588877,25.0586809 39.9436132,24.5773209 40.1100144,24.1859668 C36.9184233,26.2212009 31.3509837,27.6898322 28.7915775,28.131183 C25.6890351,28.6656155 18.9131192,28.9861427 15.4896118,28.202066 C7.67983806,26.4190179 4.50577429,23.6732649 4.32741253,23.4944012 C4.14890031,23.3166965 0.571026596,18.0386001 0.571026596,18.0386001 L0.571026596,18.0386001 L-5.68434189e-14,16.7547275 L1.22473835,18.0740433 C1.22473835,18.0740433 1.76701688,18.5588501 2.36252603,19.0946054 L2.66245238,19.3647201 C3.21214807,19.8603493 3.73808293,20.3380292 3.86356552,20.4635782 C6.84735481,22.9359427 11.0320302,24.3150461 11.1744486,24.386431 C20.0189641,27.6674686 29.9686446,25.5986157 30.6463492,25.4911369 C38.1348392,23.8395375 41.4875665,21.2215921 41.4875665,21.2215921 C41.4875665,21.2215921 41.4400738,20.7725998 40.943695,20.5438874 C40.7298416,20.3651754 39.4230769,20.0782816 38.5635491,19.8214569 C37.6180251,19.5394289 36.1292863,18.9299482 36.0313957,18.8408426 C35.9327039,18.7517352 34.7592708,18.3240794 34.7592708,18.3240794 L34.7592708,18.3240794 L35.7814488,16.3441281 L36.8693916,16.3179236 C38.4305819,16.1608328 39.8121278,15.3825582 40.1459173,15.1797663 L40.2103212,15.1396266 L40.2103212,15.1396266 L40.2218171,15.1319436 C40.2569572,15.1052875 40.3107719,14.9890236 40.3107719,14.9714535 C40.2988243,14.3412913 40.0164477,13.9815559 40.0164477,13.9639858 C39.7488281,13.5805543 38.3491946,11.0934323 38.0997492,10.6739588 C37.8500021,10.2549396 37.368533,8.83723163 37.3241561,8.70374912 C37.2789755,8.57006386 36.7620636,8.27594033 36.7620636,8.27594033 L36.7620636,8.27594033 Z M82.9675092,22.7940185 C82.1473849,22.6110902 81.8395568,23.3070163 81.7903103,23.3601785 C81.741064,23.4133407 81.7996978,23.5468231 81.8218361,23.5651964 C82.4284575,24.0643862 84.3183494,23.8860245 84.3183494,23.8860245 C83.9774888,23.1607816 82.9813143,22.7940185 82.9675092,22.7940185 Z M100.42564,19.677941 C98.9988474,18.9646448 97.6142726,19.0476262 96.9666898,19.2686579 C96.3203608,19.4904934 95.8770439,20.1884264 95.8255886,20.4273298 C95.8032369,20.5321822 95.9819657,21.2044262 96.1891515,21.9244578 L96.3039465,22.3188184 C96.4580027,22.8426234 96.6105095,23.341735 96.6950634,23.6162756 L96.7447001,23.7769508 C96.7563069,23.8143914 96.762629,23.8346733 96.762629,23.8346733 C96.762629,23.8346733 96.7658108,23.8340055 96.7720276,23.8326895 L96.8445733,23.8171706 C97.3065788,23.7175666 99.621752,23.2061376 101.209921,22.62595 C101.540237,22.5053208 104.5138,21.4494083 104.5138,21.4494083 C104.5138,21.4494083 104.399294,21.4169288 104.190008,21.3642184 C103.990814,21.31432 101.798166,20.3634747 100.42564,19.677941 Z M32.0959395,18.5429339 C32.0959395,18.5429339 31.8273678,19.1174244 31.8273678,19.1338901 C31.5589492,19.7071311 31.3977038,20.0295157 31.0928878,20.9969754 C30.8280777,22.2802467 31.667378,22.3075054 31.7252588,22.2907385 C31.7829893,22.2742729 31.7916237,22.2992225 31.9651159,22.1002787 C32.0587392,21.9937537 32.0113502,21.7008848 32.2717893,21.4712187 C32.4120489,21.3468224 32.420834,21.5211179 32.4206834,21.5211179 C32.4291674,21.7443602 32.2387073,22.1586631 32.2385567,22.1669964 C31.7877154,23.283145 31.2955732,23.2256508 31.1748585,23.1916631 L31.1501997,23.1833691 L31.1501997,23.1833691 C31.1470012,23.1819956 30.2501244,22.8944465 30.6453011,21.2833184 C31.0258679,19.7318304 31.7004112,18.8559844 31.7915749,18.7400718 C31.8824372,18.6238076 32.095939,18.5430355 32.095939,18.5430355 Z M76.4546494,22.9606605 C75.6529,19.9022106 74.1575329,21.678998 74.1575329,21.678998 C74.5172846,22.2858822 75.7765524,22.7607291 76.1976535,22.9113791 L76.3128834,22.9523009 L76.3128834,22.9523009 L76.3346203,22.9606605 C76.3876822,22.9876682 76.4675006,22.9876682 76.4546494,22.9606605 Z M45.1604835,18.1352626 L47.4156879,19.7317994 L46.3106123,21.9777807 L44.0647585,20.302911 L45.1604835,18.1352626 Z M71.5904884,14.620782 C71.5904884,14.620782 71.3220677,15.1952765 71.3220677,15.2120433 C71.053649,15.7855819 70.8925554,16.1076137 70.5881912,17.0749246 C70.322633,18.3586464 71.1620825,18.385604 71.2202647,18.3691382 C71.2776938,18.3526726 71.2861778,18.3774714 71.4598205,18.1783771 C71.5533439,18.0721496 71.5064066,17.7789815 71.7669962,17.5494658 C71.9071054,17.4249187 71.9147861,17.5992142 71.9147861,17.5992142 C71.9241732,17.8227561 71.7332616,18.2364066 71.7332616,18.2447399 C71.2145944,19.5292628 70.6418592,19.2606912 70.6418592,19.2606912 C70.6418592,19.2606912 69.7453334,18.9723939 70.1398573,17.3614147 C70.5212274,15.8100287 71.1953163,14.9338813 71.285978,14.81827 C71.3772926,14.7015541 71.5904931,14.620782 71.5904931,14.620782 Z M56.369351,14.7655894 L58.6245554,16.3607236 L57.5194797,18.6081075 L55.2719258,16.9319202 L56.369351,14.7655894 Z M59.9740228,14.2953797 L62.2292272,15.8919165 L61.1241515,18.1379403 L58.8782977,16.461668 L59.9740228,14.2953797 Z M25.7723593,13.5860312 C25.7723593,13.5860312 26.0847089,13.4928594 27.8657126,13.5232807 C29.6470181,13.5546564 30.0219651,14.2270393 30.084866,14.2737759 L30.1076404,14.2968852 C30.1454127,14.3495815 30.1359342,14.4433167 30.068551,14.617196 C29.9907409,14.8208062 28.904205,16.5581891 28.0222356,17.2265049 C27.7711959,17.3400881 27.2391833,17.4386816 26.6610329,17.5183575 L26.2713412,17.5686291 C25.3581381,17.679189 24.4595694,17.7418612 24.4595694,17.7418612 C24.4595694,17.7418612 24.5220185,17.5864412 24.6627299,17.5392026 C25.4285856,17.2579311 27.9724868,16.178625 27.9724868,16.178625 C27.9724868,16.178625 28.2956761,15.9684366 27.98082,15.8592509 C27.5978901,15.7265213 24.5377316,15.6957987 24.5377316,15.6957987 L24.5377316,15.6957987 L24.5377316,15.6330483 Z M102.323134,7.21725872 C102.758168,6.87464191 103.239589,6.55476543 103.622065,6.80923078 C103.785367,6.91716267 104.427328,7.32002225 103.610469,9.16347547 C103.610518,9.16347483 104.104189,9.55584214 104.104189,9.75333022 C104.104189,9.95112176 104.017744,10.7182819 103.919251,10.8542746 C103.820758,10.9904679 103.820909,10.9167237 103.820758,10.9167237 C103.820758,10.9167237 103.485971,10.248456 103.177239,10.1122626 C103.163935,10.1243611 103.077641,10.0630162 103.077641,10.0630162 C103.077641,10.0630162 101.322186,12.3386432 99.8251146,13.2044488 C98.3286934,14.0702543 96.5511023,15.0710984 96.168024,15.2505644 C96.1071603,15.2937164 95.7830484,15.4197397 95.594059,15.4914701 L95.4744508,15.5364578 L95.4744508,15.5364578 L95.4568866,15.542981 C95.4568866,15.542981 96.4045397,14.8925759 97.3948164,14.2181039 L97.7446219,13.9800756 C98.3256685,13.5850957 98.8846215,13.2072854 99.2372696,12.9741306 C100.844934,11.9108396 102.433924,10.4037246 102.830657,9.86658134 L102.830657,9.86658134 L102.805707,9.85232447 C102.805707,9.85232447 102.798629,9.84820806 102.785778,9.84037681 C102.637987,9.74956509 101.710538,9.16161809 101.642467,8.61488616 C101.568273,8.02156678 101.83288,7.60314816 102.323134,7.21725872 Z M79.2465423,8.17095261 C79.2463808,8.17110137 78.3460879,9.48946233 78.3675736,9.51160065 C77.3243296,9.70345879 64.7196748,14.634896 63.9204306,14.9478098 L63.8807117,14.9633639 L64.3201153,13.7762789 C64.3201153,13.7762789 68.8924254,11.7979384 71.333563,10.9406165 C72.1099424,10.6677849 73.1933696,10.2881736 74.3098501,9.8973546 L75.0294449,9.64551032 C77.1857129,8.89098816 79.2465423,8.17095261 79.2465423,8.17095261 Z M92.4926792,9.20505103 C92.8624545,9.1989716 93.5181724,9.82019813 93.5181724,9.82019813 L93.1939287,10.6744046 C93.1939287,10.6744046 92.6708922,10.2050322 92.4650718,10.1909255 C92.1082539,10.1670302 91.9904715,10.650079 91.8969301,11.5071134 L91.8576988,11.8969233 C91.8511989,11.9655786 91.8446661,12.0360451 91.8380221,12.1082743 C91.7250715,13.3361239 91.6499217,13.612074 91.5684967,13.7998731 C91.5108024,13.9341231 91.4488562,14.0428375 91.4181681,14.0940009 L91.398619,14.1257234 L91.398619,14.1257234 C91.0067553,12.1098826 90.0687624,11.1314274 90.0687624,11.1314274 L90.0499373,11.1568287 L90.049932,11.4434306 C90.049932,11.4434306 89.6431591,11.1188354 89.0979858,10.9496105 C89.0852851,10.9560362 88.9657584,10.8932857 88.9657584,10.8684869 C88.9657584,10.8432362 89.0719821,9.87186169 89.1477346,9.79073639 C89.2230349,9.70946232 89.4233842,9.60248547 89.4853314,9.60248547 C89.5490356,9.60248547 90.6990742,10.0596085 91.228686,12.1779111 C91.2359148,12.1779111 91.4677899,13.1516442 91.4677899,13.1516442 L91.536966,12.5905038 C91.536966,12.5905038 91.7859093,10.2536811 91.8325452,10.0345063 C91.8951448,9.73501125 92.1230543,9.21167547 92.4926792,9.20505103 Z M43.0778962,0.629368821 L42.1091826,2.51127786 C42.1091826,2.51127786 38.2595081,3.8467177 34.3241982,5.2143171 L33.6085816,5.46303579 C29.9150121,6.74691531 26.3471829,7.98947172 26.0254014,8.11031371 C25.3401695,8.36707379 10.5769112,13.8183695 10.5769112,13.8183695 L10.5769112,13.8183695 L11.8185657,11.6770262 C11.8185657,11.6770262 16.0224929,9.95874912 20.5714027,8.25130375 L21.1934844,8.01869981 L21.1934844,8.01869981 L21.8176684,7.78720448 C21.9217534,7.74876844 22.0258355,7.71041919 22.1298692,7.67217702 L22.7531293,7.44417147 L22.7531293,7.44417147 L23.3730554,7.21971034 C24.4022793,6.84910345 25.4085514,6.4973247 26.3465704,6.18467262 C27.4931276,5.80245416 28.8246462,5.35941553 30.2261849,4.89354817 L30.8776023,4.67704983 C31.5331544,4.4592072 32.1998552,4.2377467 32.8664041,4.0164035 L33.5324839,3.79523773 C35.3063295,3.20630443 37.0523089,2.62705897 38.5561302,2.12833111 L39.1082936,1.94522077 C40.8182147,1.37819934 42.1488821,0.937205451 42.7414513,0.740847871 L42.9036248,0.687110509 C43.0176258,0.649336568 43.0778962,0.629368821 43.0778962,0.629368821 L43.0778962,0.629368821 Z M63.3969558,1.24262253 C63.9414776,0.814211473 64.542626,0.414667542 65.020635,0.732485602 C65.2248998,0.867572601 66.0261949,1.37113008 65.0057255,3.67517458 C65.0058128,3.67517615 65.6234268,4.16573496 65.6234268,4.41297141 C65.6234268,4.66020659 65.5160985,5.61918232 65.3915518,5.78890962 C65.2687115,5.95913888 65.2687115,5.86626832 65.2687115,5.86626832 C65.2687115,5.86626832 64.8507932,5.03153922 64.4645522,4.8611595 C64.4485384,4.87667136 64.3406078,4.79951356 64.3406078,4.79966417 C64.3406078,4.79966417 62.1457533,7.64400991 60.2745372,8.72627851 C58.4034868,9.80904864 56.182578,11.0604427 55.7027116,11.2839846 C55.5947798,11.3614436 54.8151191,11.649794 54.8151191,11.649794 C54.8151191,11.649794 55.9578515,10.8653596 57.1711342,10.0385443 L57.5553707,9.77690152 C58.3235319,9.25426029 59.0748156,8.74587154 59.5391051,8.43868214 C61.5491357,7.1089786 63.5358109,5.22601468 64.0312376,4.55473647 L64.0312376,4.55473647 L64.0008162,4.53636319 C64.0008162,4.53636319 63.9918806,4.53149375 63.9758667,4.5211525 C63.7904265,4.40804801 62.6326557,3.6726159 62.5468636,2.98989166 C62.4539948,2.24788436 62.7837111,1.72514957 63.3969558,1.24262253 Z M51.422897,0.00332015187 C51.5551248,0.00377788527 51.6823824,0.03831575 51.80206,0.117682284 C52.0058229,0.253224064 52.8077729,0.75647977 51.7871505,3.06067303 C51.7872153,3.06062215 52.4054838,3.55103051 52.4054838,3.79841742 C52.4054838,4.04565685 52.2969008,5.00427938 52.1736088,5.17450863 C52.0495135,5.34488877 52.0495135,5.25201808 52.0495135,5.25216868 C52.0495135,5.25216868 51.6317456,4.41648326 51.2453542,4.24690685 C51.2299928,4.26196691 51.1214097,4.18511017 51.1214097,4.18511017 C51.1214097,4.18511017 48.9265509,7.02940491 47.0554878,8.11202628 C46.7677033,8.2786063 46.4716201,8.44917024 46.1748564,8.61936409 L45.7301528,8.87383304 C44.2524546,9.71750932 42.8529701,10.4975083 42.4839598,10.6695794 C42.3758749,10.7469381 41.5952623,11.0355898 41.5952623,11.0355898 C41.5952623,11.0355898 45.0432853,8.66909577 46.3199282,7.82417617 C48.3299589,6.4946724 50.3167829,4.61150871 50.8120608,3.93962696 L50.8120608,3.93962696 L50.7811374,3.92190627 C50.7811374,3.92190627 50.7728042,3.91688625 50.7561879,3.90669558 C50.5718527,3.79359534 49.4130292,3.05801022 49.3278393,2.37558775 C49.2348175,1.63312567 49.5651841,1.11069265 50.1777785,0.62831862 C50.586257,0.306887388 51.0264651,0.00176986929 51.422897,0.00332015187 Z M103.337631,7.93467371 C103.238034,7.71203552 102.933067,7.39030081 102.190405,7.89747529 C102.190405,7.89747529 102.190405,8.08903973 102.372983,8.20716084 C102.416194,8.2350215 102.5561,8.35123791 102.711927,8.48372271 L102.901393,8.64589971 C103.088163,8.80665835 103.251336,8.94932115 103.251336,8.94932115 C103.251186,8.94952419 103.520862,8.34551279 103.337631,7.93467371 Z M73.3557438,3.54917003 C73.7255191,3.54274439 74.3807822,4.16427214 74.3807822,4.16427214 L74.0565385,5.01847862 C74.0565385,5.01847862 73.5340035,4.54880447 73.3275286,4.53485076 C72.8948532,4.505835 72.8140807,5.22415021 72.7011292,6.45205078 C72.5881786,7.68025312 72.5128783,7.95585049 72.4316038,8.14364959 C72.3508317,8.33175005 72.2621779,8.46980077 72.2621779,8.46980077 C71.8693605,6.45345422 70.9323213,5.47520299 70.9323213,5.47520299 L70.9130444,5.50000195 L70.9129942,5.49995175 L70.9123441,5.78705025 C70.9123441,5.78705025 70.5055713,5.4628066 69.9603979,5.29353196 C69.9482997,5.30010818 69.8292246,5.23735798 69.8292246,5.21225789 C69.8292246,5.18715776 69.9355992,4.21623195 70.010749,4.13450735 C70.0860493,4.05293194 70.2858967,3.94670824 70.3489986,3.94670824 C70.4115982,3.94670824 71.5621379,4.40338076 72.0917497,6.52168329 C72.0927704,6.52168329 72.1000927,6.54873982 72.1115876,6.59383403 L72.1564616,6.77421087 C72.1653173,6.81028624 72.1746839,6.84861632 72.1842954,6.88807375 L72.2427737,7.12932777 C72.2904058,7.32661494 72.3308537,7.49571823 72.3308537,7.49571823 L72.4006821,6.93442905 C72.4006821,6.93442905 72.6490228,4.59805684 72.6950063,4.37827854 C72.7576058,4.07878349 72.9866196,3.55544771 73.3557438,3.54917003 Z M64.6654672,2.13984706 C64.5402664,1.86118523 64.1594955,1.45898147 63.2314445,2.09275936 C63.2314445,2.09275936 63.2314445,2.33261646 63.4595547,2.47975346 C63.5155378,2.51603904 63.7024115,2.67181697 63.9065061,2.84568767 L64.1121309,3.02183375 C64.3489002,3.22561067 64.5575366,3.40800851 64.5575366,3.40800851 C64.5575366,3.40800851 64.8945311,2.65204113 64.6654672,2.13984706 Z M51.4462372,1.52519718 C51.3216909,1.24673596 50.9409201,0.844529649 50.0128691,1.47846055 C50.0128691,1.47846055 50.0128691,1.71846811 50.2398745,1.86545465 C50.3804359,1.95626637 51.3378565,2.79305516 51.3378565,2.79305516 C51.3378548,2.79320774 51.6754516,2.03784178 51.4462372,1.52519718 Z" id="Government_of_Dubai_logo"></path>
        </g>
    </g>
</svg>