<?xml version="1.0" encoding="UTF-8"?>
<svg width="27px" height="27px" viewBox="0 0 27 27" version="1.1" xmlns="http://www.w3.org/2000/svg" xmlns:xlink="http://www.w3.org/1999/xlink">
    <title>GTX/Icon/Edit</title>
    <g id="Design" stroke="none" stroke-width="1" fill="none" fill-rule="evenodd">
        <g id="rta-gitex-UI-07.00" transform="translate(-644.000000, -575.000000)" fill="#171C8F">
            <g id="Group-2" transform="translate(347.000000, 224.000000)">
                <g id="Camera-Copy" transform="translate(232.000000, 80.000000)">
                    <g id="GTX/Icon/Edit" transform="translate(58.000000, 264.000000)">
                        <path d="M18.984882,9.53023592 C19.675238,9.53023592 20.234882,10.08988 20.234882,10.7802359 C20.234882,11.4274446 19.7430074,11.9597698 19.1126873,12.0237823 L18.984882,12.0302359 L10.6355293,12.0302359 C10.0502028,12.0302359 9.56831358,12.4731034 9.50666313,13.0420368 L9.5,13.1657653 L9.5,29.8644707 C9.5,30.4497972 9.94286749,30.9316864 10.5118009,30.9933369 L10.6355293,31 L27.3342347,31 C27.9195612,31 28.4014505,30.5571325 28.4631009,29.9881991 L28.4697641,29.8644707 L28.4697641,21.515118 C28.4697641,20.824762 29.0294081,20.265118 29.7197641,20.265118 C30.3669728,20.265118 30.899298,20.7569926 30.9633105,21.3873127 L30.9697641,21.515118 L30.9697641,29.8644707 C30.9697641,31.8075488 29.4454001,33.3945927 27.5273139,33.4949607 L27.3342347,33.5 L10.6355293,33.5 C8.6924512,33.5 7.10540733,31.9756361 7.00503934,30.0575498 L7,29.8644707 L7,13.1657653 C7,11.2226871 8.52436393,9.63564325 10.4424502,9.53527526 L10.6355293,9.53023592 L18.984882,9.53023592 Z M27.0467336,8.10720542 C28.5230076,6.6309315 30.9165206,6.63093153 32.3927945,8.10720548 C33.8690685,9.58347943 33.8690685,11.9769924 32.3927946,13.4532664 L32.3927946,13.4532664 L21.0615302,24.7845308 C20.9013317,24.9447293 20.7006068,25.0583778 20.4808162,25.1133254 L20.4808162,25.1133254 L15.7097576,26.3060901 C14.794282,26.534959 13.965041,25.705718 14.1939099,24.7902424 L14.1939099,24.7902424 L15.3866746,20.0191838 C15.4416222,19.7993932 15.5552707,19.5986683 15.7154692,19.4384698 L15.7154692,19.4384698 Z M30.6250276,9.87497243 C30.1250643,9.3750092 29.3144638,9.37500919 28.8145005,9.87497239 L28.8145005,9.87497239 L17.728,20.961 L17.124,23.375 L19.538,22.771 L30.6250276,11.6854995 C31.0916599,11.2188671 31.1227687,10.4816351 30.718354,9.97892283 L30.718354,9.97892283 Z" id="Combined-Shape"></path>
                    </g>
                </g>
            </g>
        </g>
    </g>
</svg>