<?xml version="1.0" encoding="UTF-8"?>
<svg width="240px" height="157px" viewBox="0 0 240 157" version="1.1" xmlns="http://www.w3.org/2000/svg" xmlns:xlink="http://www.w3.org/1999/xlink">
    <title>GTX/License/Visual Front</title>
    <defs>
        <rect id="path-1" x="0" y="0" width="69" height="81" rx="6"></rect>
    </defs>
    <g id="Symbols" stroke="none" stroke-width="1" fill="none" fill-rule="evenodd">
        <g id="GTX/License/Visual-Front">
            <g id="Group">
                <path d="M227,3 L13,3 C7.477,3 3,7.51310484 3,13.0806452 L3,48 L237,48 L237,13.0806452 C237,7.51310484 232.523,3 227,3" id="Fill-1" fill="#7FC7D0"></path>
                <path d="M209.5,13 C217.508275,13 224,19.4917246 224,27.5 C224,35.5082754 217.508275,42 209.5,42 C201.491725,42 195,35.5082754 195,27.5 C195,19.4917246 201.491725,13 209.5,13" id="Fill-3" fill="#181D8B"></path>
                <polygon id="Fill-5" fill="#DB3B34" points="63 40 43.3565813 30.0387382 24 40 24 4 63 4"></polygon>
                <path d="M43.8567115,28.992703 C44.0849849,28.992703 44.3132583,29.0463593 44.5237442,29.1516845 L62,38 L62,6 L26,6 L26,37.9841018 L43.1817733,29.1556591 C43.3942355,29.0473529 43.6254735,28.992703 43.8567115,28.992703 M24.4847985,42 C24.215555,42 23.9463116,41.9262647 23.7087438,41.7797905 C23.2682536,41.5087634 23,41.0254982 23,40.5053654 L23,4.49463464 C23,3.66959632 23.6641999,3 24.4847985,3 L63.5152015,3 C64.3348103,3 65,3.66959632 65,4.49463464 L65,40.5053654 C65,41.0245018 64.7327363,41.5057741 64.2932359,41.7777976 C63.8547254,42.0488247 63.3063399,42.0737353 62.8470422,41.8405723 L43.8614188,32.217118 L25.1598869,41.8365866 C24.9470658,41.9451967 24.7154372,42 24.4847985,42" id="Fill-7" fill="#DB3B34"></path>
                <path d="M13.0009212,6 C9.14041321,6 6,9.13496789 6,12.9865569 L6,144.013443 C6,147.86603 9.14041321,151 13.0009212,151 L226.999079,151 C230.859587,151 234,147.86603 234,144.013443 L234,12.9865569 C234,9.13496789 230.859587,6 226.999079,6 L13.0009212,6 Z M226.998375,157 L13.0016252,157 C5.83272909,157 0,151.178345 0,144.023061 L0,12.9769391 C0,5.82165451 5.83272909,0 13.0016252,0 L226.998375,0 C234.167271,0 240,5.82165451 240,12.9769391 L240,144.023061 C240,151.178345 234.167271,157 226.998375,157 L226.998375,157 Z" id="Fill-9" fill="#181D8B"></path>
                <path d="M75.8437797,22 L182.15622,22 C184.831832,22 187,24.2357808 187,26.9948294 L187,27.0051706 C187,29.7642192 184.831832,32 182.15622,32 L75.8437797,32 C73.1681681,32 71,29.7642192 71,27.0051706 L71,26.9948294 C71,24.2357808 73.1681681,22 75.8437797,22" id="Fill-12" fill="#181D8B"></path>
                <path d="M178.98231,64 L98.0176899,64 C96.3519251,64 95,62.657 95,61 C95,59.343 96.3519251,58 98.0176899,58 L178.98231,58 C180.649081,58 182,59.343 182,61 C182,62.657 180.649081,64 178.98231,64" id="Fill-14" fill="#181D8B"></path>
                <path d="M161.996568,79 L98.0034325,79 C96.3445366,79 95,77.657 95,76 C95,74.343 96.3445366,73 98.0034325,73 L161.996568,73 C163.655463,73 165,74.343 165,76 C165,77.657 163.655463,79 161.996568,79" id="Fill-16" fill="#181D8B"></path>
                <path d="M221.970309,79 L178.029691,79 C176.356292,79 175,77.657 175,76 C175,74.343 176.356292,73 178.029691,73 L221.970309,73 C223.643708,73 225,74.343 225,76 C225,77.657 223.643708,79 221.970309,79" id="Fill-18" fill="#181D8B"></path>
                <path d="M193,93 L178,93 C176.343,93 175,91.657 175,90 C175,88.343 176.343,87 178,87 L193,87 C194.657,87 196,88.343 196,90 C196,91.657 194.657,93 193,93" id="Fill-20" fill="#181D8B"></path>
                <path d="M221,93 L206,93 C204.343,93 203,91.657 203,90 C203,88.343 204.343,87 206,87 L221,87 C222.657,87 224,88.343 224,90 C224,91.657 222.657,93 221,93" id="Fill-22" fill="#181D8B"></path>
                <path d="M161.996568,102 L98.0034325,102 C96.3445366,102 95,100.657 95,99 C95,97.343 96.3445366,96 98.0034325,96 L161.996568,96 C163.655463,96 165,97.343 165,99 C165,100.657 163.655463,102 161.996568,102" id="Fill-24" fill="#181D8B"></path>
                <path d="M140.016162,125 L97.9838375,125 C96.3357646,125 95,123.657 95,122 C95,120.343 96.3357646,119 97.9838375,119 L140.016162,119 C141.664235,119 143,120.343 143,122 C143,123.657 141.664235,125 140.016162,125" id="Fill-26" fill="#181D8B"></path>
                <path d="M103,139 L98,139 C96.343,139 95,137.657 95,136 C95,134.343 96.343,133 98,133 L103,133 C104.657,133 106,134.343 106,136 C106,137.657 104.657,139 103,139" id="Fill-28" fill="#181D8B"></path>
                <path d="M122,139 L117,139 C115.343,139 114,137.657 114,136 C114,134.343 115.343,133 117,133 L122,133 C123.657,133 125,134.343 125,136 C125,137.657 123.657,139 122,139" id="Fill-30" fill="#181D8B"></path>
                <path d="M186,137.049392 L186,118.950608 C186,116.21675 188.213748,114 190.943903,114 L219.056097,114 C221.786252,114 224,116.21675 224,118.950608 L224,137.049392 C224,139.78325 221.786252,142 219.056097,142 L190.943903,142 C188.213748,142 186,139.78325 186,137.049392" id="Fill-32" fill="#EAA8C6"></path>
                <path d="M216,132 L213.071584,122.814196 C212.407809,120.726514 211.968547,118.837161 211.519523,117 L211.43167,117 C210.992408,118.837161 210.543384,120.830898 209.928416,122.772443 L207,132 L216,132 Z M206.377691,134.244684 L203.151859,144 L199,144 L209.58317,113 L214.386301,113 L225,144 L220.776908,144 L217.459491,134.244684 L206.377691,134.244684 Z" id="Fill-34" fill="#FFFFFF"></path>
                <path d="M155.5,118 C157.433039,118 159,119.566961 159,121.5 C159,123.433039 157.433039,125 155.5,125 C153.566961,125 152,123.433039 152,121.5 C152,119.566961 153.566961,118 155.5,118" id="Fill-36" fill="#181D8B"></path>
                <path d="M155.5,119 C154.121245,119 153,120.121245 153,121.5 C153,122.878755 154.121245,124 155.5,124 C156.878755,124 158,122.878755 158,121.5 C158,120.121245 156.878755,119 155.5,119 M155.5,125 C153.57027,125 152,123.42973 152,121.5 C152,119.57027 153.57027,118 155.5,118 C157.42973,118 159,119.57027 159,121.5 C159,123.42973 157.42973,125 155.5,125" id="Fill-38" fill="#181D8B"></path>
                <path d="M164.5,118 C166.433039,118 168,119.566961 168,121.5 C168,123.433039 166.433039,125 164.5,125 C162.566961,125 161,123.433039 161,121.5 C161,119.566961 162.566961,118 164.5,118" id="Fill-40" fill="#181D8B"></path>
                <path d="M164.5,119 C163.121245,119 162,120.121245 162,121.5 C162,122.878755 163.121245,124 164.5,124 C165.878755,124 167,122.878755 167,121.5 C167,120.121245 165.878755,119 164.5,119 M164.5,125 C162.57027,125 161,123.42973 161,121.5 C161,119.57027 162.57027,118 164.5,118 C166.42973,118 168,119.57027 168,121.5 C168,123.42973 166.42973,125 164.5,125" id="Fill-42" fill="#181D8B"></path>
                <path d="M173.5,118 C175.433039,118 177,119.566961 177,121.5 C177,123.433039 175.433039,125 173.5,125 C171.566961,125 170,123.433039 170,121.5 C170,119.566961 171.566961,118 173.5,118" id="Fill-44" fill="#181D8B"></path>
                <path d="M173.5,119 C172.121245,119 171,120.121245 171,121.5 C171,122.878755 172.121245,124 173.5,124 C174.878755,124 176,122.878755 176,121.5 C176,120.121245 174.878755,119 173.5,119 M173.5,125 C171.57027,125 170,123.42973 170,121.5 C170,119.57027 171.57027,118 173.5,118 C175.42973,118 177,119.57027 177,121.5 C177,123.42973 175.42973,125 173.5,125" id="Fill-46" fill="#181D8B"></path>
            </g>
            <g id="Group-2" transform="translate(15.000000, 58.000000)">
                <mask id="mask-2" fill="white">
                    <use xlink:href="#path-1"></use>
                </mask>
                <use id="Rectangle" fill="#D8D8D8" xlink:href="#path-1"></use>
            </g>
        </g>
    </g>
</svg>