<?xml version="1.0" encoding="UTF-8"?>
<svg width="240px" height="158px" viewBox="0 0 240 158" version="1.1" xmlns="http://www.w3.org/2000/svg" xmlns:xlink="http://www.w3.org/1999/xlink">
    <title>GTX/License/Front Copy</title>
    <defs>
        <polygon id="path-1" points="0 0 239.97 0 239.97 157.2797 0 157.2797"></polygon>
        <polygon id="path-3" points="0 157 240 157 240 0 0 0"></polygon>
    </defs>
    <g id="Design" stroke="none" stroke-width="1" fill="none" fill-rule="evenodd">
        <g id="rta-gitex-UI-08.00" transform="translate(-695.000000, -436.000000)">
            <g id="Upload-license" transform="translate(347.000000, 311.000000)">
                <g id="GTX/License/Front-Copy" transform="translate(348.000000, 125.000000)">
                    <rect id="Rectangle" fill="#FFFFFF" x="0" y="0" width="240" height="157" rx="15"></rect>
                    <g id="Group-48">
                        <path d="M226.9798,3 L12.9798,3 C7.4568,3 2.9798,7.477 2.9798,13 L2.9798,47.64 L236.9798,47.64 L236.9798,13 C236.9798,7.477 232.5028,3 226.9798,3" id="Fill-1" fill="#7FC7D0"></path>
                        <path d="M156.4798,59.96 L219.9598,59.96 C223.2738,59.96 225.9598,62.646 225.9598,65.96 L225.9598,136.04 C225.9598,139.354 223.2738,142.04 219.9598,142.04 L156.4798,142.04 C153.1658,142.04 150.4798,139.354 150.4798,136.04 L150.4798,65.96 C150.4798,62.646 153.1658,59.96 156.4798,59.96" id="Fill-3" fill="#7FC7D0"></path>
                        <polygon id="Fill-5" fill="#DB3B34" points="224.7698 40.41 204.8998 30.41 185.3398 40.41 185.3398 4.27 224.7698 4.27"></polygon>
                        <path d="M204.8994,28.9099 C205.1304,28.9099 205.3614,28.9639 205.5744,29.0699 L223.2694,37.9749 L223.2694,5.7699 L186.8394,5.7699 L186.8394,37.9589 L204.2164,29.0739 C204.4304,28.9649 204.6654,28.9099 204.8994,28.9099 M224.7694,41.9099 C224.5394,41.9099 224.3074,41.8569 224.0944,41.7499 L204.9044,32.0919 L186.0224,41.7459 C185.5574,41.9819 185.0034,41.9629 184.5564,41.6889 C184.1114,41.4169 183.8394,40.9319 183.8394,40.4099 L183.8394,4.2699 C183.8394,3.4419 184.5114,2.7699 185.3394,2.7699 L224.7694,2.7699 C225.5974,2.7699 226.2694,3.4419 226.2694,4.2699 L226.2694,40.4099 C226.2694,40.9309 226.0004,41.4139 225.5564,41.6869 C225.3164,41.8349 225.0434,41.9099 224.7694,41.9099" id="Fill-7" fill="#DB3B34"></path>
                        <g id="Group-11">
                            <mask id="mask-2" fill="white">
                                <use xlink:href="#path-1"></use>
                            </mask>
                            <g id="Clip-10"></g>
                            <path d="M13,5.9997 C9.141,5.9997 6,9.1407 6,12.9997 L6,144.2797 C6,148.1397 9.141,151.2797 13,151.2797 L226.97,151.2797 C230.829,151.2797 233.97,148.1397 233.97,144.2797 L233.97,12.9997 C233.97,9.1407 230.829,5.9997 226.97,5.9997 L13,5.9997 Z M226.97,157.2797 L13,157.2797 C5.832,157.2797 0,151.4477 0,144.2797 L0,12.9997 C0,5.8317 5.832,-0.0003 13,-0.0003 L226.97,-0.0003 C234.138,-0.0003 239.97,5.8317 239.97,12.9997 L239.97,144.2797 C239.97,151.4477 234.138,157.2797 226.97,157.2797 L226.97,157.2797 Z" id="Fill-9" fill="#181D8B" mask="url(#mask-2)"></path>
                        </g>
                        <path d="M127.8994,73.8298 L63.9794,73.8298 C62.3224,73.8298 60.9794,72.4868 60.9794,70.8298 C60.9794,69.1728 62.3224,67.8298 63.9794,67.8298 L127.8994,67.8298 C129.5564,67.8298 130.8994,69.1728 130.8994,70.8298 C130.8994,72.4868 129.5564,73.8298 127.8994,73.8298" id="Fill-12" fill="#181D8B"></path>
                        <path d="M127.8994,87.7898 L63.9794,87.7898 C62.3224,87.7898 60.9794,86.4468 60.9794,84.7898 C60.9794,83.1328 62.3224,81.7898 63.9794,81.7898 L127.8994,81.7898 C129.5564,81.7898 130.8994,83.1328 130.8994,84.7898 C130.8994,86.4468 129.5564,87.7898 127.8994,87.7898" id="Fill-14" fill="#181D8B"></path>
                        <path d="M127.8994,101.7497 L63.9794,101.7497 C62.3224,101.7497 60.9794,100.4067 60.9794,98.7497 C60.9794,97.0927 62.3224,95.7497 63.9794,95.7497 L127.8994,95.7497 C129.5564,95.7497 130.8994,97.0927 130.8994,98.7497 C130.8994,100.4067 129.5564,101.7497 127.8994,101.7497" id="Fill-16" fill="#181D8B"></path>
                        <path d="M106.2402,115.6999 L63.9792,115.6999 C62.3222,115.6999 60.9792,114.3569 60.9792,112.6999 C60.9792,111.0429 62.3222,109.6999 63.9792,109.6999 L106.2402,109.6999 C107.8972,109.6999 109.2402,111.0429 109.2402,112.6999 C109.2402,114.3569 107.8972,115.6999 106.2402,115.6999" id="Fill-18" fill="#181D8B"></path>
                        <path d="M107.9102,138.6599 L102.9102,138.6599 C101.2532,138.6599 99.9102,137.3169 99.9102,135.6599 C99.9102,134.0029 101.2532,132.6599 102.9102,132.6599 L107.9102,132.6599 C109.5672,132.6599 110.9102,134.0029 110.9102,135.6599 C110.9102,137.3169 109.5672,138.6599 107.9102,138.6599" id="Fill-20" fill="#181D8B"></path>
                        <path d="M126.8994,138.6599 L121.8994,138.6599 C120.2424,138.6599 118.8994,137.3169 118.8994,135.6599 C118.8994,134.0029 120.2424,132.6599 121.8994,132.6599 L126.8994,132.6599 C128.5564,132.6599 129.8994,134.0029 129.8994,135.6599 C129.8994,137.3169 128.5564,138.6599 126.8994,138.6599" id="Fill-22" fill="#181D8B"></path>
                        <mask id="mask-4" fill="white">
                            <use xlink:href="#path-3"></use>
                        </mask>
                        <g id="Clip-25"></g>
                        <path d="M169.28,90.04 L177.28,90.04 L177.28,82.04 L169.28,82.04 L169.28,90.04 Z M180.62,78.64 L165.98,78.64 L165.98,93.33 L180.67,93.33 L180.62,78.64 Z" id="Fill-24" fill="#181D8B" mask="url(#mask-4)"></path>
                        <path d="M199.31,120.03 L207.31,120.03 L207.31,112.03 L199.31,112.03 L199.31,120.03 Z M195.98,123.39 L210.67,123.39 L210.67,108.7 L195.98,108.7 L195.98,123.39 Z" id="Fill-26" fill="#181D8B" mask="url(#mask-4)"></path>
                        <path d="M199.3,90 L207.3,90 L207.3,82 L199.3,82 L199.3,90 Z M210.64,78.64 L195.98,78.64 L195.98,93.33 L210.67,93.33 L210.64,78.64 Z" id="Fill-27" fill="#181D8B" mask="url(#mask-4)"></path>
                        <path d="M169.31,120.03 L177.31,120.03 L177.31,112.03 L169.31,112.03 L169.31,120.03 Z M165.98,123.39 L180.67,123.39 L180.67,108.7 L165.98,108.7 L165.98,123.39 Z" id="Fill-28" fill="#181D8B" mask="url(#mask-4)"></path>
                        <polygon id="Fill-29" fill="#181D8B" mask="url(#mask-4)" points="189.9298 82.6 189.9298 85.94 186.5998 85.94 186.5998 89.27 183.2598 89.27 183.2598 95.94 186.5998 95.94 186.5998 99.1 183.3298 99.1 183.3098 99.13 183.3098 99.11 176.6398 99.11 176.6398 95.78 173.3098 95.78 173.3098 99.11 169.9698 99.11 169.9698 102.45 166.6398 102.45 166.6398 105.78 169.9698 105.78 176.6398 105.78 183.3098 105.78 183.3098 102.44 186.6598 102.44 186.6598 99.27 189.9298 99.27 189.9298 95.94 189.9298 89.27 193.2698 89.27 193.2698 85.94 193.2698 82.6"></polygon>
                        <polygon id="Fill-30" fill="#181D8B" mask="url(#mask-4)" points="196.5998 99.27 189.9298 99.27 189.9298 105.78 183.3098 105.78 183.3098 112.45 186.5898 112.45 186.5898 119.06 189.9198 119.06 189.9198 122.39 193.2598 122.39 193.2598 119.06 193.2598 112.39 189.9798 112.39 189.9798 109.28 193.2698 109.28 193.2698 105.94 196.5998 105.94"></polygon>
                        <polygon id="Fill-31" fill="#181D8B" mask="url(#mask-4)" points="206.6098 105.94 206.6098 102.61 209.9398 102.61 209.9398 99.27 206.6098 99.27 199.9398 99.27 199.9398 105.94"></polygon>
                        <polygon id="Fill-32" fill="#181D8B" mask="url(#mask-4)" points="183.25 122.39 186.58 122.39 186.58 119.06 183.25 119.06"></polygon>
                        <polygon id="Fill-33" fill="#181D8B" mask="url(#mask-4)" points="183.27 85.93 186.6 85.93 186.6 82.6 183.27 82.6"></polygon>
                        <polygon id="Fill-34" fill="#181D8B" mask="url(#mask-4)" points="196.6 99.27 199.93 99.27 199.93 95.94 196.6 95.94"></polygon>
                        <polygon id="Fill-35" fill="#181D8B" mask="url(#mask-4)" points="155.7198 94.05 159.1298 94.05 159.1298 71.69 181.7798 71.69 181.7798 68.29 155.7198 68.29"></polygon>
                        <polygon id="Fill-36" fill="#181D8B" mask="url(#mask-4)" points="194.9398 68.14 194.9398 71.54 217.2998 71.54 217.2998 94.2 220.7098 94.2 220.7098 68.14"></polygon>
                        <polygon id="Fill-37" fill="#181D8B" mask="url(#mask-4)" points="220.7098 107.94 217.2998 107.94 217.2998 130.3 194.6498 130.3 194.6498 133.71 220.7098 133.71"></polygon>
                        <polygon id="Fill-38" fill="#181D8B" mask="url(#mask-4)" points="181.4898 133.85 181.4898 130.45 159.1298 130.45 159.1298 107.79 155.7198 107.79 155.7198 133.85"></polygon>
                        <path d="M20.2798,134.37 C21.8428,134.37 23.1098,135.637 23.1098,137.2 C23.1098,138.763 21.8428,140.03 20.2798,140.03 C18.7168,140.03 17.4498,138.763 17.4498,137.2 C17.4498,135.637 18.7168,134.37 20.2798,134.37" id="Fill-39" fill="#181D8B" mask="url(#mask-4)"></path>
                        <path d="M20.2793,134.8698 C18.9953,134.8698 17.9503,135.9148 17.9503,137.1998 C17.9503,138.4848 18.9953,139.5298 20.2793,139.5298 C21.5643,139.5298 22.6093,138.4848 22.6093,137.1998 C22.6093,135.9148 21.5643,134.8698 20.2793,134.8698 M20.2793,140.5298 C18.4433,140.5298 16.9503,139.0358 16.9503,137.1998 C16.9503,135.3638 18.4433,133.8698 20.2793,133.8698 C22.1153,133.8698 23.6093,135.3638 23.6093,137.1998 C23.6093,139.0358 22.1153,140.5298 20.2793,140.5298" id="Fill-40" fill="#181D8B" mask="url(#mask-4)"></path>
                        <path d="M28.5298,134.37 C30.0928,134.37 31.3598,135.637 31.3598,137.2 C31.3598,138.763 30.0928,140.03 28.5298,140.03 C26.9668,140.03 25.6998,138.763 25.6998,137.2 C25.6998,135.637 26.9668,134.37 28.5298,134.37" id="Fill-41" fill="#181D8B" mask="url(#mask-4)"></path>
                        <path d="M28.5293,134.8698 C27.2453,134.8698 26.2003,135.9148 26.2003,137.1998 C26.2003,138.4848 27.2453,139.5298 28.5293,139.5298 C29.8143,139.5298 30.8593,138.4848 30.8593,137.1998 C30.8593,135.9148 29.8143,134.8698 28.5293,134.8698 M28.5293,140.5298 C26.6933,140.5298 25.2003,139.0358 25.2003,137.1998 C25.2003,135.3638 26.6933,133.8698 28.5293,133.8698 C30.3653,133.8698 31.8593,135.3638 31.8593,137.1998 C31.8593,139.0358 30.3653,140.5298 28.5293,140.5298" id="Fill-42" fill="#181D8B" mask="url(#mask-4)"></path>
                        <path d="M36.7698,134.37 C38.3328,134.37 39.5998,135.637 39.5998,137.2 C39.5998,138.763 38.3328,140.03 36.7698,140.03 C35.2068,140.03 33.9398,138.763 33.9398,137.2 C33.9398,135.637 35.2068,134.37 36.7698,134.37" id="Fill-43" fill="#181D8B" mask="url(#mask-4)"></path>
                        <path d="M36.7695,134.8698 C35.4845,134.8698 34.4395,135.9148 34.4395,137.1998 C34.4395,138.4848 35.4845,139.5298 36.7695,139.5298 C38.0545,139.5298 39.0995,138.4848 39.0995,137.1998 C39.0995,135.9148 38.0545,134.8698 36.7695,134.8698 M36.7695,140.5298 C34.9335,140.5298 33.4395,139.0358 33.4395,137.1998 C33.4395,135.3638 34.9335,133.8698 36.7695,133.8698 C38.6055,133.8698 40.0995,135.3638 40.0995,137.1998 C40.0995,139.0358 38.6055,140.5298 36.7695,140.5298" id="Fill-44" fill="#181D8B" mask="url(#mask-4)"></path>
                        <path d="M22.8598,13.15 L83.9598,13.15 C86.4448,13.15 88.4598,15.165 88.4598,17.65 L88.4598,35.64 C88.4598,38.125 86.4448,40.14 83.9598,40.14 L22.8598,40.14 C20.3748,40.14 18.3598,38.125 18.3598,35.64 L18.3598,17.65 C18.3598,15.165 20.3748,13.15 22.8598,13.15" id="Fill-45" fill="#EAA8C6" mask="url(#mask-4)"></path>
                        <path d="M83.9798,11.64 L22.8598,11.64 C19.5458,11.64 16.8598,14.326 16.8598,17.64 L16.8598,35.64 C16.8598,38.954 19.5458,41.64 22.8598,41.64 L83.9798,41.64 C87.2938,41.64 89.9798,38.954 89.9798,35.64 L89.9798,17.64 C89.9798,14.326 87.2938,11.64 83.9798,11.64 M83.9798,14.64 C85.6368,14.64 86.9798,15.983 86.9798,17.64 L86.9798,35.64 C86.9798,37.297 85.6368,38.64 83.9798,38.64 L22.8598,38.64 C21.2028,38.64 19.8598,37.297 19.8598,35.64 L19.8598,17.64 C19.8598,15.983 21.2028,14.64 22.8598,14.64 L83.9798,14.64" id="Fill-46" fill="#FFFFFF" mask="url(#mask-4)"></path>
                        <path d="M22.8598,92.33 L34.1898,92.33 C37.5038,92.33 40.1898,95.016 40.1898,98.33 L40.1898,109.66 C40.1898,112.974 37.5038,115.66 34.1898,115.66 L22.8598,115.66 C19.5458,115.66 16.8598,112.974 16.8598,109.66 L16.8598,98.33 C16.8598,95.016 19.5458,92.33 22.8598,92.33" id="Fill-47" fill="#EAA8C6" mask="url(#mask-4)"></path>
                    </g>
                </g>
            </g>
        </g>
    </g>
</svg>