<?xml version="1.0" encoding="UTF-8"?>
<svg width="246px" height="48px" viewBox="0 0 246 48" version="1.1" xmlns="http://www.w3.org/2000/svg" xmlns:xlink="http://www.w3.org/1999/xlink">
    <title>Components / Logo / Govenment / RTA Red Full@3x</title>
    <g id="Symbols" stroke="none" stroke-width="1" fill="none" fill-rule="evenodd">
        <g id="RTA-Icon">
            <path d="M104.439224,13.1535136 L105.314488,13.1535136 L105.314488,12.2782498 L104.439224,12.2782498 L104.439224,13.1535136 Z M106.201218,13.1535136 L107.080304,13.1535136 L107.080304,12.2782498 L106.201218,12.2782498 L106.201218,13.1535136 Z M73.4676912,13.1535136 L74.3410439,13.1535136 L74.3410439,12.2782498 L73.4676912,12.2782498 L73.4676912,13.1535136 Z M71.7009197,13.1535136 L72.5809611,13.1535136 L72.5809611,12.2782498 L71.7009197,12.2782498 L71.7009197,13.1535136 Z M3.60902974,14.764534 L4.48429351,14.764534 L4.48429351,13.8854481 L3.60902974,13.8854481 L3.60902974,14.764534 Z M5.36815703,14.764534 L6.24915396,14.764534 L6.24915396,13.8854481 L5.36815703,13.8854481 L5.36815703,14.764534 Z M119.74583,19.0892543 L120.622049,19.0892543 L120.622049,18.213035 L119.74583,18.213035 L119.74583,19.0892543 Z M121.505912,19.0892543 L122.384043,19.0892543 L122.384043,18.213035 L121.505912,18.213035 L121.505912,19.0892543 Z M89.902775,22.7756818 L87.539754,27.4233706 L88.4866823,27.4233706 L89.0208226,26.3436238 L91.5481944,26.3436238 L92.0766015,27.4233706 L93.0397739,27.4233706 L90.6987299,22.7756818 L89.902775,22.7756818 Z M89.394434,25.5906677 C89.5310746,25.3097424 90.2228769,23.9318708 90.2228769,23.9318708 L90.2496317,23.8745392 L90.2849863,23.7952303 L90.3327627,23.903205 C90.3327627,23.903205 91.0283871,25.3097424 91.1650277,25.5906677 L89.394434,25.5906677 Z M112.932914,13.8854481 L112.006052,13.8854481 L111.590397,13.7679181 L111.512999,13.5395469 C111.512999,13.2041565 111.82259,13.1496914 112.013696,13.1496914 C112.444639,13.1496914 112.554525,13.3360194 112.589879,13.4869929 L112.932914,13.2385556 C112.865071,13.0952263 112.753275,12.9346976 112.53637,12.8410559 C112.340487,12.7464586 112.047139,12.7445475 112.015607,12.7445475 C111.452801,12.7445475 111.0897,13.0531831 111.0897,13.5194808 L111.181431,13.8854481 L110.801131,13.8854481 L110.801131,14.2676594 L112.932914,14.2676594 L112.932914,13.8854481 Z M8.0035036,22.6696182 C6.63996496,22.6696182 5.26782657,23.4397739 5.26782657,25.1597245 C5.26782657,26.1658956 5.77234542,26.7353904 6.19564438,27.0354262 C6.66003105,27.3727276 7.28207987,27.5475893 8.04459131,27.5475893 C9.40717442,27.5475893 10.7745352,26.808966 10.7745352,25.1664132 C10.7745352,23.6805669 9.65847832,22.6810845 8.0035036,22.6696182 L8.0035036,22.6696182 Z M8.04459131,26.7659673 C7.33558944,26.7659673 6.79858263,26.5643508 6.46701437,26.1658956 C6.15837879,25.8152168 6.11155791,25.3613409 6.11155791,25.1215034 C6.11155791,23.92136 7.05466417,23.4732173 7.93661663,23.445507 C8.57490942,23.427352 9.1243381,23.6146355 9.47883903,23.9691364 C9.76358642,24.2529283 9.9260262,24.6418282 9.9260262,25.1014373 C9.9260262,25.6030895 9.73969821,26.7659673 8.04459131,26.7659673 L8.04459131,26.7659673 Z M4.82255046,24.1955966 C4.82255046,23.6270574 4.55022495,23.3069554 4.39160728,23.1636262 C3.98550782,22.7919258 3.49914401,22.7909703 3.10642195,22.781415 L0.0286658439,22.781415 L0.0286658439,27.4233706 L0.874308237,27.4233706 L0.874308237,25.6594657 L2.80543058,25.6594657 L4.27025521,27.4233706 L5.38822312,27.4233706 C5.38822312,27.4233706 3.94346459,25.7435522 3.73898157,25.5037146 C4.44607238,25.3278974 4.82255046,24.8969543 4.82255046,24.1955966 L4.82255046,24.1955966 Z M0.868575069,24.9103316 L0.868575069,23.5477485 L3.13699885,23.5477485 C3.42365728,23.5515706 3.67400565,23.5611259 3.83931202,23.8124298 L3.95110881,24.2213959 L3.82402357,24.6217622 C3.60807421,24.9103316 3.20293029,24.9103316 2.90002787,24.9103316 L0.868575069,24.9103316 Z M2.91340526,17.3368157 L9.51992674,17.3368157 L9.51992674,13.8854481 L8.65326273,13.8854481 L8.65326273,16.5723932 L2.77103157,16.5723932 C2.16236015,16.5723932 1.58331011,16.5274834 1.17625513,15.9962097 C0.916351475,15.6541307 0.866664012,15.2461202 0.866664012,14.9632838 C0.866664012,14.715802 0.904885138,14.5074969 0.962216825,14.3431461 L0.0764422503,14.3431461 C0.0353545407,14.5313851 0,14.7396902 0,14.9862165 C0,15.8653024 0.404188398,16.4214198 0.645937015,16.6717681 C1.30907354,17.3368157 2.24166899,17.3368157 2.91340526,17.3368157 L2.91340526,17.3368157 Z M55.3585221,17.3377712 L56.2242306,17.3377712 L56.2242306,12.6891269 L55.3585221,12.6891269 L55.3585221,17.3377712 Z M132.693236,14.3966557 C132.067365,13.8854481 131.434805,13.8854481 130.930286,13.8854481 L130.507943,13.8854481 L130.507943,13.0722937 L129.647968,13.0722937 L129.647968,13.8854481 L129.231357,13.8854481 C128.723972,13.8854481 128.099056,13.8854481 127.470319,14.3966557 C127.179838,14.6422264 126.697297,15.1926106 126.697297,16.1787156 L126.725007,16.580993 L122.371621,16.580993 L122.371621,13.8854481 L121.509734,13.8854481 L121.509734,16.580993 L116.22853,16.580993 L116.22853,13.8854481 L115.366644,13.8854481 L115.366644,16.580993 L108.007166,16.580993 L108.007166,13.8854481 L105.268623,13.8854481 C105.268623,13.8854481 104.834813,13.8778039 104.492734,13.9934228 C103.80762,14.2351714 103.533384,14.9374846 103.533384,15.5690887 C103.533384,15.83377 103.545806,17.3368157 105.388064,17.3368157 C105.903094,17.3368157 106.210774,17.2441295 106.620695,17.0310467 C106.972329,16.8332524 107.144325,16.3937094 107.144325,16.3937094 L107.144325,17.3368157 L133.471036,17.3368157 L133.471036,16.1548274 C133.450969,15.2031214 132.977028,14.6374487 132.693236,14.3966557 L132.693236,14.3966557 Z M107.144325,14.7731337 C107.144325,15.359828 106.978063,15.9608552 106.625473,16.2092925 C106.270016,16.463463 105.935581,16.5207947 105.437751,16.5207947 L105.418641,16.5207947 C104.530955,16.5207947 104.398137,15.7898157 104.398137,15.5690887 C104.398137,15.1926106 104.545288,14.8944858 104.82908,14.7683561 C105.103316,14.6498706 105.289644,14.6498706 105.767409,14.6498706 L107.144325,14.6498706 L107.144325,14.7731337 Z M129.647968,16.580993 L127.607915,16.580993 L127.567783,16.1605606 C127.567783,15.5337341 127.836286,15.1811442 127.994904,15.0253932 C128.370426,14.6498706 128.815703,14.6441374 129.223713,14.6422264 L129.647968,14.6422264 L129.647968,16.580993 Z M132.597683,16.580993 L130.507943,16.580993 L130.507943,14.6422264 L130.936019,14.6422264 C131.348808,14.6441374 131.790262,14.6498706 132.175339,15.0253932 C132.324402,15.1754111 132.577617,15.5518892 132.597683,16.1338058 L132.597683,16.580993 Z M13.0725803,22.7756818 L10.7086037,27.4233706 L11.6583987,27.4233706 L12.1858502,26.3436238 L14.7122666,26.3436238 L15.2425847,27.4233706 L16.2086236,27.4233706 L13.8647131,22.7756818 L13.0725803,22.7756818 Z M12.5623283,25.5906677 C12.6989688,25.3097424 13.3945933,23.9318708 13.3945933,23.9318708 L13.4223036,23.8745392 L13.4547916,23.7952303 L13.5054346,23.903205 C13.5054346,23.903205 14.1953259,25.3097424 14.3319664,25.5906677 L12.5623283,25.5906677 Z M79.1903492,18.0792611 C79.3432337,17.8279572 79.3785882,17.5766533 79.3824103,17.3368157 L96.1528845,17.3368157 L96.1528845,12.6891269 L95.2881315,12.6891269 L95.2881315,16.580993 L92.1282,16.580993 L92.1597325,16.1787156 C92.1597325,15.1926106 91.6762352,14.6422264 91.3819326,14.3966557 C90.7579727,13.8854481 90.1292352,13.8854481 89.6208942,13.8854481 L85.6306088,13.8854481 L85.6306088,12.6891269 L84.7706334,12.6891269 L84.7706334,16.580993 L79.3824103,16.580993 L79.3824103,13.8854481 L78.5205239,13.8854481 L78.5205239,17.1351993 C78.5205239,17.4256798 78.522435,17.7859139 78.0742923,17.9693753 C77.7905005,18.0792611 77.5191305,18.0792611 77.4044671,18.0792611 C77.1244974,18.0792611 76.9181033,18.0276625 76.7661743,17.9454871 L76.7661743,18.790174 C77.0719433,18.8599275 77.3595573,18.8713939 77.4617988,18.8713939 C78.0666481,18.8713939 78.8377593,18.6640443 79.1903492,18.0792611 L79.1903492,18.0792611 Z M85.6306088,14.6422264 L89.629494,14.6422264 C90.0375045,14.6441374 90.4818251,14.6498706 90.8592587,15.0253932 C91.0197874,15.1811442 91.2882908,15.5337341 91.2882908,16.1605606 L91.2405144,16.580993 L85.6306088,16.580993 L85.6306088,14.6422264 Z M12.3396902,18.7376199 C12.6511924,18.8197954 13.0830911,18.8713939 13.4748577,18.8713939 C14.4714735,18.8713939 15.2215631,18.62009 15.5693753,18.1203488 C15.7318151,17.889111 15.8139905,17.6282518 15.8178126,17.3368157 L30.0886252,17.3368157 C30.2634869,16.6775013 30.2530971,16.1787156 30.2530971,16.1787156 C30.2530971,15.1926106 29.7685233,14.6422264 29.4789983,14.3966557 C28.8512163,13.8854481 28.2224788,13.8854481 27.7179599,13.8854481 L22.9947844,13.8854481 L22.9947844,16.580993 L21.1955249,16.580993 L21.1955249,14.6298045 L20.3355496,14.6298045 L20.3355496,16.580993 L15.8044352,16.580993 L15.8044352,12.6891269 L14.9406378,12.6891269 L14.9406378,17.3368157 C14.9406378,17.8231795 14.3491659,18.1002827 13.4844129,18.1002827 C12.7343234,18.1002827 12.3444679,17.974153 11.9651232,17.6922722 L11.720508,17.4438349 L11.6612653,17.3779034 L10.8891986,17.6951388 L10.957041,17.8231795 C11.0822152,18.0018633 11.3870287,18.50256 12.3396902,18.7376199 L12.3396902,18.7376199 Z M23.8604929,14.6422264 L27.7189155,14.6422264 C28.1355257,14.6441374 28.5769797,14.6498706 28.9515468,15.0253932 C29.1139865,15.1811442 29.3815344,15.5337341 29.3815344,16.1605606 L29.3375801,16.580993 L23.8604929,16.580993 L23.8604929,14.6422264 Z M13.5704105,17.1848867 L12.6053271,12.6891269 L11.704264,12.6891269 L12.7133017,17.3759924 L13.5704105,17.1848867 Z M32.3465382,17.3377712 L33.2122467,17.3377712 L33.2122467,12.6891269 L32.3465382,12.6891269 L32.3465382,17.3377712 Z M130.796512,24.7803798 L130.72007,24.8988653 L130.634073,24.7478919 L129.090895,22.781415 L128.005415,22.781415 L130.293905,25.6327109 L130.293905,27.4233706 L131.13668,27.4233706 L131.13668,25.6432217 L133.471036,22.781415 L132.370267,22.781415 L130.796512,24.7803798 Z M98.7308994,23.5391488 L100.499582,23.5391488 L100.499582,27.4233706 L101.350002,27.4233706 L101.350002,23.5391488 L103.123462,23.5391488 L103.123462,22.781415 L98.7308994,22.781415 L98.7308994,23.5391488 Z M107.797906,24.5797189 L104.707728,24.5797189 L104.707728,22.7756818 L103.856352,22.7756818 L103.856352,27.4233706 L104.707728,27.4233706 L104.707728,25.3384082 L107.797906,25.3384082 L107.797906,27.4233706 L108.653103,27.4233706 L108.653103,22.7756818 L107.797906,22.7756818 L107.797906,24.5797189 Z M57.1721145,25.9413465 L57.1721145,25.9853008 L57.1835808,26.2547597 L56.9446988,25.9709679 L53.9816061,22.781415 L53.1856512,22.781415 L53.1856512,27.4233706 L54.0026277,27.4233706 L54.0026277,24.362814 C54.0026277,24.362814 53.995939,24.1468647 53.9873393,23.9318708 L54.1125134,24.0857109 L57.221802,27.4233706 L57.98718,27.4233706 L57.98718,22.781415 L57.1721145,22.781415 L57.1721145,25.9413465 Z M66.9853884,22.781415 L64.2153123,22.781415 L64.2153123,27.4233706 L65.0762432,27.4233706 L65.0762432,25.6594657 L67.0465422,25.6594657 C67.4679301,25.6594657 68.1836207,25.6594657 68.5992754,25.0765935 C68.755982,24.8472668 68.8448461,24.5462754 68.8448461,24.2471951 C68.8448461,23.8324959 68.6766732,23.4397739 68.3766373,23.1808257 C68.0565354,22.8932118 67.6494804,22.781415 66.9853884,22.781415 L66.9853884,22.781415 Z M67.6752797,24.7612693 C67.4679301,24.8988653 67.2013377,24.8988653 66.9586336,24.8988653 L65.0695545,24.8988653 L65.0695545,23.5391488 L66.8907911,23.5391488 C67.2701358,23.5391488 67.5749492,23.5553928 67.7775212,23.7617868 C67.8902735,23.8764502 67.9466497,24.0236015 67.9466497,24.2156627 C67.9466497,24.4497671 67.8482303,24.6485169 67.6752797,24.7612693 L67.6752797,24.7612693 Z M60.2231158,23.5897918 C60.4648644,23.4655731 60.8948521,23.4168412 61.213043,23.4168412 C61.7529164,23.4168412 62.1676156,23.5353267 62.4896285,23.765609 L62.6864673,23.9423817 L62.7791536,24.0408011 L63.5454871,23.7245212 L63.4604451,23.6022136 C63.3257157,23.4101525 63.2158299,23.2849783 62.9960584,23.1320938 C62.5402715,22.817725 61.9487996,22.6657961 61.2034877,22.6657961 C59.838038,22.6657961 59.0516383,23.1836923 59.0516383,24.073289 C59.0516383,24.4058128 59.1634351,24.6752717 59.3927619,24.8969543 C59.7596847,25.2313891 60.1629175,25.2657881 61.2503086,25.3546522 C62.1819485,25.4377832 62.6969781,25.5037146 62.6969781,25.9853008 C62.6969781,26.4716646 62.1924593,26.7602341 61.3391727,26.7602341 C60.6827248,26.7602341 60.1772505,26.6255046 59.7826174,26.349357 L59.5007366,26.1056973 L59.4462714,26.0368993 L58.667516,26.3646455 L58.7496914,26.4802644 C58.8825099,26.6637258 59.2131226,27.1625114 60.1504957,27.4013935 C60.451487,27.4787913 60.9158737,27.5284787 61.2952184,27.5284787 C62.2794124,27.5284787 62.9530597,27.2800414 63.2951388,26.7803002 C63.4594896,26.5471513 63.5368874,26.280559 63.5368874,25.9786121 C63.5368874,25.1119481 62.8584624,24.8157344 62.4504519,24.719226 L61.8761795,24.6303619 L60.7085241,24.5128319 C60.3110244,24.4736553 60.1170522,24.4392563 59.9976112,24.3016602 L59.8991918,24.0408011 C59.8991918,23.9070271 59.9565235,23.7197436 60.2231158,23.5897918 L60.2231158,23.5897918 Z M72.1213521,22.6696182 C70.7625911,22.6696182 69.385675,23.4397739 69.385675,25.1597245 C69.385675,26.1658956 69.8921049,26.7353904 70.3134929,27.0354262 C70.7826572,27.3727276 71.4027949,27.5475893 72.1662619,27.5475893 C73.5221563,27.5475893 74.8923836,26.808966 74.8923836,25.1664132 C74.8923836,23.6805669 73.7763268,22.6810845 72.1213521,22.6696182 L72.1213521,22.6696182 Z M72.1662619,26.7659673 C71.4496158,26.7659673 70.9231198,26.5643508 70.5839073,26.1658956 C70.2790938,25.8152168 70.234184,25.3613409 70.234184,25.1215034 C70.234184,23.92136 71.1763348,23.4732173 72.0554206,23.445507 C72.6927579,23.427352 73.2402755,23.6146355 73.5985986,23.9691364 C73.8871681,24.2529283 74.0438747,24.6418282 74.0438747,25.1014373 C74.0438747,25.6030895 73.8585022,26.7659673 72.1662619,26.7659673 L72.1662619,26.7659673 Z M80.9580762,23.5391488 L82.734403,23.5391488 L82.734403,27.4233706 L83.5762233,27.4233706 L83.5762233,23.5391488 L85.3535056,23.5391488 L85.3535056,22.781415 L80.9580762,22.781415 L80.9580762,23.5391488 Z M97.1504559,25.5983119 C97.1504559,25.9633236 97.1504559,26.3445794 96.662181,26.570084 C96.4137437,26.6837919 96.0496875,26.7573675 95.6798981,26.7573675 C94.9737628,26.7573675 94.6536609,26.5442847 94.5475972,26.4716646 C94.2370506,26.2710037 94.1768523,26.0454991 94.1682526,25.5142254 L94.1682526,22.781415 L93.3187881,22.781415 L93.3187881,25.4912927 C93.3187881,25.9604571 93.3187881,26.6092607 94.0019907,27.0898913 C94.4262452,27.3889716 94.9737628,27.5284787 95.6741649,27.5284787 C96.3439901,27.5284787 96.884819,27.4013935 97.2861409,27.1357567 C98.004698,26.6618147 98.004698,25.991034 98.004698,25.5448023 L98.004698,22.781415 L97.1504559,22.781415 L97.1504559,25.5983119 Z M70.9708962,15.5843771 C70.9708962,16.7290998 71.7773619,17.2527292 72.8886412,17.2527292 C73.5479556,17.2527292 73.9320779,17.0434686 74.2005813,16.8523629 L74.2005813,17.0883784 C74.2005813,17.3559263 74.2063144,17.6282518 73.783971,17.7945137 C73.5852212,17.8786002 73.3558944,17.9158657 73.0434367,17.9158657 L69.0607955,17.9158657 C68.7502488,17.9158657 68.5228331,17.8786002 68.3202612,17.7945137 C67.9007843,17.6282518 67.9007843,17.3559263 67.9007843,17.0883784 L67.9007843,14.7005136 L67.0341203,14.7005136 L67.0341203,17.0472907 C67.0341203,17.3836366 67.0341203,17.7696699 67.3112235,18.0907274 C67.7115898,18.5340924 68.4970339,18.6439782 69.0665286,18.6458892 L69.0665286,18.6497114 L73.1256121,18.6497114 L73.1256121,18.6458892 C73.6845961,18.6344229 74.3945535,18.5312259 74.7853645,18.0907274 C75.0643787,17.7696699 75.0643787,17.3836366 75.0643787,17.0472907 L75.0643787,13.8854481 L72.9421507,13.8854481 C71.5652347,13.8854481 70.9708962,14.5533623 70.9708962,15.5843771 L70.9708962,15.5843771 Z M74.2005813,14.5973166 L74.2005813,15.5671776 C74.2005813,16.0449417 73.7763268,16.5179281 73.0052156,16.5179281 C72.3038579,16.5179281 71.8528487,16.1500498 71.8528487,15.5795995 C71.8528487,14.8772863 72.4443206,14.5973166 73.0052156,14.5973166 L74.2005813,14.5973166 Z M80.3904925,24.1955966 C80.3904925,23.6270574 80.1248557,23.3069554 79.9643269,23.1636262 C79.5610941,22.7919258 79.0718637,22.7909703 78.6791416,22.781415 L75.602341,22.781415 L75.602341,27.4233706 L76.4498945,27.4233706 L76.4498945,25.6594657 L78.3800613,25.6594657 L79.846797,27.4233706 L80.9580762,27.4233706 C80.9580762,27.4233706 79.5133177,25.7435522 79.3107457,25.5037146 C80.0159255,25.3278974 80.3904925,24.8969543 80.3904925,24.1955966 L80.3904925,24.1955966 Z M76.4441613,24.9103316 L76.4441613,23.5477485 L78.7183183,23.5477485 C78.9944659,23.5515706 79.2495919,23.5611259 79.4139427,23.8124298 L79.5190508,24.2213959 L79.3948322,24.6217622 C79.1827049,24.9103316 78.7737389,24.9103316 78.4727475,24.9103316 L76.4441613,24.9103316 Z M46.1644305,24.1955966 C46.1644305,23.6270574 45.8997492,23.3069554 45.7382649,23.1636262 C45.3369431,22.7919258 44.8448461,22.7909703 44.4521241,22.781415 L41.376279,22.781415 L41.376279,27.4233706 L42.2219214,27.4233706 L42.2219214,25.6594657 L44.1568659,25.6594657 L45.622646,27.4233706 L46.7358363,27.4233706 C46.7358363,27.4233706 45.2872556,25.7435522 45.0875503,25.5037146 C45.79273,25.3278974 46.1644305,24.8969543 46.1644305,24.1955966 L46.1644305,24.1955966 Z M42.2161882,24.9103316 L42.2161882,23.5477485 L44.4874786,23.5477485 C44.772226,23.5515706 45.0254409,23.5611259 45.1850141,23.8124298 L45.2910778,24.2213959 L45.1725923,24.6217622 C44.9547319,24.9103316 44.5457658,24.9103316 44.2505076,24.9103316 L42.2161882,24.9103316 Z M36.400844,23.5391488 L38.16666,23.5391488 L38.16666,27.4233706 L39.0170801,27.4233706 L39.0170801,23.5391488 L40.7953179,23.5391488 L40.7953179,22.781415 L36.400844,22.781415 L36.400844,23.5391488 Z M34.2910379,26.6465263 L34.039734,26.673281 L33.5973245,26.466887 C33.8753832,26.0540988 33.9738026,25.7645738 34.0445117,25.2017677 L34.0569336,25.0699048 L33.2906,25.0976152 L33.2829558,25.1998567 L33.2026914,25.6327109 L33.0240076,25.991034 L32.8262133,25.8094836 L32.745949,25.735908 L32.1535215,25.1625911 C32.3427161,25.0861488 32.5873313,24.9600191 32.7746148,24.7039376 C32.9093443,24.5128319 32.9790978,24.2987936 32.9790978,24.0608671 C32.9790978,23.5353267 32.595931,22.9686985 31.7436,22.9686985 C30.9743998,22.9686985 30.4565036,23.4101525 30.4565036,24.0857109 C30.4565036,24.4736553 30.6313652,24.7201816 30.7909384,24.8988653 C30.2415097,25.1167257 29.7131027,25.3775849 29.7131027,26.1515627 C29.7131027,26.519441 29.878409,26.8777641 30.1631564,27.1319345 C30.4727475,27.4013935 30.9103794,27.5332564 31.4473862,27.5332564 C32.2567186,27.5332564 32.7526377,27.2494645 33.0392961,27.0822471 C33.3880639,27.3345065 33.5715253,27.4577696 33.8725166,27.4577696 L34.3015488,27.3794163 L34.2910379,27.2838635 L34.2910379,26.6465263 Z M31.7311781,23.6461679 C31.9452164,23.6461679 32.1592547,23.7780308 32.1592547,24.073289 C32.1592547,24.4058128 31.9079508,24.5300315 31.6346697,24.6217622 C31.5094956,24.5128319 31.285902,24.2987936 31.285902,24.0408011 C31.285902,23.8066967 31.4760521,23.6461679 31.7311781,23.6461679 L31.7311781,23.6461679 Z M31.5352948,26.8013218 C30.963889,26.8013218 30.5673448,26.5117968 30.5673448,26.1056973 C30.5673448,25.7521519 30.9199347,25.5906677 31.3107457,25.4712267 L31.7607995,25.9365689 C31.7607995,25.9365689 32.1936537,26.349357 32.4210694,26.5567066 C32.1535215,26.7067245 31.8553967,26.8013218 31.5352948,26.8013218 L31.5352948,26.8013218 Z M121.744794,27.4233706 L122.607636,27.4233706 L122.607636,22.7804594 L121.744794,22.7804594 L121.744794,27.4233706 Z M20.7712705,23.2935781 C20.1492216,22.781415 19.5319505,22.781415 19.0341203,22.781415 L16.7609189,22.781415 L16.7609189,27.4233706 L18.6194211,27.4233706 C19.2949795,27.4233706 20.2266194,27.4233706 20.8878449,26.7602341 C21.1315046,26.5117968 21.5337819,25.9604571 21.5337819,25.0699048 C21.5337819,24.0818888 21.0560178,23.5295935 20.7712705,23.2935781 L20.7712705,23.2935781 Z M20.3575268,26.0923199 C19.9504718,26.6178604 19.3666441,26.6618147 18.7627503,26.6618147 L17.6161166,26.6618147 L17.6161166,23.5295935 L19.038898,23.5295935 C19.4430864,23.5391488 19.8797627,23.5477485 20.2524187,23.9156269 C20.4100808,24.0771111 20.67094,24.4230123 20.67094,25.0527053 C20.67094,25.3355417 20.618386,25.7454632 20.3575268,26.0923199 L20.3575268,26.0923199 Z M23.5547239,23.5897918 C23.8041167,23.4655731 24.2331489,23.4168412 24.5513397,23.4168412 C25.087391,23.4168412 25.5068679,23.5353267 25.8241032,23.765609 L26.0285862,23.9423817 L26.1184059,24.0408011 L26.8895171,23.7245212 L26.8006529,23.6022136 C26.6621014,23.4101525 26.5541267,23.2849783 26.3353107,23.1320938 C25.8737907,22.817725 25.2890074,22.6657961 24.5398734,22.6657961 C23.1763348,22.6657961 22.3928017,23.1836923 22.3928017,24.073289 C22.3928017,24.4058128 22.5026874,24.6752717 22.7367918,24.8969543 C23.0951149,25.2313891 23.5012143,25.2657881 24.5838277,25.3546522 C25.5231118,25.4377832 26.037186,25.5037146 26.037186,25.9853008 C26.037186,26.4716646 25.5259784,26.7602341 24.6746029,26.7602341 C24.0229327,26.7602341 23.5126807,26.6255046 23.1161365,26.349357 L22.8409444,26.1056973 L22.7855237,26.0368993 L22.0096349,26.3646455 L22.0898993,26.4802644 C22.2131624,26.6637258 22.5504638,27.1625114 23.4887925,27.4013935 C23.795517,27.4787913 24.2522594,27.5284787 24.6382928,27.5284787 C25.613887,27.5284787 26.2894454,27.2800414 26.634391,26.7803002 C26.7920532,26.5471513 26.8818728,26.280559 26.8818728,25.9786121 C26.8818728,25.1119481 26.1977147,24.8157344 25.7916152,24.719226 L25.2125652,24.6303619 L24.0372656,24.5128319 C23.6521878,24.4736553 23.4524824,24.4392563 23.3387745,24.3016602 L23.236533,24.0408011 C23.236533,23.9070271 23.2919537,23.7197436 23.5547239,23.5897918 L23.5547239,23.5897918 Z M123.24784,23.5391488 L125.016523,23.5391488 L125.016523,27.4233706 L125.860254,27.4233706 L125.860254,23.5391488 L127.641358,23.5391488 L127.641358,22.781415 L123.24784,22.781415 L123.24784,23.5391488 Z M49.5680217,22.7756818 L47.2030895,27.4233706 L48.151929,27.4233706 L48.6812916,26.3436238 L51.2105745,26.3436238 L51.7399371,27.4233706 L52.7011984,27.4233706 L50.36111,22.7756818 L49.5680217,22.7756818 Z M49.0558586,25.5906677 C49.1944102,25.3097424 49.8890791,23.9318708 49.8890791,23.9318708 L49.9120118,23.8745392 L49.9483219,23.7952303 L49.9960983,23.903205 C49.9960983,23.903205 50.6926783,25.3097424 50.8283633,25.5906677 L49.0558586,25.5906677 Z M112.177091,22.6696182 C110.812597,22.6696182 109.435681,23.4397739 109.435681,25.1597245 C109.435681,26.1658956 109.942111,26.7353904 110.364454,27.0354262 C110.832663,27.3727276 111.454712,27.5475893 112.217223,27.5475893 C113.571207,27.5475893 114.94239,26.808966 114.94239,25.1664132 C114.94239,23.6805669 113.827288,22.6810845 112.177091,22.6696182 L112.177091,22.6696182 Z M112.217223,26.7659673 C111.503444,26.7659673 110.971215,26.5643508 110.63678,26.1658956 C110.330055,25.8152168 110.282279,25.3613409 110.282279,25.1215034 C110.282279,23.92136 111.225385,23.4732173 112.110204,23.445507 C112.746586,23.427352 113.291237,23.6146355 113.646693,23.9691364 C113.937174,24.2529283 114.090059,24.6418282 114.090059,25.1014373 C114.090059,25.6030895 113.909464,26.7659673 112.217223,26.7659673 L112.217223,26.7659673 Z M51.9998407,16.580993 L48.2006609,16.580993 C48.3927221,16.3134451 48.5159852,15.9847434 48.5159852,15.5843771 C48.5159852,14.5533623 47.7458295,13.8854481 46.5647968,13.8854481 L44.4779233,13.8854481 L44.4779233,16.580993 L39.3218935,16.580993 L39.3218935,13.8854481 L37.2417088,13.8854481 C36.0597205,13.8854481 35.2943425,14.5533623 35.2943425,15.5843771 C35.2943425,16.7290998 36.2747143,17.3368157 37.1843771,17.3368157 L38.4609627,17.3368157 C38.4628738,17.5919417 38.4924951,17.8556675 38.0825736,18.0181073 C37.8819126,18.1002827 37.6535414,18.1356372 37.3401282,18.1356372 L35.890592,18.1356372 L35.890592,18.8713939 L37.366883,18.8713939 C37.9258669,18.858972 38.6386909,18.7490863 39.031413,18.3133654 C39.2894056,18.0123741 39.3094717,17.6607397 39.3094717,17.3368157 L52.8665048,17.3368157 L52.8665048,12.6891269 L51.9998407,12.6891269 L51.9998407,16.580993 Z M38.4561851,16.580993 L37.299996,16.580993 C36.6053271,16.580993 36.1552733,16.1500498 36.1552733,15.5795995 C36.1552733,14.8772863 36.7467452,14.5973166 37.299996,14.5973166 L38.4561851,14.5973166 L38.4561851,16.580993 Z M46.5026874,16.580993 L45.3445873,16.580993 L45.3445873,14.5973166 L46.5026874,14.5973166 C47.0626269,14.5973166 47.6512322,14.8772863 47.6512322,15.5795995 C47.6512322,16.1500498 47.1983119,16.580993 46.5026874,16.580993 L46.5026874,16.580993 Z M120.516941,24.1955966 C120.516941,23.6270574 120.253215,23.3069554 120.085998,23.1636262 C119.685631,22.7919258 119.190668,22.7909703 118.802723,22.781415 L115.726878,22.781415 L115.726878,27.4233706 L116.573476,27.4233706 L116.573476,25.6594657 L118.503643,25.6594657 L119.97229,27.4233706 L121.079747,27.4233706 C121.079747,27.4233706 119.637855,25.7435522 119.437194,25.5037146 C120.143329,25.3278974 120.516941,24.8969543 120.516941,24.1955966 L120.516941,24.1955966 Z M116.494167,24.9103316 L116.494167,23.5477485 L118.766413,23.5477485 C119.045427,23.5515706 119.300553,23.5611259 119.460127,23.8124298 L119.567146,24.2213959 L119.445794,24.6217622 C119.227933,24.9103316 118.818967,24.9103316 118.523709,24.9103316 L116.494167,24.9103316 Z M98.6410797,17.3377712 L99.499144,17.3377712 L99.499144,12.6891269 L98.6410797,12.6891269 L98.6410797,17.3377712 Z M60.7505673,17.2527292 C61.4127483,17.2527292 61.7911375,17.0434686 62.065374,16.8523629 L62.065374,17.3100609 C62.065374,17.5766533 62.0682406,17.8499343 61.6487638,18.0181073 C61.4490584,18.1002827 61.2187761,18.1356372 60.9044074,18.1356372 L59.5064697,18.1356372 L59.5064697,18.8713939 L60.9846717,18.8713939 C61.5493889,18.858972 62.2564797,18.7490863 62.6511128,18.3133654 C62.9263049,17.9932635 62.9263049,17.6072302 62.9263049,17.2641956 L62.9263049,13.8854481 L60.8040769,13.8854481 C59.4271609,13.8854481 58.8395111,14.5533623 58.8395111,15.5843771 C58.8395111,16.7290998 59.6411992,17.2527292 60.7505673,17.2527292 L60.7505673,17.2527292 Z M60.8700084,14.5973166 L62.065374,14.5973166 L62.065374,15.5671776 C62.065374,16.0449417 61.640164,16.5179281 60.8700084,16.5179281 C60.1667397,16.5179281 59.7157304,16.1500498 59.7157304,15.5795995 C59.7157304,14.8772863 60.3072023,14.5973166 60.8700084,14.5973166 L60.8700084,14.5973166 Z" id="Fill-39" fill="#000000"></path>
            <path d="M245.805024,24.9402397 C234.89576,15.1709201 223.845077,7.11581797 211.676426,0 C181.26961,11.3707847 144.620329,30.2558427 112.346411,48 C164.416961,33.4874388 201.170395,28.9553689 245.805024,24.9402397 Z M207.479556,12.829494 L207.479556,15.3683322 L201.739698,15.3683322 L201.739698,27.5474937 L198.351395,27.5474937 L198.351395,15.3683322 L192.633515,15.3683322 L192.633515,12.829494 L207.479556,12.829494 Z M216.418521,12.829494 L223.373811,27.1041287 C222.16889,27.2293029 220.96588,27.3611657 219.764781,27.488251 L219.764781,27.488251 L218.139427,23.9499303 L210.224788,23.9499303 L208.558347,27.5474937 L204.961739,27.5474937 L212.333639,12.829494 L216.418521,12.829494 Z M185.357168,12.829494 C186.602222,12.8533822 188.026914,12.8810925 189.332165,14.0143488 C189.852928,14.4472031 190.726281,15.4419079 190.726281,17.195302 C190.726281,19.2028666 189.564359,20.6170482 187.58546,21.1244337 C188.674762,22.8759167 190.712904,26.4228371 191.347374,27.5474937 L191.347374,27.5474937 L187.366644,27.5474937 C187.114732,27.0586108 186.648024,26.1539073 186.142491,25.1821115 L185.887304,24.692237 L185.887304,24.692237 L185.630535,24.2008675 C184.905396,22.8156842 184.220061,21.5291432 184.07485,21.3327388 L184.07485,21.3327388 L180.890074,21.3327388 L180.890074,27.5474937 L177.548593,27.5474937 L177.548593,14.4949795 C178.74778,13.9369511 179.953657,13.3779671 181.154756,12.829494 L181.154756,12.829494 Z M214.35267,15.530772 L211.452642,21.3948481 L216.977505,21.3948481 L214.35267,15.530772 Z M185.076243,15.2039814 L180.890074,15.2039814 L180.890074,18.9811841 L184.458016,18.9811841 C185.357168,18.9811841 186.448382,18.9811841 187.083808,18.1785404 C187.323645,17.8746825 187.444042,17.5068042 187.444042,17.0768165 C187.444042,16.6487399 187.330334,16.2474181 187.113429,15.939738 C186.68153,15.2794681 186.026994,15.2183143 185.076243,15.2039814 L185.076243,15.2039814 Z" id="Fill-37" fill="#EE0000"></path>
        </g>
    </g>
</svg>